<svg xmlns="http://www.w3.org/2000/svg" width="291.057" height="494.883" viewBox="0 0 291.057 494.883">
  <g id="contents1" transform="translate(-1010.455 -1754)">
    <g id="キャベツ" transform="translate(1234.415 1119.104)" opacity="0.1">
      <path id="パス_249" data-name="パス 249" d="M-133.26,638.293l2.569-1.892a4.41,4.41,0,0,1,2.249.805c3.2,3.446,7.766,3.836,11.856,5.294,3.061,3.248,7.363,3.1,11.239,4.1,3.971.545,7.829,1.729,11.828,2.147a3.758,3.758,0,0,1,1.795,3.042l2.16,1.7c-.015,3.068,1.949,4.8,4.257,6.3,3,2.365,6.423,2.366,9.935,1.777,1.53,1.979,2.981.932,4.445-.153a2.465,2.465,0,0,1,1.882,1.316c.824,3.442-1.612,7.729,2.685,10.255.541,1.415.331,3.258,2.219,3.908,3.669,5.7,12.3,9.61,6.758,18.648-1.033,2.067-.241,4.406-.962,6.519-3.987,1.233-7.283-1.752-11.066-1.8a10.378,10.378,0,0,1-4.974-3.8,138.675,138.675,0,0,0-12.553-12.768,19.713,19.713,0,0,0-7.948-4.255,8.487,8.487,0,0,1-2.018-1.181c-3.911-3.431-8.728-5.241-13.327-7.439a21.118,21.118,0,0,0-9.3-2.171,7.712,7.712,0,0,1-2.343-.718c-7.214-2.119-14.449-5.985-21.5.392a10.226,10.226,0,0,1-4.28,2.325c-4.262.535-8.609.5-12.762,1.815a41.576,41.576,0,0,0-5.313,1.793,22.458,22.458,0,0,0-4.678,2.927c-.56.5-1.147.964-1.729,1.434a11.251,11.251,0,0,0-4.223,6.406,5.36,5.36,0,0,1-1.2,1.927c-2.41,1.832-4.552,3.879-5.513,6.883a10.285,10.285,0,0,1-1.214,1.987c-2.5,2.495-4.072,5.636-5.9,8.587-1.516,2.3-1.5,4.994-1.97,7.565a19.732,19.732,0,0,1-.574,2.216,11.677,11.677,0,0,0,.246,7.795,15.225,15.225,0,0,1,.537,2.333,16.383,16.383,0,0,1,.112,3.65c-.956,4.015-.694,8.224-1.911,12.209-.522,1.256-1.188,2.369-2.666,2.664-1.862-.77-2.477-2.425-2.986-4.158-.67-9.362.23-18.9-3.037-27.881-1.441,3.808-3.166,6.5-6.418,1.5-3.222-4.957-1.159-12.505-8.433-15.835-1.644-.753.031-5.875,2.329-7.872,3.412-2.965,5.94.483,8.664,1.988a5.835,5.835,0,0,1,1.36,3.4,17.283,17.283,0,0,1-.551,4.179c-.253,1.181-.31-.355-.089.822.149.79.653.708.8-.187.705-2.313.031-4.577.109-6.831a20.772,20.772,0,0,1,.254-8.978,23.709,23.709,0,0,1,5.643-8.844,32.5,32.5,0,0,1,8.237-5.935c3.669-1.773,7.352-3.527,10.933-5.49q2.772-1.417,5.59-2.741a21.378,21.378,0,0,1,7.319-1.881c4.078-.252,7.949-1.478,11.838-2.585a15.826,15.826,0,0,0,4.135-2.234c3.114-2.554,5.775-5.57,8.631-8.384,2.469-2.067,4.123-4.9,6.538-7.022A2.67,2.67,0,0,1-133.26,638.293Z" transform="translate(2.208 0.552)" fill="#8ddba7"/>
      <path id="パス_250" data-name="パス 250" d="M-131.052,638.827l-2.225.185a29.083,29.083,0,0,1-5.341,6.175c-3.188,3-5.931,6.452-9.423,9.138-1.8.946-3.854,1.346-5.562,2.507a68.918,68.918,0,0,1-12.1,2.735c-1.568.422-3.252.286-4.767.972a69.527,69.527,0,0,0-7.643,3.424c-3.453,1.917-7.021,3.608-10.6,5.278-2.761,1.446-5.044,3.6-7.687,5.222-1.5,2.681-3.7,4.892-5.1,7.632a3.519,3.519,0,0,1-1.448,1.545c-1.963,1.892-.406,4.116-.555,6.183a2.606,2.606,0,0,1-1.111,2c-3.126.511-8.8-5.251-8.6,3.5a10.788,10.788,0,0,1-.435,2.273c11.215.5,4.182,12.05,10.477,16.062,1.841-1.781-.446-5.557,2.223-7.263,4.488,6.362,3.134,13.823,3.938,20.874.008,3.43-.018,6.866.02,10.3-.418,1.732,1.362,3.709-.58,5.277-15.771,5.942-22.171,1.8-25.1-14.554-2.828-15.767-.943-30.739,4.645-45.463,10.817-28.5,32.147-42.169,61.987-43.667,5.5-.276,10.95-1.091,15.9-3.353C-135.741,633.809-133.291,635.479-131.052,638.827Z" transform="translate(0 0.018)" fill="#8ddba7"/>
      <path id="パス_251" data-name="パス 251" d="M-157.5,743.881c-1.67-.115-3.2-.491-4-2.191-1.789-4.713,1.978-4.861,4.722-5.421,3.813-.778,7.759-.137,11.614-.556,7.384-.8,9.293-3.9,6.787-10.911-.89-2.489-2.716-4.713-1.927-7.622,4.609-5.689,12.154-6.322,17.757-10.307,4.307,1.882,3.3,5.972,3.732,9.354.781,6.06,1.918,11.886,6.948,16.081,1.135,6.988-3.814,8.633-8.918,10.139-2.626.748-4.973,2.251-7.65,2.871a96.022,96.022,0,0,1-11.649,2.893c-3.113.179-6.227.1-9.342.059A17.131,17.131,0,0,1-157.5,743.881Z" transform="translate(22.75 26.414)" fill="#f7f8f7"/>
      <path id="パス_252" data-name="パス 252" d="M-136.3,714.393c.848,1.568,1.623,3.181,2.555,4.7,6.5,10.572,3.42,16.18-8.765,17.075-5.244.385-11.413-2.595-15.651,3.141l-.83-.126-.834.093c-3.475-2.008-8.44-1.334-10.538-5.842a11.018,11.018,0,0,1,.252-8.433c9.4-8.179,20.778-10.818,32.8-11.633C-136.969,713.705-136.634,714.05-136.3,714.393Z" transform="translate(19.407 28.797)" fill="#a4d664"/>
      <path id="パス_253" data-name="パス 253" d="M-109.688,681.942c3.967.153,8.466-1.405,10.986,3.409,1.489.972,1.446,2.682,1.988,4.109.994,7.058,4.028,14.285-1.727,20.781l-.092,3.009c-2.713,1.914-2.923,5.847-6.02,7.456-1.977-.647-2.463-2.254-2.655-4.061a12.325,12.325,0,0,1,.227-2.625c1.252-4.616.709-9.341.77-14.017a15.82,15.82,0,0,0-3.267-9.782,6.206,6.206,0,0,1-.735-2.286C-110.136,685.93-110.946,683.842-109.688,681.942Z" transform="translate(41.674 17.22)" fill="#e6e7e6"/>
      <path id="パス_254" data-name="パス 254" d="M-101.452,714.068c2.5,6.363,2.879,12.687-2.537,17.623-5.46,4.979-11.685,3.608-17.7.588.216-2.081,1.632-3.34,3.1-4.56a14.687,14.687,0,0,0,4.79-4.4,14.953,14.953,0,0,1,1.467-1.772C-108.746,718.992-107.551,712.949-101.452,714.068Z" transform="translate(37.531 29.005)" fill="#87cf71"/>
      <path id="パス_255" data-name="パス 255" d="M-201.7,715.845l.444-3.6c1.557-1.5,3.137-2.949,5.467-3.083,3.039.565,4.056,3.1,5.316,5.416a13.792,13.792,0,0,1,1.542,5.126c-.044,2.474-.9,4.469-3.292,5.549-1.372.358-2.7.476-3.75-.756-1.394-2.667-4.9-3.724-5.39-7.082q-.874-.361-.733-.94Q-201.943,715.844-201.7,715.845Z" transform="translate(8.016 27.256)" fill="#e2e4e1"/>
      <path id="パス_256" data-name="パス 256" d="M-113.83,726.588l-3.959,3.4c-4.909,1.793-6.726,8.226-12.681,8.448a2.613,2.613,0,0,1-1.851-1.409c3.009-2.924,8.883-2.9,9.019-8.777-1.325-3.483.671-5.67,3.01-7.728a3.363,3.363,0,0,1,3.551.413,12.051,12.051,0,0,1,3.471,3.482A2.032,2.032,0,0,1-113.83,726.588Z" transform="translate(33.63 31.298)" fill="#0f130f"/>
      <path id="パス_257" data-name="パス 257" d="M-165.023,724.491q.07,4.366.138,8.731c.262,3.5-1.614,3.251-3.926,2.238l-.715.189-.726-.148c-3.654-2.3-8.794-1.531-11.592-5.606a2.8,2.8,0,0,1,1.981-2.96c7.055,1.6,9.967-1.411,9.282-8.4.491-1.754,1.143-3.361,3.281-3.617,1.784.943,2.186,2.7,2.625,4.432A8.457,8.457,0,0,1-165.023,724.491Z" transform="translate(15.451 29.365)" fill="#10160c"/>
      <path id="パス_258" data-name="パス 258" d="M-173.505,727q-1.068.773-2.138,1.543c-4.57,2.149-7.341-2.413-11.178-3-3.927-.488-8.026-.524-10.8-4.067l3.956-.083a37.276,37.276,0,0,0,5.908-3.294,4.579,4.579,0,0,1,2.268-.7C-180.668,719.567-175.291,721.048-173.505,727Z" transform="translate(9.665 30.277)" fill="#181f10"/>
      <path id="パス_259" data-name="パス 259" d="M-103.78,716.746c-4.98,1.641-6.4,7.493-11.137,9.419-2.156-7.416,4.439-11.777,6.21-17.828,1.446-1.366,2.894-2.8,4.7-.463-.417,1.62-.005,2.757,1.8,3.083a1.049,1.049,0,0,1,1.8.077Q-102.09,713.888-103.78,716.746Z" transform="translate(39.859 26.326)" fill="#172016"/>
      <path id="パス_260" data-name="パス 260" d="M-189.721,723.47c4.436-1.643,7.431,2.078,11.178,3,3.672,2.111,8.18,2.675,11.175,6.043A27.076,27.076,0,0,1-189.721,723.47Z" transform="translate(12.565 32.353)" fill="#93bc5c"/>
      <path id="パス_261" data-name="パス 261" d="M-99.809,684.182c2.234-5.025,1.485-9.293-3.007-12.795-1.66-1.293-3.237-2.849-2.573-5.363,10.843,6.479,12.2,10.281,7.141,19.951A3.2,3.2,0,0,1-99.809,684.182Z" transform="translate(43.456 11.424)" fill="#272d29"/>
      <path id="パス_262" data-name="パス 262" d="M-101.651,708.727c3.408-6.953,1.809-14.031.534-21.1a2.286,2.286,0,0,1,1.356-1.681C-97.9,693.745-92.07,701.876-101.651,708.727Z" transform="translate(44.885 18.734)" fill="#070707"/>
      <path id="パス_263" data-name="パス 263" d="M-105.243,656.484a5.082,5.082,0,0,0-1.355.146c-1.448.951-2.806-.217-4.217-.178-4.355,3.521-7.788,1.29-11.085-1.78.272-1.173,1.372-1.336,2.213-1.815,2.584.954,4.875,2.875,7.931.418,2.388-1.922,4.9-.72,6.738,1.6q.757.652.4,1.15Q-104.936,656.483-105.243,656.484Z" transform="translate(37.454 6.394)" fill="#1e2b23"/>
      <path id="パス_264" data-name="パス 264" d="M-140.64,643.852a20,20,0,0,1-12.945-4.675c3.711-3.894,7.717-2.887,11.793-.709a1.783,1.783,0,0,1,1.307.126C-140.605,640.344-140.228,642.11-140.64,643.852Z" transform="translate(25.826 0.605)" fill="#eff0ee"/>
      <path id="パス_265" data-name="パス 265" d="M-143.76,643.3c-.323-1.763-2.9-3.594.154-5.259,2.417,5.36,8.255,4.812,12.4,7.181.41.585.325,1.051-.335,1.378C-136.321,648.13-140.365,646.92-143.76,643.3Z" transform="translate(28.946 1.155)" fill="#272a2a"/>
      <path id="パス_266" data-name="パス 266" d="M-122.527,650.029l-2.053-2.353c-2.987-2.1-8.325-.182-9.425-5.509C-125.494,639.6-121.848,642.1-122.527,650.029Z" transform="translate(33.011 2.313)" fill="#101111"/>
      <path id="パス_267" data-name="パス 267" d="M-133.578,641.907c2.29,3.293,8.624-.338,9.424,5.508-4.346,2.582-7.7.246-11.019-2.232a2.963,2.963,0,0,1,.335-1.377Z" transform="translate(32.583 2.573)" fill="#deece2"/>
      <path id="パス_268" data-name="パス 268" d="M-141.6,639.072c-3.93.245-7.963-1.2-11.793.709q-.361-1.415-.723-2.828C-149.38,634.334-144.935,633.424-141.6,639.072Z" transform="translate(25.632)" fill="#444"/>
      <path id="パス_269" data-name="パス 269" d="M-172.313,730.545c1.636-.171,3.151-.556,3.926-2.238,2.391,2.838,7.6,1.053,9.017,5.486C-164.345,735.341-168.243,732.6-172.313,730.545Z" transform="translate(18.953 34.28)" fill="#14180f"/>
      <path id="パス_270" data-name="パス 270" d="M-145.7,737.354l11.2-3.315a3.82,3.82,0,0,1,1.885,1.688c-2.726,2.273-6.083,2.692-9.408,3.208C-143.076,738.01-144.865,738.8-145.7,737.354Z" transform="translate(28.722 36.384)" fill="#363636"/>
      <path id="パス_271" data-name="パス 271" d="M-142.348,736.6q1.837.79,3.673,1.582c-5.374,1.114-10.743,1.88-16.1-.1-.211-1.692.32-2.451,2.086-1.654Z" transform="translate(25.374 37.142)" fill="#040304"/>
      <path id="パス_272" data-name="パス 272" d="M-109.6,655.8a2.255,2.255,0,0,0,.226-1.608c4.731,3.089-.168,8.858,3.413,12.267C-113.244,664.974-108.219,659.293-109.6,655.8Z" transform="translate(41.813 7.081)" fill="#0b0b0a"/>
      <path id="パス_273" data-name="パス 273" d="M-103.93,711.7l-1.8-.077c1.312-2.687.947-6.725,5.488-6.812A7.416,7.416,0,0,1-103.93,711.7Z" transform="translate(43.387 25.658)" fill="#393838"/>
      <path id="パス_274" data-name="パス 274" d="M-151.25,737.216l-2.086,1.654c-2.48-.886-5.791-.868-5.353-4.925A13.952,13.952,0,0,1-151.25,737.216Z" transform="translate(23.938 36.349)" fill="#2f2f30"/>
      <path id="パス_275" data-name="パス 275" d="M-118.581,654.111l-2.213,1.815c-2.659-1.642-5.929-3.029-2.909-7.022Q-121.144,651.508-118.581,654.111Z" transform="translate(36.348 5.141)" fill="#1d231e"/>
      <path id="パス_276" data-name="パス 276" d="M-135.62,736.291q-.943-.843-1.885-1.688l7.086-2.1,1.851,1.409Z" transform="translate(31.727 35.82)" fill="#020202"/>
      <path id="パス_277" data-name="パス 277" d="M-99.69,688.381l-1.356,1.681q-.4-1.891-.8-3.785.338-3.488.674-6.97l1.561,1.794Z" transform="translate(44.815 16.298)" fill="#020102"/>
      <path id="パス_278" data-name="パス 278" d="M-200.568,715.354a8.961,8.961,0,0,0,.338,1.573c-2.316,1.528-3.2-.269-4.2-1.807l-.771-3.7a1.311,1.311,0,0,1,1.422-.908,1.25,1.25,0,0,1,1.344,1Z" transform="translate(6.882 27.747)" fill="#131c16"/>
      <path id="パス_279" data-name="パス 279" d="M-137.717,660.254h.514c3.665-.294,6.779,1.405,9.99,2.757,5.289,2.033,10.526,4.161,14.694,8.2l-.2-.149a26.323,26.323,0,0,1,8.231,4.963,67.126,67.126,0,0,1,12.718,11.714c1.45,3.087,3.875,5.8,3.588,9.542-3.743,4.731-7.108,1.273-9.961-.893-4.541-3.449-8.441-7.665-14.8-7.815-2.519-.059-3.953-2.436-5.549-4.279-13.146-15.185-21.935-17.161-40.517-9.278-3,1.273-5.812,3.345-9.384,2.455-5.467-5.025-.4-8.851,1.478-13.051a4.654,4.654,0,0,1,1.567-1.781l3.476-2.592C-153.763,653.914-145.744,657.52-137.717,660.254Z" transform="translate(19.49 7.995)" fill="#f9faf9"/>
      <path id="パス_280" data-name="パス 280" d="M-191.348,685.147a1.336,1.336,0,0,0,.239-1.6c2.109-2.861,4.083-5.853,7.354-7.589l-.1.138a19.989,19.989,0,0,1,5.561-9.291l-.2.133a17.819,17.819,0,0,1,9.44-3.676c9.941-.107,9.941-.107,8.8,9.834a7.407,7.407,0,0,1-.611,2.816c-2.683,3.731-6.2,5.651-10.9,4.984-.614-.182-1.129-.966-1.386-.939-.719.078-.185.75-.127,1.107a10.069,10.069,0,0,1-.331,4.5c-2.979,6.365-4.45,13.3-7.353,19.694-5.766,3.706-9.42,10.047-15.934,12.836-2.143-2.03-1.07-5.256-2.785-7.447a9.375,9.375,0,0,1-.083-5.324c1.885-2.723.924-6.031,1.811-8.962C-195.548,692.738-194.192,688.5-191.348,685.147Z" transform="translate(8.756 10.402)" fill="#fafafa"/>
      <path id="パス_281" data-name="パス 281" d="M-168.612,675.035c-1.095-2.942.021-5.714.85-8.839l-8.832-.707c-1.122-.977-3.083-.078-3.9-1.742,1.66-1.71,3.945-1.355,5.983-1.817,4.219-.794,8.434-1.389,12.635.093.306,1.319,3.087,2.578-.269,3.93-4.232,1.706-3.751,5.551-3.422,9.164a1.352,1.352,0,0,1-.414,2.041A2.427,2.427,0,0,1-168.612,675.035Z" transform="translate(15.952 9.622)" fill="#2f3230"/>
      <path id="パス_282" data-name="パス 282" d="M-201.739,720.053l-1.824-.154c-1.31-3.465.44-7.26-1.15-10.7.3-7.449-.942-14.729-2.4-21.987,3.841.7,3.684.718,4.146,4.352A183,183,0,0,1-201.739,720.053Z" transform="translate(6.182 19.2)" fill="#1e2d22"/>
      <path id="パス_283" data-name="パス 283" d="M-140.1,660.621c-8.042-.778-16.077-2.4-24.146-.205-.671-3.586,2.065-3.964,4.325-4.067C-152.98,656.037-145.485,653.579-140.1,660.621Z" transform="translate(21.875 7.628)" fill="#1c2a20"/>
      <path id="パス_284" data-name="パス 284" d="M-198.217,697.547l2,8.035c3.464,4.026,6.622,8.175,5.644,13.994a1.494,1.494,0,0,1-2.2.273q-1.909-2.807-3.819-5.614c-3.968-2.154-2.22-6.381-3.453-9.528l.12-3.169C-199.059,700.336-200.011,698.353-198.217,697.547Z" transform="translate(8.775 22.992)" fill="#141710"/>
      <path id="パス_285" data-name="パス 285" d="M-110.737,682.706l-12.124-11.219q-.621-1.216.731-1.021c6.665,1.546,10.474,6.246,13.288,12.04C-109.383,683.424-110.011,683.535-110.737,682.706Z" transform="translate(37.03 13.044)" fill="#152419"/>
      <path id="パス_286" data-name="パス 286" d="M-124.1,669.773l-14.636-7.485q-.705-.547-.488-1.113t.45-.571C-132.945,662.15-126.716,663.066-124.1,669.773Z" transform="translate(31.076 9.434)" fill="#242c25"/>
      <path id="パス_287" data-name="パス 287" d="M-209.614,679.017l-.051-1.93c-.349-2.258-1.588-4.626.809-6.545l2.559-.559-.108-.149.533,11.112c-.589.808-.9,1.829-1.825,2.38a1.174,1.174,0,0,1-1.5-.854Z" transform="translate(5.014 12.822)" fill="#24382a"/>
      <path id="パス_288" data-name="パス 288" d="M-181.977,653.173q6.648-1.663,13.3-3.323a2.461,2.461,0,0,1,2.086,2.015c-3.949,2.815-8.553,2.858-13.111,3.1C-180.569,654.5-181.725,654.412-181.977,653.173Z" transform="translate(15.407 5.488)" fill="#151e18"/>
      <path id="パス_289" data-name="パス 289" d="M-198.843,660.774a32.776,32.776,0,0,1,11.026-5.3,2.827,2.827,0,0,1,1.876,1.6l-10.9,5.46C-198.851,663.474-199.079,662.387-198.843,660.774Z" transform="translate(9.19 7.553)" fill="#1c2d22"/>
      <path id="パス_290" data-name="パス 290" d="M-199.521,702.785q1.729,4.765,3.454,9.529-2.713,1.134-5.423,2.273Q-200.5,708.688-199.521,702.785Z" transform="translate(8.246 24.914)" fill="#86cd9f"/>
      <path id="パス_291" data-name="パス 291" d="M-196.352,688.166l-1.907,9.145a2.24,2.24,0,0,1-1.758-2.138c.492-3.125-.93-6.533,1.393-9.386C-196.765,685.528-195.736,686.061-196.352,688.166Z" transform="translate(8.786 18.654)" fill="#060206"/>
      <path id="パス_292" data-name="パス 292" d="M-196.726,690.537-199,688.158c2.2-3.14,2-8.235,7.246-8.892C-192.141,683.581-194.751,686.92-196.726,690.537Z" transform="translate(9.16 16.283)" fill="#3b443e"/>
      <path id="パス_293" data-name="パス 293" d="M-114.044,679.466l1.9-.2,3.8,3.61c-.584,2.034,3.927,4.007.074,6.082l-1.039-.193Z" transform="translate(40.337 16.284)" fill="#262526"/>
      <path id="パス_294" data-name="パス 294" d="M-207.4,672.082l.105.148c-1.18-4.916,1.361-7.33,5.728-8.52l.161.517C-202.647,667.422-203.91,670.6-207.4,672.082Z" transform="translate(6.01 10.574)" fill="#223629"/>
      <path id="パス_295" data-name="パス 295" d="M-168.192,650.441l9.021-9.147a1.548,1.548,0,0,1,.235,2.511,24.494,24.494,0,0,1-9.112,9.1A1.4,1.4,0,0,1-168.192,650.441Z" transform="translate(20.222 2.348)" fill="#111c14"/>
      <path id="パス_296" data-name="パス 296" d="M-136.227,661.451q.045.841.038,1.684a19.6,19.6,0,0,1-10.047-3.474C-142.279,656.785-139.225,658.961-136.227,661.451Z" transform="translate(28.523 8.587)" fill="#28322c"/>
      <path id="パス_297" data-name="パス 297" d="M-182.434,665.847c-.51,3.9-3.143,6.533-5.562,9.291C-190.581,669.385-186.5,667.621-182.434,665.847Z" transform="translate(12.901 11.359)" fill="#333b36"/>
      <path id="パス_298" data-name="パス 298" d="M-120.2,671.778a9.174,9.174,0,0,1-.731,1.021,13.336,13.336,0,0,1-7.394-5.473C-124.125,666.095-121.229,667.236-120.2,671.778Z" transform="translate(35.097 11.732)" fill="#2c4135"/>
      <path id="パス_299" data-name="パス 299" d="M-186.167,672.561c-2.056,2.913-3.177,6.734-7.356,7.589C-192.539,676.2-191.906,671.9-186.167,672.561Z" transform="translate(11.169 13.798)" fill="#2a2f2b"/>
      <path id="パス_300" data-name="パス 300" d="M-163.48,662.37l-12.635-.093a13.426,13.426,0,0,1,12.706-.919A4.115,4.115,0,0,1-163.48,662.37Z" transform="translate(17.558 9.276)" fill="#e6f3ea"/>
      <path id="パス_301" data-name="パス 301" d="M-203.019,665.825l-.164-.518c-.144-4.078,3.452-4.451,5.907-5.955l2,1.761C-197.77,662.827-199.642,665.561-203.019,665.825Z" transform="translate(7.623 8.975)" fill="#23362a"/>
      <path id="パス_302" data-name="パス 302" d="M-209.1,679.079q.7.308,1.434.548c1.839,1.55,1.716,3.232.336,5-.407.779.1,3.188-1.612,1.8C-211.438,684.394-210.638,681.579-209.1,679.079Z" transform="translate(4.923 16.214)" fill="#8ddba7"/>
      <path id="パス_303" data-name="パス 303" d="M-188.921,658.029l-1.876-1.6,7.14-3.554a1.713,1.713,0,0,1,0,2.871Z" transform="translate(12.17 6.599)" fill="#010000"/>
      <path id="パス_304" data-name="パス 304" d="M-179.1,663.042l3.9,1.742-9.092,2.225C-183.508,664.449-181.91,662.95-179.1,663.042Z" transform="translate(14.557 10.328)" fill="#131312"/>
      <path id="パス_305" data-name="パス 305" d="M-113.791,655.547c1.467-1.476,2.83-.451,4.214.175-.563,1.338.835,3.967-1.743,3.843C-113.116,659.479-113.6,657.309-113.791,655.547Z" transform="translate(40.43 7.3)" fill="#d8e0da"/>
      <path id="パス_306" data-name="パス 306" d="M-166.946,647.986l.144,2.462-3.361,2.1-2.086-2.015C-171.284,648.017-168.286,649.728-166.946,647.986Z" transform="translate(18.976 4.804)" fill="#050007"/>
      <path id="パス_307" data-name="パス 307" d="M-161.536,645.045q-.117-1.253-.234-2.51,2.834-2.309,5.67-4.615C-154.746,642.71-159.286,643-161.536,645.045Z" transform="translate(22.822 1.11)" fill="#111c18"/>
      <path id="パス_308" data-name="パス 308" d="M-208.1,685.034l-.336-5,1.888-2.074C-207.962,680.124-200.863,684.153-208.1,685.034Z" transform="translate(5.695 15.805)" fill="#060402"/>
      <path id="パス_309" data-name="パス 309" d="M-199.68,692.689q.88,1.068,1.758,2.138l.03,4.574q-.855,2-1.711,3.992l-.656-1.744a15.936,15.936,0,0,1-.008-9.155Z" transform="translate(8.449 21.138)" fill="#020402"/>
      <path id="パス_310" data-name="パス 310" d="M-200,692.494l.008,9.155C-202.295,698.6-202.185,695.548-200,692.494Z" transform="translate(8.177 21.138)" fill="#86cd9f"/>
      <path id="パス_311" data-name="パス 311" d="M-185.574,655.966V653.1l4.917-.815,2.272,1.795Z" transform="translate(14.087 6.38)" fill="#040806"/>
      <path id="パス_312" data-name="パス 312" d="M-205.357,703.3c2.506,3.338,1,7.108,1.154,10.7a6.808,6.808,0,0,0-.946.063Q-205.252,708.679-205.357,703.3Z" transform="translate(6.827 25.103)" fill="#050504"/>
      <path id="パス_313" data-name="パス 313" d="M-208.549,670.352q-.406,3.273-.809,6.545C-210.676,674.519-212.945,672.024-208.549,670.352Z" transform="translate(4.708 13.012)" fill="#94e6b3"/>
      <path id="パス_314" data-name="パス 314" d="M-106.114,734.153l-4.331,7.44c-5.056-.015-5.959-3.519-7.331-7.54-2.034-5.965.293-12.732-3.75-18.182-5.051,4.562-11.306,6.391-17.737,7.827a7.646,7.646,0,0,1-3.886.288c-4.3-4.044-10.735-5.74-13.138-11.889,4.085-4.768,10.287-5.631,15.465-8.363,2.086-.752,3.933-2.037,5.9-2.78-.414-.286-.567.2-.867.2a41.766,41.766,0,0,1-6.348,2.858c-5.662,2.41-10.906,5.877-17.2,6.652-3.353-.129-6.44-.763-7.935-4.307a5.7,5.7,0,0,1,.726-3.755c2.228-4.227,4.678-8.415,2.641-13.5,1.173-5.685,4.661-6.242,9.326-4.228a62.676,62.676,0,0,0,8.242,3.354,20.963,20.963,0,0,0,9.939,1.44c3.766-.248,7.389-1.963,11.257-1.147a9.756,9.756,0,0,1,2.329.782c2.8,1.632,4.25,4.62,6.65,6.665.607.488,1.17,1.02,1.725,1.561,1.907,2.1,4.421,3.126,7.04,3.983a25.133,25.133,0,0,1,7.722,4.552c4.776,4.291,4.645,9.412,2.528,14.871a48.633,48.633,0,0,1-2.578,5.881C-101.289,729.745-102.9,732.652-106.114,734.153Z" transform="translate(20.773 17.949)" fill="#8cda74"/>
      <path id="パス_315" data-name="パス 315" d="M-147.349,714.056l18.482-6.793c-3.033,7.163-10.612,6.5-16.139,9.369l-.079-.682C-145.921,715.414-147.129,715.325-147.349,714.056Z" transform="translate(28.115 26.558)" fill="#273024"/>
      <path id="パス_316" data-name="パス 316" d="M-138.75,712.284q1.134.947,2.265,1.893c-10.974,3.479-22.365,5.758-32.6,11.35l-1.694-4.041c8.769-5.814,17.891-10.516,28.932-9.16Z" transform="translate(19.515 28.329)" fill="#1b2311"/>
      <path id="パス_317" data-name="パス 317" d="M-114.865,704.379q-.826.031-1.654.041c-1.038-3.04-2.253-5.948-5.508-7.319l.152.12c-4.713-4.28-8.977-.13-13.421.719-3.439.545-6.519-.879-9.7-1.747-7.573-1.755-12.893-8.165-20.475-9.9a7.449,7.449,0,0,1-2.049-1.232c-.9-3.208-3.933-5.95-2.182-9.758a3.917,3.917,0,0,1,.372-1.651c3.886-1.646,7.766-3.311,11.66-4.939,17.575-7.349,30.414-3.543,41.513,12.306.343.489.641,1.583.79,1.553,11.671-2.366,15.7,10.7,25.284,12.431.384.068.916-.682,1.383-1.044a.893.893,0,0,1,1.05.2,1.241,1.241,0,0,1,.284,1.635c3.937,3.348,3.17,8.347,4.433,12.628-.112,2.988.994,6.091-.807,8.921-.388,1.908-2.852-3.025-2.543.722.193,2.328-2.563,4.012-1.18,6.477-.6,6.415-6.337,10.605-7.312,16.863q-.023.841-.037,1.674a12.486,12.486,0,0,1-5.236,1.512c-1.493.063-3.329.849-3.583-1.7.381-3.314,2.728-5.637,4.221-8.392a35.844,35.844,0,0,0,2.455-6.766c2.281-5.722,2.618-11.059-3-15.223a15.881,15.881,0,0,0-7.5-3.806A22.838,22.838,0,0,1-114.865,704.379Z" transform="translate(19.716 11.089)" fill="#8ddb75"/>
      <path id="パス_318" data-name="パス 318" d="M-107.69,706.269c2.149-2.522,1.018-5.53,1.234-8.337-.433-1.759-1.646-3.856,1.72-3.971.625,5.7,1.6,11.432-1.475,16.81C-109.209,710.093-109.611,708.563-107.69,706.269Z" transform="translate(42.238 21.676)" fill="#11190f"/>
      <path id="パス_319" data-name="パス 319" d="M-104.462,696.313q-.861,1.985-1.72,3.97-1.716-6.367-3.43-12.732C-103.484,687.88-105.815,693.179-104.462,696.313Z" transform="translate(41.964 19.324)" fill="#2c312d"/>
      <path id="パス_320" data-name="パス 320" d="M-106.92,703.4c-.019,1.669-.595,3.52,1.479,4.5q-.057.88-.171,1.753a3.022,3.022,0,0,0-3.6,1.423c-4.223-3.389.506-6.181.618-9.283Z" transform="translate(41.468 24.549)" fill="#e4f1e0"/>
      <path id="パス_321" data-name="パス 321" d="M-118.888,723.854c1.333-1.934,2.887-3.1,5.236-1.512q-2.555,1.862-5.107,3.725Q-118.825,724.96-118.888,723.854Z" transform="translate(38.559 31.819)" fill="#0a000f"/>
      <path id="パス_322" data-name="パス 322" d="M-194.729,713.935l2.554-.272c3.147.843,5.765,2.068,4.433,6.142l-.353,2.029c-3.979,1.315-3.642-2.571-5.132-4.257Z" transform="translate(10.727 28.906)" fill="#1d2711"/>
      <path id="パス_323" data-name="パス 323" d="M-193.226,716.526l5.132,4.257c-1.979,1.973-4.331,1.308-6.638.935A6.4,6.4,0,0,0-193.226,716.526Z" transform="translate(10.726 29.957)" fill="#a8c482"/>
      <path id="パス_324" data-name="パス 324" d="M-116.339,716.932c-1.144,2.828-2.351,5.618-4.786,7.64l-1.431-1.871q2.413-3.843,4.825-7.688A2.36,2.36,0,0,1-116.339,716.932Z" transform="translate(37.213 29.402)" fill="#162114"/>
      <path id="パス_325" data-name="パス 325" d="M-186.819,727.143-191.252,721c-2.112-4.62-5.185-8.829-5.994-14,2.275-6.885,8.127-10.056,13.874-13.334,4.47-.042,8.9.559,13.368.75a5.7,5.7,0,0,1,2.182,1.288c1.707,2.554,1.765,5.776,3.422,8.354,1.8,3.155,3.674,6.288,2.794,10.174-.212,4.436-3.085,8.507-1.787,13.152-.364,3.843,1.685,7.714-.2,11.77l-10.047-3.445Z" transform="translate(9.803 21.567)" fill="#a4d563"/>
      <path id="パス_326" data-name="パス 326" d="M-141.338,715.755l-28.932,9.16q-.226-2.51-.45-5.02c-1.669-1.974-1.509-4.325-1.374-6.668.342-5.622,5.01-6.876,8.944-8.876a19.059,19.059,0,0,1,4.786-1.6c1.579.394,3.208.69,4.31,2.082C-150.357,709.1-143.983,710.258-141.338,715.755Z" transform="translate(19.005 24.901)" fill="#a3d663"/>
      <path id="パス_327" data-name="パス 327" d="M-170.151,710.432q0,3.748-.005,7.494l-1.874,4.156c-1.989-4.638-2.433-9.292-.111-13.965C-170.844,708.344-170.737,709.594-170.151,710.432Z" transform="translate(18.441 26.871)" fill="#263318"/>
      <path id="パス_328" data-name="パス 328" d="M-164.009,681.536c.421.034.845.048,1.267.041,7.039,3.5,6.158,8.181,1.988,13.353-4.886-.133-9.5,1.505-14.263,2.236-4.369-1.625-3.322-6-4.681-9.163a18.107,18.107,0,0,1-.576-2.621c.234-3.029-.547-6.1.355-9.111,4.037.169,7.208-2.124,10.62-3.732C-165.966,674.616-164.985,678.075-164.009,681.536Z" transform="translate(15.998 13.815)" fill="#8dda76"/>
      <path id="パス_329" data-name="パス 329" d="M-176.023,682.6l.159,2.253c.319,4.258.493,8.551,2.878,12.33a4.992,4.992,0,0,1-.213,3.535c-4.854,1.25-9.65,2.018-13.9-1.706,1.319-7.064,3.344-13.867,7.438-19.9C-177.963,679.771-177.3,681.507-176.023,682.6Z" transform="translate(13.528 16.227)" fill="#89d273"/>
      <path id="パス_330" data-name="パス 330" d="M-177.955,684.007c-2.418.1-3.074-1.642-3.635-3.483,1.085-1.606-2.373-5.121,2.21-5.255Q-178.668,679.639-177.955,684.007Z" transform="translate(15.46 14.816)" fill="#19161c"/>
      <path id="パス_331" data-name="パス 331" d="M-166.98,681.992c-2.841-2.365-3.862-5.8-5.289-9l.64-1.7,2.675,1.733C-169.141,676.2-163.392,678.07-166.98,681.992Z" transform="translate(18.969 13.359)" fill="#1a2716"/>
      <path id="パス_332" data-name="パス 332" d="M-165.948,691.934c3.577-4.746,2.3-8.914-1.524-12.779,9.172-.447,13.433,8.255,20.8,11.17q.97.427.683.925c-.2.343-.4.515-.6.515-3.385.2-6.218-1.357-8.8-3.167-4.493-3.148-6.016-.416-7.241,3.286.832,2.142.5,3.792-1.919,4.57a3.239,3.239,0,0,1-2.626-.98C-167.657,693.987-167.717,692.642-165.948,691.934Z" transform="translate(20.73 16.237)" fill="#1d291a"/>
      <path id="パス_333" data-name="パス 333" d="M-157.717,706.774c-1.588.04-3.223.242-4.38-1.243a1.4,1.4,0,0,1,.939-1.9c6.335-.519,11.607-4.223,17.567-5.864,1.81-.815,2.354-.01,2.183,1.707Z" transform="translate(22.668 22.956)" fill="#142112"/>
      <path id="パス_334" data-name="パス 334" d="M-118.993,699.485c8.835,3.4,6.454,9.849,4.413,16.207q-1.193,1.329-2.208-.141a16.281,16.281,0,0,0-2-15.347Z" transform="translate(38.521 23.703)" fill="#121a0f"/>
      <path id="パス_335" data-name="パス 335" d="M-165.215,692.158l2.761-3.693c7.036,5.927-1.539,8.895-2.525,13.3a2.283,2.283,0,0,1-2.338-.883C-168.876,697.432-167.4,694.708-165.215,692.158Z" transform="translate(20.549 19.659)" fill="#c9cec8"/>
      <path id="パス_336" data-name="パス 336" d="M-158.311,702.965l-.939,1.9-2.837,1.6c-2.783,1.255-5.551,2.376-7.86-.839.066-2.979-.313-6.253,4.156-6.355C-164.341,702.613-161.4,702.943-158.311,702.965Z" transform="translate(19.821 23.625)" fill="#9fc96c"/>
      <path id="パス_337" data-name="パス 337" d="M-144.2,688.958c4.368-.421,9.107-7.6,12.993.715-4.489-1.188-8.564,1.085-12.858,1.535A1.283,1.283,0,0,1-144.2,688.958Z" transform="translate(29.049 18.637)" fill="#152112"/>
      <path id="パス_338" data-name="パス 338" d="M-141.467,688.355l.135,2.25c-3.822.607-7.624,1.1-10.842-1.843a3.487,3.487,0,0,0-.082-1.441Z" transform="translate(26.314 19.24)" fill="#040603"/>
      <path id="パス_339" data-name="パス 339" d="M-129.73,693.837c2.862.453,5.683,1,7.532,3.582q.962.595.647,1.2c-.211.4-.421.6-.636.6C-125.745,698.888-128.773,697.812-129.73,693.837Z" transform="translate(34.58 21.63)" fill="#1d2f1a"/>
      <path id="パス_340" data-name="パス 340" d="M-165.244,700.406c-2.782.931-.936,4.564-3.338,5.717a3.529,3.529,0,0,1-2.687-2.029,8.13,8.13,0,0,1,.492-4.614c.562-1.5,1.24-2.9,3-3.3,1.4.156,1.736,1.358,2.286,2.346l1.784.411Z" transform="translate(19.274 22.49)" fill="#2b3026"/>
      <path id="パス_341" data-name="パス 341" d="M-124.206,698.259q-.035-.9-.011-1.8c2.966.369,6.2.271,7.147,4.139l.2.719Z" transform="translate(36.6 22.592)" fill="#020405"/>
      <path id="パス_342" data-name="パス 342" d="M-116.776,711.238l2.208.141q-1.532,3.469-3.066,6.939l-1.392-1.919Z" transform="translate(38.509 28.016)" fill="#010402"/>
      <path id="パス_343" data-name="パス 343" d="M-134.969,688.525c5.714-.478,6.164,3,5.508,7.319Z" transform="translate(32.658 19.665)" fill="#152011"/>
      <path id="パス_344" data-name="パス 344" d="M-146.4,700.179q-1.091-.853-2.183-1.708l6.119-2.939c.79.435,1.876.514,2.048,1.7Z" transform="translate(27.661 22.253)" fill="#1f311c"/>
      <path id="パス_345" data-name="パス 345" d="M-142.06,697.67l-2.048-1.7c2.038,0,4.456-3.4,5.832-.424C-137.395,697.466-140.562,697.213-142.06,697.67Z" transform="translate(29.304 21.811)" fill="#030602"/>
      <path id="パス_346" data-name="パス 346" d="M-165.067,699.657l-2.075,4.251a4.769,4.769,0,0,1-5.155.629c-2.67-1.284-1.523-5.227-4.425-6.356l.04-.331q-.463-1.312-.938-2.626a5.27,5.27,0,0,1,1.742-4.272c4.357-2.038,8.34-6.8,13.652-1.869q-.084,1.88-.175,3.77C-162.843,695.3-163.4,697.693-165.067,699.657Z" transform="translate(17.006 19.091)" fill="#ecf0e8"/>
      <path id="パス_347" data-name="パス 347" d="M-169.3,702.562q.923,1.06,1.848,2.119c1.837,2.921,4.918-.077,7.043,1.478-1.567,4.476-9.1,1.135-9.444,7.212q-.994-1.157-1.99-2.316c1.278-3.553-1.647-5.818-2.657-8.669a3.3,3.3,0,0,1,.934-1.993C-171.135,699.114-171.089,702.546-169.3,702.562Z" transform="translate(18.148 23.932)" fill="#10170a"/>
      <path id="パス_348" data-name="パス 348" d="M-172.18,702.278l-1.424,1.952c-2.163-2.627-2.448-5.953-3.359-9.045,4.366-.9,2.184,4.425,4.869,5.124.556.463.727.909.518,1.34S-171.983,702.278-172.18,702.278Z" transform="translate(17.247 22.087)" fill="#000601"/>
      <path id="パス_349" data-name="パス 349" d="M-175.069,692.276c-.154,1.6.567,3.547-1.739,4.27-2.456-4.168-4.41-8.4-1.725-13.238C-175.55,685.592-177.56,689.8-175.069,692.276Z" transform="translate(16.196 17.767)" fill="#21301c"/>
      <path id="パス_350" data-name="パス 350" d="M-168.424,698.1c-.364-2.759,1.36-4.7,2.666-6.8l.73-.127q-.775,4.6-1.549,9.2Z" transform="translate(20.362 20.651)" fill="#0a0506"/>
      <path id="パス_351" data-name="パス 351" d="M-173.464,700.874q.045-.98.087-1.967,2.354.3,4.711.6l-1.022,3.5C-172.349,704.781-171.876,701-173.464,700.874Z" transform="translate(18.531 23.491)" fill="#a4d563"/>
    </g>
    <g id="しいたけ" transform="translate(1129.501 1299.897)" opacity="0.1">
      <path id="パス_502" data-name="パス 502" d="M73.284,892.3q.825.071,1.655.114A5.337,5.337,0,0,0,77.99,890.8a6.008,6.008,0,0,0,1.552-5.44c-.64-2.21-1.97-4.085-2.963-6.121-1.255-3.077-1.68-6.13.2-9.134a37.781,37.781,0,0,1,3.075-3.034c3.477-3.056,7.374-1.478,11.166-1.029,3.272.145,5.5-1.786,7.686-3.836,3.535-4.106,6.986-8.248,4.6-14.269a6.91,6.91,0,0,0-5.726-2.865,4.9,4.9,0,0,0-3.223,1.9c-3.965,5.955-10.69,8.032-16.328,11.658-10.865,6.991-22.695,13.019-27.56,26.326a4.825,4.825,0,0,0,.379,2.4c1.757,2.38,3.952,4.033,7.02,4.239,4.8-.716,9.616-1.506,14.372.321C72.588,892.046,72.936,892.173,73.284,892.3Z" transform="translate(-74.926 12.503)" fill="#f7e7c8"/>
      <path id="パス_503" data-name="パス 503" d="M-23.509,920.992C-9.722,925.7,3.43,927.9,18.483,923.041c18.858-6.089,25.39-19.143,28.19-36.361a3.4,3.4,0,0,0,.355-3.488c-6.806,1.246-5.693,8.974-10.035,12.234a79.39,79.39,0,0,1-12.486,12.344c-6.371,4.049-13.195,6.755-20.82,7.172A85.43,85.43,0,0,0-23.509,920.992Z" transform="translate(76.477 23.211)" fill="#886f68"/>
      <path id="パス_504" data-name="パス 504" d="M8.96,897.047q.1,1.822.195,3.644c10.677-18.227,9.043-35.749-1.9-53.464-5.79-9.371-12.642-15-24.045-13.75-3.923.428-7.887.491-11.832.719.269,3.6,3.383,3.1,5.59,3.812,5.639,1.828,10.9,4.295,15.189,8.516,2.02,1.854,3.975,3.78,6.073,5.545,2.817,2.124,4.623,5.034,6.244,8.086a27.293,27.293,0,0,1,2.681,6.49c2.149,7.584,3.095,15.23,1.332,23.036C8.553,892.142,7.033,894.709,8.96,897.047Z" transform="translate(113.995 9.199)" fill="#a8998a"/>
      <path id="パス_505" data-name="パス 505" d="M70.7,843.062a46.719,46.719,0,0,0-3.6-23.177c-5.92-13.621-15.868-20.31-30.527-19.214-7.488.56-15.175.446-22.434,3.029,2.181,2.832,5.384,2.56,8.339,2.459A40.989,40.989,0,0,1,38.6,809.052a15.7,15.7,0,0,1,8.654,5.545,33.114,33.114,0,0,0,4.039,3.989c2.371,1.812,4.08,4.24,5.963,6.5,1.8,2.3,3.356,4.771,4.934,7.227A49.454,49.454,0,0,1,65.662,838C67.184,839.84,66.587,843.819,70.7,843.062Z" transform="translate(4.72)" fill="#a99a8b"/>
      <path id="パス_506" data-name="パス 506" d="M100.472,803.27c-7.4-.711-14.572.63-21.832,1.941-14.963,2.7-26,27.95-14.265,41.069,1.653,1.848,2.734,2.555,4.84,1.465.363-.211.726-.423,1.09-.63.884-7.232-.69-14.78,2.786-21.671,2.918-7.521,8.407-12.48,15.635-15.695,2.677-1.217,5.365-2.24,8.265-.633,1.56.343,2.94.178,3.8-1.376C99.656,806.33,101.232,804.715,100.472,803.27Z" transform="translate(-83.153 0.707)" fill="#8d776e"/>
      <path id="パス_507" data-name="パス 507" d="M60.351,885.692c8.969-15.424,24.365-22.874,38.907-31.373,2.671-1.56,5.842-2.6,5.566-6.608-3.454-5.714-7.905-3.412-12.312-1.552-2.686,1.353-4.687,3.724-7.432,5A5.739,5.739,0,0,0,81.9,854.1c-1.532,3.547-5.1,5.034-7.639,7.568l-2.146.17c-1.643,1.545-3.116,3.392-5.717,3.255-3.525,3.379-7.067,6.745-9.322,11.185C57.954,879.49,55.162,883.983,60.351,885.692Z" transform="translate(-84.152 12.228)" fill="#f7f8f7"/>
      <path id="パス_508" data-name="パス 508" d="M46.582,881.129q-.8.986-1.6,1.97c6.933,5.833,15.011,9.806,23.4,12.726,8.482,2.952,12.277-.324,12.748-9.452-4-4.068-9.469-1.39-13.982-3.069-4.4-.793-8.348-2.831-12.391-4.6C51.289,876.982,49.358,880.473,46.582,881.129Z" transform="translate(-44.971 21.817)" fill="#f0e1c2"/>
      <path id="パス_509" data-name="パス 509" d="M10.392,835.2c-2.94-1.233-1.9-4.8-3.871-6.6-1.481-.236-2.119.717-2.633,1.853-.859,5.056-5.559,5.649-8.933,7.872-2.638,1.738-7.743,2.226-4.9,7.62a4.319,4.319,0,0,0,3.489.469c3.756-1.811,7.4-4.465,11.406-.242,1.517,1.6,3.673,2,4.835-.478,2.95-6.287,8.146-4.94,13.088-3.909a54.479,54.479,0,0,1,12.68,4.518c2.163,1.053,4.33,3,6.943.885-4.963-8.5-14.316-8.633-22.155-11.652Z" transform="translate(65.031 7.865)" fill="#191513"/>
      <path id="パス_510" data-name="パス 510" d="M38.1,889.654c1.666.665,1.587,2.111,1.575,3.526-.543,1.979.5,2.27,2.092,1.975.657-.528,1.227-1.162,1.848-1.741,4-3.727,16.315-5.956,1.642-12.747-3.412-1.579-.686-8.121-2.474-12.071a5.9,5.9,0,0,0-3.947-3.449,4.3,4.3,0,0,0-2.613.512,5.157,5.157,0,0,0-1.083,3.7c.53,3.215.8,6.477,1.406,9.685,2.339,4.38-1.639,5.485-3.9,7.489C32.712,890.632,36.549,888.137,38.1,889.654Z" transform="translate(-0.303 18.134)" fill="#1b1817"/>
      <path id="パス_511" data-name="パス 511" d="M78.583,855.948l3.583-1.367c.749-1.932,2.954-3.7.673-5.979-1.492-1.5-3.266-2.776-3.9-4.958a15.266,15.266,0,0,0-1.581-4.159,4.7,4.7,0,0,0-1.967-1.224,5.5,5.5,0,0,0-3.5.4,4.4,4.4,0,0,0-1.5,1.829c-.855,2.923.664,5.364,1.616,7.921a18.961,18.961,0,0,1,2.709,6.208l1.877,1.636Q77.837,857.7,78.583,855.948Z" transform="translate(-79.876 10.557)" fill="silver"/>
      <path id="パス_512" data-name="パス 512" d="M14.071,914.454c10.022,1.18,19.12-4.4,29.04-3.977.188-2.426-1.717-2.7-3.336-3.278-6.252-1.032-12.468-1.353-18.334,1.677-3.27,1.688-6.7.72-10.066.845-1.331.336-2.426.877-2.191,2.557A6.06,6.06,0,0,0,14.071,914.454Z" transform="translate(38.897 29.749)" fill="#0f0c0a"/>
      <path id="パス_513" data-name="パス 513" d="M34.094,892.97l.024,2.439c2.414,4.293,1.47,9.654,4.379,13.8,1.781,2.861,2.949,6.7,7.693,4.807.329-8.937-4.245-16.385-7.361-24.275C35.941,888.887,35.633,891.833,34.094,892.97Z" transform="translate(3.891 25.007)" fill="#d7d4d3"/>
      <path id="パス_514" data-name="パス 514" d="M38.986,803.288c-.383,1.2-3.9,2.394-.008,3.6a5.675,5.675,0,0,0,2.4.591c5.287-.315,10.584-.9,15.821.487,2.8.658,5.486,1.946,8.477,1.614,1.264-.38,2.324-.939,2.141-2.541-8.538-5.13-18.031-3.776-27.289-4.028Q39.759,803.156,38.986,803.288Z" transform="translate(-21.667 0.69)" fill="#140e0d"/>
      <path id="パス_515" data-name="パス 515" d="M60.634,885.416l-5.086-2.8c-2.5-3.1-5.818-2.509-9.116-2.022-1.377.479-2.581,1.136-2.723,2.815C48.19,888.134,53.983,884.5,59,885.818A9.223,9.223,0,0,1,60.634,885.416Z" transform="translate(-22.841 22.372)" fill="#3c3831"/>
      <path id="パス_516" data-name="パス 516" d="M44.528,907.443c-.946-4.57.719-9.954-4.131-13.311-.223,4.751-.282,9.459,3.453,13.172Z" transform="translate(-2.387 26.284)" fill="#262625"/>
      <path id="パス_517" data-name="パス 517" d="M96.657,878.633c-3.615-2.258.326-7.151-3.278-9.413-2.772,4.142-1.509,7.774,1.417,11.195a.948.948,0,0,0,1.669-.113A7.469,7.469,0,0,0,96.657,878.633Z" transform="translate(-120.458 19.287)" fill="#090909"/>
      <path id="パス_518" data-name="パス 518" d="M85.955,877.872l-1.669.113c1.956,4.755,5.969,6.079,10.6,6.369a2.574,2.574,0,0,0,.921-1.677,3.332,3.332,0,0,0-.713-1.819,1.947,1.947,0,0,0-1.879.018C90.227,881.259,88.49,878.6,85.955,877.872Z" transform="translate(-109.947 21.717)" fill="#2b2925"/>
      <path id="パス_519" data-name="パス 519" d="M34.714,904.554l-.678-.138a8.732,8.732,0,0,0,6.618,8.438l1.389-1.346q.849-.478.674-1.1c-.123-.437-.265-.656-.43-.656C38.357,910.071,37.8,905.47,34.714,904.554Z" transform="translate(7.426 29.172)" fill="#383939"/>
      <path id="パス_520" data-name="パス 520" d="M83.5,847.946a13.413,13.413,0,0,1-.728-8.152c-2.027-1.554-3.594-1.812-3.93,1.4.7,3,1.117,6.111,3.519,8.394A1.752,1.752,0,0,0,83.5,847.946Z" transform="translate(-90.659 10.709)" fill="#0a0a09"/>
      <path id="パス_521" data-name="パス 521" d="M82.85,852.043l-1.99.31c-2.507,2.076-6.172,3.07-6.61,7.082C78.384,858.449,81.715,856.525,82.85,852.043Z" transform="translate(-84.143 14.462)" fill="#2f2f30"/>
      <path id="パス_522" data-name="パス 522" d="M74.541,881.731q-.025.947-.047,1.893c4.515.029,9.216,2.043,13.416-1.266l.037.086a5.678,5.678,0,0,0-2.3-1.6C81.9,880.563,78.115,879.83,74.541,881.731Z" transform="translate(-89.552 22.446)" fill="#040505"/>
      <path id="パス_523" data-name="パス 523" d="M41.008,893.689c2.438.521,2.8-1.276,3.276-2.942a1.255,1.255,0,0,0-.388-1.9l-1.505-1.818C39.952,888.836,41.011,891.373,41.008,893.689Z" transform="translate(-3.022 24.288)" fill="#2b2b2f"/>
      <path id="パス_524" data-name="パス 524" d="M81.184,842.273c.877-1.683,2.252-1.961,3.929-1.4l-.138-.083a3.125,3.125,0,0,0,.553-2.145c-.65-1.869-1.511-3.533-3.761-3.821-1.758.7-.976,2.651-1.852,3.789a.792.792,0,0,1-.846.21Z" transform="translate(-93.006 9.626)" fill="#3e3d3c"/>
      <path id="パス_525" data-name="パス 525" d="M82.647,861.2c3.768,2.19,5.05.008,5.717-3.255A5.644,5.644,0,0,0,82.647,861.2Z" transform="translate(-100.403 16.118)" fill="#3a3837"/>
      <path id="パス_526" data-name="パス 526" d="M77.876,845.914q-.57.818-1.139,1.638l3.142,4.887C82.047,849.392,78.421,848.126,77.876,845.914Z" transform="translate(-85.039 12.74)"/>
      <path id="パス_527" data-name="パス 527" d="M63.432,888.335l11.7-.191c4.966-.234,8.875-1.223,5.383-7.521a2.5,2.5,0,0,0-.7.437,2.214,2.214,0,0,0-.246.757c-3.5-7.258-10.455-10-17.264-12.418-4.368-1.551-3.827-3.559-2.251-6.547-1.464-2.084-3.751-2.024-5.915-2.3-2.807.06-5.733-.483-8.1,1.672L42.8,863.851c-.938,2.827.246,5.669-.06,8.5.221,3.089,2.432,5.075,4.079,7.374a15.98,15.98,0,0,0,4.646,3.724C55.462,885.058,58.974,887.856,63.432,888.335Z" transform="translate(-42.424 16.846)" fill="#f8e9c8"/>
      <path id="パス_528" data-name="パス 528" d="M47.048,848.8c1.266,5.563-2.613,9.23-4.953,13.465-.328,1.6.657,2.309,1.906,2.847a5.765,5.765,0,0,0,4.822-.658,25.706,25.706,0,0,1,8.456-15.789,5.545,5.545,0,0,0,2.21-5.177c-5.439-3.461-7.858,4.67-12.748,3.332A1.535,1.535,0,0,0,47.048,848.8Z" transform="translate(-19.622 11.817)" fill="#1d1714"/>
      <path id="パス_529" data-name="パス 529" d="M54.733,849.821c3.947-1.784,7.891-3.658,11.916-.177l1.852-1.827a3.638,3.638,0,0,0,1.944-.918,3.561,3.561,0,0,0,.26-2.163,7.349,7.349,0,0,0-1.963-2.705,4.954,4.954,0,0,0-3.1-1.278c-3.775,1-5.122-4.884-9.119-3.252-2.217,3.109-.677,7.186-2.658,10.366A2.523,2.523,0,0,0,54.733,849.821Z" transform="translate(-45.977 10.296)" fill="#141413"/>
      <path id="パス_530" data-name="パス 530" d="M65.782,859.493,64.21,857.96c-2.394.729-3.763,3.635-6.719,3.168-1.694-.751-3.42-1.577-3.467,1.5,1.693.588,3.756.188,5.032,1.888a3.469,3.469,0,0,0,3.192,1.308,4.743,4.743,0,0,0,3.018-1.871C66.078,862.54,66.906,861.128,65.782,859.493Z" transform="translate(-41.738 16.124)" fill="#12100e"/>
      <path id="パス_531" data-name="パス 531" d="M73.115,878.532c.169-2.785-1.716-3.1-3.8-3.173-.779-.293-1.071,0-.942.79.558,2.509-1.211,4.047-2.425,5.816,3.338,2.555,4.227-3.329,7.184-2.087q.729-.455.481-.9T73.115,878.532Z" transform="translate(-64.332 20.98)" fill="#030000"/>
      <path id="パス_532" data-name="パス 532" d="M69.61,862.413l3.467-1.5c-4.3-1.043-9.066-5.28-12.147,1.815Z" transform="translate(-57.323 16.335)" fill="#3a3631"/>
      <path id="パス_533" data-name="パス 533" d="M75.278,871.794c.3-3,.5-5.983-1.289-8.67-3.267,4.019-2.526,8.121-.247,12.253C75.189,874.584,74.329,872.8,75.278,871.794Z" transform="translate(-73.612 17.574)" fill="#433f37"/>
      <path id="パス_534" data-name="パス 534" d="M88.172,882.455a10.583,10.583,0,0,0,1.445.461c-4.093-7.015-9.837-3.148-15.123-2.3a3.4,3.4,0,0,0,1.518.48C79.909,882.949,84.261,880.719,88.172,882.455Z" transform="translate(-91.222 21.974)" fill="#fef9d8"/>
      <path id="パス_535" data-name="パス 535" d="M70.886,869.893l-1.536,3.583c.659,2,1.485,3.834,3.906,4.178a1.058,1.058,0,0,0,.942-.79Z" transform="translate(-69.22 19.476)" fill="#302c26"/>
      <path id="パス_536" data-name="パス 536" d="M53.323,844.66l-1.591,1.264,4.9,2.505q.048-1.013.1-2.025C56.79,843.486,55.322,843.553,53.323,844.66Z" transform="translate(-29.209 12.19)" fill="#000001"/>
      <path id="パス_537" data-name="パス 537" d="M-6.853,910.206l3.813,1.709c7.565-.943,14.7-2.947,20.495-8.284a2.817,2.817,0,0,0-2.739-2.284C7.813,904.991-.741,904.625-6.853,910.206Z" transform="translate(85.048 28.311)" fill="#161110"/>
      <path id="パス_538" data-name="パス 538" d="M-13.408,884.705q.81-3.374,1.622-6.746a2.6,2.6,0,0,0-2.179-.689c-1.68.584-2.43,1.992-3.1,3.475-1.735,5.214-5.355,9.537-7.034,14.786a2.393,2.393,0,0,0,2.025,2.526C-17.123,894.948-16.249,889.187-13.408,884.705Z" transform="translate(136.363 21.54)" fill="#2c2622"/>
      <path id="パス_539" data-name="パス 539" d="M-2.692,893.749a2.984,2.984,0,0,0-1.139-1.166,21.231,21.231,0,0,0-12.23,12.066l1.584,1.445C-9.565,902.92-5.338,899.091-2.692,893.749Z" transform="translate(116.979 25.849)" fill="#0e0c0a"/>
      <path id="パス_540" data-name="パス 540" d="M44.579,892.618c.521-1.2.534-2.735,2.14-3.209,2.9-7.4,1.147-14.724-.379-22.043a30.457,30.457,0,0,0-3.129-7.217,48.782,48.782,0,0,0-6.6-10.34,12.025,12.025,0,0,0-5.22-4.843c-8.028-3.074-15.315-8.077-24.376-8.454-5.836-.242-10.892-.4-10.136,8.614-4.335-11.106-9.628-6.293-14.865-2.176a23.594,23.594,0,0,0-3.189,5.373c-1.008,3.519-4.5,6.636-1.784,10.772a3.49,3.49,0,0,0,1.665.229C-6.878,856.246-6.507,856.1-1.087,870.42,3.039,881.322,9.778,887.3,21.8,886.627c5.513-.309,10.569,1.465,15.35,4.263C39.35,892.175,41.39,895.205,44.579,892.618Z" transform="translate(76.141 10.08)" fill="#aa9a8b"/>
      <path id="パス_541" data-name="パス 541" d="M-24.722,860.056c1.956,7.667,2.084,15.476,1.792,23.317l1.716.01a42.112,42.112,0,0,0-1.93-25.425C-24.836,857.779-25.366,858.474-24.722,860.056Z" transform="translate(145.791 16.116)" fill="#13100f"/>
      <path id="パス_542" data-name="パス 542" d="M-20.682,846.878c.275,4.358,4.047,6.859,5.589,10.543,1.6.117,2.341-.409,1.532-2.075C-14.815,851.58-16.762,848.4-20.682,846.878Z" transform="translate(133.43 13.011)" fill="#201c19"/>
      <path id="パス_543" data-name="パス 543" d="M-21.061,853.489l-1.532,2.075q1.367,2.869,2.731,5.738l1.578-2.1Q-19.672,856.347-21.061,853.489Z" transform="translate(140.93 14.868)" fill="#1f1e1c"/>
      <path id="パス_544" data-name="パス 544" d="M54.286,807.882l-8.2-2.242-1.117.161c-4.89.216-9.78.192-14.67.014l-1.121-.141-1.766.475a3.665,3.665,0,0,1-3.788,1.193c-2.318-1.246-4.264-1.07-5.6,1.456a28.787,28.787,0,0,0,9.2,18.173c3.217.813,6.064-1,9.112-1.305,5.846-.578,12.011-2.052,16.26,3.987a21.54,21.54,0,0,1,3.7,6.58,9.984,9.984,0,0,1,.884,3.916,7.5,7.5,0,0,0,.242,2.011,13.919,13.919,0,0,0,1.279,2.785,16.025,16.025,0,0,0,1.243,1.774c1.549,1.69,1.556,4.418,3.8,5.618.378-.032.759-.061,1.139-.092,1.35-6.3,7.177-6.942,11.673-8.036,5.115-1.244,4.551-3.77,3.571-7.24-.509-2.131-.948-4.293-2.549-5.956-1.3-2.674-3.531-4.725-4.917-7.343-2-2.71-4.29-5.191-6.117-8.03l-2.7-2.8C60.782,810.935,58.2,808.12,54.286,807.882Z" transform="translate(-10.099 1.428)" fill="#aa9a8c"/>
      <path id="パス_545" data-name="パス 545" d="M31.254,807.737c3.015,1.973,5.554,4.863,9.546,4.962a11.708,11.708,0,0,0-7.583-6.544Z" transform="translate(12.933 1.573)" fill="#29231f"/>
      <path id="パス_546" data-name="パス 546" d="M23.487,813.447c.074,4.018,3.237,6.2,5.344,9.01,1.491.327,2.382.091,1.606-1.713A15.1,15.1,0,0,0,23.487,813.447Z" transform="translate(32.951 3.621)" fill="#1e1a17"/>
      <path id="パス_547" data-name="パス 547" d="M21.413,819.144l-1.606,1.713,4.963,6.937c1.115-.045,1.145-1.112,1.638-1.743Z" transform="translate(41.975 5.221)" fill="#2b2723"/>
      <path id="パス_548" data-name="パス 548" d="M18.969,824.536q-.82.872-1.638,1.743l3.276,5.382q.766-.968,1.531-1.939Q20.554,827.128,18.969,824.536Z" transform="translate(49.414 6.736)" fill="#201c18"/>
      <path id="パス_549" data-name="パス 549" d="M85.374,807.287c-8.564,1.847-13.392,7.838-16.911,15.278.408,1.172,1.016,2.117,2.437,2.134,4.511-5.642,10.648-9.669,15.213-15.267A3.153,3.153,0,0,0,85.374,807.287Z" transform="translate(-80.001 1.891)" fill="#1c1514"/>
      <path id="パス_550" data-name="パス 550" d="M84.926,821.214l-1.68-2C79.309,826.92,79.109,834.87,81.692,843l1.808-3.586C85.959,833.5,87.279,827.5,84.926,821.214Z" transform="translate(-94.783 5.241)" fill="#1b1615"/>
      <path id="パス_551" data-name="パス 551" d="M62.256,807.982a12.988,12.988,0,0,0-.083,1.3c1.064,1.332,2.19,1.272,3.365.152,1.241-1.619,3.151-1.488,4.868-1.861.289-1.127,1.677-3.128-.851-2.7S63.938,805.233,62.256,807.982Z" transform="translate(-56.883 1.196)" fill="#211c1a"/>
      <path id="パス_552" data-name="パス 552" d="M73.332,847.73l-.148-2.058a5.138,5.138,0,0,0-4.7-.789c-1.2.507-2.163,1.177-1.853,2.717,2.091,1.624-1.438,3.508.238,5.152Z" transform="translate(-64.575 12.387)" fill="#0d0d0e"/>
      <path id="パス_553" data-name="パス 553" d="M57,877.812a1.339,1.339,0,0,0,.012,1.347c3.363,3.266,7,5.861,12.074,4.924l.139-.6C65.679,880.451,61.921,877.876,57,877.812Z" transform="translate(-48.218 21.7)" fill="#332d23"/>
      <path id="パス_554" data-name="パス 554" d="M33.509,847.141c1.723-1.637.985-3.685.937-5.618l-3.374.643.147-.127c-1.186,1.882-5.732,2.479-2.334,6.12C30.645,848.81,32.1,848.057,33.509,847.141Z" transform="translate(23.705 11.507)" fill="#d9d9d4"/>
      <path id="パス_555" data-name="パス 555" d="M59.6,888.92c-8.52-5.956-17.673-9.257-28.369-8.522-5.713.393-10.109-3.069-12.588-8.406-1.307-2.812-2.45-5.7-3.617-8.577-6.761-16.673-6.756-16.674-22.893-8.324-3.491.57-5.085,3.33-6.841,5.911-1.665,2.977-2.969,6.167-5.2,8.816-.427.623-.819,1.267-1.188,1.925,1.419,1.318,1.238,3.07,1.227,4.744-.073,11.53-.081,11.53,10.528,14.45-4.331,2.633-12.216.329-10.909,8.417q.192.951.386,1.9,4.227,11.945,8.452,23.891-.121.876-.244,1.755c3.014,2.265,7.276,2.6,9.569.979,6.129-4.32,12.62-3.2,19.16-3.141,7.89-1.773,15.809-3.466,22.72-8.021q6.112-6.033,12.228-12.066Q55.817,896.787,59.6,888.92Z" transform="translate(61.117 13.777)" fill="#876f68"/>
      <path id="パス_556" data-name="パス 556" d="M52.641,863.339l-3.179-.264c-2.41.338-5.781-.192-5.979,3.146-.174,2.918,3.324,2.416,5.172,3.239,7.822,3.488,16.81,5.194,20.6,15.469.453-2.327.715-3.676.979-5.022-.63-3.339.831-7.1-2.005-10-1.5-2.539-4.02-3.625-6.59-4.643C58.878,863.5,55.667,863.86,52.641,863.339Z" transform="translate(-32.141 17.561)" fill="#f6f6f4"/>
      <path id="パス_557" data-name="パス 557" d="M43.362,859.371l-1.538,3.253c1.71,2.35,4.417,3.118,6.846,4.329,2.185.82,4.347,1.757,6.775,1.249a4.833,4.833,0,0,1,1.485-.356c4.367-6.718,3.793-7.6-6.14-9.453a4.52,4.52,0,0,0-2.566.87Z" transform="translate(-19.319 16.246)" fill="#f4e4c0"/>
      <path id="パス_558" data-name="パス 558" d="M37.881,860.2c2.855,2.22,11.383.092,6.379,8.336q1.213.717,2.423,1.431l.735-.151.564.5c1.476-3.061,2.2-6.437,3.92-9.4a5.018,5.018,0,0,0-1.454-3.2,6.25,6.25,0,0,0-3.112-1.8C43.641,856.143,40.086,856.687,37.881,860.2Z" transform="translate(-6.649 15.552)" fill="#232320"/>
      <path id="パス_559" data-name="パス 559" d="M52.426,866.425c-1.908-2.243-4.5-1.6-6.934-1.651q-.66.476-.412.906c.161.281.32.42.477.42,1.619,2.457,4.344,2.655,6.828,3.346Q52.406,867.935,52.426,866.425Z" transform="translate(-16.3 18.024)" fill="#303433"/>
      <path id="パス_560" data-name="パス 560" d="M71.12,849.274l4.706-.35c6.467-2.031,2.2-6.212,1.918-9.6a3.419,3.419,0,0,0,.874-2.411,4.762,4.762,0,0,0-3.288-3.84c-4.831.985-11.079-.216-11.6,7.476q.146,2.7.291,5.394A14.844,14.844,0,0,0,71.12,849.274Z" transform="translate(-67.218 9.135)" fill="#e8e8e8"/>
      <path id="パス_561" data-name="パス 561" d="M68.108,842.265c2.386-5.343,8.114-4.354,12.209-6.458,1.469-1.251,1.56-2.873,1.249-4.606-3.458-8.541-7.708-1.645-11.672-.611a8.556,8.556,0,0,0-3.613,2.981c-.75,2.937-1.807,5.891.247,8.755l.795.115Z" transform="translate(-71.594 7.423)" fill="#856f69"/>
      <path id="パス_562" data-name="パス 562" d="M80.563,840.741c-.546-2.7,2.425-5.419-.028-8.117-4.939-.064-4.345,3.033-3.56,6.24q.309,1.27.621,2.545Q79.081,841.079,80.563,840.741Z" transform="translate(-85.627 9.007)" fill="#191211"/>
      <path id="パス_563" data-name="パス 563" d="M77.287,846.514c-2.511-.8-3.574-4.691-7.1-3.326,1.172,2.253,2.63,4.2,5.247,4.9Q76.363,847.3,77.287,846.514Z" transform="translate(-73.386 11.894)" fill="#302f30"/>
      <path id="パス_564" data-name="パス 564" d="M62.041,806.046a20.043,20.043,0,0,0-16.909.035l-.067.642a69.38,69.38,0,0,0,17.046-.011Z" transform="translate(-26.055 1.022)" fill="#403b35"/>
      <path id="パス_565" data-name="パス 565" d="M87.784,882c-3.784-2.867-8.1-.941-12.161-1.356a3,3,0,0,1,.2,1.105Z" transform="translate(-90.834 22.425)" fill="#968e7b"/>
      <path id="パス_566" data-name="パス 566" d="M62.4,845.7a7.043,7.043,0,0,1,3.562-6.242l3.371-1.783c3.285-3.115,6.545-6.276,11.461-6.538,2.6-.916,5.366-1.445,7.58-3.257a1.846,1.846,0,0,0,.008-2.188l-8.673-17.233-3.365-.151C70.774,813.128,64.3,817.1,61.2,824.276c-1.424,5.995-2.306,12.029-1.427,18.2Z" transform="translate(-71.058 2.177)" fill="#876e67"/>
      <path id="パス_567" data-name="パス 567" d="M60.759,838.643c.159-1.253.4-2.537-1.267-3.024-4.68-6.161-11.646-5.855-18.286-6.49a5.3,5.3,0,0,0-2.3.521C36.467,831.9,35.8,835,34.944,838a8.421,8.421,0,0,0-.118,2.211c.209,2.417,1.36,4.781.447,7.278a7.057,7.057,0,0,0,.521,1.335l3.408,1.745c1.812.9,3.249,3.219,5.626.236,1.413-1.774,2.6-5.258,6.276-3.586,2.012-.3,3.233-1.707,4.429-3.151a13.818,13.818,0,0,1,3.791-3.8A5.251,5.251,0,0,0,60.759,838.643Z" transform="translate(-11.679 8.026)" fill="#f1e2c4"/>
      <path id="パス_568" data-name="パス 568" d="M52.831,836.56q-.77.036-1.534.149c-1.488,1.683-3.485,2.886-4.62,4.9a5.826,5.826,0,0,0-3.5,3.524c-2.375,2.649-4.7,5.346-7.14,7.934-3.334,3.533-4.618,7.573-3.381,12.332l2.328.247c3.417-.879,7.182-.831,9.851-3.706,2.3-1.137,2.891-3.456,3.841-5.529a33.515,33.515,0,0,1,3.586-5.893c2.277-4.478,6.988-8.724,1.38-13.974A.551.551,0,0,1,52.831,836.56Z" transform="translate(-3.751 10.109)" fill="#eee1c3"/>
      <path id="パス_569" data-name="パス 569" d="M50.919,840.635a13.973,13.973,0,0,0,.124,1.551c2.118-.312,2.78.975,3.261,2.739,1.877,6.891,4.4,3.218,6.839.365,2.507-1.2,2.282-3.759,2.941-5.873a5.615,5.615,0,0,0-.1-2.1c-1.273-2.186.7-2.441,1.938-3.156,1.259-1.072,1.355-2.769,2.252-4.038,1.1-2.1,1.476-4.13-.465-5.983a9.349,9.349,0,0,0-10.287.658c-2.885,3.242-5.332,6.737-6.243,11.095C50.927,837.461,52.18,839.116,50.919,840.635Z" transform="translate(-40.517 6.276)" fill="#e5e4e2"/>
      <path id="パス_570" data-name="パス 570" d="M54.893,845.037c2.96-2.11,2.972-4.525.749-7.177a3.728,3.728,0,0,0-2.414,5.02Z" transform="translate(-31.299 10.478)" fill="#efefe7"/>
      <path id="パス_571" data-name="パス 571" d="M55.389,843.623,57.8,838.6q-.106-.853-.21-1.707c.944-1.628-.026-1.76-1.294-1.659q-1.106,3.3-2.213,6.594Z" transform="translate(-33.461 9.735)" fill="#000003"/>
      <path id="パス_572" data-name="パス 572" d="M59.125,866.95a5.747,5.747,0,0,0-.065-1.326c-1.776-2.08-3.677-3.949-6.687-3.927l-2,2.03A14.532,14.532,0,0,0,59.125,866.95Z" transform="translate(-29.868 17.174)" fill="#3a3b3a"/>
      <path id="パス_573" data-name="パス 573" d="M28.638,861.211q1.006.878,2.013,1.754c1.047,1.1,2.069.947,3.074-.06l5.539-6.691q1.977-5.111,3.956-10.22l-5.867-.117c-1.885-.871-2.772.573-3.816,1.649-.795,2.571-2.895,4.482-3.6,7.1C29.511,856.822,28.162,858.837,28.638,861.211Z" transform="translate(13.989 12.655)" fill="#f6f6f5"/>
      <path id="パス_574" data-name="パス 574" d="M38.009,822.75a6.126,6.126,0,0,0,.133,1.45c3.219,2.219,6.958.311,10.325,1.313,1.9.994,4.03,1.246,6.046,1.869,2.374.589,4.786,1.012,7.183,1.538a7.033,7.033,0,0,0,2.47-.152c1.23-.592,2.064-1.369,1.331-2.872-3.505-9.051-11.041-7.261-17.941-6.353C44.29,819.973,41.186,821.642,38.009,822.75Z" transform="translate(-20.68 5.115)" fill="#f4f4f2"/>
      <path id="パス_575" data-name="パス 575" d="M36.375,831l18.714,5.786a1.071,1.071,0,0,1,.123-1.2,11.345,11.345,0,0,0-6.852-8.51,18.093,18.093,0,0,0-8.787-2.085C36.819,826.091,34.708,827.538,36.375,831Z" transform="translate(-7.276 6.863)" fill="#e2e2df"/>
      <path id="パス_576" data-name="パス 576" d="M32.018,850.286q1.183-.932,2.366-1.861c-.7-3.028,7.077.05,3.583-4.985-2.62-1.61.2-7.2-5.037-6.892,4.052,5.813-.992,9.416-3.317,13.68A1.553,1.553,0,0,0,32.018,850.286Z" transform="translate(16.958 10.106)" fill="#242525"/>
      <path id="パス_577" data-name="パス 577" d="M62.112,806.344a43.241,43.241,0,0,0-17.046.011A23.814,23.814,0,0,0,62.112,806.344Z" transform="translate(-26.055 1.389)" fill="#b4a595"/>
      <path id="パス_578" data-name="パス 578" d="M35.519,827.679l6.777,7.693c2.013-1.411.15-2.881.065-4.324-1.49-2.028-2.7-4.36-5.47-4.98a6.838,6.838,0,0,1-1.285-.332,1.208,1.208,0,0,0-.507,1.276Q35.3,827.678,35.519,827.679Z" transform="translate(5.639 7.073)" fill="#222321"/>
      <path id="パス_579" data-name="パス 579" d="M35.734,826.462l5.47,4.98a10.473,10.473,0,0,0-3.184-7.109Z" transform="translate(6.796 6.679)" fill="#e2dedc"/>
      <path id="パス_580" data-name="パス 580" d="M42.931,859.112l-3.074.06c-2.1,3.1-5.211,5.863-3.308,10.252C40.671,867.223,40.579,862.41,42.931,859.112Z" transform="translate(4.783 16.447)" fill="#dfdddc"/>
      <path id="パス_581" data-name="パス 581" d="M39.573,859.63a11.2,11.2,0,0,0,2.018-6.643c.957-1.472.141-1.769-1.156-1.748l-2.407,6.576Q38.8,858.724,39.573,859.63Z" transform="translate(3.054 14.236)" fill="#010002"/>
      <path id="パス_582" data-name="パス 582" d="M66.107,839.137c2.049-.592,1.573-2.133,1.346-3.581-1.248-2.286,1.252-5.363-1.546-7.323-1.555.154-2.5.739-1.761,2.5q.142,2.359.283,4.719Z" transform="translate(-55.705 7.774)" fill="#040501"/>
      <path id="パス_583" data-name="パス 583" d="M74.492,831.714q.739-1.026,1.479-2.049c1.406-.419,1.547-1.513,1.459-2.731-.321-1.313-1.464-1.683-2.5-2.179-4.486,1.545-9.044,3-10.6,8.294C67.959,834.447,70.232,825.507,74.492,831.714Z" transform="translate(-66.051 6.797)" fill="#1b1614"/>
      <path id="パス_584" data-name="パス 584" d="M50.442,825.246l1.652,1.433c2.215,1.7,4.355,1.8,6.393-.3,3.233-1.664,6.742-.811,10.124-1.119,1.741.611,2.2-.279,2.118-1.809l-11.706-.444Z" transform="translate(-41.562 6.307)" fill="#050404"/>
      <path id="パス_585" data-name="パス 585" d="M48.758,823.41l-2.118,1.809-.646,4.983c.247.8.292,1.748,1.394,1.929a3.643,3.643,0,0,0,1.3-.623c.293-2.429.975-4.588,3.7-5.323.806-.406,1.874-.484,2.068-1.656C52.829,822.773,50.795,823.09,48.758,823.41Z" transform="translate(-19.591 6.349)" fill="#303030"/>
      <path id="パス_586" data-name="パス 586" d="M56.7,830.586q-.7-.965-1.395-1.929l-2.136,3.273a3.491,3.491,0,0,0-1.6,3.548,8.62,8.62,0,0,0,.173,1.6l1.294,1.659A19.559,19.559,0,0,0,56.7,830.586Z" transform="translate(-28.898 7.893)" fill="#0d0b0f"/>
      <path id="パス_587" data-name="パス 587" d="M36.337,841.575c2.208-1,4.792-1.652,4.62-4.9C38.146,837.106,35.187,837.4,36.337,841.575Z" transform="translate(6.588 10.145)" fill="#343027"/>
      <path id="パス_588" data-name="パス 588" d="M34.972,852.366l1.156,1.748,4.33-6.831-2.4-.059Q36.512,849.8,34.972,852.366Z" transform="translate(8.518 13.109)" fill="#030001"/>
      <path id="パス_589" data-name="パス 589" d="M67.018,825.641l-6.394.3q-.3,1.739-.609,3.476c1.147,2.146-.374,5,1.826,6.869C62.055,832,66.436,829.746,67.018,825.641Z" transform="translate(-50.093 7.046)" fill="#715c58"/>
      <path id="パス_590" data-name="パス 590" d="M56.654,834.76c1.36-.808,1.5-2.17,1.6-3.548-1.326.213-3.477.03-3.81.721C53.734,833.411,55.451,834.126,56.654,834.76Z" transform="translate(-33.987 8.611)" fill="#f1e2c4"/>
      <path id="パス_591" data-name="パス 591" d="M43.08,824.228l-2.068,1.656,8.357,2.219.087-1.943C47.941,823.5,45.119,825.158,43.08,824.228Z" transform="translate(-8.211 6.649)" fill="#070606"/>
    </g>
    <g id="人参" transform="translate(1324.953 1895.533) rotate(138)" opacity="0.1">
      <path id="パス_782" data-name="パス 782" d="M119.851,17.956l1.8-1.708c1.136-3,.541-6.07.352-9.128-.647-3.284-2.043-6-5.487-7.12-9.486,7.2-20.57,8.813-32.028,9.077-2.975,2.131-5.828.652-8.709-.345A217.769,217.769,0,0,0,36.932,6.51a39.085,39.085,0,0,1-20.78-4.578C11.948.921,8.046.754,6.057,5.7,4.882,12.826,1.991,19.492.4,26.5a21.734,21.734,0,0,0,.7,10.675c.629,2.507,3.208,2.61,4.82,3.911l.292,1.63c7.123-.483,14.2,2.762,21.347.268,6.613-12.641,17.49-17.819,33-15.595,2.188.314,4.3,1.174,6.541.384,9.079-3.2,18.554-2.895,27.978-3.432C103.667,23.855,112.126,22.154,119.851,17.956Z" transform="translate(101.215 33.098)" fill="#ef9b6a"/>
      <path id="パス_783" data-name="パス 783" d="M92.507,16.753C83.58,4.1,69.761,1.941,56,.463,47.538-.448,38.9.269,30.341.254,24.22,1.481,18.108-.2,11.99.19L5.257,1.779C2.856,2.954-1.29,2.605.39,7.349A6.356,6.356,0,0,0,2.66,8.519c3.73.771,7.539.274,11.29.674,3.824,1.025,7.841,1.032,11.641,2.186A17.831,17.831,0,0,0,30,12.734a22.3,22.3,0,0,1,8.7,2.074,20.976,20.976,0,0,0,2.179.78c3.695,1.3,7.631,1.523,11.367,2.629,4.1.928,8.548.483,12.227,3.1a10.082,10.082,0,0,0,4.389,1.441c4.59-.731,8.827.882,13.13,2.039a26.986,26.986,0,0,1,6.324,2.467c2.751.956,4.629,5.193,8.423,2.271C98.45,24.237,96.692,20.092,92.507,16.753Z" transform="translate(123.763 0)" fill="#dc5c28"/>
      <path id="パス_784" data-name="パス 784" d="M92.482,0C74.819,5.524,55.65,1.54,38.231,8.6c-8.963-5.141-17.678-.323-26.378.937C4.049,10.666-.619,15.38.066,23.956c7,3.286,14.142.357,21.209.5,3.841.33,7.19-1.472,10.716-2.494,5.959-1.242,12.1-1.44,18-3.025,2.651-1,5.521-1.107,8.2-1.97,1.355.452,3.452-3.142,4.185.764,3.2-.016,7.138,2.018,8.484-3.086.536-3.21,3.415-2.891,5.561-3.676A22.019,22.019,0,0,0,81.09,8.494c2.132-1.235,4.485-2.131,6.206-4A11.246,11.246,0,0,0,92.482,0Z" transform="translate(128.584 51.054)" fill="#fbfafa"/>
      <path id="パス_785" data-name="パス 785" d="M37.726,10.576C27.879-2.621,21.131-3.268,5.817,7.52c-1.272.611-3.11-.055-3.879,1.708C2.012,12.557-1.22,15.408.51,18.977c3.322,1.824,5.247-1.189,7.74-2.208,2.916-1.134,5.848,2.448,8.774.019,3.92-4.786,7.177-3.976,10.882.6,2.246,2.776,4.127,5.779,6.343,8.555a2.05,2.05,0,0,0,2.168-.23Q37.072,18.146,37.726,10.576Z" transform="translate(32.534 3.048)" fill="#86a75c"/>
      <path id="パス_786" data-name="パス 786" d="M2.069,20.965c8.335,5,13.727-1.643,19.937-5.043,1.174-.618,1.108-1.659.94-2.735a4.691,4.691,0,0,0-1.057-1.8,17.284,17.284,0,0,1-5.042-5.142A29.253,29.253,0,0,0,12.69.922,4.833,4.833,0,0,0,9.145.036C1.693.477,1.778,6.6.379,11.619-.223,14.946-.391,18.2,2.069,20.965Z" transform="translate(79.992 57.979)" fill="#b3c99a"/>
      <path id="パス_787" data-name="パス 787" d="M0,0C1.54,4.444,3.947,8.7,3,13.689a2.755,2.755,0,0,0-.2,2.125c1.013,2.367,3.023,4.228,3.5,6.872.884,2.406-.554,5.506,2.2,7.351C20.963,18.414,17.469,6.065,0,0Z" transform="translate(216.271 16.753)" fill="#ee9c6b"/>
      <path id="パス_788" data-name="パス 788" d="M7.293,27.491c2.6,1.862,5.121,2.812,7.256-.638.262-2.986,1.3-5.919.653-8.973-.536-1.891-.4-3.9-1.053-5.773-1.006-2.735-.636-5.675-1.254-8.472C11.236-.945,8.5-.918,5.479,2.161,3.153,4.536,1.754,7.608.242,10.555c-.923,5.269.96,9.993,2.895,14.709C4.014,26.945,5.728,27.077,7.293,27.491Z" transform="translate(65.854 52.87)" fill="#ecede9"/>
      <path id="パス_789" data-name="パス 789" d="M7.959.662,5.65.17A2.885,2.885,0,0,0,3.37.31C1.288,1.784-.2,3.589.022,6.348c1.25,3.859,3.986,6.176,7.735,7.447,3.247.657,6.573.536,9.847,1.006a11.791,11.791,0,0,0,4.94-1.361c3.383-1.463,8.882-.649,7.661-7.087-2.369-3.5-5.771-2.5-9-1.988-4.229.677-8.241.4-11.87-2.137Z" transform="translate(60.992 28.102)" fill="#aabf92"/>
      <path id="パス_790" data-name="パス 790" d="M.016,10.67,6.643,12.8c5.612-.6,11.474,1.308,16.844-1.688.923-3.712-2.463-4.555-4.271-6.461C15.342,1.979,11.828-2.173,6.363,1.365,3.842,4.185-.291,5.918.016,10.67Z" transform="translate(36.842 82.899)" fill="#86a75b"/>
      <path id="パス_791" data-name="パス 791" d="M18.346,6.316q2.562-2.423,5.127-4.844C10.139-2.212,3.911.814,0,12.879a1.949,1.949,0,0,0,1.731.9c2.05-.41,3.813-1.524,5.7-2.333a17.9,17.9,0,0,1,4.786-1.5,13.845,13.845,0,0,0,3.025-.824A5.515,5.515,0,0,0,18.346,6.316Z" transform="translate(105.547 0.307)" fill="#e6996b"/>
      <path id="パス_792" data-name="パス 792" d="M43.4.105c-7.393.182-14.722,1.917-22.169.919C14.193,2.371,6.922-2.486,0,1.828q.523.662,1.045,1.32c6.092,3.524,12.3,3.361,18.58.569l23.466-.6a1.821,1.821,0,0,0,1.2-1.375A2.174,2.174,0,0,0,43.4.105Z" transform="translate(107.422 73.987)" fill="#120f0d"/>
      <path id="パス_793" data-name="パス 793" d="M0,4.005C.438,8.894,4.4,6.887,6.962,7.5,11.348,8.559,16.189,5.667,20.332,9c.559.943.843,2.181,2.315,2.14,3.683-1.562,5.469-4.132,4.381-8.24A5.092,5.092,0,0,0,25.271,0C17.685,6.624,8.752,4.737,0,4.005Z" transform="translate(70.328 26.325)" fill="#1d211a"/>
      <path id="パス_794" data-name="パス 794" d="M18.575.567,0,0C7.094,8.474,10.456,8.575,18.575.567Z" transform="translate(108.472 77.136)" fill="#e69a6c"/>
      <path id="パス_795" data-name="パス 795" d="M0,8.028q.07,1.913.142,3.828a5.213,5.213,0,0,0,6.174.9c2.86-3.711,4.461-7.6,1.6-12.071Q7.355.34,6.789,0C3.225,1.576.789,4.106,0,8.028Z" transform="translate(95.599 18.297)" fill="#d4d2cc"/>
      <path id="パス_796" data-name="パス 796" d="M19.108,0C12.9.708,6.608.962.657,3.179q-.874.44-.585.886c.191.3.384.445.581.445A50.306,50.306,0,0,0,19.112,1.463q.906-.49.6-.977C19.515.164,19.313,0,19.108,0Z" transform="translate(160.214 69.066)" fill="#070707"/>
      <path id="パス_797" data-name="パス 797" d="M.243,12.289C7.57,11.868,8.881,6.865,8.918.893,6.767-.919,5.369.308,4.1,2.073,3.056,4.07,1.878,6,.809,7.991A5.412,5.412,0,0,0,.243,12.289Z" transform="translate(61.529 81.496)" fill="#85a25c"/>
      <path id="パス_798" data-name="パス 798" d="M2.654,7.56c.649-1.834.923-4.14,3.873-3.087q1.351-1.013,2.7-2.028L6.281.923C1.947-1.276.21.612,0,4.912.352,6.326.791,7.657,2.654,7.56Z" transform="translate(63.919 77.916)" fill="#0e140c"/>
      <path id="パス_799" data-name="パス 799" d="M3.292,8.658C2.99,5.734,4,2.575,1.742,0,.652.3.542,1.4,0,2.145q.7,4.533,1.391,9.065Q2.34,9.938,3.292,8.658Z" transform="translate(221.476 38.132)" fill="#2f231d"/>
      <path id="パス_800" data-name="パス 800" d="M0,2.457q.01.732,0,1.463c3.59.618,6.638-1.357,9.948-2.078C10.1.272,9.6-.455,7.955.3A15.088,15.088,0,0,0,0,2.457Z" transform="translate(179.322 66.61)" fill="#060606"/>
      <path id="パス_801" data-name="パス 801" d="M10.042,1.467q-.008-.666,0-1.331C6.462-.527,3.359,1.423,0,1.983Q.057,2.888.113,3.8c2.731.068,5.692,1.9,8.028-1.052Z" transform="translate(150.825 72.109)" fill="#040404"/>
      <path id="パス_802" data-name="パス 802" d="M6.642,7.129,8.462,3.96C7.828,3.17,7.687,2.053,6.8,1.428A7.1,7.1,0,0,0,1.883.058,2.982,2.982,0,0,0,0,2.382Q2.6,4.867,5.2,7.353A1.719,1.719,0,0,0,6.642,7.129Z" transform="translate(55.13 86.656)" fill="#3e4b2a"/>
      <path id="パス_803" data-name="パス 803" d="M0,2.956c.706,4.23,4.037.743,5.768,1.961C6.911,3.126,5.014,1.991,4.809.491a3.054,3.054,0,0,0-3.1-.133A3.162,3.162,0,0,0,0,2.956Z" transform="translate(204.472 61.053)" fill="#fbfafa"/>
      <path id="パス_804" data-name="パス 804" d="M5.6,3.341,7.367,1.507A2.7,2.7,0,0,0,5.689,0c-1.8,1.586-7.5-.8-5.112,5.033Z" transform="translate(198.868 60.668)" fill="#3a3a3a"/>
      <path id="パス_805" data-name="パス 805" d="M0,2.482,2,4.024l1.687.336C4.853,2.142,8.715,3.908,9.36.049A14.485,14.485,0,0,0,0,2.482Z" transform="translate(187.277 64.427)" fill="#252525"/>
      <path id="パス_806" data-name="パス 806" d="M6.475,0C4.107.621,1.727,1.218,0,3.154A2.556,2.556,0,0,0,1.676,4.622C4.069,3.907,7.128,3.878,6.475,0Z" transform="translate(209.405 55.546)" fill="#3a3b3c"/>
      <path id="パス_807" data-name="パス 807" d="M1.033,2.788c.912,2.807-2.946,5.768.275,8.5l1.659-.78Q3.092,5.385,3.215.264L2.086,0C.756.56.54,1.54,1.033,2.788Z" transform="translate(79.094 68.437)" fill="#000403"/>
      <path id="パス_808" data-name="パス 808" d="M4.618.347,3.872.422,3.157.193C.94,1.177.223,3.089,0,5.3l.4-.2C3.7,6.128,5.783,4.763,7,1.723,6.69.433,6.2-.551,4.618.347Z" transform="translate(102.388 12.993)" fill="#0c0000"/>
      <path id="パス_809" data-name="パス 809" d="M6.524,1.468,4.848,0,0,1.969q.838.755,1.678,1.507l3.047-.631Q5.625,2.157,6.524,1.468Z" transform="translate(204.556 58.7)" fill="#020202"/>
      <path id="パス_810" data-name="パス 810" d="M8.453,0,.425,1.052A2.891,2.891,0,0,1,0,2.247C2.908,1.839,6.488,3.956,8.453,0Z" transform="translate(150.513 74.853)" fill="#fbfafa"/>
      <path id="パス_811" data-name="パス 811" d="M.122.435Q.062,2.183,0,3.933c1.644,1.276,3.384.853,5.131.285C4.931,2.156,2.6,2.425,1.726,1.1Q1.533-.692.122.435Z" transform="translate(102 69.969)" fill="#352e29"/>
      <path id="パス_812" data-name="パス 812" d="M6.765,1.73C1.707-2.148.561,1.112,0,5.437a3.024,3.024,0,0,0,1.9.909c1.643-.083,2.59-1.162,3.429-2.4q1.5-.712,2.994-1.422Z" transform="translate(30.025 8.037)" fill="#3a393b"/>
      <path id="パス_813" data-name="パス 813" d="M9.545,0,7,.263a10.675,10.675,0,0,0-2.456,3C2.031,8.183-.388,13.167.052,18.894c.262,3.418,1.489,6.434,4.873,8.052,4.019,5.056,9.791,6.59,15.659,6.431,16.194-.443,32.266,1.187,48.383,2.057,1.738.765,3.484.229,5.229.034,7.359-.384,14.782.476,22.005-2.1,4.553-1.623,8.442-3.765,11.025-7.934a1.738,1.738,0,0,0,.59-2.037c-1.778-2.126-3.568-4.237-6.423-4.974-2.455-1.345-5.268-1.832-7.711-3.215a32.214,32.214,0,0,0-12.149-1.732L79,11.808c-2.861-1.013-3.5.879-3.944,3.015A66.94,66.94,0,0,1,76.84,22.2a52.385,52.385,0,0,0-1.927-6.982C74.09,7.26,66.927,10.709,62.9,8.528c-3,.308-5.731-1.969-8.806-.908-2.635,1.879-2.471,4.868-2.966,7.5-.116-.02.083.34-.255.232a7.289,7.289,0,0,0,.37-1.6c.161-2.423,1.381-4.818-.042-7.2C48.962,4.112,46.028,3.518,42.913,3.4L40.351,1.727C34.139,1.17,34.985,6.787,33.1,10.01c-.293,1.543-.409,3.113-.616,4.67.172,2.444,1.313,4.736,1.17,7.139-.621-.817-.488-1.749-.694-2.61-1.323-3.848-.459-7.529.72-11.2C35.724,3.4,34.7.629,29.208.53c-4.921.614-9.845,1.215-14.767-.024A22.543,22.543,0,0,0,9.545,0Z" transform="translate(110.461 8.409)" fill="#dd5c28"/>
      <path id="パス_814" data-name="パス 814" d="M11.622,40.251l1.6.665c-3-11.517,5.2-21.273,5.088-32.336C17.865,4.173,17.2-.05,11.273.071L5.241,0C6.27,3.413,3.63,5.111,1.866,7.219A12.393,12.393,0,0,0,0,13.651a10.06,10.06,0,0,0,.672,3.3C.11,21.038,1.815,24.476,3.739,27.86c-.584,2.443.647,4.248,2.05,5.994a15.427,15.427,0,0,0,5.966,6.535Z" transform="translate(90.5 30.154)" fill="#b5c99a"/>
      <path id="パス_815" data-name="パス 815" d="M0,19.424c3.568,1.827,5.231,5.228,7.04,8.509.886-3.668,4.59-1.852,6.575-3.378C7.834,16.092,11.886,8.441,15.581.76A3.357,3.357,0,0,0,12.4.18,12.644,12.644,0,0,0,6.915,3.987Q3.964,5.64,1.014,7.3C2.159,11.466.419,15.39,0,19.424Z" transform="translate(101.773 10.801)" fill="#e59667"/>
      <path id="パス_816" data-name="パス 816" d="M0,.569q.077.859.153,1.716Q2.05,5.506,3.942,8.72q.872-1.072,1.741-2.145C5.2,3.94,4.179,1.661,1.555.468.991-.2.474-.137,0,.569Z" transform="translate(217.534 31.557)" fill="#291c13"/>
      <path id="パス_817" data-name="パス 817" d="M5.228,1.251C3.5-1.132,1.749.491,0,1.216,1.719,5,3.458,5.369,5.228,1.251Z" transform="translate(179.43 42.626)" fill="#150a08"/>
      <path id="パス_818" data-name="パス 818" d="M1.8,3.858c1.409-.507,2.272-1.264,1.977-2.5C3.639.788,2.713-.048,2.225,0,.768.153-.45.961.162,2.693.36,3.253,1.325,3.541,1.8,3.858Z" transform="translate(146.846 52.448)" fill="#513322"/>
      <path id="パス_819" data-name="パス 819" d="M3.805,10.368c2.09-2.851,5.383-4.78,6.448-8.416C10.431.5,9.526.117,8.344,0,5.424.908,3.917,3.678,1.463,5.21.543,6.355-.6,7.446.363,9.116.975,11.007,2.277,11,3.805,10.368Z" transform="translate(33.053 83.201)" fill="#141b0f"/>
      <path id="パス_820" data-name="パス 820" d="M3.332,0c-6.78,3.225-.966,8.315-1.838,12.415l2.033,1.6a1.96,1.96,0,0,0,2.189-1.145C5.834,8.409,6.425,3.863,3.332,0Z" transform="translate(26.746 71.513)" fill="#252524"/>
      <path id="パス_821" data-name="パス 821" d="M1.259.188A2.768,2.768,0,0,0,.023.01,7.636,7.636,0,0,0,3.166,6.8L4.913,4.046q.059-.5.114-1A4.975,4.975,0,0,0,2.271.251C1.935.227,1.6.207,1.259.188Z" transform="translate(30.25 85.514)" fill="#373739"/>
      <path id="パス_822" data-name="パス 822" d="M2.206,3.293c6.858-1.132,4.6,3.17,3.9,6.544.352.772.429,1.752,1.5,1.981,2.21-2.892,1.483-7.934,6.448-8.811C10.647-.068,6.051,1.526,2.251,0A4.066,4.066,0,0,0,.03,1.618,2.506,2.506,0,0,0,.435,3.41,1.722,1.722,0,0,0,2.206,3.293Z" transform="translate(136.76 7.129)" fill="#190b05"/>
      <path id="パス_823" data-name="パス 823" d="M0,2.018c4.215,1.9,11.494-1.33,11.841,7.06,1.42.205,2.419.044,1.529-1.759a4.226,4.226,0,0,1,3.367-3.2C13.557-.806,8.481.942,4.023.515,2.463.427.3-1.268,0,2.018Z" transform="translate(172.729 16.096)" fill="#1e0d06"/>
      <path id="パス_824" data-name="パス 824" d="M17.441,3.251q-.015-.723.016-1.448C13.746-.142,9.545,2.074,5.8.433L3.883,0,0,1.786Q2.049,2.82,4.106,3.854C8.582,4.321,13.078,5.247,17.441,3.251Z" transform="translate(120.01 6.623)" fill="#3f1b0b"/>
      <path id="パス_825" data-name="パス 825" d="M0,1.531C3.881,3.876,8.468,3.2,12.6,4.484c.836-.278,1.806-.387,1.947-1.544C9.768,1.74,5.248-2.115,0,1.531Z" transform="translate(191.995 20.354)" fill="#1e0c07"/>
      <path id="パス_826" data-name="パス 826" d="M9.215,4.383q2.008-.753,4.019-1.5L.674,0A2.1,2.1,0,0,0,.708,3.106Z" transform="translate(163.514 13.732)" fill="#230f09"/>
      <path id="パス_827" data-name="パス 827" d="M3.887,3.355Q3.869,1.8,3.853.249L2.215,0A2.594,2.594,0,0,0,.771,1.631L.291,9.647c-.7,1.551-.107,2.13,1.477,1.964Q2.827,7.482,3.887,3.355Z" transform="translate(160.335 13.483)" fill="#080502"/>
      <path id="パス_828" data-name="パス 828" d="M7.73,4.493q.721-.815,1.444-1.631C6.37.912,3.648-1.484,0,1.191,2.1,3.4,5.135,3.433,7.73,4.493Z" transform="translate(153.376 10.622)" fill="#2f140c"/>
      <path id="パス_829" data-name="パス 829" d="M1.947,0,0,1.544,6.653,4.67c1.294-.263,1.948-.938,1.5-2.325A9.462,9.462,0,0,0,1.947,0Z" transform="translate(204.592 23.294)" fill="#040301"/>
      <path id="パス_830" data-name="パス 830" d="M1.5,0,0,2.325Q3.145,4.4,6.29,6.486a2.694,2.694,0,0,1,1.554-.1A2.036,2.036,0,0,0,8.026,4.8C5.742,3.346,4.4.609,1.5,0Z" transform="translate(211.245 25.639)" fill="#140a07"/>
      <path id="パス_831" data-name="パス 831" d="M0,0C3.62,2.718,7.785.811,11.66,1.371L13.2.073Z" transform="translate(125.806 7.056)" fill="#180804"/>
      <path id="パス_832" data-name="パス 832" d="M31.556,16.588l3.651-5.7c-2.234-9.648-8.72-13.518-15.094-9.013C16.368,6.058,13.4,1.377,10.052.988L3.176,4.668c-4.3.4-3.09,3.381-2.8,5.939,2.688,3.912,6.491,6.4,10.721,8.34,3.009.855,5.337-.595,7.33-2.507,2.817-2.7,5.673-2.815,8.793-.712C28.586,16.433,29.935,17.213,31.556,16.588Z" transform="translate(30.236 17.205)" fill="#83a557"/>
      <path id="パス_833" data-name="パス 833" d="M1.754,7.134C7.615,3.095,10.387,4.53,16.945,15q.6.1,1.2.182C18.774,6.671,10.8,4.559,6.242.239,4.763-1.162,2.427,3.972.091,5.676-.155,7.073,0,8.012,1.754,7.134Z" transform="translate(48.496 13.093)" fill="#13190d"/>
      <path id="パス_834" data-name="パス 834" d="M9.962,4.3,8.3,2.842C5.686,4.431,4.5,2.325,2.936.892,1.078-.809.169.073,0,2.267,3.065,4.2,5.28,10.29,9.962,4.3Z" transform="translate(40.289 15.927)" fill="#171f12"/>
      <path id="パス_835" data-name="パス 835" d="M20.886,12.428c-2.01-2.854-6.293-5.449-1.038-9.13L17.163,2.1A9.417,9.417,0,0,0,13.55.269a23.335,23.335,0,0,0-9.368.46A8.487,8.487,0,0,0,0,3.478C.318,8.844,5.316,6.46,7.835,8.228c-.727,1.1-2.247,1.275-2.981,2.43a3.749,3.749,0,0,0,2.389,4.087c2.678-.088,5.408.487,7.991-.672l2.034,1.435C20.079,16.368,18.893,12.531,20.886,12.428Z" transform="translate(75.167 44.842)" fill="#1a1e17"/>
      <path id="パス_836" data-name="パス 836" d="M11.676.463,3.249,0c-6.472,3.368-1.488,6.987-.23,10.524l.568-.276C4.955,5.89,5.928,1.2,11.676.463Z" transform="translate(78.723 58.453)" fill="#bacea0"/>
      <path id="パス_837" data-name="パス 837" d="M3.619,0,0,3.081A9.324,9.324,0,0,0,3.352,8.136q1.624.223,1.259-1.376C4.369,4.493,1.56,2.6,3.619,0Z" transform="translate(92.433 57.271)" fill="#21241e"/>
      <path id="パス_838" data-name="パス 838" d="M1.259,0,0,1.376c1.521,2.515,2.054,6.27,6.471,5.137Z" transform="translate(95.786 64.031)" fill="#25281d"/>
      <path id="パス_839" data-name="パス 839" d="M2.319,27.636c3.409-.459,4.24-4.5,7.389-5.321,5.817-3.927,9.36,3.113,14.39,2.981l4.8,1.527c2.976-.681,2.823-3.224,3.234-5.432-.908-4.588,1.985-4.736,5.227-4.477Q35.844,9.45,34.333,1.984A1.416,1.416,0,0,0,34.3,0C28.9,2.885,21.709.525,17.143,5.858a6,6,0,0,0-.879,1.95c-.233,2.306-1.912,2.293-3.624,2.21A10.952,10.952,0,0,1,7.511,8.69a6.572,6.572,0,0,0-4.6-.913A3.427,3.427,0,0,0,1.053,9.5,16.426,16.426,0,0,0,0,16.151C.43,19.834.124,23.672,2.261,27Z" transform="translate(32.845 61.925)" fill="#84a658"/>
      <path id="パス_840" data-name="パス 840" d="M.527,13.974q.326,1.009.653,2.02c2.8-1.93,3.624-5.247,5.5-7.821,2.352-3.222,3.786-2.206,4.577,1.137a1.722,1.722,0,0,0,1.863.2,7.48,7.48,0,0,0,1.253-1.6c1.628-.1,3.258-.316,4.882-.281,2.223.047,3.824-.595,3.724-3.1-.1-2.439-2.147-1.821-3.62-2.071C15.987,1.886,12.3,3.267,9.221.844,6.929-.871,5.11.326,3.325,1.788.679,5.451-.875,9.375.527,13.974Z" transform="translate(65.998 47.915)" fill="#b7cda0"/>
      <path id="パス_841" data-name="パス 841" d="M2.564.134C1.406-.322.988.466.6,1.3a15.858,15.858,0,0,0,0,8.642q.857,2.791,1.715,5.583l1.615-2.247c.545-3.5-3.556-7.1.23-10.524Z" transform="translate(77.809 55.695)" fill="#030404"/>
      <path id="パス_842" data-name="パス 842" d="M1.5,8.642Q1.5,4.321,1.5,0A8.1,8.1,0,0,0,.349.226C-.036,3.137-.534,6.065,1.5,8.642Z" transform="translate(76.908 56.999)" fill="#8d9d79"/>
      <path id="パス_843" data-name="パス 843" d="M16.281,7.154,26.457,6.92C29.342.667,25.156.388,20.813.239q-.651.01-1.3.023L17.025,1.9c-3.934-.283-7.935.614-11.81-.693C3.8.533,2.459-.819.782.678Q-1.7,6.843,3.7,10.707A4.016,4.016,0,0,0,6.971,9.194C9.72,6.9,13.3,8.411,16.281,7.154Z" transform="translate(62.357 40.126)" fill="#b1c798"/>
      <path id="パス_844" data-name="パス 844" d="M0,1.51c4.107,3.1,8.231,2.179,12.359.053C9.092-1.636,5.071,1.239,1.533.218A1.95,1.95,0,0,0,0,1.51Z" transform="translate(67.021 40.459)" fill="#1f1d19"/>
      <path id="パス_845" data-name="パス 845" d="M10.66,10.4q.766-.645,1.533-1.292A22.886,22.886,0,0,1,5.43,2.227L2.2.377C.805-.551.362.393,0,1.5A5.387,5.387,0,0,0,1.353,4.411,17.948,17.948,0,0,0,6.176,8.522c.346.065.694.125,1.042.184Z" transform="translate(56.361 31.566)" fill="#0c0f0b"/>
      <path id="パス_846" data-name="パス 846" d="M10.007,8.29c.444-2.059,3.253-3.934.491-6.246L8.792,0C8.343,6,1.547.966,0,5.058l.535-.191C3.644,6.14,7.214,6.138,10.007,8.29Z" transform="translate(81.869 35.329)" fill="#1a1e17"/>
      <path id="パス_847" data-name="パス 847" d="M14.391,5.311C9.841,3.126,6.2-3.472,0,2.328a1.071,1.071,0,0,1,.755.914C5.783,1.23,8.855,5.17,12.578,7.127Z" transform="translate(42.552 81.91)" fill="#11170c"/>
      <path id="パス_848" data-name="パス 848" d="M1.682,4.4l5.389-2.85A2.775,2.775,0,0,0,5.349,0,7.968,7.968,0,0,0,0,2.947Z" transform="translate(107.006 10.392)" fill="#3e281e"/>
      <path id="パス_849" data-name="パス 849" d="M0,1.721,1.722,3.266,5,2.89c.034-.964.067-1.927.1-2.89Z" transform="translate(112.355 8.671)" fill="#050200"/>
      <path id="パス_850" data-name="パス 850" d="M3.234,0,0,5.432,1.852,7.3,4.833,2.16Z" transform="translate(61.74 83.316)" fill="#161d0f"/>
      <path id="パス_851" data-name="パス 851" d="M1.013,18.808l5.6,5.651a1.02,1.02,0,0,0-.028-.948c3.9-7.9,4.394-15.746-.37-23.51L1.5,5.341C.535,9.8-1.059,14.239,1.013,18.808Z" transform="translate(0 46.708)" fill="#b2c895"/>
      <path id="パス_852" data-name="パス 852" d="M0,1.5c2.678.513-1.706,3.161,1.1,3.634A5.682,5.682,0,0,0,4.413.007L2.731,0C1.892.633.322-.064,0,1.5Z" transform="translate(27.294 13.474)" fill="#323230"/>
      <path id="パス_853" data-name="パス 853" d="M0,1.2Q.185,12.956.37,24.711c7.242,3.781,14.546,2.4,21.858.259a2.78,2.78,0,0,0,.645-2.25c-2.083-3.564-4.888-1.57-7.509-1.005-3.287,1.113-3.856-.4-3.088-3.2.921-3.366,2.311-6.692.847-10.261C9.689,4.286,6.54-.129.44,0A2.02,2.02,0,0,0,0,1.2Z" transform="translate(6.22 45.507)" fill="#80a155"/>
      <path id="パス_854" data-name="パス 854" d="M0,4.441c3.635,3.041,7.3,6.031,11.74,7.879,1.267-.267,2.084-.925,2.037-2.335C12.539,6.092,6.606,5.844,6.709.889,4.461-.167,2.23-.458.032,1Q.016,2.719,0,4.441Z" transform="translate(6.66 41.069)" fill="#12180e"/>
      <path id="パス_855" data-name="パス 855" d="M.033,1.583C2.209,1.928,4.676.865,6.5,2.917c2.038,2.09,3.921,1.818,5.681-.367A2.745,2.745,0,0,0,11.761,0L.15.276A2.68,2.68,0,0,0,.033,1.583Z" transform="translate(6.658 40.483)" fill="#69686c"/>
      <path id="パス_856" data-name="パス 856" d="M1.528,0,0,1.759C1.48,5.185.534,9.432,4.1,12.271,4.423,7.965,4.253,3.77,1.528,0Z" transform="translate(184.57 23.415)" fill="#261007"/>
      <path id="パス_857" data-name="パス 857" d="M13.335,0,0,.6A18,18,0,0,0,14.85.548,9.163,9.163,0,0,0,13.335,0Z" transform="translate(124.116 9.874)" fill="#ec622b"/>
      <path id="パス_858" data-name="パス 858" d="M3.514,1.981,2.016,0c.021,3.874-4.236,7.587-.44,11.606,1.278-.66,1.693-1.913,2.152-3.136a1.856,1.856,0,0,0-.271-1.809Q3.486,4.321,3.514,1.981Z" transform="translate(140.85 16.966)" fill="#070404"/>
      <path id="パス_859" data-name="パス 859" d="M2.157,0,.795,3.512c.161,2.307-2.671,5.275,1.478,6.7A10.887,10.887,0,0,0,2.157,0Z" transform="translate(141.631 25.059)" fill="#652a11"/>
      <path id="パス_860" data-name="パス 860" d="M0,1.433Q.059,6.541.117,11.649c3.1-3.78,2.57-7.686.4-11.649A4.547,4.547,0,0,0,0,1.433Z" transform="translate(143.788 23.627)" fill="#ee612a"/>
      <path id="パス_861" data-name="パス 861" d="M3.934,1.964,2.457,0C1.111,2.007-.358,3.974.078,6.726,3.253,6.456,3.163,3.872,3.934,1.964Z" transform="translate(158.169 23.13)" fill="#1d0a05"/>
      <path id="パス_862" data-name="パス 862" d="M9.472,3.423C7.326-.518,3.52.137,0,0,1.869,2.535,9.158,0,6.41,6.85l3.516-.1Q9.7,5.085,9.472,3.423Z" transform="translate(82.403 40.196)" fill="#1f241d"/>
      <path id="パス_863" data-name="パス 863" d="M5.073,8.776l.171-6.451c-2.141-3.16-3.853-3.262-5,.7,0,0,.03.181.028.171C-.766,8.067,1.483,12.618,1.7,17.374l.5-.362C7.189,15.675,2.765,11.051,5.073,8.776Z" transform="translate(29.808 68.328)" fill="#e8e9e5"/>
      <path id="パス_864" data-name="パス 864" d="M1.605,8.247c1.558-1,3-2.818,5-.7a4.171,4.171,0,0,1,1.6-.267c2.4-3.35-.327-4.969-2.3-6.848A4.289,4.289,0,0,0,3.62.018C.921.953.527,3.229.372,5.641Q.186,6.507,0,7.373Z" transform="translate(28.448 63.105)" fill="#11140f"/>
      <path id="パス_865" data-name="パス 865" d="M2.876,0C.433,2.227,3.107,6.241,0,8.236.61,9.8,1.078,11.481,3.1,11.818Q2.988,5.908,2.876,0Z" transform="translate(32.005 77.105)" fill="#959f8e"/>
      <path id="パス_866" data-name="パス 866" d="M17.609,4.627l1.629-1.354c-3.671-3.927-7.193-4.8-10.957.058C6.788,5.258,4.846,7.056,2,6.921c-1.76-.4-1.855.837-2,2.033a2.98,2.98,0,0,0,1.331,1.882C4.937,12.182,7.369,10.023,9.851,8,11.733,5.276,15.287,6.355,17.609,4.627Z" transform="translate(39.326 28.67)" fill="#151b0f"/>
      <path id="パス_867" data-name="パス 867" d="M8.954,8.237l1.172-1.286A13.7,13.7,0,0,0,.929,0Q.761.872.591,1.749A1.4,1.4,0,0,0,0,2.924c.024.46.092.691.192.693A19.932,19.932,0,0,0,4.913,7.984C6.225,8.586,7.533,9.377,8.954,8.237Z" transform="translate(31.197 28.637)" fill="#242d1c"/>
      <path id="パス_868" data-name="パス 868" d="M13.307,1.091A3.93,3.93,0,0,1,13.413.2C8.912-.967,9.225,3.237,8.59,5.242c-2.188,6.9-3.625,2-5.335-.094C1.678,4.793.841,5.184,1.407,6.986c.408,1.459.7,2.872-1.362,3.313a12.425,12.425,0,0,0-.038,1.469c1.892,2.125,3.934,4,6.993,4.188,2.293-.532,3.356-2.322,4.337-4.207C12.064,8.213,15.559,5.178,13.307,1.091Z" transform="translate(18.375 30.184)" fill="#1f201f"/>
      <path id="パス_869" data-name="パス 869" d="M14.815.3C9.951,1.519,4.54-2.052,0,1.994,2.9,4.81,6.623,1.35,9.643,3.252,11.939,3.272,15.307,5.172,14.815.3Z" transform="translate(13.542 19.992)" fill="#5b5a59"/>
      <path id="パス_870" data-name="パス 870" d="M9.886,1.464C6.94-1.007,3.479.455.243.206-.113,1.611-.321,2.963,1.427,3.644c2.035,1.05,2.625-.92,3.741-1.791Z" transform="translate(13.299 21.781)" fill="#121212"/>
      <path id="パス_871" data-name="パス 871" d="M2.968,8.8,4.815,6.965,1.676,0A2,2,0,0,0,0,1.811Q1.483,5.308,2.968,8.8Z" transform="translate(16.814 28.367)" fill="#72716f"/>
      <path id="パス_872" data-name="パス 872" d="M2.088,6.545,3.764,4.734Q3.753,2.367,3.741,0L0,1.791Q1.043,4.169,2.088,6.545Z" transform="translate(14.726 23.633)" fill="#4f4f4f"/>
      <path id="パス_873" data-name="パス 873" d="M9.564.565C6.222.826,2.052-2.041,0,3.1l.184.128,5.961-1.18Z" transform="translate(69.074 46.714)" fill="#0f100d"/>
      <path id="パス_874" data-name="パス 874" d="M4.662,12.054,7.94,18.949l3.912,1.81c2.955.33,5.335-.55,6.851-3.256a4.362,4.362,0,0,0-.084-2.3C14.061,9.459,9.233,3.981,2.945,0A2.959,2.959,0,0,0,.784.769c-1.58,2.808-.434,5.443.5,8.1A5.258,5.258,0,0,0,4.662,12.054Z" transform="translate(28.713 51.438)" fill="#5ba36c"/>
      <path id="パス_875" data-name="パス 875" d="M.068,17.919Q.008,18.7,0,19.481a2.656,2.656,0,0,0,3.458.242C7.083,18.09,10.2,14.9,14.888,17.061c4.667,2.154,3.127-3.144,4.913-4.52Q21.169,6.571,22.537.6L22.349.461a1.52,1.52,0,0,0-2.3.153,8.141,8.141,0,0,0-3.467,4.554C15.413,9.361,13.473,10.83,8.7,9.5,2,7.643,1.288,13.368.068,17.919Z" transform="translate(46.723 49.346)" fill="#0e2310"/>
      <path id="パス_876" data-name="パス 876" d="M9.621.242,6.163,0Q3.077,1.685,0,3.37C.829,5.833,2.914,4.8,4.551,5.01,6.045,3.617,8.438,3.52,9.535,1.555A12.725,12.725,0,0,1,9.621.242Z" transform="translate(40.56 68.827)" fill="#5c6057"/>
      <path id="パス_877" data-name="パス 877" d="M4.984,0C2.727.293.845,1.127,0,3.455,1.682,2.332,7.026,6.493,4.984,0Z" transform="translate(45.112 70.382)" fill="#a6c38b"/>
      <path id="パス_878" data-name="パス 878" d="M16.307,33.358c3.552-4.028,6-10.508,13.379-4.8,2,1.542,2.944-1.362,3.532-3.17,1.013-3.113,2.046-6.221,3.069-9.33-1.76-3-4.043-5.829-3.193-9.689l.137.084c-2.466-1.406-4.378-3.585-6.895-4.926-2.7-1.6-5.405-2.375-8.148-.1-2.625,1.233-4.525,4.312-8.081,3.172-2.18.2-3.735,1.506-5.241,2.918-2.57,3.074-6.6,5.6-4.057,10.628A108.443,108.443,0,0,0,16.307,33.358Z" transform="translate(30.484 33.907)" fill="#0d7828"/>
      <path id="パス_879" data-name="パス 879" d="M0,3.3A17.355,17.355,0,0,1,8.187,4.93c.681-.5,1.672-.684,1.823-1.742L8.26,1.267C4.858-.694,1.951-.639,0,3.3Z" transform="translate(48.674 32.03)" fill="#80a055"/>
      <path id="パス_880" data-name="パス 880" d="M1.823,0,0,1.742c2.191,1.321,3.672,4.077,6.856,3.4Z" transform="translate(56.861 35.217)" fill="#afbf95"/>
      <path id="パス_881" data-name="パス 881" d="M4.278.582l-1.1,1.287c.25,4.282-1.412,8.163-2.591,12.142C.1,15.636-.62,17.53,1,18.6c2.215,1.456,4.209.663,5.425-1.764a2.657,2.657,0,0,0,.406-2.1c-.648-4.537,3-8.955.393-13.549C6.383.307,5.547-.639,4.278.582Z" transform="translate(15.224 51.522)" fill="#313c21"/>
      <path id="パス_882" data-name="パス 882" d="M.135,4.986A1.582,1.582,0,0,1,0,5.927c2.337,1.068,4.953-2.97,7.167.389l2.952-4.608C5.558-.954,1.869-.958.135,4.986Z" transform="translate(21.653 62.43)" fill="#1a1b14"/>
      <path id="パス_883" data-name="パス 883" d="M8.545,10.152l2.34,1.549c2.272,3.682,3.432,8.955,9.767,6.824q-.719-4.189-1.436-8.378c.75-4.179-2.316-5.392-5.227-6.725C12.168,1.576,10.14.126,7.425,0c-1.4,1.71-3.3,1.627-5.224,1.449C.747,1.984-1.338,2.3,1.173,4.268,3.647,6.208,7.149,6.86,8.545,10.152Z" transform="translate(10.957 41.952)" fill="#a6bd87"/>
      <path id="パス_884" data-name="パス 884" d="M12.277,6.824C7.676,6.475,6.135,1.747,2.511,0,1.775,3.5,1.263,7.072.228,10.484c-.737,2.424.4,2.927,2.228,3.278,2.6-3.3,6.286-3.313,9.986-3.277l1.6-.644Z" transform="translate(19.331 53.653)" fill="#749250"/>
      <path id="パス_885" data-name="パス 885" d="M5.1,6.265Q7.049,4.534,9,2.8q-.221-.813-.443-1.627L4.87,0C1.836,1.332-1.325,2.586.576,6.964A3.92,3.92,0,0,0,5.1,6.265Z" transform="translate(31.595 35.698)" fill="#a1bc86"/>
      <path id="パス_886" data-name="パス 886" d="M3.465,10.736Q5.837,7.58,8.207,4.422C6.448,3.125,6.044.362,3.422,0,1.992,3.439-.391,6.577.055,10.612A2.44,2.44,0,0,0,3.465,10.736Z" transform="translate(28.26 31.276)" fill="#bdbfbd"/>
      <path id="パス_887" data-name="パス 887" d="M6.778.123,3.368,0,0,3.484q2.611,3.36,5.226,6.724c.376-.024.752-.042,1.126-.05.073-4.286,3.276-6.9,5.4-10.085Z" transform="translate(24.947 41.89)" fill="#7b9d53"/>
    </g>
  </g>
</svg>
