<svg xmlns="http://www.w3.org/2000/svg" width="226.427" height="459.376" viewBox="0 0 226.427 459.376">
  <g id="contents3" transform="translate(-1069.588 -2865.242)">
    <g id="だいこん" transform="matrix(0.809, 0.588, -0.588, 0.809, 1425.975, 2487.366)" opacity="0.1">
      <path id="パス_352" data-name="パス 352" d="M220.148,788.335q-.773-1.246-1.548-2.491c-2.024-2.753-2.627-6.243-4.684-8.981A22.982,22.982,0,0,1,212,765.529c-.145-3.394.407-6.834-.678-10.167-.395-4.271-.837-8.536-1.576-12.768-.781-2.557-1.231-5.189-1.8-7.8-.569-7.373.386-14.745-.031-22.113-4.414-6.8-3.295-14.771-4.672-22.211-.378-4.357-.109-8.723-.167-13.084,1.075-3.242,2.575-6.189,5.668-8.008l3.271-3.3a5.044,5.044,0,0,1,6.248-.48c1.511,3.063-1.361,4.228-2.676,6.016-3.813,5.184-3.4,7.095,2.718,9.4,5.036,1.894,10.327,3.029,15.512,4.479,10.231,2.862,14.793,7.985,14.353,18.612-.516,12.468-.083,25.075-2.958,37.379-9.5,1.52-13.3,7.627-13.567,16.7a15.186,15.186,0,0,1-1.6,5.334,10.489,10.489,0,0,0-.927,6.762c.9,7.367.244,14.182-6.629,18.8A3.03,3.03,0,0,1,220.148,788.335Z" transform="translate(6.275 15.738)" fill="#fdfdfd"/>
      <path id="パス_353" data-name="パス 353" d="M206.089,616.571c.831.088,1.64.2,1.607,1.33,2.465,1.273,5.217,2.04,7.237,4.094,3.78,2.693,5.521-.556,7.666-2.636.558-.026,1.272-.073,1.554.3,8.186,10.816,19.67,10.614,31.443,9.445,1.541-.077,3.038-.454,4.569-.644a4.782,4.782,0,0,1,3.394,1.019c2.035,2.831,2.077,5.255-1.417,6.953-4.486,2.055-9.3,1.856-14.034,1.7-4.858-.166-5.268,2.175-3.951,5.907a4.053,4.053,0,0,1-.574,2.2,5.415,5.415,0,0,1-4.34.963c-1.512-.033-3.139-1.734-4.425-.407-1.02,1.051.463,2.362.9,3.55a5.08,5.08,0,0,1,.254,2.2,6.651,6.651,0,0,1-2.382,3.839,7.344,7.344,0,0,1-5.606.552,8.471,8.471,0,0,1-2.867-1.631,34.255,34.255,0,0,0-5-3.771,14.673,14.673,0,0,1-2.294-2.127c-2.107-2.859-5.949-3.676-7.928-6.693-1.247-3.367-4-5.95-4.955-9.476.3-3.107-1.241-5.619-2.671-8.179C201.636,621.369,198.108,616.361,206.089,616.571Z" transform="translate(5.813 5.058)" fill="#8cda74"/>
      <path id="パス_354" data-name="パス 354" d="M238.519,659.41c5.6-2.979,9.306.9,11.373,4.611,12.355,22.146,20.1,45.4,14.354,71.249-.927,4.167-2.709,6.743-6.777,11.031-3.041-3.581.655-8.59-2.575-11.936-1.852-1.263-2.213-3.211-2.417-5.23-.6-12.447.689-24.935-.76-37.36a23.8,23.8,0,0,1-.82-5.2,30.691,30.691,0,0,0-1.327-8.139,28.148,28.148,0,0,0-2.6-8.157,19.118,19.118,0,0,0-3.543-5.005C241.937,663.2,237.755,663.356,238.519,659.41Z" transform="translate(14.123 14.323)" fill="#e6fbe3"/>
      <path id="パス_355" data-name="パス 355" d="M215.859,618.686c-3.752-8.535-2.625-17.895,3.13-22.162,7.168-5.312,13.834-2.032,20.268,1.914a30.37,30.37,0,0,1,12.418,14.593c1.036,2.511,1.831,4.553,5.07,3.571,1.152,3.143-1.069,4.493-3.142,5.929-2.476.943-4.789.354-7.043-.761a21.608,21.608,0,0,1-5.66-4.423c-2.461-2.541-4.376-2.8-7.367-.181-6.388,5.592-7.013,5.29-12.243-1.852-2.95-2.628-2.789.886-3.842,1.968A3.518,3.518,0,0,1,215.859,618.686Z" transform="translate(8.636)" fill="#6f9d30"/>
      <path id="パス_356" data-name="パス 356" d="M258.6,733.844c6.027,9.593,5.439,19.769,2.17,29.943a55.932,55.932,0,0,1-6.575,13.834c-4.739,7.167-9.2,14.537-11.749,22.923-1.537,5.064-4.753,6.815-8.618,1.958-5.638-7.086-12.111-13.725-14.095-23.067,2.557-1.026,4.115,1.025,6.049,1.939a23.4,23.4,0,0,1,6.445,6.121,21.031,21.031,0,0,1,2.756,6.552c-.182,1.018.911-.026.764-.272-.886-1.483.059-2.988.5-4.474.69-1.69,1.251-3.433,2.043-5.084,2.807-4.2,7.1-7.237,9.273-11.928a21.2,21.2,0,0,0,2.084-9.187,6.449,6.449,0,0,1,.58-2.046,17.627,17.627,0,0,0,3.472-9.765,18.2,18.2,0,0,1,.364-2.21c1.356-3.688.663-7.691,1.752-11.418A6.686,6.686,0,0,1,258.6,733.844Z" transform="translate(9.977 31.06)" fill="#f1e3cc"/>
      <path id="パス_357" data-name="パス 357" d="M246.837,618.1q1.715-2.494,3.431-4.988.022-.607.081-1.21c2.4-2.236,4.8-4.508,5.723,1.087.395,2.392.812,4.782,1.392,7.131.671,3.889,2.083,7.317,5.857,9.251a1.011,1.011,0,0,1,.127.971c1.126,1.666,1.141,3.18-.607,4.458-3.8.77-6.592-1.093-9.16-3.532l-2.953-.175c-2.354-.086-4.809.5-6.95-1.036-2.269-3.823.474-6.794,1.7-10.024C245.908,619.375,246.364,618.733,246.837,618.1Z" transform="translate(15.116 3.49)" fill="#e7e8e7"/>
      <path id="パス_358" data-name="パス 358" d="M217.139,643.669l2.122,2.177c2.368,1.026,3.87,3.013,5.455,4.913a15.686,15.686,0,0,1,3.038,5.9c.859,2.658,1.553,5.323.191,8.034a5.325,5.325,0,0,1-1.789,1.545c-2.226.762-4.481,1.76-6.442-.555-1.337-.575.621-4.353-2.82-2.9l-.6-.43.316-.669c-2.735-4.19-3.1-9.408-5.9-13.572-.841.167-1.207-.211-1.194-1.032a3.329,3.329,0,0,1-1.341-3.35,3.892,3.892,0,0,1,3.734-2.957C214.048,641.02,216.08,641.465,217.139,643.669Z" transform="translate(7.408 10.427)" fill="#84ce6e"/>
      <path id="パス_359" data-name="パス 359" d="M212.886,646.9c-7.229,4.932-28.662,5.99-34.576,1.708,4.089-4.1,9.788-3.946,14.806-5.613a28.521,28.521,0,0,1,13.549-1.191C209.551,642.334,212.628,642.992,212.886,646.9Z" transform="translate(0.794 10.571)" fill="#709c35"/>
      <path id="パス_360" data-name="パス 360" d="M273.676,635.53c-3.125,9.176-12.888,8.38-19.194,12.777-.4-.145-.79-.291-1.189-.432-2.468-3.014-7.559-5.178-3.379-10.366,5.666-2.3,11.9.047,17.577-2.166C269.564,634.957,271.661,634.079,273.676,635.53Z" transform="translate(16.317 9.084)" fill="#88cf71"/>
      <path id="パス_361" data-name="パス 361" d="M222.44,661.928a7.455,7.455,0,0,1,1.423-.4,7.207,7.207,0,0,1,2.775-1.665c2.805-.264,4.173-2.976,6.6-3.88,1.967-.259,3.086,1.459,4.694,1.985.86.032,1.725-.033,2.591-.088l1.547,2.065c.932,3.271,6.54,1.9,6.3,6.341-.261.261-.522.523-.781.788-7.363,2.337-14.529,1.549-21.568-1.359C224.247,664.995,222.244,664.493,222.44,661.928Z" transform="translate(10.575 13.791)" fill="#181c18"/>
      <path id="パス_362" data-name="パス 362" d="M179.641,628.849c-.126-7.215,4.071-11.488,9.952-14.612,5.654,6.078,5.435,8.137-1,11.424-.82.419-1.346,1.587-2.193,2.248C184.277,629.162,182.13,630.265,179.641,628.849Z" transform="translate(1.088 4.541)" fill="#8dd974"/>
      <path id="パス_363" data-name="パス 363" d="M193.52,647.944c-4.92,1.057-9.418,3.844-14.661,3.569a6.475,6.475,0,0,1-1.7-4.653c-.1-6.249-3.989-12.922,2.056-18.471a1.782,1.782,0,0,1,2.133.9,7.83,7.83,0,0,1,.5,3.931c-.871,11.421-.865,11.422,9.788,11.989C192.815,645.745,193.759,646.44,193.52,647.944Z" transform="translate(0.245 7.663)" fill="#141c0a"/>
      <path id="パス_364" data-name="パス 364" d="M193.666,612.712c4.2-2.05,7.791-.172,11.38,1.74.491,2.252-.7,3.918-1.932,5.576-4.176,1.925-7.957.048-11.8-1.219C187.893,615.165,193.045,614.81,193.666,612.712Z" transform="translate(3.419 4.006)" fill="#8dd974"/>
      <path id="パス_365" data-name="パス 365" d="M190.694,645.552l-2.115-1.723c1.6-4.27,5.931-3.018,8.939-4.46,6.022-.7,11.705-.33,15.731,5.114l.6,2.977-3.247-.046C204.43,641.876,197.462,644.778,190.694,645.552Z" transform="translate(3.071 10.055)" fill="#18210b"/>
      <path id="パス_366" data-name="パス 366" d="M225.118,661.066l3.168,2.829c-3.407,2.523-6.776,5.173-11.469,3.605l-6.43-.33c-.588-4.812,6.282-2.807,6.387-6.986a2.789,2.789,0,0,1,3.262.415C221.549,662.727,223.482,660.271,225.118,661.066Z" transform="translate(7.898 14.653)" fill="#1e261b"/>
      <path id="パス_367" data-name="パス 367" d="M194.8,612.565c2.522,3.691-3.119,3-2.921,5.443,3.6,1.687,3.31,5.222,3.967,8.316-.165,2.566-1.641,3.655-4.1,3.643-2.452-.458-5.042-.61-6.706-2.9.257-.478.413-1.271.782-1.387,7.176-2.244,4.228-6.8,2.575-11.059C190.124,612.679,192.351,612.276,194.8,612.565Z" transform="translate(2.286 4.152)" fill="#8ddb72"/>
      <path id="パス_368" data-name="パス 368" d="M216.928,613.853c0-2.48.318-5.15,2.734-6.186,1.956-.838,2.412,1.476,3.084,2.862-.314,1.036-.346,2.122-.558,3.176-.718,2.742.111,5.944-2.413,8.148-.459,6.919-4.07,5.374-8,2.979-.016-1.359.209-2.424,1.971-1.615l2.666-.075C218.23,620.137,217.44,616.988,216.928,613.853Z" transform="translate(8.214 3.045)" fill="#152009"/>
      <path id="パス_369" data-name="パス 369" d="M252.537,739.19q-.572,1.884-1.142,3.768c-4.892-5.323-1.013-12.377-3.613-18.154-.37-5.169-2.255-10.563,2.1-15.072,4.05,1.74.682,5.828,2.606,8.239q.246,2.5.49,5Q252.758,731.082,252.537,739.19Z" transform="translate(16.037 25.714)" fill="#313532"/>
      <path id="パス_370" data-name="パス 370" d="M204.231,685.451c2.777,6.98.1,15.069,4.417,21.736q-.913,1.263-1.954.1c-5.694-5.059-2.5-12.133-4.106-18.119C203.517,688.1,202.633,686.226,204.231,685.451Z" transform="translate(6.177 20.331)" fill="#252525"/>
      <path id="パス_371" data-name="パス 371" d="M255.738,621.865a9.121,9.121,0,0,1-1.731-6.7c.364-4.8-2.638-3.06-4.955-2.77-1.252-3.855,1.641-4.7,4.182-5.065,3.6-.522,2.419,2.672,2.6,4.4.354,3.376,1.958,6.628,1.08,10.126Q256.337,623.058,255.738,621.865Z" transform="translate(16.412 2.997)" fill="#080808"/>
      <path id="パス_372" data-name="パス 372" d="M180.775,628.8c-5.283,5.359-2.424,12.211-3.374,18.365-1.885-7.214-6.275-14.823,3.2-20.244a1.333,1.333,0,0,1,.469,1.219C180.988,628.583,180.891,628.8,180.775,628.8Z" transform="translate(0 7.354)" fill="#2d3f16"/>
      <path id="パス_373" data-name="パス 373" d="M205.994,703.343l1.954-.1c1.467,8.1-.294,16.246.283,24.362a.973.973,0,0,1-1.572.027C204.247,719.6,207.572,711.4,205.994,703.343Z" transform="translate(6.877 24.275)" fill="#020202"/>
      <path id="パス_374" data-name="パス 374" d="M212.2,759.606c-5.333-.629-5.9-2.845-2.493-9.813a1.4,1.4,0,0,1,1.807.315c.244,2.777,1.454,5.33,1.872,8.068A1.485,1.485,0,0,1,212.2,759.606Z" transform="translate(7.283 34.552)" fill="#fdfdfd"/>
      <path id="パス_375" data-name="パス 375" d="M209.37,728.381c2.225,3.9,1.695,8.2,1.8,12.4-.116,2.522,2.4,5.637-1.64,7.274q-.8-8.16-1.588-16.318C208.775,730.772,208.068,729.15,209.37,728.381Z" transform="translate(7.364 29.849)" fill="#242424"/>
      <path id="パス_376" data-name="パス 376" d="M179.716,629.357l-.176-1.879a1.168,1.168,0,0,1,.132-.892q3.293-1.077,6.592-2.162l6.864,1.609c-.982,1.73-2.805,2.1-4.443,2.767-.97.363-1.967.652-2.952.965-1.921.53-3.525,2.107-5.712,1.782Z" transform="translate(1.059 6.8)" fill="#1d2b12"/>
      <path id="パス_377" data-name="パス 377" d="M201.42,618.194l1.891-4.22c2.123,0,3.087,1.25,3.435,3.172-7.079,2.027-1.218,6.3-1.646,9.479a1.855,1.855,0,0,1,.1,2.141c-4.333-.182-5.08-4.177-7.174-6.744C197.539,619.314,201.112,620.2,201.42,618.194Z" transform="translate(5.155 4.483)" fill="#0a0d0a"/>
      <path id="パス_378" data-name="パス 378" d="M256.235,646c-3.705,5.82-9.985,3.181-15.038,4.575a2.753,2.753,0,0,1-.781-2.1,3.148,3.148,0,0,1,1.372-1.79c3.659-1.343,7.562-.911,11.325-1.552a3.272,3.272,0,0,1,2.034.953l.578.385Z" transform="translate(14.563 11.392)" fill="#080309"/>
      <path id="パス_379" data-name="パス 379" d="M210.245,646.788c4.833,3.279,4.623,8.749,5.9,13.573C212.67,656.491,210.09,652.233,210.245,646.788Z" transform="translate(7.873 11.759)" fill="#070207"/>
      <path id="パス_380" data-name="パス 380" d="M204.377,688.4q-.821,1.858-1.643,3.718c-.5-6.7-2.021-13.463,1.175-19.946a1.417,1.417,0,0,1,.274,2.31Z" transform="translate(6.031 17.386)" fill="#131213"/>
      <path id="パス_381" data-name="パス 381" d="M258.969,630.454q.718-1.948,1.436-3.894l1.475,1.146c1.34,2.032,3.936,3.285,3.844,6.205-3.073,2.993-6.109,3.079-9.1-.128A2.988,2.988,0,0,1,258.969,630.454Z" transform="translate(18.155 7.274)" fill="#88d271"/>
      <path id="パス_382" data-name="パス 382" d="M270.372,636.3l-4.914,1.425c-.745-.541-1.752-.745-2.187-1.692-.292-1.457.828-2.272,1.5-3.295a2.881,2.881,0,0,1,2.265-1.477C269.122,632.294,272.714,632.33,270.372,636.3Z" transform="translate(19.621 8.315)" fill="#343c31"/>
      <path id="パス_383" data-name="パス 383" d="M209.241,745.807c2.15-2.061.9-4.889,1.64-7.272a21.67,21.67,0,0,1,1.137,10.68c-.957.952-.164,2.707-1.586,3.445a4.123,4.123,0,0,0-1.095-.415Z" transform="translate(7.652 32.101)" fill="#373737"/>
      <path id="パス_384" data-name="パス 384" d="M225.06,775.572q-2.359-1.624-4.719-3.245c-.94-2.22-3.908-3.4-3.283-6.423q.755.066,1.511.081C222.406,768.047,227.36,769.353,225.06,775.572Z" transform="translate(9.366 38.169)" fill="#191614"/>
      <path id="パス_385" data-name="パス 385" d="M209.691,729.534l-1.429,3.359q-.885-4.842-1.769-9.682.786-.016,1.572-.027C209.845,724.983,209.694,727.278,209.691,729.534Z" transform="translate(7.043 28.697)" fill="#050505"/>
      <path id="パス_386" data-name="パス 386" d="M214.923,621.024q-.986.808-1.971,1.615c-2.555-1.121-5.339-1.94-6.482-4.919C210.149,616.623,212.728,618.331,214.923,621.024Z" transform="translate(7.038 5.239)" fill="#1c2a17"/>
      <path id="パス_387" data-name="パス 387" d="M267.572,632.093l-1.338,1.538q-.889,1.072-1.564-.145c-1.26-1.983-4.632-2.656-3.715-5.988C263.719,628.223,265.623,630.19,267.572,632.093Z" transform="translate(19.083 7.482)" fill="#293029"/>
      <path id="パス_388" data-name="パス 388" d="M254.47,619.227a3.823,3.823,0,0,1,1.174-.013q2.555,4.006,5.11,8.013C254.562,627.779,255.3,622.887,254.47,619.227Z" transform="translate(17.68 5.636)" fill="#1f1f1f"/>
      <path id="パス_389" data-name="パス 389" d="M213.548,756.338c2.205,2.667,2.753,5.912,3.207,9.193-3.027-1.58-4.051-4.617-5.394-7.421l.382-.206.283.33C212.453,757.538,212.55,756.576,213.548,756.338Z" transform="translate(8.122 36.048)" fill="#343434"/>
      <path id="パス_390" data-name="パス 390" d="M218.936,661.381l-3.262-.414c-.12-.549-.239-1.1-.364-1.633.293-1,.593-2,.891-3.01C218.661,657.171,218.573,659.4,218.936,661.381Z" transform="translate(8.998 13.873)" fill="#bdd5ba"/>
      <path id="パス_391" data-name="パス 391" d="M203.824,675.321l-.274-2.31c.738-2.569,1.206-5.448,5.074-4.435Z" transform="translate(6.39 16.543)" fill="#232223"/>
      <path id="パス_392" data-name="パス 392" d="M242.333,649.172a.781.781,0,0,1-.064.809L238.2,653.8a1.961,1.961,0,0,1-2.36.2c-1.093-3.973,1.368-5.339,4.537-6.188A2.05,2.05,0,0,1,242.333,649.172Z" transform="translate(13.492 11.986)" fill="#1e1f1f"/>
      <path id="パス_393" data-name="パス 393" d="M216.11,612.7c1.7,3.2,2.452,6.354-.517,9.294q-.064-3.759-.13-7.507Q215.788,613.592,216.11,612.7Z" transform="translate(9.032 4.2)" fill="#080e09"/>
      <path id="パス_394" data-name="パス 394" d="M236.38,652.6l2.1.133q-.3,2.941-.6,5.885-.8,1.023-1.593,2.045C233.746,657.948,233.529,655.258,236.38,652.6Z" transform="translate(13.211 13.048)" fill="#050404"/>
      <path id="パス_395" data-name="パス 395" d="M259.456,720.169c-1.4,4.96-1.4,10.024-1.106,15.108a7.569,7.569,0,0,1,.26,4.732,4.121,4.121,0,0,1-2.553,2.413c-4.205-.5-8.616,2.145-12.669-.8-.756-12.591,1.662-25.049,1.616-37.6-.033-9.259-4.374-14.063-13.515-16.086a126.436,126.436,0,0,1-16.268-4.432c-8.614-3.163-9.14-6.728-2.355-12.974,1.373-1.265,2.944-2.314,4.424-3.462,3.719-1.536,7.075-4.224,11.469-3.605,3.763-1.23,8.071-3.856,7.61,4.79,2.793-3.677,3.335-10.707,7.8-2.941,1.328,2.308,4.749-3.706,7.277.021,1.357,1.258,2.032,2.98,3.037,4.475a38.328,38.328,0,0,1,2.467,8.116c.855,2.153.715,4.711,2.6,6.454q.073,2.294.148,4.591C259.56,699.368,262.134,709.79,259.456,720.169Z" transform="translate(7.425 15.088)" fill="#e7fde4"/>
      <path id="パス_396" data-name="パス 396" d="M241.157,727.388c4.346.358,8.71-3.33,13.041.061,3.288,5.357.9,11.263,1.632,16.865.54,2.723-1.186,5.476.093,8.2l.032.544c-2.706,2.849-2.722,7.015-4.943,10.1q-.053.8-.064,1.6a22.353,22.353,0,0,0-1.616,10.532c-2.617,4.3-5.5,8.35-10,10.922-.928,1.5-1.532,3.218-3.007,4.341-2.387,1.877-3.949.189-5.559-1.29q-3-2.421-6-4.84c.876-5.255-5.037-5.912-6.492-9.588,4.985-5.272,7.095-11.378,5.39-18.588,1.682-1.8,1.114-4.056,1.236-6.171.552-3.165,1.181-6.319,1.642-9.5C228.06,730.118,230.62,727.78,241.157,727.388Z" transform="translate(9.656 29.322)" fill="#f6e6cf"/>
      <path id="パス_397" data-name="パス 397" d="M213.809,758.347l-1.521,1.9c-1.195-3.064-2.325-6.142-2.065-9.521l1.586-3.445Q212.807,752.813,213.809,758.347Z" transform="translate(7.861 34.039)" fill="#080808"/>
      <path id="パス_398" data-name="パス 398" d="M223.948,745.7c2.732,4.921,2.581,5.672-1.238,6.17C223.59,749.911,221.233,747.3,223.948,745.7Z" transform="translate(10.612 33.69)" fill="#211c18"/>
      <path id="パス_399" data-name="パス 399" d="M221.437,712.961c-.25.29-.648,1.183-1.131,1.232-1.374.141-1.625-1.093-1.66-2.092-.033-.944-.043-2.3,1.542-1.944C221.4,710.426,221.5,711.539,221.437,712.961Z" transform="translate(9.735 25.796)" fill="#191919"/>
      <path id="パス_400" data-name="パス 400" d="M220.014,697.828c-.191.8-.585,1.9-1.824,1.768-1.394-.145-.958-1.487-1.019-2.36-.06-.849-.567-2.272,1.22-1.9C219.495,695.559,220.013,696.458,220.014,697.828Z" transform="translate(9.385 22.508)" fill="#030303"/>
      <path id="パス_401" data-name="パス 401" d="M222.994,726.929c1.168.363,1.045,1.52,1.068,2.495.016.654-.056,1.881-1.117,1.279a4.168,4.168,0,0,1-1.561-2.452C221.158,727.39,221.922,726.892,222.994,726.929Z" transform="translate(10.335 29.527)" fill="#050607"/>
      <path id="パス_402" data-name="パス 402" d="M218.388,620.97c.094-3.23-1.549-6.738,1.514-9.494,2.9,2.391,4.57,5.865,7.356,8.339,1.418,1.523,2.992,1.135,4.6.342,8.231-3.2,8.386-3.2,8.474,5.708.031,3.084,2,2.38,3.647,2.84,3.023.847,6.9-.484,8.782,3.351-7.4,1.109-14.772.1-22.164-.17-3.4-.125-4.259-2.9-6.276-4.473C221.98,625.6,221.408,622.158,218.388,620.97Z" transform="translate(9.601 3.929)" fill="#68952e"/>
      <path id="パス_403" data-name="パス 403" d="M207.208,627.684q.229-1.226.461-2.454c1.846,1.9,3.157,3.922,1.421,6.6-1.031,2.068-3.663,2.176-5.24,4.437,2.878,2.85,7.593,2.473,10.3,5.476,2.065,2.811,8.265.634,7.813,6.479l-4.523-1.786c-5.186-.038-10.036-1.554-14.827-3.355-2.937-1.4-5.7-3-7.258-6.054-.691-1.614,1.321-4.75-3.092-4.285a5.36,5.36,0,0,1-5.857-4.2c1.357-1.757,3.428-1.173,5.2-1.582,2.244.321,3.117-.694,2.8-2.871-.887-1.543-.941-2.894.871-3.818C199.708,621.992,200.517,629.572,207.208,627.684Z" transform="translate(2.588 5.878)" fill="#0f1609"/>
      <path id="パス_404" data-name="パス 404" d="M243.834,651.862q-.777-.189-1.532-.451c-3.887-1.294-7.391,3.062-11.352.777-1.57-.993-1.806-2.579-1.877-4.236l-.266-2.211a2.981,2.981,0,0,1,2.417-2.061,7.8,7.8,0,0,1,3.323.257c4.594,1.731,5.738.221,3.884-4.123a2.662,2.662,0,0,1,.263-2.072c4.633-4.366,8.007-.844,11.537,1.842,2.024,2.33,6.414,3.262,4.629,7.829-2.976,3.479-8-.518-10.964,3.015A5.815,5.815,0,0,1,243.834,651.862Z" transform="translate(11.99 9.296)" fill="#8ad772"/>
      <path id="パス_405" data-name="パス 405" d="M233.778,658.011c-1.757,2.071-1.747,6.284-6.188,5.1-3.38-2.147-2.393-6.2-3.99-9.128-.159-1.786-2.116-3.238-.988-5.267l6.456-.353c3.8.5,3.377,4.463,5.325,6.491A2.861,2.861,0,0,1,233.778,658.011Z" transform="translate(10.539 12.108)" fill="#dddedc"/>
      <path id="パス_406" data-name="パス 406" d="M211.709,639.641a28.349,28.349,0,0,1-14.315-5.339c2.369-3.472,5.818-4.011,9.257-4.573C208.429,632.986,212.249,635.2,211.709,639.641Z" transform="translate(5.025 7.976)" fill="#6c9930"/>
      <path id="パス_407" data-name="パス 407" d="M250.685,631.233c-1.82-1.516-4.026-1.267-6.154-1.316-10.843-.252-10.844-.246-6.289-10.52-3.477-1.294-6.019,1.492-8.976,1.9a2.32,2.32,0,0,1-1.885-1.548c2.374-4.8,6.773-4.606,11.13-4.53a6.367,6.367,0,0,1,2.308.965A5.09,5.09,0,0,1,242,618.213c-1.2,5.062-.1,8.776,5.742,9.688,2.1.781,4.679-.038,6.423,1.929C253.6,631.761,252.078,631.342,250.685,631.233Z" transform="translate(11.674 4.753)" fill="#070b05"/>
      <path id="パス_408" data-name="パス 408" d="M236.175,641.208c-1.852-1.968-4.188-4.139-2.836-6.937,1.251-2.585,4.363-1.123,6.636-1.493,4.715-.767,9.664.831,14.242-1.394a2.647,2.647,0,0,1,.1,3.5c-2.082,1.608-4.52,1.649-6.975,1.57a17.037,17.037,0,0,0-8.123.3,7.07,7.07,0,0,0-1,2.629l-.716-.06C237.345,640.147,237.225,641,236.175,641.208Z" transform="translate(12.906 8.343)" fill="#1e2d19"/>
      <path id="パス_409" data-name="パス 409" d="M250.355,634.99v-2.7c5.036-.147.476-3.527,1.673-4.968l8.331,2.968c.345,1.784-1.449,2.176-2.139,3.285C255.955,636.026,253.525,637.562,250.355,634.99Z" transform="translate(16.768 7.442)" fill="#1f2c1d"/>
      <path id="パス_410" data-name="パス 410" d="M236.092,639.768l1.326-1.891a9.55,9.55,0,0,1,.975,1.251c1.317,2.41,4.809,5.024,2.22,7.52-2.282,2.2-4.932-1.124-7.3-2.349.557-1.46,2.087-2.112,2.834-3.413Q236.116,640.328,236.092,639.768Z" transform="translate(12.988 9.783)" fill="#121e10"/>
      <path id="パス_411" data-name="パス 411" d="M231.384,643.971l-1.957,1.137c-4.169.153-3.693-3.661-2.841-5.011,2.082-3.3,4.424-.541,6.517.812A3.716,3.716,0,0,1,231.384,643.971Z" transform="translate(11.37 9.929)" fill="#192414"/>
      <path id="パス_412" data-name="パス 412" d="M232.355,655.246c-5.217.564-1.732-5.119-4.523-6.3.155-1.224-.061-2.616,1.458-3.223,1.458.767,1.632,2.242,1.991,3.615C232.648,651.126,234.532,652.817,232.355,655.246Z" transform="translate(11.774 11.523)" fill="#272b24"/>
      <path id="パス_413" data-name="パス 413" d="M230.409,643.572a3.242,3.242,0,0,1,1.719-3.062l4.658-.171c.126,2.027-.733,3.236-2.834,3.413Z" transform="translate(12.345 10.329)" fill="#000100"/>
      <path id="パス_414" data-name="パス 414" d="M222.982,648.952l1.433,4.722c.908,1.691-.04,1.784-1.349,1.566q-1.083-2.837-2.164-5.672a1.788,1.788,0,0,1,.2-2.266Q222.04,648.128,222.982,648.952Z" transform="translate(10.168 11.872)" fill="#030600"/>
      <path id="パス_415" data-name="パス 415" d="M221.842,647.944q-.1,1.131-.2,2.264-2.2-2.58-4.4-5.164C220.74,642.9,220.465,646.73,221.842,647.944Z" transform="translate(9.426 11.23)" fill="#020200"/>
      <path id="パス_416" data-name="パス 416" d="M250.4,715.24c-.242-8.752.4-17.537-1.075-26.249-.293-1.74-.83-3.763,1.318-4.953,3.451,13.1,1.583,26.4,1.4,39.63C249.706,721.209,251.7,717.9,250.4,715.24Z" transform="translate(16.478 20.018)" fill="#080907"/>
      <path id="パス_417" data-name="パス 417" d="M248.159,677.128l-2.837-8.335a2.308,2.308,0,0,1,1.317-1.67c2.028,2.4,2.6,5.316,2.938,8.316A3.065,3.065,0,0,1,248.159,677.128Z" transform="translate(15.652 16.267)" fill="#171a16"/>
      <path id="パス_418" data-name="パス 418" d="M247.644,675.618l1.418-1.688q.874,3.88,1.747,7.758C246.134,681.552,248.263,677.869,247.644,675.618Z" transform="translate(16.167 17.776)" fill="#060308"/>
      <path id="パス_419" data-name="パス 419" d="M247.02,667.75l-1.317,1.67-2.1-4.641.062-.347C246.615,663.689,246.357,666.183,247.02,667.75Z" transform="translate(15.271 15.641)" fill="#060004"/>
      <path id="パス_420" data-name="パス 420" d="M242.48,618.307l-2.027-.264c-6.688-6.191-9.2.634-12.794,4.1a1.936,1.936,0,0,1-2.022-.459c-2.384-2.98-5.031-5.792-6.076-9.617l1.458-1.83c2.761,5.646,5.994,8.438,10.414,1.438,2.756-4.366,5.38-3.213,8.3-.255,1.889,1.91,3.972,3.626,5.967,5.429C245.588,619.462,244.257,619.378,242.48,618.307Z" transform="translate(9.94 3.335)" fill="#11180a"/>
      <path id="パス_421" data-name="パス 421" d="M238.321,616.845c1.275-.04,2.484-.231,3.224-1.455l6.308,1.406q-.126.793-.25,1.592c-2.655,5-5.825,2.2-8.916.59Q238.5,617.912,238.321,616.845Z" transform="translate(14.099 4.797)" fill="#141e0c"/>
      <path id="パス_422" data-name="パス 422" d="M249.422,753.41c-3.538-1.481-.688-4.457-1.537-6.565,1.742-6.612-.312-13.439,1.145-20.067l.589-4.834c2.82,5.9.046,12.3,1.657,18.307C251.309,744.728,251.343,749.207,249.422,753.41Z" transform="translate(16.156 28.422)" fill="#141615"/>
      <path id="パス_423" data-name="パス 423" d="M228.5,777.792c1.864-.61,3.63,2.817,5.545.137a2.846,2.846,0,0,1,1.6,1.589c-1.659,3.4.546,7.247-1.12,12.56C232.061,786.227,230.282,782.01,228.5,777.792Z" transform="translate(11.922 40.788)" fill="#2a2723"/>
      <path id="パス_424" data-name="パス 424" d="M245.071,758.245c.927-3.719-.844-8.758,4.943-10.1C248.776,751.711,250.6,756.776,245.071,758.245Z" transform="translate(15.596 34.231)" fill="#36352e"/>
      <path id="パス_425" data-name="パス 425" d="M244.006,768.253c-2.173-3.927-2.887-7.631,1.616-10.532C247.747,761.64,245.184,764.841,244.006,768.253Z" transform="translate(14.981 36.354)" fill="#050303"/>
      <path id="パス_426" data-name="パス 426" d="M234.645,780.059q-.8-.8-1.6-1.589l3.02-3.187C237,777.294,236.169,778.779,234.645,780.059Z" transform="translate(12.929 40.248)" fill="#030000"/>
      <path id="パス_427" data-name="パス 427" d="M239.04,618.434c2.86-1.888,6.156,2.79,8.916-.591q-1.143,4.735-2.283,9.469C235.252,627.429,235.252,627.429,239.04,618.434Z" transform="translate(13.746 5.341)" fill="#6e9733"/>
      <path id="パス_428" data-name="パス 428" d="M203.273,640.274l14.739,4.656c-1.53.254-2.96.671-3.705,2.228a32.541,32.541,0,0,0-15.7-3.5c-7.463,2.744-8.788-4.376-10.392-8-1.26-2.852-3.736-4.963-4.4-8.014l3.163-.607c2.888,1.163,5.687,2.86,8.686,3.366,4.559.771.473,3.222,1.261,4.617C197.276,638.9,199.921,640.015,203.273,640.274Z" transform="translate(2.014 7.379)" fill="#709e32"/>
      <path id="パス_429" data-name="パス 429" d="M222.617,654.083l1.349-1.566c2.354,2.794,2.209,6.506,3.545,9.672l-3.691.1Q223.219,658.184,222.617,654.083Z" transform="translate(10.618 13.029)" fill="#22271f"/>
      <path id="パス_430" data-name="パス 430" d="M267.217,635.345l1.741,1.685c-6.088,2.958-12.634,1.423-18.972,1.933-1.734.7-2.3-.285-2.546-1.751a3.948,3.948,0,0,1,2.06-1.509c3.844-.29,7.649-.994,11.507-1.178C263.123,634.453,265.294,633.971,267.217,635.345Z" transform="translate(16.121 9.009)" fill="#0c120b"/>
      <path id="パス_431" data-name="パス 431" d="M248.406,637.038l2.221,1.539c-1.9,4.344,6.39,4.828,3.6,9.509l-.431.044c-.732-.512-1.908-.558-1.921-1.826l-6.553-6.739c-.82-.82-1.124-1.78-.265-2.672C246.155,635.758,247.336,635.939,248.406,637.038Z" transform="translate(15.48 9.394)" fill="#131c0f"/>
      <path id="パス_432" data-name="パス 432" d="M231.729,654.939l-1.074-5.906c3.756.723,7.427-4.556,11.236-.156-2.237,1.009-4.182,2.3-4.7,4.943-.976,2.678-.422,5.372-.089,8.063-4.88,3.348-3.121-2.881-5.185-3.594Q231.824,656.614,231.729,654.939Z" transform="translate(12.4 11.829)" fill="#d6d7d7"/>
      <path id="パス_433" data-name="パス 433" d="M185.094,627.534c6.186,2.241,6.58,8.8,9.564,13.345,1.565,2.386,3.181,2.4,5.225,2.673q-4.479,1.424-8.965,2.844c-13.308,2.336-15.264-.541-10.572-15.539C181.946,629.775,182.789,627.61,185.094,627.534Z" transform="translate(0.733 7.49)" fill="#6e9b30"/>
      <path id="パス_434" data-name="パス 434" d="M194.649,621.532q-.6,1.692-1.194,3.382l-2.819-7.8c4.241-2.3,8.161,3.042,12.411.518.2,2.144-2.18,2.2-2.911,3.6C198.436,623.641,196.472,621.3,194.649,621.532Z" transform="translate(3.527 5.048)" fill="#23331d"/>
      <path id="パス_435" data-name="パス 435" d="M193.921,620.846c1.67-2.98,3.7.5,5.488-.305,4.093.706,3.435,5.407,6.132,7.288C196.72,633.733,196.466,625.385,193.921,620.846Z" transform="translate(4.255 5.734)" fill="#87d16b"/>
      <path id="パス_436" data-name="パス 436" d="M252.631,644.456l1.919,1.828c-4.241,2.093-8.952,1.326-13.394,2.2C243.878,643.992,249.484,647.729,252.631,644.456Z" transform="translate(14.728 11.242)" fill="#abbca5"/>
      <path id="パス_437" data-name="パス 437" d="M250.359,637.864c-2.027-.378-3.223.259-3.08,2.527-3.087-1.519-6.106-3.56-9.685-1.239l-1.855-3.062c3.242-2.213,7.17-.093,10.515-1.662l7.34-.564,7.864-1.42a9.451,9.451,0,0,0,8.767-.045q.781.079,1.563.144-.988,1.622-1.978,3.242l-5.737.271c-3.922,1.4-8.116-.2-12.047,1.093Z" transform="translate(13.527 8.568)" fill="#8ddb76"/>
      <path id="パス_438" data-name="パス 438" d="M249.012,725.9c-.081,6.7,1.172,13.487-1.145,20.065q-.093-9.245-.188-18.493Z" transform="translate(16.174 29.299)" fill="#f1e3cc"/>
      <path id="パス_439" data-name="パス 439" d="M224.535,619.483l2.377-.215c.506-.7.986-.722,1.434.056l1.55,1.184C227.7,622.306,225.7,623.072,224.535,619.483Z" transform="translate(11.043 5.54)" fill="#000105"/>
      <path id="パス_440" data-name="パス 440" d="M200.972,638.825c-5.4,2.225-7.845.864-6.35-5.253Q197.8,636.2,200.972,638.825Z" transform="translate(4.315 8.828)" fill="#6e9b30"/>
      <path id="パス_441" data-name="パス 441" d="M227.915,620.892q-.718-.022-1.434-.056c.268-4.867,4.06-7.449,7.567-9.033,1.664-.753,5.363,1.793,4.872,5.605C234.877,617.385,231.109,618.233,227.915,620.892Z" transform="translate(11.474 3.972)" fill="#6a972e"/>
      <path id="パス_442" data-name="パス 442" d="M246.255,634.12c-3.29,1.914-7.06.787-10.515,1.662C238.787,632.334,242.721,634.491,246.255,634.12Z" transform="translate(13.527 8.877)" fill="#21351c"/>
      <path id="パス_443" data-name="パス 443" d="M249.071,636.55c3.818-2.508,8.006-.952,12.044-1.092C257.215,637.059,253.109,636.431,249.071,636.55Z" transform="translate(16.483 9.169)" fill="#88d271"/>
    </g>
    <g id="たまねぎ" transform="matrix(0.719, -0.695, 0.695, 0.719, 533.506, 2873.017)" opacity="0.1">
      <path id="パス_592" data-name="パス 592" d="M462.276,555.306c-2.219.007-4.59.864-6.449-1.15.078-.326.156-.653.225-.979,1.96-2.347.127-4.225-.783-6.226.079-2.216,1.72-3.113,3.355-4.02a14.478,14.478,0,0,1,3.158-.942c3.261-.4,5.829-2.234,8.385-4.091a25.217,25.217,0,0,0,8.355-7.931,36.206,36.206,0,0,0,2.372-4.688,37.8,37.8,0,0,0,2.287-7.211,11.072,11.072,0,0,1,1.671-4.453,3.237,3.237,0,0,1,3.4-1.2c1.9,3.284,1.367,6.663.393,10.058-1.3,10.331-3.561,20.178-13.248,26.282l-6.536,1.687c-1.673,2.083-4.531-.28-6.242,1.663Q462.449,553.706,462.276,555.306Z" transform="translate(17.49 17.145)" fill="#f5e6c6"/>
      <path id="パス_593" data-name="パス 593" d="M465.533,474.018l6.534,3.376c3.05.214,3.492,3.073,4.962,4.891l3.338,4.847c2.981,2.182,4.935,4.7,2.784,8.549-2.053.791-4.152.345-6.247.207a14.33,14.33,0,0,1-4.162-3.105,9.986,9.986,0,0,0-5-3.178,6.776,6.776,0,0,1-1.854-1.036,18.618,18.618,0,0,0-7.586-4.21c-.651-.135-1.3-.325-1.933-.52a8.375,8.375,0,0,1-1.736-.751,4.767,4.767,0,0,1-1.229-1.271c-.52-1.568-2.011-.488-2.927-1.034a4.025,4.025,0,0,1-2.138-4.355,1.177,1.177,0,0,1,1.617-.891C454.856,472.022,460.351,474.621,465.533,474.018Z" transform="translate(15.872 8.207)" fill="#f4e5c6"/>
      <path id="パス_594" data-name="パス 594" d="M397.121,483.279c4.76-10.742,16.124-14.594,23.692-22.446,1.958-2.032,1.73-7.846,7.185-5.541,1.492.458,2,1.744,2.54,3.013a4.3,4.3,0,0,1-.025,2.1,8.5,8.5,0,0,1-1.225,1.787c-3.913,4.9-8.709,8.981-12.646,13.855a16.9,16.9,0,0,1-4.354,3.443c-3.563,1.991-6.468,4.935-10.014,6.967-1.821.985-3.653,1.7-5.548.174A2.706,2.706,0,0,1,397.121,483.279Z" transform="translate(3.854 3.837)" fill="#f4e6c6"/>
      <path id="パス_595" data-name="パス 595" d="M445.775,452.368c-1.341,3.431.781,6.551.884,9.853-.408,1.052-.8,2.122-2.2,2-.48.468-2.008-2.223-1.593.286.486,2.932,1.624,5.681-1.053,8.107-1.693.479-3,.091-3.7-1.652a43.535,43.535,0,0,1-.049-6.412,32.836,32.836,0,0,0,.1,7.218c1.831,4.765,1.5,9.58.436,14.428a6.67,6.67,0,0,1-3.465,4.231c-4.1-1.539-3.119-5.217-3.518-8.314-.64-6.827,1.532-13.87-1.581-20.507a6.744,6.744,0,0,1-.623-4.778,3.62,3.62,0,0,1,1.332-1.724c2.144-.715,4.717.691,6.621-1.309.453-.462.932-.889,1.409-1.32,1.677-1.225,2.278-3.128,3.094-4.908a2.7,2.7,0,0,1,3.091-.568C446.866,448.55,446.916,450.37,445.775,452.368Z" transform="translate(11.464 1.985)" fill="#2b2317"/>
      <path id="パス_596" data-name="パス 596" d="M445.314,454.353c-.2-1.838.965-4.086-1.569-5.222-2.466-.542-5.19.405-7.466-1.268a10.042,10.042,0,0,1-1.8-1.223c-1.361-1.607-3.318-2.859-3.262-5.335,4.3-4.87,8.832-3.4,12.935-.017,3.516,2.9,6.952,6.072,8.863,10.476A11.057,11.057,0,0,1,445.314,454.353Z" transform="translate(11.924)" fill="#eea721"/>
      <path id="パス_597" data-name="パス 597" d="M439.829,469.218c-.643-4.546-2.088-9.138.441-14.575l2.715,7.552c2.268,2.8.94,7.479,4.893,9.4a.855.855,0,0,1,.111,1.359c.687,2,.639,4.449,3.227,5.29q.46.842.925,1.685a8.042,8.042,0,0,1-.711.911c-1.034,2.448-3.376,1.039-5.028,1.708C441.1,479.638,437.5,475.889,439.829,469.218Z" transform="translate(13.687 3.809)" fill="#bfbfbf"/>
      <path id="パス_598" data-name="パス 598" d="M432.3,456.181q.035,2.695.07,5.391a4.968,4.968,0,0,1,1.007,2.117,4.583,4.583,0,0,1-3.006,4.707,2.725,2.725,0,0,1-2.112-.805,7.6,7.6,0,0,1-.868-5.583c1.937-3.751-1.825-4.679-3.354-6.713a4.528,4.528,0,0,1-.377-4.3c-1.1-3.019-3.6-6.441,2.166-7.471a5.2,5.2,0,0,1,1.239,1.877C426.948,449.893,431.845,451.962,432.3,456.181Z" transform="translate(9.832 1.236)" fill="#161516"/>
      <path id="パス_599" data-name="パス 599" d="M423.689,449.587c.582,1.4.436,3.222,2.246,3.922,1.024,2.7,2.5,5.52-1.844,6.751-1.805-.648-1.613-2.378-2.043-3.77C422.537,454.175,421.809,451.571,423.689,449.587Z" transform="translate(9.804 2.64)" fill="#515050"/>
      <path id="パス_600" data-name="パス 600" d="M447.1,470.519c-6.035-.842-3.629-6.078-4.893-9.4q.726-.9,1.451-1.8A32.809,32.809,0,0,0,447.1,470.519Z" transform="translate(14.467 4.891)" fill="#0a0a0b"/>
      <path id="パス_601" data-name="パス 601" d="M431.771,440.718c1.756,1.33,3.65,2.539,4.253,4.875-2.432,1.845-4.472.725-6.458-.845-1.2-1.619-1.052-2.885.97-3.652A1.665,1.665,0,0,1,431.771,440.718Z" transform="translate(11.367 0.586)" fill="#322209"/>
      <path id="パス_602" data-name="パス 602" d="M431.387,441.1q-.639,1.171-1.281,2.34l-.565.991a3.342,3.342,0,0,1-4.2-.4s-.234.151-.218.148C425.511,439.667,428.6,440.693,431.387,441.1Z" transform="translate(10.516 0.585)" fill="#222224"/>
      <path id="パス_603" data-name="パス 603" d="M449.576,474.806c-6.067,1.293-2.591-3.247-3.226-5.282Q447.962,472.158,449.576,474.806Z" transform="translate(15.328 7.252)" fill="#373639"/>
      <path id="パス_604" data-name="パス 604" d="M461.241,544.949c1.51-2.7,4.1-1.329,6.242-1.663C466.255,547.039,463.507,545.091,461.241,544.949Z" transform="translate(18.871 24.303)" fill="#fafafa"/>
      <path id="パス_605" data-name="パス 605" d="M434.085,555.122c-8.238,2.945-16.34.655-19.961-5.641a5.812,5.812,0,0,1,2.423-5.622c3.956-2.31,8.049-3.077,12.381-1.059,2.69,2.506,2.842,5.981,3.514,9.26Q433.263,553.591,434.085,555.122Z" transform="translate(7.957 23.934)" fill="#fafafa"/>
      <path id="パス_606" data-name="パス 606" d="M465.454,538.382c.069,2.433-2.9,1.731-3.541,3.431a1.519,1.519,0,0,1,.5,1.256c-.052.462-.131.693-.235.692a3.023,3.023,0,0,1-2.028.555c-1.074-.264-2.316-1.171-2.924.719a3.8,3.8,0,0,1-2.551,1.555c-5.3-.739-5.3-.739-10.915,5.4q-.8-.859-1.606-1.715c-3.488-4.233-8.1-.805-12.079-1.778a5.88,5.88,0,0,1-.946-4.38,6.453,6.453,0,0,1,2.171-3.859c1.9-1.363,4.033-.651,6.085-.693,1.3.044,2.592.266,3.9.243a50.863,50.863,0,0,0,5.773-1.287,25.724,25.724,0,0,0,6.782-2.836c2.448-1.1,4.89-2.263,7.607-.836C461.159,537.853,464.153,537.161,465.454,538.382Z" transform="translate(11.426 22.21)" fill="#1a1610"/>
      <path id="パス_607" data-name="パス 607" d="M440.994,550.212c.563-.553,1.634-1.129,1.611-1.656-.383-8.781,4.322-7.25,9.527-4.795,1.623,1.263,5.481-1.286,5.278,3.093-4-.324-7.769,5.965-12.247.058C444.106,545.518,446,553.54,440.994,550.212Z" transform="translate(14.187 23.984)" fill="#fafafa"/>
      <path id="パス_608" data-name="パス 608" d="M430.545,546.788c6.114-5.05,8.7-4.737,11.418,1.382-3.731.773-7.239,3.075-11.291,1.648A1.919,1.919,0,0,1,430.545,546.788Z" transform="translate(11.613 24.312)" fill="#fafafa"/>
      <path id="パス_609" data-name="パス 609" d="M431.388,547.316l.127,3.029-1.884,1.865c-4.23-1.619-2.971-5.346-3.257-8.479-.523-1.478.373-2.131,1.529-2.639a3.428,3.428,0,0,1,3.3.8Q431.3,544.6,431.388,547.316Z" transform="translate(10.769 23.783)" fill="#080c0a"/>
      <path id="パス_610" data-name="パス 610" d="M455.317,546.918q-2.638-1.548-5.278-3.093l1.944-1.552c1.015-1.418,2.247-.24,3.376-.281a6.587,6.587,0,0,0,1.593.11c2.94,1.545,2.615,3.077-.018,4.6l.1.677Z" transform="translate(16.28 23.92)" fill="#2e2c26"/>
      <path id="パス_611" data-name="パス 611" d="M382.068,500.341c.083-4.507,4.321-6.882,5.545-10.8l1.506-1.873,4.8-.241c1.634,2.024.4,3.615-.772,5.221-3.472,2.471-4.212,7.026-7.386,9.736A3.094,3.094,0,0,1,382.068,500.341Z" transform="translate(0.555 11.393)" fill="#e4a224"/>
      <path id="パス_612" data-name="パス 612" d="M472.559,482.1A11.858,11.858,0,0,1,467.6,477.2c.892-.956,2.426-2.839,2.581-2.732C472.872,476.337,472.407,479.329,472.559,482.1Z" transform="translate(20.341 8.396)" fill="#fdfdfd"/>
      <path id="パス_613" data-name="パス 613" d="M459.376,542.527c-1.709-.277-5.106,1.734-3.721-2.742-.787-2.076.859-2.555,2.139-3.284a12.072,12.072,0,0,0,7.737-6.072,26.99,26.99,0,0,0,2.179-4.92c1.347-2.966-.041-6.908,3.252-9.178a3.333,3.333,0,0,1,2.187.321c2.495,1.635,5.85,1.79,7.761,4.456a5.392,5.392,0,0,1,.621,2.194c-.174,2.347-1.542,4.274-2.272,6.426-2.422,2.867-4.888,5.686-8.41,7.285-2.5,2.26-5.846,3.267-8.268,5.636Z" transform="translate(17.504 18.066)" fill="#d6951b"/>
      <path id="パス_614" data-name="パス 614" d="M480.427,500.473c2.947,4.672,1.117,9.885,1.681,14.827q-.761,1.044-1.521,2.09a6.35,6.35,0,0,1-3.2-3.929,15.943,15.943,0,0,1-.076-8.988A6.43,6.43,0,0,1,480.427,500.473Z" transform="translate(22.448 14.412)" fill="#413c38"/>
      <path id="パス_615" data-name="パス 615" d="M467.925,534.708l7.112-7.451a1.522,1.522,0,0,1,2.325.021c-1.473,4.746-5.271,7.03-9.443,8.919q-.741-.5-.493-.995C467.593,534.873,467.758,534.708,467.925,534.708Z" transform="translate(20.288 20.486)" fill="#241909"/>
      <path id="パス_616" data-name="パス 616" d="M469.347,533.209a8.568,8.568,0,0,0-.006,1.487c-2.3,2.165-4.767,4-8.123,4.033C462.414,534.66,465.88,533.933,469.347,533.209Z" transform="translate(18.866 21.985)" fill="#2b1e05"/>
      <path id="パス_617" data-name="パス 617" d="M455.639,546.979a4.026,4.026,0,0,0,.018-4.6q.052-1,.106-2c3.283.819,5.429,3.145,4.719,6.258C459.982,548.832,457.348,547.324,455.639,546.979Z" transform="translate(17.575 23.644)" fill="#22211f"/>
      <path id="パス_618" data-name="パス 618" d="M476,523.432q-.107-.8-.156-1.607c-.263-2.237-.289-4.384,2.143-5.588,1.39-.1,1.783.9,2.139,1.942-.545,2.452-.7,5.057-2.689,6.948A2.794,2.794,0,0,1,476,523.432Z" transform="translate(22.222 18.057)" fill="#34302b"/>
      <path id="パス_619" data-name="パス 619" d="M476.494,522.079l1.436,1.7q-1,2.29-2.01,4.581-1.16-.013-2.324-.022Q475.045,525.206,476.494,522.079Z" transform="translate(21.729 19.41)" fill="#070000"/>
      <path id="パス_620" data-name="パス 620" d="M479.787,519.313l-1.608-2.034c-1.361-2.16-1.459-4.18.665-5.952q.815,1.777,1.63,3.551Z" transform="translate(22.562 16.923)" fill="#0b0909"/>
      <path id="パス_621" data-name="パス 621" d="M483.7,517.746l-.665,5.953-2.674,5.679-8.236-3.685c.122-3.961-1.375-8,.56-11.882a1.342,1.342,0,0,0-.156-1.446,2.463,2.463,0,0,1-.68,2.39c-3.743-.456-3.234-3.882-4.353-6.175-.823-3.2-1.154-6.561-3.1-9.4a29.242,29.242,0,0,1-2.056-3.789c-.862-2.847-3.027-4.646-5.216-6.44a4.446,4.446,0,0,1-.938-2.064,3.085,3.085,0,0,1,1.593-2.974c3.25-1.119,5.471.736,7.674,2.646l-.175-.142a27.8,27.8,0,0,1,7.041,3.411l3.161,3.664a5.677,5.677,0,0,1,3.972,2.539c1.769.622,2.213,2.092,2.388,3.735,1.652,2.4,3.288,4.808,1.838,7.931Q483.693,512.725,483.7,517.746Z" transform="translate(17.703 10.504)" fill="#f2e2c3"/>
      <path id="パス_622" data-name="パス 622" d="M465.729,487.241c-2.679-.137-4.973-3.459-7.97-.964-2.431-1.256-3.629-2.938-1.948-5.619C460,481.527,464.218,482.343,465.729,487.241Z" transform="translate(17.433 9.828)" fill="#27211b"/>
      <path id="パス_623" data-name="パス 623" d="M443.92,476.876c1.984-1.177,4.148-1.127,6.334-.933q1.193,1.984,2.385,3.969a2.334,2.334,0,0,1,2.234.106q.2.828.4,1.656c-.261.341-.522.682-.782,1.028C448.221,485.742,446.021,481.4,443.92,476.876Z" transform="translate(14.864 8.712)" fill="#242325"/>
      <path id="パス_624" data-name="パス 624" d="M456.66,480.687q.973,2.809,1.948,5.619-.12,1.3-.238,2.6c-2.65,1-4.015-.967-5.61-2.417-.93-1.483-2.34-2.922-.541-4.717.975-.314,2.065-.339,2.874-1.1A2.228,2.228,0,0,1,456.66,480.687Z" transform="translate(16.583 9.799)" fill="#433d34"/>
      <path id="パス_625" data-name="パス 625" d="M475.833,494.344l-3.972-2.539c1.274-1.5,2.679-.8,4.077-.243Q475.886,492.953,475.833,494.344Z" transform="translate(21.328 12.198)" fill="#060100"/>
      <path id="パス_626" data-name="パス 626" d="M470.617,489.4c-3.1.411-5.212-1.2-7.041-3.411C467.138,484.617,469.372,485.987,470.617,489.4Z" transform="translate(19.411 10.939)" fill="#393329"/>
      <path id="パス_627" data-name="パス 627" d="M454.752,480.659c-.445.888-.93,1.586-1.824.394l.046.185-.142-.422.377-.236A7.521,7.521,0,0,1,454.752,480.659Z" transform="translate(16.926 9.807)" fill="#cec7ac"/>
      <path id="パス_628" data-name="パス 628" d="M453.235,479.568,451,479.462l1.34-1.683Z" transform="translate(16.502 9.162)" fill="#020000"/>
      <path id="パス_629" data-name="パス 629" d="M390.735,499.351q.916-2.518,1.833-5.035l1.861-2.215c3.831-1.934,7.036-4.8,10.625-7.1,3.286-2.258,5.951-5.225,8.933-7.826l2.991-2.186a136.848,136.848,0,0,0,14.781-14.862,1.894,1.894,0,0,1,.17-.959c1.636-.222,2.8-1.99,4.678-1.426l.6,6.767c1.066,3.709-.97,6.7-2.255,9.87-1.39,2.655-3.1,5.119-4.706,7.643-2.376,3.285-4.222,6.993-7.5,9.57a16.681,16.681,0,0,0-6.064,5.914c-.591.919-1.238,1.8-1.883,2.676-1.788,2.327-3.049,5.213-6.292,6.022-5.97-.291-11.512,4.232-17.819,1.343-1.789-.819-2.58-1.652-2.8-3.385C388.215,502.19,388.642,500.277,390.735,499.351Z" transform="translate(1.902 4.501)" fill="#e9a21b"/>
      <path id="パス_630" data-name="パス 630" d="M426.3,459.657c-2.724,7.145-8.393,11.36-14.781,14.861C415.109,468.242,420.387,463.637,426.3,459.657Z" transform="translate(7.367 4.969)" fill="#1d1810"/>
      <path id="パス_631" data-name="パス 631" d="M404.182,480.046c-2.429,4.251-5.515,7.49-10.955,7.1-1-3.959,3.722-3.483,4.625-5.966l5.333-2.1Q404.276,478.952,404.182,480.046Z" transform="translate(3.105 9.459)" fill="#4d3508"/>
      <path id="パス_632" data-name="パス 632" d="M402.286,481.332a1.31,1.31,0,0,0-1-.968,25.628,25.628,0,0,1,9.6-6.861C409.659,477.911,406.442,480.136,402.286,481.332Z" transform="translate(5.001 8.173)" fill="#282011"/>
      <path id="パス_633" data-name="パス 633" d="M428.334,458.865c-1.452.83-2.668,2.432-4.679,1.426l.063-.767c2.356-1.776,1.241-4.5,1.846-6.751C427.871,454.173,430.645,455.363,428.334,458.865Z" transform="translate(10.176 3.377)" fill="#ebe9dd"/>
      <path id="パス_634" data-name="パス 634" d="M457.281,484.706l-.047-.185c-4.571,1.579-.3,3.117.022,4.673,5.071,5.419,8,11.714,7.52,19.261-.4,6.268-2.586,11.231-9.8,12.014-4.31.379-7.987-1.808-11.921-2.966a13.212,13.212,0,0,1-2.319-.681,7.19,7.19,0,0,1-2-1.314,11.969,11.969,0,0,1-1.99-5.5,25.251,25.251,0,0,0-.89-10.159,47.879,47.879,0,0,0-1.462-8.406c-.694-3.151.763-5.987,1.293-8.958.558-5.351-1.351-10.758.371-16.083q.4-1.317,1.516-.52c.868,1.254,1.926,1.725,3.323.81-1.331,5.482,3.5,8.379,5.268,12.561C449.748,481.32,451.312,487.5,457.281,484.706Z" transform="translate(12.618 6.339)" fill="#f8f8f8"/>
      <path id="パス_635" data-name="パス 635" d="M411.543,498.939l1.84-1.735a16.986,16.986,0,0,1,6.308-6.343q3.341-5.05,6.684-10.1a12.684,12.684,0,0,0,5.754-6.268c.794-1.56,1.324-3.322,3.092-4.151a13.148,13.148,0,0,0,2.932-10.684,2.587,2.587,0,0,1-.181-1.468c2.9-.426,2.91,1.467,2.892,3.5-.05,5.979-.043,11.961-.059,17.942a3.329,3.329,0,0,1-1.909.057c-4.226,2.721-3.35,7.634-4.925,11.474-1.136,2.768-1.772,5.744-3.507,8.267a8.9,8.9,0,0,1-2.666,2.327c-12.295,3.831-18.433,12.8-21.09,24.871-.752,3.414-.823,7.1-3.011,10.119a2.466,2.466,0,0,1-2.41.14c-2.487-2.175-3.033-5.121-3.288-8.187a28.893,28.893,0,0,1,.316-6.3c1.223-5.215,4.909-9.164,7.146-13.862A23.484,23.484,0,0,0,411.543,498.939Z" transform="translate(4.231 4.616)" fill="#e49f1b"/>
      <path id="パス_636" data-name="パス 636" d="M432.945,475.7a6.246,6.246,0,0,1,1.081-.1q.787,4.211,1.575,8.421c2.4,1.937.318,4.907,1.639,7.091.345,2.5.663,5.009,1.18,7.484a14.244,14.244,0,0,1,.037,8.778c-4.183,3.293-4.966,2.992-10.117-3.87a11.065,11.065,0,0,1-.761-2.523,32.732,32.732,0,0,1-.273-6.588C428.759,488.031,428.612,481.186,432.945,475.7Z" transform="translate(11.01 8.656)" fill="#e6e5e1"/>
      <path id="パス_637" data-name="パス 637" d="M429.4,442.924l6.767,2.157a3.814,3.814,0,0,1,1.487.106c.568,2.56,3.258,2.954,4.707,4.615,2.613,3.9-1.776,3.527-3.075,5.04-10.22.35-12.885-2.67-10.04-11.379Z" transform="translate(11.222 1.098)" fill="#db9919"/>
      <path id="パス_638" data-name="パス 638" d="M430.057,443.362c-2.309,8.783,5.019,9.064,10.04,11.38l-.361.081c-1.666,2.615-3.873,3.034-6.533,1.612a2.812,2.812,0,0,1-1.484-.218c-4.2-3.235-8.925-6.215-6.27-12.806Z" transform="translate(10.413 1.2)" fill="#f0efea"/>
      <path id="パス_639" data-name="パス 639" d="M440.675,449.377c-2.437-.655-6.636.49-4.709-4.615l6.793,2.846Z" transform="translate(12.91 1.524)" fill="#3d2809"/>
      <path id="パス_640" data-name="パス 640" d="M434.709,490.715q-.338-3.779-.675-7.557l1.7-3.853q.174,4.848.345,9.7C437.048,490.713,436.036,490.84,434.709,490.715Z" transform="translate(12.577 9.515)" fill="#191919"/>
      <path id="パス_641" data-name="パス 641" d="M437.346,467.635a4.846,4.846,0,0,0-1.516.515c-.831-3.3.207-6.754-.63-10.166C438.3,460.683,436.9,464.381,437.346,467.635Z" transform="translate(12.847 4.582)" fill="#fcedba"/>
      <path id="パス_642" data-name="パス 642" d="M431.6,454.282l6.533-1.612C437.068,457.709,434.256,455.671,431.6,454.282Z" transform="translate(12.014 3.353)" fill="#dedbd1"/>
      <path id="パス_643" data-name="パス 643" d="M431.217,459.372c2.118,7.728,1.974,8.394-2.336,10.816-1.666-2.037-.784-4.062.023-6.089Z" transform="translate(11.166 4.903)" fill="#fab41f"/>
      <path id="パス_644" data-name="パス 644" d="M429.488,463.211q-.011,3.044-.023,6.089c-1.4,1.055-1.255,3.618-3.63,3.725l-.27.193c-.807-3.864,1.861-6.7,2.96-10C428.845,463.214,429.167,463.212,429.488,463.211Z" transform="translate(10.583 5.792)" fill="#322207"/>
      <path id="パス_645" data-name="パス 645" d="M478.865,504.661l-1.84-7.931c2.149.787,3.465,2.173,3.328,4.609Z" transform="translate(22.522 13.546)" fill="#080403"/>
      <path id="パス_646" data-name="パス 646" d="M412.324,553.247c-2.844.44-3.157-5.876-7.049-2.641-3.932-6.723-15.148-5.642-16.368-15.272l.494-.3c7.633-1.116,13.647,4.4,20.842,5.063,2.641.812,5.431,1.192,7.871,2.615,2.161,2.558-.14,4.139-1.3,5.976A56.6,56.6,0,0,0,412.324,553.247Z" transform="translate(2.137 22.373)" fill="#f3f3f1"/>
      <path id="パス_647" data-name="パス 647" d="M410.384,546.91l3.176-4.5a1.822,1.822,0,0,1,1.962-.791c1.31.951,2.492,1.95,1.443,3.8.671,1.975-.728,2.98-1.915,4.083l-3.045.683C410.723,549.457,409.467,548.721,410.384,546.91Z" transform="translate(7.033 23.92)" fill="#676765"/>
      <path id="パス_648" data-name="パス 648" d="M410.955,545.907q.809,1.635,1.62,3.269L408,550.7C406.657,547.664,408.968,546.886,410.955,545.907Z" transform="translate(6.462 24.923)" fill="#0c0b0e"/>
      <path id="パス_649" data-name="パス 649" d="M417.09,546.98l-2.135-3.4c-1.585-2.06-4.667-2.679-5.38-5.585a3.513,3.513,0,0,1,1-3.2c5.988,2.4,12.365,3.443,18.539,5.233,1.517.686,3.134,1.293,2.922,3.439l-1.8,1.693C425.69,544.579,421.37,545.639,417.09,546.98Z" transform="translate(6.907 22.352)" fill="#271d0e"/>
      <path id="パス_650" data-name="パス 650" d="M429.443,544.957c-6.839.4-12.172-3.661-18.053-6.1a4.556,4.556,0,0,1-3.229-2.64,23.962,23.962,0,0,1-1.516-5.42c-1.5-7.409.454-10.095,7.862-10.628a69.808,69.808,0,0,1,13.675.225,10.141,10.141,0,0,1,2.395.661c4.9,3.49,9.822,6.875,15.35.948a2.953,2.953,0,0,1,2.111.932c1.219,1.9,1.141,3.954.761,6.051-1.74,5.057-.665,11.269-6.042,14.844-1.737,2.869-3.39-.9-5.1-.065C435.2,546.092,432.092,543.951,429.443,544.957Z" transform="translate(6.132 18.916)" fill="#e17c25"/>
      <path id="パス_651" data-name="パス 651" d="M462.647,537.734c-1.414.112-2.731.409-3.471,1.813-3.028-1.167-5.3,1.475-8.079,1.6-4.123-1.356-.694-3.068.063-4.04,3.6-4.622,1.688-6.795-3.172-7.725-3.227-.619-6.574-.887-7.067-5.174a16.14,16.14,0,0,1-.813-2.218,3.39,3.39,0,0,1,1.5-3.087c3.491-1.367,7.24.389,10.743-.911a133.476,133.476,0,0,1,19.251-.576c3.128,1.965.436,4.5.66,6.753a14.273,14.273,0,0,1-2.225,5.387A21.209,21.209,0,0,1,462.647,537.734Z" transform="translate(13.982 18.303)" fill="#e9a31f"/>
      <path id="パス_652" data-name="パス 652" d="M441.906,522.009c.985,3.178,3.451,3.657,6.391,4.242,2.828.561,6.864-.129,7.775,4.21.8,3.818-1.526,5.936-4.4,7.711-.834.516-.963,1.151-.236,1.879-1.746,2.078-4.172,2.566-6.681,2.857-1.744-1.1-4.35.541-5.706-1.8-1.454-3.128,1.379-5.833.867-8.871C441.091,528.925,439.679,525.113,441.906,522.009Z" transform="translate(13.641 19.394)" fill="#e58025"/>
      <path id="パス_653" data-name="パス 653" d="M441.829,532.119q-.946,4.075-1.893,8.149a3.609,3.609,0,0,1-.707,3.288l-3.346-1.34q2.194-7.643,4.391-15.286C442.2,528.238,440.684,530.577,441.829,532.119Z" transform="translate(13.005 20.532)" fill="#341e0a"/>
      <path id="パス_654" data-name="パス 654" d="M425.071,540.5c2.484-2.149,5.451-.957,8.213-1.19q-.9,1.5-1.811,2.991l-3.031.148C427.891,540.813,426.352,540.88,425.071,540.5Z" transform="translate(10.503 23.369)" fill="#eca31c"/>
      <path id="パス_655" data-name="パス 655" d="M455.564,542.548c-.943,2.274-2.289-.281-3.376.281-1.193-.826-3.849-2.1-2.788-2.868C451.976,538.086,454.261,539.8,455.564,542.548Z" transform="translate(16.075 23.365)" fill="#ebe3c3"/>
      <path id="パス_656" data-name="パス 656" d="M438.634,541.05a3.079,3.079,0,0,1,.708-3.288c1.877.284,3.966-.2,5.455,1.5Z" transform="translate(13.6 23.038)" fill="#e7941b"/>
      <path id="パス_657" data-name="パス 657" d="M384.395,531c-3.307-7.892-4.341-16.212-4.641-24.669,2.918-4.163,4.177-.816,5.729,1.254a39.039,39.039,0,0,1,1.776,5.27,11.028,11.028,0,0,1,.214,3.3c-.446,3.049.814,5.766,1.691,8.563a11.829,11.829,0,0,1,.458,3.555C388.944,531.209,388.583,534.788,384.395,531Z" transform="translate(0.02 15.307)" fill="#e5a426"/>
      <path id="パス_658" data-name="パス 658" d="M383.523,526.73c4.54,1.762,3.023-2.078,3.646-3.94,3.733.1,5.26,2.624,6.285,5.712.39,3.181.474,6.251-3.089,7.887q-2.667-2.4-5.334-4.792Q384.275,529.164,383.523,526.73Z" transform="translate(0.892 19.575)" fill="#f1c065"/>
      <path id="パス_659" data-name="パス 659" d="M384.476,509.5c-1.427-.953-2.2-3.751-4.7-1.68-.511-3.721.91-6.887,2.849-9.9l3.338,1.666a3,3,0,0,1,1.012,2.1C386.6,504.428,386.964,507.42,384.476,509.5Z" transform="translate(0 13.82)" fill="#ecc069"/>
      <path id="パス_660" data-name="パス 660" d="M389.079,535.464c1.572-2.461,1.75-5.207,1.64-8.011a1.646,1.646,0,0,1,1.776-.6c2.139.99,3.671,2.961,5.982,3.683a10.546,10.546,0,0,1,2.74,1.473,16.815,16.815,0,0,0,6.313,3.753,6.63,6.63,0,0,1,1.805,1.334c1.169,2.05,2.087,4.137.975,6.525-7.523-.549-14.327-3.348-20.95-6.707A6.441,6.441,0,0,0,389.079,535.464Z" transform="translate(2.177 20.5)" fill="#db981c"/>
      <path id="パス_661" data-name="パス 661" d="M384.786,502.643a1.993,1.993,0,0,0-.007-1.581c2.06-3.3.976-8.8,6.676-9.549q-.735,2.325-1.473,4.648c-2.029,2,1.217,6.126-2.936,7.266A2.835,2.835,0,0,1,384.786,502.643Z" transform="translate(1.182 12.339)" fill="#211806"/>
      <path id="パス_662" data-name="パス 662" d="M465.342,528.008l.935-5.99c-2.91-5.186-1.721-10.858-1.949-16.368a3.983,3.983,0,0,1,2.832-2.92c2.548,1.918.843,5.385,2.747,7.538,1.224,3.406,2.154,6.8-.494,10.012-1.4,3-.009,6.744-2.482,9.468C465.911,529.616,465.815,528.64,465.342,528.008Z" transform="translate(19.572 14.934)" fill="#2e2b23"/>
      <path id="パス_663" data-name="パス 663" d="M468.447,519.457q.247-5.005.494-10.012l.509-3.158c.81,4.732,2.593,9.473-.156,14.154A11.647,11.647,0,0,1,468.447,519.457Z" transform="translate(20.538 15.757)" fill="#fcf8d7"/>
      <path id="パス_664" data-name="パス 664" d="M458.413,535.419c.885-3.721,4.519-5.248,6.474-8.115a2.089,2.089,0,0,1,1.336,1.5C464.552,532.11,462.552,535.027,458.413,535.419Z" transform="translate(18.217 20.619)" fill="#2b1f08"/>
      <path id="パス_665" data-name="パス 665" d="M465.007,529.741l-1.336-1.5,1.81-4.98,1.588,1.74Z" transform="translate(19.433 19.683)" fill="#120a03"/>
      <path id="パス_666" data-name="パス 666" d="M469.141,509.166c1.989,5.571,1.544,11.283.985,17-6.819,1.691-13.77,1.41-20.7,1.4-1.324-4.675-3.906-9.495,1.538-13.393,8.217-1.854,11.119-9.6,7.292-19.737-1.237-3.275-2.727-6.457-4.1-9.681l5.079,3.167-.193-.133c2.993,1.729,4.916,4.464,6.8,7.233l1.513,1.769C467.27,501.016,471.307,504.642,469.141,509.166Z" transform="translate(15.724 10.776)" fill="#f5e5c6"/>
      <path id="パス_667" data-name="パス 667" d="M465.577,506.9c.871-4.337-4.425-7.781-1.79-12.372a13.3,13.3,0,0,1,3.657,10.094Z" transform="translate(19.288 13.037)" fill="#2a271f"/>
      <path id="パス_668" data-name="パス 668" d="M463.7,494.467c-3.238-1.5-5.206-4.189-6.8-7.233C462.441,486.563,462.491,491.057,463.7,494.467Z" transform="translate(17.866 11.333)" fill="#2f2b25"/>
      <path id="パス_669" data-name="パス 669" d="M386.712,502.5q1.537-3.48,3.075-6.962c4.8.28,9.521,5.75,14.462-.286,2.306-2.816,3.418.926,5,1.884,1.316,1.606-.522,2.663-.692,4.01-2.085,4.262-5.289,7.925-6.715,12.539a18.5,18.5,0,0,0-.036,9.521,30.276,30.276,0,0,0,1.768,5.012,21.839,21.839,0,0,1,2.892,5.76c.639,2.108,1.857,4.03,2.065,6.284a2.634,2.634,0,0,1-1.14,1.875c-2.642.8-4.377-.8-6.147-2.316l-2.357.078c-2.572-1.914-4.265-4.672-6.566-6.852a10.186,10.186,0,0,1-.979-2.232c-.2-8.667-1.423-17.1-5.566-24.9A3.04,3.04,0,0,1,386.712,502.5Z" transform="translate(1.378 12.965)" fill="#e39e1a"/>
      <path id="パス_670" data-name="パス 670" d="M404.049,501.172q.467-1.677.935-3.357,2.577-3.271,5.151-6.543c1.334,4.528-2.1,6.993-4.32,9.982A1.032,1.032,0,0,1,404.049,501.172Z" transform="translate(5.64 12.283)" fill="#1b1305"/>
      <path id="パス_671" data-name="パス 671" d="M426.578,471.374l.272-.193c-.469,3.49-.564,7.31-5.816,6.562C422.7,475.464,423.33,472.278,426.578,471.374Z" transform="translate(9.57 7.635)" fill="#2e2005"/>
      <path id="パス_672" data-name="パス 672" d="M416.793,484.726c-1.816,2.4-3.15,5.277-6.308,6.343C411.039,487.413,411.934,484.1,416.793,484.726Z" transform="translate(7.129 10.751)" fill="#1d1504"/>
      <path id="パス_673" data-name="パス 673" d="M429.97,497.884c2.5,1.96,3.591,6.461,8.229,4.566a.905.905,0,0,1,1.523.474c2.241.938,1.629,2.851,1.563,4.577.653,4,2.278,7.856,1.71,12.041a7.813,7.813,0,0,1-.81,2.522,4.045,4.045,0,0,1-2.136,1.667c-11.061.1-12.727-1.024-14.176-9.508C427.126,508.752,425.953,502.664,429.97,497.884Z" transform="translate(10.689 13.813)" fill="#efe0c0"/>
      <path id="パス_674" data-name="パス 674" d="M452.653,509.276c-3.151,4.161-.068,9.038-1.538,13.392-3.2,2.418-6.428-.718-9.636.046a2.742,2.742,0,0,1-1.084-3.06c3.581-4.388.287-9.156.739-13.718C445.217,506.211,448.331,509.824,452.653,509.276Z" transform="translate(14.031 15.675)" fill="#fbf1db"/>
      <path id="パス_675" data-name="パス 675" d="M441.538,505.935c2.257,4.289,6.724,8.507.413,13.067-.34-.2-.68-.4-1.023-.591-1.384-2.045-.848-4.616-1.849-6.77-.672-1.98-.867-3.9.629-5.641Z" transform="translate(13.627 15.675)" fill="#ebe1c4"/>
      <path id="パス_676" data-name="パス 676" d="M440.083,506.056q.229,2.92.459,5.84c.038,1.981,2.112,4.534-1.54,5.477,1.108-3.922-4.913-7.672-.279-11.679A4.5,4.5,0,0,0,440.083,506.056Z" transform="translate(13.251 15.62)" fill="#28241f"/>
      <path id="パス_677" data-name="パス 677" d="M437.43,503.954l-1.524-.474q-.061-4.775-.126-9.547.742-1.025,1.4.054C438.841,497.27,439.928,500.567,437.43,503.954Z" transform="translate(12.981 12.783)" fill="#767676"/>
      <path id="パス_678" data-name="パス 678" d="M437.482,495.433a10.467,10.467,0,0,1-1.4-.054c-.8-2.092-1.978-4.1-1.475-6.487l1.366-1.712C438.4,489.578,437.53,492.582,437.482,495.433Z" transform="translate(12.681 11.337)" fill="#1b1b1b"/>
      <path id="パス_679" data-name="パス 679" d="M402.278,529c.868-11.647,3.519-22.663,12.4-31.013a19.113,19.113,0,0,1,12.412-5.574c1.487,1.239,1.686,2.879,1.46,4.654a5.478,5.478,0,0,1-1.928,3.08c-9.114,4.941-13.781,12.816-15.058,22.92-2.562,3.726-3.128,8.739-7.319,11.428a3.358,3.358,0,0,1-2.184-.866C401.5,532.057,401.051,530.489,402.278,529Z" transform="translate(5.049 12.548)" fill="#f4c368"/>
      <path id="パス_680" data-name="パス 680" d="M433.778,476.432l-3.812,19.009c-2.07,1.918-4.169,2.071-6.3.1,2.008-6.739,3.967-13.493,6.072-20.2.339-1.079-.047-3.238,1.891-2.895C433.517,472.786,433.406,474.894,433.778,476.432Z" transform="translate(10.177 7.92)" fill="#e78125"/>
      <path id="パス_681" data-name="パス 681" d="M423.981,491.22l6.3-.1q-.041,3.483-.083,6.966c-2.678,2.076-5.3,2.038-7.872-.2q-.026-2.58-.05-5.166Q423.13,491.967,423.981,491.22Z" transform="translate(9.858 12.247)" fill="#f2ae71"/>
      <path id="パス_682" data-name="パス 682" d="M405.36,499.312l1.763.082q-3.807,6.429-7.617,12.858l-.5.639-.628-.507C399.358,507.306,402.113,503.177,405.36,499.312Z" transform="translate(4.329 14.143)" fill="#030301"/>
      <path id="パス_683" data-name="パス 683" d="M398.748,509.961a1.62,1.62,0,0,1,1.123-.132l.169,6.807c-.921,1.037-.053,2.875-1.619,3.624C396.657,516.767,395.783,513.3,398.748,509.961Z" transform="translate(3.964 16.566)" fill="#3a2b07"/>
      <path id="パス_684" data-name="パス 684" d="M398.117,518.973l1.619-3.624c.2,2.772,2.187,5.231,1.431,8.17l-.528-.225C398.331,522.709,398.267,520.816,398.117,518.973Z" transform="translate(4.268 17.853)" fill="#251a08"/>
      <path id="パス_685" data-name="パス 685" d="M400.219,521.8l.531.225c.629.059,1.26.119,1.891.177q.223,2.183.448,4.369c.709,1.426-.117,1.79-1.314,1.9C401.136,526.274,399.207,524.381,400.219,521.8Z" transform="translate(4.687 19.346)" fill="#312007"/>
      <path id="パス_686" data-name="パス 686" d="M425.181,496.611l7.872.2.6,1.369q-1.047,8.212-2.1,16.424c-1.62,2.276.621,5.6-2.056,7.6-5.832,2.111-11.724,1.745-17.633.416-2.915-1.446-1.948-3.777-.681-5.409,4.651-5.988,7.782-12.939,12.343-18.966Q424.356,497.426,425.181,496.611Z" transform="translate(7.007 13.518)" fill="#e07c25"/>
      <path id="パス_687" data-name="パス 687" d="M406.643,541.724c-1.027-1.736-1.955-3.5-1.656-5.626,3.52-2.97,4.808.73,6.815,2.282,1.217,1.873,4.812,1.8,4.217,5.157a4.889,4.889,0,0,0-1.271.392Q410.7,542.829,406.643,541.724Z" transform="translate(5.844 22.394)" fill="#d3ae65"/>
      <path id="パス_688" data-name="パス 688" d="M412.233,539.884q-3.408-1.143-6.815-2.283l-1.7-.951a1.649,1.649,0,0,1-.108-2.538q.054-1.208.108-2.416a2.636,2.636,0,0,1-.2-3.211c4.767-.279,4.747,4.273,6.8,6.734q.894.833,1.79,1.666Z" transform="translate(5.413 20.889)" fill="#5e605e"/>
      <path id="パス_689" data-name="パス 689" d="M410.315,538.044c-3.733-.867-4.216-4.656-6.3-7.006-1.272-.756-1.081-1.739-.431-2.792l6.76-11.415a1,1,0,0,1,1.652-.224l19.747.208c1.79,2.091,1.81,4.182,0,6.27-4.865.057-9.762.495-14.586.08-7.537-.65-10.028,1.98-7.351,9.273C410.427,534.142,410.167,536.167,410.315,538.044Z" transform="translate(5.415 18.065)" fill="#eda96f"/>
      <path id="パス_690" data-name="パス 690" d="M426.366,524.252q0-3.136,0-6.271c.03-2.344-.565-4.818,1.4-6.76.042,10.313,8.853,6.127,13.792,8.344,3.135-.08,1.554,2.321,1.942,3.687a1.116,1.116,0,0,1-1.207,1.218l-.595-.042-.584.127c-4.914,3.469-9.838,2.481-14.765.027Z" transform="translate(10.789 16.898)" fill="#eec16a"/>
      <path id="パス_691" data-name="パス 691" d="M426.349,522.076l14.765-.028C438.539,528.9,432.545,528.909,426.349,522.076Z" transform="translate(10.799 19.403)" fill="#e29c1a"/>
      <path id="パス_692" data-name="パス 692" d="M441.039,533.38c-1.705-1.373-1.026-3.461-1.554-5.188q-.092-3.051-.187-6.1l.458-.171q.923-.979,1.59.191l.405.017Q441.4,527.757,441.039,533.38Z" transform="translate(13.795 19.271)" fill="#170d04"/>
      <path id="パス_693" data-name="パス 693" d="M441.484,523.376q-.791-.135-1.591-.19-.6-2.368-1.193-4.733.065-.918.128-1.837c.888-.749,1.741-.892,2.528.143l.565-.09q-.035,1.853-.069,3.709Q441.669,521.88,441.484,523.376Z" transform="translate(13.656 18.008)" fill="#555358"/>
      <path id="パス_694" data-name="パス 694" d="M386.967,503.14c6.456,7.792,6.751,16.995,6.051,26.426-4.71.132-4.838-4.369-6.947-6.867-.1-2.326-1.165-4.514-.994-6.879q.031-1.071.065-2.143C384.632,509.971,384.3,506.3,386.967,503.14Z" transform="translate(1.185 15.029)" fill="#e0b565"/>
      <path id="パス_695" data-name="パス 695" d="M387.249,503.739q-.912,5.266-1.826,10.535c-2.187-1.256-1.547-3.485-1.849-5.39,1.533-2.591-1.234-5.952,1.491-8.331q1.062.236,2.123.477C387.207,501.935,387.228,502.836,387.249,503.739Z" transform="translate(0.903 14.43)" fill="#545852"/>
      <path id="パス_696" data-name="パス 696" d="M386.81,518.9c1.954,2.369,2.74,5.728,5.956,7.022a5.04,5.04,0,0,1,.323,1.423q1.134,1.287-.387,2.078c-.412-.068-.829-.117-1.245-.146q-2.416-2.791-4.834-5.585-.159-1.317-.316-2.633A1.254,1.254,0,0,1,386.81,518.9Z" transform="translate(1.438 18.675)" fill="#575655"/>
      <path id="パス_697" data-name="パス 697" d="M387.249,520.163l-.5,2.161c-1.881-2.731-4.278-5.375-1.484-8.887C387.25,515.288,386.724,517.88,387.249,520.163Z" transform="translate(0.999 17.411)" fill="#372f20"/>
      <path id="パス_698" data-name="パス 698" d="M404.712,533.47q.054,1.269.108,2.539c-2.863-.639-6.552-.147-6.513-4.758Z" transform="translate(4.312 21.532)" fill="#2f2405"/>
      <path id="パス_699" data-name="パス 699" d="M391.421,527.836q.194-1.04.387-2.078c2.7,1.62,5.206,3.4,5.737,6.841A11.016,11.016,0,0,1,391.421,527.836Z" transform="translate(2.719 20.261)" fill="#1a1103"/>
      <path id="パス_700" data-name="パス 700" d="M403.966,526.069q.216,1.4.431,2.793-.148,1.742-.3,3.485c-1.741-1.118-2.139-2.987-2.673-4.775q.659-.944,1.316-1.9A4.318,4.318,0,0,0,403.966,526.069Z" transform="translate(5.034 20.242)" fill="#5f553a"/>
      <path id="パス_701" data-name="パス 701" d="M441.375,517.982l-2.528-.143q-.116-.815-.232-1.632c1.7-1.49,1.065-3.639,1.54-5.476A11.377,11.377,0,0,1,441.375,517.982Z" transform="translate(13.637 16.785)" fill="#3a362b"/>
      <path id="パス_702" data-name="パス 702" d="M410.635,520.848l-1.652.223c-.364-11.089,4.9-18.586,14.776-23.138C422.632,507.432,415.733,513.624,410.635,520.848Z" transform="translate(6.777 13.824)" fill="#e49e1c"/>
    </g>
    <g id="ピーマン" transform="translate(1060.134 3047.868) rotate(-19)" opacity="0.1">
      <path id="パス_888" data-name="パス 888" d="M48.849,4.371c-3.56,4.192-7.7,7.162-13.588,6.43a11.99,11.99,0,0,0-9.235.043c-5.962.791-11.317-1.773-16.9-3.057C7.914,6.564,6.157,7.059,4.761,6.4-.742,5.272-.821,5.171,1.25,1.834,13.589-.05,26.009,1.515,38.373.923c3.5.106,7.024-2.158,10.521.044C50,2.113,50.134,3.251,48.849,4.371Z" transform="translate(76.639 70.262)" fill="#6c9830"/>
      <path id="パス_889" data-name="パス 889" d="M28.8,3.248q.884.957,1.77,1.912a8.569,8.569,0,0,1-.452,3.985,8.56,8.56,0,0,1-2.885,4.176c-2.43,1.313-5.312.677-7.784,1.812A25.517,25.517,0,0,1,16.723,16.3a16.638,16.638,0,0,0-8.838,3.856C5.634,21.5,4.159,24.918.636,22.909c-1.468-3.052-.018-5.893.613-8.8A22.192,22.192,0,0,1,11.386,3.831c1.658-.872,3.349-1.681,5.054-2.469A15.179,15.179,0,0,1,25.431.276,5.394,5.394,0,0,1,28.8,3.248Z" transform="translate(84.466 7.002)" fill="#709d34"/>
      <path id="パス_890" data-name="パス 890" d="M0,45.762l.1-3.053c-.234-1.985,1.45-2.679,2.522-3.791a17.125,17.125,0,0,0,3.138-3.6,11.631,11.631,0,0,0,1.015-10.5c-.26-.651-.466-1.315-.67-1.982C2.2,16.724,7.551,10.266,5.37,4.081,5.6,1.621,6.011-.655,9.412.173c3.568,9.205,7.543,18.22,5.192,28.633C12.7,37.254,8.168,42.951,0,45.762Z" transform="translate(125.488 28.87)" fill="#badf8b"/>
      <path id="パス_891" data-name="パス 891" d="M24.756,25.278C8.109,22.331,1.864,17.153.128,4.914-.094,3.346-.16,1.881,1.061.662A2.745,2.745,0,0,1,4,.237,4.67,4.67,0,0,1,5.4,1.709c1.026,2.95,3.307,4.779,5.8,6.42,3.438,5.788,9.933,8.586,13.734,14.025A3.48,3.48,0,0,1,24.756,25.278Z" transform="translate(4.527 58.673)" fill="#b3d686"/>
      <path id="パス_892" data-name="パス 892" d="M39.917.221C37.68,9.39,28.37,14.236,18.011,11.619,11.254,9.913,5.575,6.149,0,2.184A3.921,3.921,0,0,1,1.887.578c5.035-1.115,9.78-.856,13.744,2.935.788.813-.7,2.257-.317,2.083,4.922-2.262,10.314.251,15.213-1.678C33.056,1.118,36.1-.325,39.917.221Z" transform="translate(33.287 83.806)" fill="#b9de89"/>
      <path id="パス_893" data-name="パス 893" d="M.462,10.752C2.142,9.687,2.146,7.71,2.985,6.19,4.3,3.807,3.358-1.766,8.346.553,11.885,2.2,16.2,5.2,12.54,10.754c-1.1,1.665-1.587,3.731-2.354,5.613C5.923,17.5,3.386,14.314.318,12.441A1.12,1.12,0,0,1,.462,10.752Z" transform="translate(124.05 6.096)" fill="#719d34"/>
      <path id="パス_894" data-name="パス 894" d="M.524,2.223A52.069,52.069,0,0,1,22.495.448c3.3.417,5.908,1.58,6.854,5.083-1.175,1.147-2.614,1.14-4.095.96-2.687-.724-5.371-1.125-8.023.177-3.013,1.38-6.086,1.988-9.3.733C6.276,6.889,4.665,6.249,3.044,5.64,1.768,5.11.486,4.578,0,3.1Q.262,2.664.524,2.223Z" transform="translate(37.763 6.541)" fill="#b9de88"/>
      <path id="パス_895" data-name="パス 895" d="M10.485,3.716q-.735,4.77-1.472,9.538c.925,2.488-1.1,3.781-2.187,5.464-1.16,1.271-2.117,2.895-4.247,2.545C-1.374,18.883.44,15.1.273,11.8A4.991,4.991,0,0,1,.837,9.846,4.251,4.251,0,0,0,2.871,7.694C2.928,3.731,6.784,2.615,8.639,0,10.382.678,9.868,2.479,10.485,3.716Z" transform="translate(76.775 17.097)" fill="#b5d986"/>
      <path id="パス_896" data-name="パス 896" d="M6.127,0c4.053-.152,6.117,3.885,9.745,4.624a10.017,10.017,0,0,1,.4,1.112,1.674,1.674,0,0,1-.094.608A3.927,3.927,0,0,1,13.7,9.268c-1.682.805-3.371,1.6-3.573,3.82a9.066,9.066,0,0,1-.365,1.967,5.513,5.513,0,0,1-2.824,3.039,6.761,6.761,0,0,1-3.276.367C-2.319,16,.934,10.984.49,6.983c.871-1.644,2.286-1.1,3.605-.917,4.766-.019.825-2.9,1.385-4.29A2.041,2.041,0,0,1,6.127,0Z" transform="translate(118.367 17.839)" fill="#151d0c"/>
      <path id="パス_897" data-name="パス 897" d="M23.172,6.308,13.9,10.861c-4.036,2-8.336.5-12.484.944-2.235-.9-1.444-2.121-.2-3.129,2.347-1.906,5.367-2.219,8.1-3.189a17.594,17.594,0,0,1,4.118-1.343c3.277.224,5.642-1.522,7.826-3.67,1.012-.574,1.98-.8,2.773.349a7.007,7.007,0,0,1-.446,4.32Q23.37,5.72,23.172,6.308Z" transform="translate(50.033 77.718)" fill="#77a43b"/>
      <path id="パス_898" data-name="パス 898" d="M.017,7.185C-.042,3.545,1.893,1.613,5.337.974A7.311,7.311,0,0,1,7.511,0c4.678,1.105,6.228,4.522,6.54,8.856a5.427,5.427,0,0,1-2.11,1.258A21.317,21.317,0,0,1,2.028,9.98C.827,9.433-.14,8.711.017,7.185Z" transform="translate(16.394 12.447)" fill="#e1e4de"/>
      <path id="パス_899" data-name="パス 899" d="M2.423,8.688,0,9.354,1.019,6.01C2.778,3.8,2.251-.736,7.016.1L6.968.051c2.228,1.7,4.987.092,7.314,1.172,1.974.363,1.685,2.206,2.274,3.475l-.713.053c-.243,2.333,1.5,5.377-2.292,6.437a3.309,3.309,0,0,1-1.678-2.1c-.752-2.424-.888.007-1.328.2C7.646,11.476,5.184,8.135,2.423,8.688Z" transform="translate(21.731 4.067)" fill="#33352f"/>
      <path id="パス_900" data-name="パス 900" d="M10.958,5.681a3.015,3.015,0,0,0-.133,1.3c-.132.328-.263.656-.393.987-1.8,1.857-4.179,2.6-6.541,3.378A3.445,3.445,0,0,1,.406,9.288C-.546,7.225.532,5.069.117,2.977Q.808,1.488,1.5,0C3.029,4.853,7.42,3.917,10.973,4.685A1.283,1.283,0,0,0,10.958,5.681Z" transform="translate(113.536 12.162)" fill="#2d2d2c"/>
      <path id="パス_901" data-name="パス 901" d="M8.921,0c.047,1.075.731,1.526,1.682,1.715.97.417,1.964.817,1.815,2.169C9.6,7.131,7.455,11.929,1.743,8.507A3,3,0,0,1,0,6.133C3.477,4.822,4.447-.136,8.921,0Z" transform="translate(7.49 19.629)" fill="#2e2e2e"/>
      <path id="パス_902" data-name="パス 902" d="M4.264,17.137c-.919-.282-2.4-.3-2.671-.887C-.811,11.023-.121,5.647,1.222.287A1.421,1.421,0,0,1,3.3.684c1.872,5,1.532,10.235,1.614,15.428C4.7,16.455,4.482,16.8,4.264,17.137Z" transform="translate(0 33.135)" fill="#292929"/>
      <path id="パス_903" data-name="パス 903" d="M1.845,11.385C.256,10.638.256,9.1,0,7.677c.587-.55,1.175-1.092,1.764-1.635C1.751,2.956,4.64,2.251,6.292.528A4.5,4.5,0,0,1,9.414.123a3.086,3.086,0,0,1,1.837,2.485Z" transform="translate(85.415 9.427)" fill="#c1c4c0"/>
      <path id="パス_904" data-name="パス 904" d="M.258,8.343,0,6.277C.668,4.044,2.969,3.306,4.246,1.63L7.218,0c.61,1.581,3.427,3,.363,4.856C5.533,5.35,4.335,6.443,4.839,8.737A1.575,1.575,0,0,1,4,11.1C2.017,11.179,1.259,9.6.258,8.343Z" transform="translate(127.321 24.187)" fill="#151813"/>
      <path id="パス_905" data-name="パス 905" d="M7.424,3.255c-3.3.65-2.724,5.236-6,5.911Q.713,6.9,0,4.649C.587,1.317,2.593-.193,5.943.02,7.654.541,7.233,2.038,7.424,3.255Z" transform="translate(21.324 0.913)" fill="#729d37"/>
      <path id="パス_906" data-name="パス 906" d="M4.86,5.444,1.648,5.2C1.075,5.878.527,5.827,0,5.143,4.346,3.1,7.716-2.046,13.618.877,14.3,4.294,10.663,2.761,9.7,4.3,8.159,4.969,6.65,5.8,4.86,5.444Z" transform="translate(90.216 5.064)" fill="#1c1c1e"/>
      <path id="パス_907" data-name="パス 907" d="M5.449,9.471Q3.88,9.377,2.31,9.28C1.114,6.366-1.384,3.644.984.213L.75.247C2.035-.4,2.882.333,3.7,1.174,5.171,3.75,7.576,6.136,5.449,9.471Z" transform="translate(3.28 50.058)" fill="#383634"/>
      <path id="パス_908" data-name="パス 908" d="M.445,7.305.3,2.482A1.461,1.461,0,0,1,.825.266a19.991,19.991,0,0,1,9.1.569L12.587,2.5C7.98,2.682,3.05,2.058.445,7.305Z" transform="translate(73.174 75.554)" fill="#b2dc7d"/>
      <path id="パス_909" data-name="パス 909" d="M7.875,5.312Q7.189,6.561,6.5,7.813c-1.569,1.126-3.037,2.7-5.208,1.178C-.315,6.865-.25,4.555.547,2.163,1.371.628,2.507-.333,4.39.107,5.975,1.559,2.256,6.562,7.875,5.312Z" transform="translate(71.77 19.479)" fill="#0e1112"/>
      <path id="パス_910" data-name="パス 910" d="M0,4.439l4.337-2.7L7.921,0C9.3,1.293,11.7,1.841,11.184,4.5L1.614,5.889C.965,5.53.1,5.408,0,4.439Z" transform="translate(99.496 4.206)" fill="#abada8"/>
      <path id="パス_911" data-name="パス 911" d="M1.192,7.565Q.6,7.622,0,7.66C.393,3.718,2.637,1.293,6.268,0L7.5,1.162C6.406,4.288,5.7,7.8,1.192,7.565Z" transform="translate(1.222 25.762)" fill="#2b2b2b"/>
      <path id="パス_912" data-name="パス 912" d="M7.843,5.821,5.259,7.306A3.831,3.831,0,0,1,2.7,5.983,11.138,11.138,0,0,1,0,1.893C.013.639.944.3,1.9,0,4.722,1.083,7.124,2.594,7.843,5.821Z" transform="translate(68.317 13.765)" fill="#2c2b29"/>
      <path id="パス_913" data-name="パス 913" d="M6.5.933.561,5.563C-1.427-1.075,2.176-.535,6.5.933Z" transform="translate(20.762 0)" fill="#66951f"/>
      <path id="パス_914" data-name="パス 914" d="M4.285,0,5.934.057,1.249,5.263C-1.714,1.215,1.123.514,4.285,0Z" transform="translate(85.93 10.207)" fill="#010101"/>
      <path id="パス_915" data-name="パス 915" d="M6.239,5.286l-1.663.478-4-2.04Q.288,2.29,0,.854C2.527-.893,4.536.32,6.47,1.982A2.668,2.668,0,0,1,6.239,5.286Z" transform="translate(28.711 80.225)" fill="#29311c"/>
      <path id="パス_916" data-name="パス 916" d="M3.263,4.5Q1.631,2.251,0,0C3.948.081,6.061,1.938,5.851,6.045Z" transform="translate(107.416 4.206)" fill="#1d1d1e"/>
      <path id="パス_917" data-name="パス 917" d="M0,1.753C3.068-.594,6.146-.561,9.235,1.71A19.315,19.315,0,0,1,0,1.753Z" transform="translate(102.665 79.353)" fill="#639821"/>
      <path id="パス_918" data-name="パス 918" d="M7.938,2.136,6.281,3.441C3.829,4.94,1.978,3.7.2,2.115A2.177,2.177,0,0,1,.361,0L4.83.444C5.3,2.041,7,1.388,7.938,2.136Z" transform="translate(62.283 11.628)" fill="#040600"/>
      <path id="パス_919" data-name="パス 919" d="M7.314,1.172C4.811,1.191,2.128,2.33,0,0Z" transform="translate(28.699 4.118)" fill="#729d37"/>
      <path id="パス_920" data-name="パス 920" d="M4.125,1.5,8.864,0a12.718,12.718,0,0,0-.021,1.513c-.671,3.961-2.57,8.01.851,11.669a3.432,3.432,0,0,1,1.294,2.65C9.9,20.01,6.568,23.579,7.624,28.335a20.809,20.809,0,0,1,.314,4.112,31.52,31.52,0,0,0-.385,7.008c.074,2.807,2.015,2.971,4.14,2.883,10.531.073,21.044-.469,31.552.258,1.727.552,3.786.732,3.774,3.278-13.3,1.421-26.646-.074-39.96.556a12.207,12.207,0,0,1-2.717,2.708q-.137.8-.275,1.609l-1.78,1.425C.737,52.359.275,51.341,0,50.113c2.867-10.83-.885-22.067,1.974-32.9.013-2.957.218-5.926-.509-8.845a7.036,7.036,0,0,1,1.685-6.3C3.472,1.879,3.8,1.691,4.125,1.5Z" transform="translate(69.407 27.292)" fill="#0f110b"/>
      <path id="パス_921" data-name="パス 921" d="M3.4,6.646,0,5.084C2.887.205,8.381,1.778,12.531.006A4.662,4.662,0,0,1,14.7.425,3.613,3.613,0,0,1,15.862,2.28l-3.3,2.782Z" transform="translate(113.03 66.519)" fill="#171e0e"/>
      <path id="パス_922" data-name="パス 922" d="M.008,2.709C-.115.777,1.26.345,2.722,0,4.544,1.862,7.761.253,9.358,2.671Z" transform="translate(73.742 73.72)" fill="#c4ed91"/>
      <path id="パス_923" data-name="パス 923" d="M.2,35.262c-.96-5.4,1.609-9.655,4.5-13.8.757-3,2.947-5.207,4.322-7.868,2.947-2.905,5.539-6.188,9.053-8.488,2.545-1.811,5.635-2.459,8.349-3.91a2.431,2.431,0,0,1,.81-1.2c1.837.107,3.766-.2,5.318,1.191.766,5.34-4.332,6.2-6.869,9.025a69.841,69.841,0,0,0-7.238,5.672c-6.733,6.648-6.683,9.718.382,16.256.537,1.792-.438,2.883-1.757,3.822a5.892,5.892,0,0,1-2.257.6C10.009,35.483,4.75,39.318.2,35.262Z" transform="translate(74.802 21.038)" fill="#6e9b30"/>
      <path id="パス_924" data-name="パス 924" d="M10.344,1.673Q5.915,5.706,1.488,9.742A.84.84,0,0,1,0,9.62l2.793-4.6L8.82.289C10.433-.467,10.617.352,10.344,1.673Z" transform="translate(82.995 25.329)" fill="#0c1108"/>
      <path id="パス_925" data-name="パス 925" d="M5.484,3.308c-1.949-.182-4-.032-5.484-1.718C2.814-.718,6.127.171,9.3.157c1.421.761,1.366,1.906.826,3.178A3.471,3.471,0,0,1,5.484,3.308Z" transform="translate(102.049 19.447)" fill="#212b17"/>
      <path id="パス_926" data-name="パス 926" d="M1.522,5.078Q.762,4.385,0,3.694C2.624,1.137,5.481-.776,9.416.312,7.641,3.316,4.15,3.481,1.522,5.078Z" transform="translate(91.817 21.924)" fill="#1b250c"/>
      <path id="パス_927" data-name="パス 927" d="M.471,7.4,0,4.467Q1.149,2.233,2.3,0c1.983,1.88,1.8,3.985.641,6.189C2.483,7.34,1.766,7.959.471,7.4Z" transform="translate(111.35 15.139)" fill="#d5d8d4"/>
      <path id="パス_928" data-name="パス 928" d="M4.421.02q.806.724,1.613,1.45L1.592,3.41Q.795,2.648,0,1.883C1.332.924,2.609-.16,4.421.02Z" transform="translate(95.075 8.625)" fill="#f7fbf7"/>
      <path id="パス_929" data-name="パス 929" d="M24.709,8.4,25,10.277c-.167,3.471.418,7.007-.869,10.386-1.406,1.784-2.4,4.149-5.323,3.8l.144-.416a4.47,4.47,0,0,1-1.93-2.213C15.048,14.246,9.572,11.872,2.436,11.9A3.736,3.736,0,0,1,0,9.889,2.366,2.366,0,0,1,.749,8.01C2.572,6.48,5.05,6.047,6.815,4.4A10.5,10.5,0,0,1,8.468,3.223C11.021,2.231,13.231.431,16.027,0,21.726-.1,21.831,5.583,24.709,8.4Z" transform="translate(108.484 42.913)" fill="#b2d683"/>
      <path id="パス_930" data-name="パス 930" d="M9.068,18.394c-4.547-.639-3.745-7.64-8.937-7.51C-.34,9.3.527,8.33,1.681,7.491c2.913-.7,2.584-4.277,4.876-5.533L8.035,0c2,2.421,2.227,5.769.866,7.8C6.28,11.706,8.447,14.9,9.068,18.394Z" transform="translate(124.125 32.924)" fill="#212919"/>
      <path id="パス_931" data-name="パス 931" d="M.389,10.255C1.711,6.962-.571,3.06,2.124,0,4.866,4.626,4.209,8.874.693,12.8A1.806,1.806,0,0,1,.389,10.255Z" transform="translate(131.357 53.19)" fill="#1d2319"/>
      <path id="パス_932" data-name="パス 932" d="M4.456,0q.151,1.272.3,2.545A4.7,4.7,0,0,1,1.6,5.354L0,3.931Z" transform="translate(127.289 63.445)" fill="#0e1808"/>
      <path id="パス_933" data-name="パス 933" d="M29.161,51.259c-2.2-.163-3.815-2.389-6.239-1.774C17.878,45.278,11.495,42.4,9.077,35.58a20.362,20.362,0,0,1-6.027-5.824l-.109-1.822Q1.47,24,0,20.057c.36-9.1,3.112-12.541,12-13.671,3.439-.438,5.733-1.311,6.946-4.724C19.48.164,20.834-.852,22.388,1c2.152,5.353.752,10.954,1.185,16.421-.3,3.285.988,6.323,1.536,9.473a114.208,114.208,0,0,0,6.478,21.094C31.585,49.673,31.459,51.276,29.161,51.259Z" transform="translate(5.788 31.595)" fill="#b8de88"/>
      <path id="パス_934" data-name="パス 934" d="M0,0C3.393.509,4.291,3.6,6.027,5.824,1.324,6.671.944,3.044,0,0Z" transform="translate(8.838 61.35)" fill="#181d12"/>
      <path id="パス_935" data-name="パス 935" d="M0,5.326c1.7-.454,1.406-1.8,1.365-3.036C.546.893,1.387.36,2.555,0,8.417,3.838,14.5,6.592,21.69,3.759A6.581,6.581,0,0,1,26.282,6.6c-3.056,2.928-7.744,1.922-10.932,4.533a.97.97,0,0,1-1.6.163C9.749,7.776,4.82,8.1,0,7.984Z" transform="translate(34.949 77.527)" fill="#13180e"/>
      <path id="パス_936" data-name="パス 936" d="M1.368.245l1.6-.162Q9.788.042,16.6,0C11.345,3.665,5.581,1.179.038,1.362c-.006-.187-.079-.5,0-.541C.459.594.919.43,1.368.245Z" transform="translate(47.33 88.581)" fill="#c1e88f"/>
      <path id="パス_937" data-name="パス 937" d="M2.737,6.052c2.69-1.22.671-4.538,2.7-6.052l3.4,1.844a4.2,4.2,0,0,1-.263,2.8c.618,4.5,3.856,3.821,6.9,3.509A4.36,4.36,0,0,1,19.314,9.9c1.043,1.631,1.76,3.3.6,5.189-5.607,2.936-10.477-1.7-15.825-1.533a6.251,6.251,0,0,1-3.6-2.739A4.778,4.778,0,0,1,.668,6.272,1.429,1.429,0,0,1,2.737,6.052Z" transform="translate(32.14 8.818)" fill="#141812"/>
      <path id="パス_938" data-name="パス 938" d="M6.821,8.469A3.021,3.021,0,0,0,3.848,6.7,5.811,5.811,0,0,1,0,2.694C.069,1.458,1.047,1.227,1.96.927,5.074,3.189,7.81,1.309,10.61.135a1.961,1.961,0,0,1,2.531.88c-.089,2.419-2.5,3.684-2.946,5.934C9.341,8.057,8.348,8.861,6.821,8.469Z" transform="translate(43.667 11.298)" fill="#1d2315"/>
      <path id="パス_939" data-name="パス 939" d="M2.166,2.92,0,1.256C2.827-.338,5.622-.564,8.365,1.45a2.687,2.687,0,0,1,.073,1.43C6.361,5,4.27,4.98,2.166,2.92Z" transform="translate(54.278 10.178)" fill="#2c3724"/>
      <path id="パス_940" data-name="パス 940" d="M6.544,1.564,4.612,2.91C2.567,4.1.881,4.109,0,1.5L1.887,0Z" transform="translate(39.083 10.661)" fill="#1b2414"/>
      <path id="パス_941" data-name="パス 941" d="M2.56,12.3c-.745.662-2.48,1.193-2.419.67C.656,8.6-1.571,3.642,2.618,0,4.827,2.76.707,6.412,3.894,9.034,5.08,10.788,3.569,11.439,2.56,12.3Z" transform="translate(75.633 28.805)" fill="#c2eb90"/>
      <path id="パス_942" data-name="パス 942" d="M0,6.189q.665-1.63,1.333-3.261L4.8.038A3.164,3.164,0,0,1,6.287.16a17.7,17.7,0,0,1-4.972,7.43Z" transform="translate(78.193 34.91)" fill="#1c2412"/>
      <path id="パス_943" data-name="パス 943" d="M21.567,25.923a2.107,2.107,0,0,0-.17,1.5,26.481,26.481,0,0,0-8.757,2.768,10.335,10.335,0,0,1-4.615.593C.246,27.973-.992,25.394.614,17c.6-3.132,2.464-5.486,3.721-8.207l8.227-7.369,4.288-.219A1.909,1.909,0,0,0,19.32,0c.866,1.713,2.326,1.284,3.737,1.039a2.268,2.268,0,0,1,1.777,1.9c2.8,3.234-2.641,8.119,2.192,10.946C30.585,19.666,29.578,21.885,21.567,25.923Z" transform="translate(94.972 21.328)" fill="#fcfcfb"/>
      <path id="パス_944" data-name="パス 944" d="M6.217,2.431c-1.67,2.016,3.717,9.652-4.892,6.139C-.572,6.613-.219,4.554,1.05,2.454L3.115.079C5.056-.333,5.732.923,6.217,2.431Z" transform="translate(124.464 32.451)" fill="#b3d883"/>
      <path id="パス_945" data-name="パス 945" d="M8.975,0q.137,3.058.275,6.116Q8.483,7.509,7.716,8.9C5.607,11.088,3.36,12.965,0,12.346,3.279,9,7.975,6.289,5.457.311Z" transform="translate(116.54 34.905)" fill="#171e12"/>
      <path id="パス_946" data-name="パス 946" d="M2.479,0c2.06,1.514,4.283,3.056,2.158,5.974C3.552,7.464,2.114,8.653.614,6.238-.929,3.669.723,2.11,2.409.561Z" transform="translate(121.882 19.145)" fill="#72963a"/>
      <path id="パス_947" data-name="パス 947" d="M6.263.2C7.3,2.6,3.588,3.514,4.47,5.873L1.777,4.761,0,2.859C1.271.047,3.58-.318,6.263.2Z" transform="translate(118.028 19.509)" fill="#ddeece"/>
      <path id="パス_948" data-name="パス 948" d="M4.531,0C5.062,3.328,1.7,3.095.285,4.647-.927.7,1.958.491,4.531,0Z" transform="translate(127.036 25.816)" fill="#668f2d"/>
      <path id="パス_949" data-name="パス 949" d="M0,3.632,2.828,1.783c8.44-3.585,12.417-1.9,15.014,6.285,1.235,3.89,1.69,7.933,2.52,11.887,1.689,2.375-.013,5.715,2.232,7.949-2.317,11.157,2.054,22.881-2.865,33.818-1.027,3.35-3.432,4.75-6.792,4.8l-2.194,1.473c-1.926.333-3.328-.747-4.754-1.763a2.268,2.268,0,0,1-.492-1.92c.326-1.375.775-2.713,1.179-4.069.639-3.346.291-6.718.3-10.084C5.7,40,10.229,29.87,7.029,19.729A19.408,19.408,0,0,0,5.047,12.6a21.088,21.088,0,0,0-3.22-3.629c-.163-.28-.318-.565-.472-.85C2.005,6.288.662,5.063,0,3.632Z" transform="translate(50.488 16.136)" fill="#6e9c30"/>
      <path id="パス_950" data-name="パス 950" d="M0,4.8,6.792,0,8.271,1.6C6.134,4.276,4.246,7.589,0,4.8Z" transform="translate(63.425 77.859)" fill="#1f2b10"/>
      <path id="パス_951" data-name="パス 951" d="M9.332,3.783l1.063,4.623c-.827,1.808-2.121,2.341-3.94,1.446-4-1.42-2.92-6.71-6.455-8.486,3.17-3.383,5.472.528,8.186.973A2.022,2.022,0,0,1,9.332,3.783Z" transform="translate(24.154 11.389)" fill="#6b9034"/>
      <path id="パス_952" data-name="パス 952" d="M4.878,1.45Q6.841.724,8.811,0l2.46,1.587a3.087,3.087,0,0,1-.478,2.033C8.049,5.806,6.863,9.594,3.3,10.95A4.366,4.366,0,0,1,.7,9.026,7.1,7.1,0,0,1,.408,3.579a3.971,3.971,0,0,1,2.522-2Z" transform="translate(25.73 19.791)" fill="#222"/>
      <path id="パス_953" data-name="パス 953" d="M10.567.509q-.9.712-1.8,1.423a5.125,5.125,0,0,1-6.953.059L0,.488A28.365,28.365,0,0,1,10.567.509Z" transform="translate(18.093 20.859)" fill="#030303"/>
      <path id="パス_954" data-name="パス 954" d="M3.221,7.885,2.072,6.438C1.607,5.327,1.111,4.224.678,3.1.284,2.07-.827.743,1.1.247,2.42-.1,4.289-.406,4.566,1.687a44.783,44.783,0,0,1,.045,5.9A7.94,7.94,0,0,1,3.221,7.885Z" transform="translate(30.265 7.287)" fill="#e8e8e8"/>
      <path id="パス_955" data-name="パス 955" d="M17.759.059,24.711,0l.641,6.026c.469,1.222.737,2.4-.675,3.234-.728,5.93-2.817,8.9-10.016,8.063-7.221-.844-8.669,6.35-11.023,11.537L1.879,27.514A42.632,42.632,0,0,1,.263,10.536l6.313-6.4C11.683,6.559,13.765.687,17.759.059Z" transform="translate(2.151 22.791)" fill="#f9f9f8"/>
      <path id="パス_956" data-name="パス 956" d="M2.409,0,4.062,1.716,4.019,9.438l-.437-.027C-.336,6.714-1.49,3.672,2.409,0Z" transform="translate(69.514 19.355)" fill="#fafcfa"/>
      <path id="パス_957" data-name="パス 957" d="M19.034,6.3a11.458,11.458,0,0,0,1.172,9.409q-.407,2.913-.814,5.822c-.4,1.415-.554,2.979-2.182,3.666-.96-3.141-2.566-6.242-2.758-9.428C13.895,6.516,9.019,3.455.426,4.861-.867,1.737.958.639,3.554.04L9.827,0l5.846,2.011C16.713,3.5,19.389,3.711,19.034,6.3Z" transform="translate(52.889 13.058)" fill="#b6da87"/>
      <path id="パス_958" data-name="パス 958" d="M35.621.158c12.386-.721,14.03.588,16.785,13.357-4.267,3.2-9.758,2.6-14.4,4.645q-17.526-.038-35.048-.071c-1.391-1.124-1.543-3.016-2.675-4.3C.287,11.078-.838,8.211,1.373,5.8c4.232-2.15,8.793-2.639,13.448-2.645l2.274-.3c.33.111.662.223,1,.321,2.668,2.073,5.186.893,7.632-.439A18.45,18.45,0,0,1,35.621.158Z" transform="translate(75.028 53.446)" fill="#6f9c30"/>
      <path id="パス_959" data-name="パス 959" d="M14.842,1.176C10.661,3.592,5.94,3.258,1.394,3.821Q.7,2.349,0,.876C4.921,2.252,9.956-1.928,14.842,1.176Z" transform="translate(75.006 55.425)" fill="#171f0c"/>
      <path id="パス_960" data-name="パス 960" d="M.058,3.666C.419,2.226.771.78,2.241,0c2.214,2.986.5,6.3.8,9.453C-2.367,9.8,1.365,5.434.058,3.666Z" transform="translate(70.042 34.586)" fill="#d5f0b8"/>
      <path id="パス_961" data-name="パス 961" d="M.251,0C2.963.3,3.127,2.186,2.925,4.3-.711,4.574-.055,2.179.251,0Z" transform="translate(75.057 67.235)" fill="#99b76d"/>
      <path id="パス_962" data-name="パス 962" d="M13.521,0a99.8,99.8,0,0,1-1.892,10.514c-1.807,6.3.764,9.212,6.831,9.89a1.831,1.831,0,0,1,.158,1.944,4.029,4.029,0,0,1-2.59,1.733c-2.768-.133-5.629,1.446-8.31-.421C-.068,21.042-2.228,15.4,2.455,9.31A33.732,33.732,0,0,1,13.521,0Z" transform="translate(85.786 30.124)" fill="#b9df89"/>
      <path id="パス_963" data-name="パス 963" d="M1.619,1.624c3,.156,5.953-3.649,9-.117C8.033,6.121,4.291,6.247,0,4.24l.237-.1Q.93,2.881,1.619,1.624Z" transform="translate(91.885 52.16)" fill="#182015"/>
      <path id="パス_964" data-name="パス 964" d="M0,4.873A25.193,25.193,0,0,0,10.62,2.139L11.761.291c1.691.677,3.62-1.3,5.213.468l1.788,1.317C14.91,3.942,10.9,5.54,7.247,7.742,3.232,10.165,1.289,8.671,0,4.873Z" transform="translate(91.885 51.527)" fill="#a8cb7a"/>
      <path id="パス_965" data-name="パス 965" d="M0,2.2C2.482.827,4.861-1.156,7.916.858c-1.343,2.385-4.3,1.363-6.06,2.875C1.215,3.249.26,3.148,0,2.2Z" transform="translate(108.455 47.895)" fill="#31352b"/>
      <path id="パス_966" data-name="パス 966" d="M4.808,0,6.664,1.532l-1.452.657C3.44,2.419,1.578,3.648,0,1.721A3.4,3.4,0,0,0,.6.43Q2.7.216,4.808,0Z" transform="translate(103.647 50.097)" fill="#1f2419"/>
      <path id="パス_967" data-name="パス 967" d="M8.64,20.421q-.707.88-1.415,1.762C1.89,16.425,2.043,8.723,0,1.8.4.741.877-.221,2.3.045,4.739,1.544,5.052,4.262,6.06,6.59,6.8,11.22,10.09,15.382,8.64,20.421Z" transform="translate(29.089 57.637)" fill="#1c2710"/>
      <path id="パス_968" data-name="パス 968" d="M.067,3.234Q.4,1.618.741,0L2.178,1.776c2.22,2.391,1.7,5.4,1.872,8.253.043.82.039,1.643.028,2.464-.2,2.851.219,5.8-1.281,8.456a1.506,1.506,0,0,1-2.117.529C-.747,15.438.6,9.3.067,3.234Z" transform="translate(26.762 28.818)" fill="#020202"/>
      <path id="パス_969" data-name="パス 969" d="M.1.246,1.672.165A1.539,1.539,0,0,1,3.725.781c1.1,2.362,1.267,4.652-.535,6.785q-.724.911-1.447,1.822C1.182,6.343-.4,3.482.1.246Z" transform="translate(27.347 50.049)" fill="#060705"/>
      <path id="パス_970" data-name="パス 970" d="M4.292,52.992,0,38.986c1.29-3.955,4.765-5.236,8.19-6.04,6.869-1.613,8.7-6.019,8.074-12.444C15.727,14.976,14.05,9.508,15.149,3.87A5.2,5.2,0,0,1,17.42.088c2.529-.49,3.814,1.132,4.995,2.936a31.667,31.667,0,0,1,2.9,8.317c1.644,6.854.047,13.7-.015,20.553-.968,3.268-.691,6.629-.729,9.965.192,4.9.022,9.771-1.533,14.492,0,.316,0,.634,0,.949C15.606,61.02,9.2,60.246,4.292,52.992Z" transform="translate(33.437 25.066)" fill="#6e9c30"/>
      <path id="パス_971" data-name="パス 971" d="M23,4.238c-3.662,7.232-.567,14.59.036,21.766.615,7.332-1.711,11.083-8.863,12.367a22.872,22.872,0,0,0-9.726,4.355l-2.9-6.437q-.213-3.367-.427-6.733c-1.358-3.146.2-6.606-1.048-9.765L0,18.266C5.133,13.712,4.677,6.748,7.383,1.148a11.866,11.866,0,0,1,.631-1.1c5.2-.362,10.018,1.267,14.84,2.873l-.091-.109c.549.233.766.521.655.865C23.3,4.052,23.161,4.238,23,4.238Z" transform="translate(28.988 21.328)" fill="#b9df88"/>
      <path id="パス_972" data-name="パス 972" d="M.228,0,4.84,1.412c1.243,1.5,4.446,1.311,3.819,4.425C3.037,7.951-1.024,7.812.228,0Z" transform="translate(38.856 12.158)" fill="#a6c97c"/>
      <path id="パス_973" data-name="パス 973" d="M.583,24.076.492,2.018C-.109.436.546-.133,2.1.025c3,11.262-.006,22.513-.067,33.77l-1.25.3L.139,32.986C.146,30.009-.385,27.006.583,24.076Z" transform="translate(57.223 33.418)" fill="#121a08"/>
      <path id="パス_974" data-name="パス 974" d="M.408,14.683C-.728,9.943.888,5.257.694.535Q1.3-.521,1.95.508l0,0c1.287,3.7.967,7.423.161,11.154A2.65,2.65,0,0,1,.408,14.683Z" transform="translate(56.067 66.734)" fill="#131909"/>
      <path id="パス_975" data-name="パス 975" d="M.161,11.178Q.081,5.6,0,.024C.415.022.829.015,1.243,0,1.423,3.778,2.12,7.606.161,11.178Z" transform="translate(58.013 67.214)" fill="#1a230d"/>
      <path id="パス_976" data-name="パス 976" d="M4.135,6.465,2.527,8.455Q1.263,5.071,0,1.682C.336,1.008.448.147,1.412,0,3.241,1.766,3.487,4.2,4.135,6.465Z" transform="translate(55.188 26.979)" fill="#18220b"/>
      <path id="パス_977" data-name="パス 977" d="M4.849,3,3.438,4.681.241,1.588A7.844,7.844,0,0,1,0,.164C2.541-.472,3.966.8,4.849,3Z" transform="translate(51.75 23.979)" fill="#0c1503"/>
      <path id="パス_978" data-name="パス 978" d="M7.431,0c.006,6.769,1.8,14.312-7.385,17.115q-.023-4.5-.046-9C1.723,4.723,3.487,1.364,7.431,0Z" transform="translate(28.94 22.476)" fill="#eaebe8"/>
      <path id="パス_979" data-name="パス 979" d="M.043,0c2.285,3.047.9,6.487,1.049,9.764A2.894,2.894,0,0,0,0,9.1Z" transform="translate(29.019 41.117)" fill="#b8de88"/>
      <path id="パス_980" data-name="パス 980" d="M1.477,9.745Q.848,9.75.221,9.771C.019,6.456-.472,3.111,1.265,0Q1.371,4.869,1.477,9.745Z" transform="translate(56.54 57.498)" fill="#1a230d"/>
    </g>
  </g>
</svg>
