<svg xmlns="http://www.w3.org/2000/svg" width="182.107" height="375.512" viewBox="0 0 182.107 375.512">
  <g id="access_right" transform="translate(-1105.431 -5254.898)">
    <g id="グループ_54" data-name="グループ 54" transform="translate(301.893 5100.251)" opacity="0.1">
      <path id="パス_2755" data-name="パス 2755" d="M926.212,475.543c-.576,1.674-.991,3.366,0,5,.491.811.592,2.138,1,3,4.219,8.928.75,16.66-5,22a40.985,40.985,0,0,1-7,5c-7.611,4.648-16.245,6.96-25,8-6.877.818-8.661.54-15-2-3.312-.606-4.451-1.61-2-5,1.089-1.508,1.321-3.28,2-5,6-3.829,13.53-5.329,20-8,3.676-1.517,7.263-2.6,11-4,7.625-2.862,13.574-7.69,16-16C922.682,476.935,923.765,474.683,926.212,475.543Z" transform="translate(9.895 11.205)" fill="#e0bf92"/>
      <path id="パス_2756" data-name="パス 2756" d="M934.125,477.563a2.324,2.324,0,0,0-2,2c-1.407,8.132-6.8,13.889-14,17-5.414,2.34-11.486,3.889-17,6-6.023,2.307-12.166,4.187-18,7-4.409,4.068-8.8,7.913-15,9-1.3.243-2.72-.3-4,0a22.741,22.741,0,0,1-14-1c-4.046-1.555-8.9-2.614-13-4a9.624,9.624,0,0,1-5-3c-.153-.22-.846-.781-1-1,.1-.247-.1-.751,0-1,.423-.328,1.479.115,2,0,1.616-.177,2.584.388,4,1a23.422,23.422,0,0,0,3,1c.493.117,1.524-.166,2,0,2.653.968,4.4,1.9,7,3a35.366,35.366,0,0,0,6,2c5.181,1.489,9.349-1.131,14-3,1.553-.69,3.506-1.192,5-2a6.4,6.4,0,0,0,2-2c.329-.6.659-.4,1-1,.862-1.424,1.31-3.478,2-5,1.529-2.621,1.625-5.329,3-8a11.256,11.256,0,0,0,1-4,25.675,25.675,0,0,1,0-3c.066-.54.866-.475,1-1a23.013,23.013,0,0,0,0-3c.207-2.674-.564-5.342,0-8,.536-1.111,1.171-2.825,3-2,2.164,3.97,1.244,8.849,1,13-.152.879-.729,1.155-1,2a17.206,17.206,0,0,0,0,3,30.084,30.084,0,0,1-2,10c-.568,1.54-.153,2.643,2,2a255.019,255.019,0,0,0,30-12c6.068-2.986,10.351-7.065,11-14a26.964,26.964,0,0,0,1-6c.146-1.951-.39-4.332,1-6a2.594,2.594,0,0,1,2,0c1.085,1.24.5,2.537,1,4a16.361,16.361,0,0,1,1,3c.318-.165-.184-.7,0-1,.249-.354.589-.928,1-1,.445.007.7.68,1,1,.13.423,1.021.562,1,1-.1.43-.853.586-1,1,.091.374.336.812,0,1-.271.423-.676.615-1,1h0c-.485.316-.693,1.518-1,2C934.079,477.842,934.251,477.311,934.125,477.563Z" transform="translate(1.982 9.186)" fill="#12100e"/>
      <path id="パス_2757" data-name="パス 2757" d="M885.573,420.749a8.443,8.443,0,0,1,8-2c9.748,2.413,18.576,5.273,27,11,.778.531,2.26,1.418,3,2,3.141,2.475,3.869,4.993,2,9-.379.814.116,2.063,0,3-3.4-.564-4.5-4.616-8-5-2.777-1.357-4.688-4.177-7-6-6.542-7.339-15.117-8.838-24-11A1.919,1.919,0,0,1,885.573,420.749Z" transform="translate(12.534 0)" fill="#f5e6cf"/>
      <path id="パス_2758" data-name="パス 2758" d="M919.295,471.444c-1.706,1.771-.4,4.017-1,6-2.911-1-1.665-3.923-2-6-1.494-9.3-6.384-16.6-15-21-2.94-2.222-8.31.753-10-4a3.041,3.041,0,0,1,1-2,8.609,8.609,0,0,1,4,1c.378-.019.628-.945,1-1,4.011-.593,3.781-1.73,1-4-1.357-.695-2.048-1.426-2-3,.2-.88.12-1.775,1-2,3.816.466,4.78,3.9,7,6a11.368,11.368,0,0,1,2,3c-1.668,4.038,2.409,4.08,4,6,5.78,4.66,8.291,11.005,10,18C920.425,469.658,920.428,470.662,919.295,471.444Z" transform="translate(13.812 3.305)" fill="#151412"/>
      <path id="パス_2759" data-name="パス 2759" d="M912.322,434.551c3.768.384,5.847,3.443,8,6,3.228,5.477,4.8,11.8,6,18,.84,4.337,1.552,8.734,0,13-.585,1.609-2.29,1.846-4,2-.559-.387-.744-.371-1-1-1.293-6.357.215-12.643-1-19-1.354-5.479-2.409-11.051-7-15C912.408,437.764,911.356,436.018,912.322,434.551Z" transform="translate(17.785 3.198)" fill="#dcbe94"/>
      <path id="パス_2760" data-name="パス 2760" d="M897.863,440.4c.536,1.016,1.464,1.984,2,3-1.97.365-3.6-1.083-5-2-4.932-3.233-7.638-7.625-10-13-1.292-2.941-1.132-5.556,1-8h0c2.292,2.863,2.779,7.1,5,10C892.942,433.978,896.523,436.3,897.863,440.4Z" transform="translate(12.244 0.353)" fill="#f1e3ce"/>
      <path id="パス_2761" data-name="パス 2761" d="M832.9,455.2c1.883-1.568,3.05-2.522,5-4,2.621-1.985,5.6-4,9-4,1.738-.44,3.368-1.279,5,0,.2,2.236-.834,2.512-2,3-.442.166-1.542-.1-2,0a2.39,2.39,0,0,1-1,0,7.513,7.513,0,0,0,2,0c3.3-.678,6.444-1.075,9,2,.092,1.637-.795,1.594-2,2a144.582,144.582,0,0,0-17,2c-.519.194-1.466-.148-2,0-.769.264-1.209.8-2,1a1.624,1.624,0,0,1-1,0C833.169,456.807,832.368,456.176,832.9,455.2Z" transform="translate(2.209 5.546)" fill="#171717"/>
      <path id="パス_2762" data-name="パス 2762" d="M835.025,453.8c.483.453.517,1.546,1,2-.426,4.028-4.4,5.66-6,9-1.376,2.866-2.041,5.949-3,9-.446,1.234-1.637,1.739-2,3-.414,1.27-.016,2.668,0,4-.026,1.964.066,4.037,0,6a11.807,11.807,0,0,1-1,3,1.558,1.558,0,0,1-2,1c-.1-.626.1-1.374,0-2a36.563,36.563,0,0,1,0-11C822.833,468,827.506,460.009,835.025,453.8Z" transform="translate(0.082 6.946)" fill="#202020"/>
      <path id="パス_2763" data-name="パス 2763" d="M862.086,511.418c3.6-1.939,7.119-3.974,10-7a7.515,7.515,0,0,1,5-2c.974.838.4,1.163,0,2-.794,1.676-1.9,2.95-2,5,.9.612,1.1,1.384,2,2C872.02,511.358,867.153,511.479,862.086,511.418Z" transform="translate(8.021 16.331)" fill="#f0e1ca"/>
      <path id="パス_2764" data-name="パス 2764" d="M821.913,485.013c.4-.439.6-.56,1-1,.536-.2,1.57-.377,2,0a24.738,24.738,0,0,1,2,4,123.927,123.927,0,0,0,5,13c.238.426.774.567,1,1,.129.2-.129.8,0,1,.28.387.761.585,1,1,.1.216-.094-.22,0,0,.1.5.38,1.67,0,2h0a2.093,2.093,0,0,1-2,0c-1.341-.443-2.352-1.919-3-3C825.529,497.362,822.534,491.752,821.913,485.013Z" transform="translate(0.194 12.736)" fill="#222"/>
      <path id="パス_2765" data-name="パス 2765" d="M898.127,444.146c-.006.368-.01.632,0,1-.45.378-1.414-.022-2,0a34.72,34.72,0,0,0-5,0c-3.271.044-6.735.018-10,0a19.309,19.309,0,0,0-6,1c-.794.216-1.186-.093-2,0a9.838,9.838,0,0,0-4,1c-1.541.824-3.271,1.52-5,1a2.836,2.836,0,0,1-2-2c2.881-1.227,5.816-3,9-3,1.019-.153,2.054.434,3,0,.945-.4,1.989-1.215,3-1a75.553,75.553,0,0,1,18,0c.954-.362,2.1.64,3,1,.4.225.133-.227,0,0S898.263,444.146,898.127,444.146Z" transform="translate(7.98 4.602)" fill="#222"/>
      <path id="パス_2766" data-name="パス 2766" d="M920.238,448.8c.274.683.984,1.311,1,2,.135,6.354.786,12.648,0,19-.689,1.212-.466,2.758-1,4-.137.6.138,1.4,0,2a.581.581,0,0,1-1,0c0-.381,0-.619,0-1a6.157,6.157,0,0,1-1-3c-.238-4.087-.729-7.924,0-12C919.871,456.418,917.1,451.816,920.238,448.8Z" transform="translate(18.869 5.952)" fill="#1d1813"/>
      <path id="パス_2767" data-name="パス 2767" d="M865.484,445.519c1.038.236,2.339-.027,3,1-.329.453-1.5.76-2,1-1.29.479-2.677.62-4,1a23.573,23.573,0,0,1-5,1,46.732,46.732,0,0,0-6,0,3.826,3.826,0,0,1-2-1c-1.414-1.48-3.341-.632-5-1,2.841-1.423,5.963-1.032,9-1,2.447-.83,5.567-.031,8-1Z" transform="translate(4.623 5.23)" fill="#1c1c1c"/>
      <path id="パス_2768" data-name="パス 2768" d="M892.688,442.231c-6.136-.012-11.862.011-18,0A38.949,38.949,0,0,1,892.688,442.231Z" transform="translate(10.419 4.518)" fill="#282828"/>
      <path id="パス_2769" data-name="パス 2769" d="M822.107,473.9a55.719,55.719,0,0,1,0,11A16.979,16.979,0,0,1,822.107,473.9Z" transform="translate(0 10.848)" fill="#454545"/>
      <path id="パス_2770" data-name="パス 2770" d="M860.023,445.467c-2.348,1.762-5.456,1.071-8,1A17.864,17.864,0,0,1,860.023,445.467Z" transform="translate(6.084 5.282)" fill="#2f2f2f"/>
      <path id="パス_2771" data-name="パス 2771" d="M919.781,470.344a4.112,4.112,0,0,1,1-4c.114.381-.114.62,0,1C920.407,468.261,920.155,469.427,919.781,470.344Z" transform="translate(19.326 9.405)" fill="#292826"/>
      <path id="パス_2772" data-name="パス 2772" d="M892.225,444.034c0-.34,0-.66,0-1a5.071,5.071,0,0,1,4,1C894.99,444.065,893.461,444,892.225,444.034Z" transform="translate(13.882 4.715)" fill="#282828"/>
      <path id="パス_2773" data-name="パス 2773" d="M872.654,443.019c-.8.975-1.9.143-3,0C870.511,442.249,871.549,442.843,872.654,443.019Z" transform="translate(9.453 4.73)" fill="#282828"/>
      <path id="パス_2774" data-name="パス 2774" d="M830.289,502.4h2c0,.4,0,.6,0,1A2.3,2.3,0,0,1,830.289,502.4Z" transform="translate(1.818 16.347)" fill="#242424"/>
      <path id="パス_2775" data-name="パス 2775" d="M917.335,475.84c.125-.65.371-1.817,1-2C918.278,474.554,918.074,475.76,917.335,475.84Z" transform="translate(18.772 10.909)" fill="#292826"/>
      <path id="パス_2776" data-name="パス 2776" d="M918.151,474.033c-.006-.629.4-.822,1-1C919.241,473.723,918.771,473.867,918.151,474.033Z" transform="translate(18.956 10.716)" fill="#292826"/>
      <path id="パス_2777" data-name="パス 2777" d="M918.971,471.412c.308,0,.692,0,1,0,.136.695-.4.69-1,1C918.918,471.924,919.024,471.9,918.971,471.412Z" transform="translate(19.136 10.337)" fill="#292826"/>
      <path id="パス_2778" data-name="パス 2778" d="M906.705,447.119c6.991,2.415,11.331,7.437,14,14a37.274,37.274,0,0,1,2,9c.227,1.683.69,3.329,1,5-.569,1.747.139,4.345-1,6-1.227.592-2.079-.351-3-1-8.415-5.942-16.664-4.022-25,0-5.343,2.577-9.366,6.609-10,13-.513,5.186.236,10.91-4,15a6.3,6.3,0,0,1-5,1c1.363-4.42,3.965-8.317,4-13,.432-1.158,0-2.794,0-4,.01-.493.75-.576,1-1a44.037,44.037,0,0,0,0-14c-2.368-2.833-3.52-6.794-5-10a13.516,13.516,0,0,0-4-5,32.3,32.3,0,0,0-5-4c-1.343-.928-3.458-1.778-2-4,3.033-2.656,6.534-1.517,10-2C885.374,450.632,896.007,448.4,906.705,447.119Z" transform="translate(8.402 5.63)" fill="#f7e7d0"/>
      <path id="パス_2779" data-name="パス 2779" d="M878.041,503.625a80.033,80.033,0,0,0,3-17c.555-6.481,5.572-10.292,11-13a29.393,29.393,0,0,1,17-3c3.064.318,6.774.658,9,3,.772.812,1.114,2.3,2,3,.234,5.648-1.877,9.616-6,13-1.6,1.31-4.1,2.169-6,3A247.215,247.215,0,0,1,878.041,503.625Z" transform="translate(11.066 10.123)" fill="#e0bf92"/>
      <path id="パス_2780" data-name="パス 2780" d="M882.688,488.9c-.116.363-.884.635-1,1-.58.817-.083,2.315-1,3a1.3,1.3,0,0,1-1,0c-2.275-1.1-5.415-2.793-8-3-1.921-.3-3.659-.4-5-2-.459-1.806.9-2.176,2-3a25.61,25.61,0,0,1,3-2c3.795-1.577,5.112-4.378,3-8-2.354-4.037-5.468-4.532-9-2-3.928,2.817-6.8,6.484-10,10-.662.8-1.21,2.31-2,3-1.958,1.1-3.951-.006-6,0a5.976,5.976,0,0,1-3-1c-.644-.61-1.109-1.1-1-2a3.8,3.8,0,0,1,2-2c9.587-2.728,12.95-11.41,9-22-.362-1.37-.757-2.6,0-4,1.438-1.148,3.27-.779,5-1a34.177,34.177,0,0,1,16,7,21.985,21.985,0,0,1,7,18c0,2.753.012,5.247,0,8C882.717,487.523,882.979,488.338,882.688,488.9Z" transform="translate(4.419 6.854)" fill="#f5e5ce"/>
      <path id="パス_2781" data-name="パス 2781" d="M868.065,509.714c-5.143,2.842-11.137,4.9-17,3,.748-1.193,2.061-.964,3-1-1.494-.4-3.466-.327-5-1-.452-.354-.766-.48-1-1a9.322,9.322,0,0,1,0-2,13.835,13.835,0,0,1,0-3,12.962,12.962,0,0,0,0-8c-.422-2.537-1.048-4.375-1-7a7.368,7.368,0,0,1,1-3,7.175,7.175,0,0,1,5-2c.616.071.531.595,1,1a7.033,7.033,0,0,1,1,3c-.2,3.571-1.676,6.446,0,10,.955,5.926,5,9.157,11,9C867.132,508.126,868.406,508.106,868.065,509.714Z" transform="translate(5.041 13.035)" fill="#efdfca"/>
      <path id="パス_2782" data-name="パス 2782" d="M830.441,501.646c-2.252-4.393-4.83-8.14-6-13a1.987,1.987,0,0,1,1-3,12.651,12.651,0,0,1,6,3c2.653,2.929,3.455,7.006,6,10a74.261,74.261,0,0,0,5,6c.342.41.787.511,1,1,.039.264-.035.733,0,1-.3.854-.011,1.542-1,1h-1c-.72-.668-2.194-.568-3-1-1.34-.487-2.661-.513-4-1-.644-.135-.713-1.4-1-2h0a10.05,10.05,0,0,1-2-1h0A4.434,4.434,0,0,1,830.441,501.646Z" transform="translate(0.665 13.103)" fill="#f8f8f7"/>
      <path id="パス_2783" data-name="パス 2783" d="M877.587,476.875a28.529,28.529,0,0,0-8-17c.224-.763,1.209-.831,2-1,5.346,4.1,7.521,9.553,8,16-.854.537-1.945,1.1-2,2C877.247,477.367,877.86,477.409,877.587,476.875Z" transform="translate(9.519 7.875)" fill="#24211f"/>
      <path id="パス_2784" data-name="パス 2784" d="M874.476,485.615c.3-.018.7.028,1,0,.489.344,1,.4,1,1a10.236,10.236,0,0,1-1,4c-1.113,3.173-.8,6.22-3,9-.905-.212-1.613-.178-2-1-.563-2.063.5-4.088,1-6C872.52,490.356,872.364,487.357,874.476,485.615Z" transform="translate(9.63 13.134)" fill="#cbbeab"/>
      <path id="パス_2785" data-name="パス 2785" d="M914.765,466.315c-.033-1.052.033-1.947,0-3,.067-2.355.955-2.119,2-1,1.8,1.924,1.564,4.633,2,7,0,.918.437,2.137,0,3-.234.285-.059.637,0,1-.313.4-.808.533-1,1-.52.363-.68,1.124-1,0a13.448,13.448,0,0,1-1-3c-.691-1.578.815-3.44,0-5Z" transform="translate(18.342 8.434)" fill="#e3d4be"/>
      <path id="パス_2786" data-name="パス 2786" d="M865.061,506.841c-.477-1.054-2.113-.766-3-1-.068-2.646,2.7-2.69,4-4,1.209-.814,2.42-1.862,4-2,.851.139.791,1.249,1,2-.312.5-.687.5-1,1-.821.378-.1,1.681-1,2C867.489,505.4,866.875,506.727,865.061,506.841Z" transform="translate(8.046 15.908)" fill="#c6b9a7"/>
      <path id="パス_2787" data-name="パス 2787" d="M849.219,505.77c2.359.514,5.13,1.375,8,2-2.13,1.152-4.411.6-6,1-1.97.12-3.383-.883-5-2C846.676,504.5,847.788,505.017,849.219,505.77Z" transform="translate(4.888 16.979)" fill="#e5e3e0"/>
      <path id="パス_2788" data-name="パス 2788" d="M850.582,506.284c-1.122.207-2.173-.126-3,1-2.778-1.025-5.222-1.975-8-3l1-1c.312-.307.563-1.008,1-1,.823.147,1.187.812,2,1,.409.09,1.61-.146,2,0,.588.207.383.885,1,1,.857.1,2.163-.237,3,0,.4.188.658.717,1,1C850.577,505.688,850.587,505.88,850.582,506.284Z" transform="translate(3.525 16.465)" fill="#c9c9c9"/>
      <path id="パス_2789" data-name="パス 2789" d="M876.39,473.849c.308.007-.306-.034,0,0,0,3.029,0,6.971,0,10-.286.374.341.325,0,0C876.4,480.775,876.38,476.922,876.39,473.849Z" transform="translate(10.717 10.9)" fill="#38342f"/>
      <path id="パス_2790" data-name="パス 2790" d="M869.759,502.527c-.355-.457-.645-1.542-1-2-.324-2.1.933-3.274,3-4,.417.485.584.516,1,1A9.885,9.885,0,0,1,869.759,502.527Z" transform="translate(9.348 15.222)" fill="#d3c5b1"/>
      <path id="パス_2791" data-name="パス 2791" d="M915.7,465.537c1.37,1.479.264,3.28,0,5C914.925,468.969,915.537,467.241,915.7,465.537Z" transform="translate(18.409 9.212)" fill="#ddbd91"/>
      <path id="パス_2792" data-name="パス 2792" d="M874.632,487.978c-.124-.51.126-1.49,0-2,.379-.741.62-1.26,1-2v3C875.525,487.43,875.069,488.133,874.632,487.978Z" transform="translate(10.475 12.771)" fill="#a89a8a"/>
      <path id="パス_2793" data-name="パス 2793" d="M878.22,484.82a5.159,5.159,0,0,1-1,4c-.056-1.254.056-2.746,0-4C877.509,484.454,877.887,484.512,878.22,484.82Z" transform="translate(10.887 12.929)" fill="#38342f"/>
      <path id="パス_2794" data-name="パス 2794" d="M874.577,487.437c.289-.116.747-.818,1-1a4.3,4.3,0,0,1-1,4C874.59,489.369,874.564,488.5,874.577,487.437Z" transform="translate(10.53 13.312)" fill="#38342f"/>
      <path id="パス_2795" data-name="パス 2795" d="M836.149,503.207a2.859,2.859,0,0,1,3,1A3.112,3.112,0,0,1,836.149,503.207Z" transform="translate(2.958 16.542)" fill="#c9c9c9"/>
      <path id="パス_2796" data-name="パス 2796" d="M867.959,504.353c.3-.765.131-1.658,1-2C868.89,503.291,868.975,504.121,867.959,504.353Z" transform="translate(9.148 16.396)" fill="#171513"/>
      <path id="パス_2797" data-name="パス 2797" d="M918.125,471.019c.017-.665-.016-1.337,0-2,.019-.5.522-1.085,1-1,.047.85-.047,2.15,0,3A9.936,9.936,0,0,1,918.125,471.019Z" transform="translate(18.982 9.731)" fill="#292826"/>
      <path id="パス_2798" data-name="パス 2798" d="M832.047,500.6c.668.1.748,1.356,1,2-.489.051-.51-.051-1,0Z" transform="translate(2.06 16.145)" fill="#242424"/>
      <path id="パス_2799" data-name="パス 2799" d="M878.22,484.968c-.313.007-.688-.033-1,0,.318-.4.683-.6,1-1C878.215,484.343,878.225,484.592,878.22,484.968Z" transform="translate(10.887 12.781)" fill="#24211f"/>
      <path id="パス_2800" data-name="パス 2800" d="M876.39,482.353c.314-.014-.312.035,0,0-.311.4.31.6,0,1Z" transform="translate(10.717 12.396)" fill="#24211f"/>
      <path id="パス_2801" data-name="パス 2801" d="M917.293,472.433c-.043-.606.5-.711,1-1C918.358,472.051,917.873,472.192,917.293,472.433Z" transform="translate(18.814 10.317)" fill="#292826"/>
      <path id="パス_2802" data-name="パス 2802" d="M922.612,452.518c-.072,2.576.054,5.422,0,8a3.673,3.673,0,0,1-1,3c-2.311-2.68-1.8-6.893-3-10-1.393-3.607-3.576-5.409-7-7-1.826-1.614-5.542-.069-6-4,3.052-1.941,5.887-1.466,9,0,.532.416,1.633.426,2,1,.238.372-.044,1.11,0,1,.135-.344.38-.775,0-1a29.169,29.169,0,0,1-8-8c-.934-1.3-2.172-2.19-2-4,.343-.8-.04-1.5,1-1,2.324,1.516,3.55,3.612,6,5,.078.171-.129.891,0,1A25.39,25.39,0,0,1,922.612,452.518Z" transform="translate(16.495 2.232)" fill="#14120f"/>
      <path id="パス_2803" data-name="パス 2803" d="M911.516,432.394c-.449.473-.551.527-1,1-4.378-.389-6.95-4.944-11-6-2.7-.7-5.1-1.895-8-2-.563,1.576.684,3.525,0,5-.409.778-.986.446-2,0-2.724-2.876-3.683-6.1-4-10a6.836,6.836,0,0,1,2,0c7.458,1.069,13.693,2.789,20,7A13.04,13.04,0,0,1,911.516,432.394Z" transform="translate(12.59 0.355)" fill="#1c1a18"/>
      <path id="パス_2804" data-name="パス 2804" d="M910.489,447.837c-1.518,1.639-3,1.646-5,2-7.791,1.378-16.1,3.169-24,4-3.174.335-5.781,1-9,1-1.588,0-3.64,1.322-5,2-.455.176-.518.074-1,0-.972-.157-2.018-.886-3-1-2.774-.8-5.919-.562-8-3a23.4,23.4,0,0,0-10-1c-.129-.209-.871-.791-1-1,.145-.2.855.2,1,0,.262-.273.657-1.158,1-1,1.878-1.021,4.276.7,6-1,2.061-.485,3.964-.26,6-1a12.4,12.4,0,0,0,5,0c1.145-.7,2.863-.262,4-1,.336.146.761.277,1,0,1.679.216,2.512-.442,4-1,1.182-.843,2.766-.37,4-1h2c2.017-1.015,3.981,0,6-1a45.109,45.109,0,0,0,10,0c1.684.735,4.314.268,6,1,.39.031.61-.03,1,0,1.847.888,3.309,3.041,6,2A2.615,2.615,0,0,1,910.489,447.837Z" transform="translate(4.618 4.911)" fill="#fdfdfd"/>
      <path id="パス_2805" data-name="パス 2805" d="M890.937,428.9c-.432-2-2.323-3.308-2-6,8.122,1.441,15.018,4.179,21,10,.779,1.133,1.221,1.867,2,3,1.914,6.084,2.285,6.846-3,8a5.44,5.44,0,0,1-3,2c-.561.246-1.544-.589-2-1-2.257-2-2.519-5.184-5-7C894.707,436.068,892.75,432.77,890.937,428.9Z" transform="translate(13.17 0.849)" fill="#f4e4ce"/>
      <path id="パス_2806" data-name="パス 2806" d="M912.461,442.138c1.13.672,1.889,1.3,3,2,2.147,1.358,4.381,3.078,4,6-.047.36-.209.818,0,1,3.034,2.634,1.182,6.865,2,10-.091,4.122.091,7.878,0,12a11.27,11.27,0,0,1-1,1c-.776-2.249-1.158-4.776-2-7-.352-.928-1.4-.685-2,0-.117-.152.033.167,0,0a34.915,34.915,0,0,0-10-18c-.259-2.5-.953-4.848,1-7C909.019,441.777,910.949,441.373,912.461,442.138Z" transform="translate(16.646 4.611)" fill="#ddbd91"/>
      <path id="パス_2807" data-name="パス 2807" d="M908.527,443.164c.018,1.494.011,2.507,0,4a2.009,2.009,0,0,1-1,2c-2.25-1.321-4.7-2.65-7-4,.208-2.172,3.035-.752,4-2,.337-.434.468-.864,1-1C906.548,442.346,907.681,442.325,908.527,443.164Z" transform="translate(15.58 4.585)" fill="#eee9e2"/>
      <path id="パス_2808" data-name="パス 2808" d="M890.8,427.912c2.815,3.025,5.715,5.528,8,9l-2,2a41.432,41.432,0,0,1-8-10C889.27,428.4,890.335,428.422,890.8,427.912Z" transform="translate(13.305 1.838)" fill="#282623"/>
      <path id="パス_2809" data-name="パス 2809" d="M905.348,442.312l-1,1h0a4.475,4.475,0,0,1-3-2,.82.82,0,0,1,1,0C903.572,440.9,905.313,440.109,905.348,442.312Z" transform="translate(15.759 4.438)" fill="#14120f"/>
      <path id="パス_2810" data-name="パス 2810" d="M824.441,473.858c.921-5.544,4.644-10.736,8-15,1.031-1.309,1.888-1.754,3-3,.3.035.727-.859,1-1,.363-.375.5.147,1,0,.328-.167.637-.943,1-1,2.282-1.13,3.268.124,3,2-.242,1.7-.686,3.312-1,5-.471,2.262-1.927,4.454-4,5-3.645.962-5.5,2.575-6,6a7.508,7.508,0,0,1-5,4C823.844,475.3,823.947,475.1,824.441,473.858Z" transform="translate(0.666 6.891)" fill="#f8f7f7"/>
      <path id="パス_2811" data-name="パス 2811" d="M837.13,461.165a9.491,9.491,0,0,1,1-5c.4-1.031-1.4-1.727-2-2a5.852,5.852,0,0,1,2-1c5.292-.549,10.63-1.687,16-1a1.1,1.1,0,0,1,1,1c-1.486,1.149-.136,2.069,0,3,.672,1.017,2.334,1.527,2,3-2.177.9-4.011-.668-6-1-6.8-1.135-9.776,1.175-11,8-.258,1.441-.209,2.338-2,3C834.238,466.979,838.328,463.853,837.13,461.165Z" transform="translate(2.976 6.584)" fill="#a69a8c"/>
      <path id="パス_2812" data-name="パス 2812" d="M852.184,453.328c-.194-.268-.791-.745-1-1,1.007-.192,2.341-.014,3-1,3.228-.062,5.87,1.669,9,2,.732.52,1.3.389,2,1,.182.3.67,1.11,1,1,1.313.71,2.706,1.258,4,2,1.617.93,3.908,1.328,5,3-.5.477-1.5.523-2,1a63.044,63.044,0,0,0-16-6C855.08,455.7,853.722,454.983,852.184,453.328Z" transform="translate(5.923 6.421)" fill="#21201e"/>
      <path id="パス_2813" data-name="パス 2813" d="M846.214,450.72c-1.264,1.069-3.529,1.039-5,1-.208,0-.032-.824,0-1,.06-.324-.269-.782,0-1,.6-.485,1.227-.163,2,0,.619.69,2.269-.35,3,0v1Z" transform="translate(3.893 6.029)" fill="#6d6d6d"/>
      <path id="パス_2814" data-name="パス 2814" d="M852.269,448.979c-1.818,1.529-3.919.271-6,0,.981-1.133,1.821-.463,3-1h1C850.8,447.654,852.02,448.424,852.269,448.979Z" transform="translate(4.838 5.769)" fill="#ddd"/>
      <path id="パス_2815" data-name="パス 2815" d="M845.776,449.718c-.886.128-2.543,1.19-3,0,.73-.016,2.27.016,3,0C845.849,449.977,845.783,449.449,845.776,449.718Z" transform="translate(4.331 6.031)" fill="#ddd"/>
      <path id="パス_2816" data-name="パス 2816" d="M835.487,454.739c-.193.662-.348.106-1,0C834.723,454.15,834.807,454.587,835.487,454.739Z" transform="translate(2.62 7.01)" fill="#a69a8c"/>
      <path id="パス_2817" data-name="パス 2817" d="M823.7,482.531c-.021-2.142-.979-3.857-1-6a2.444,2.444,0,0,1,2-1c.672.343.663,1.327,1,2a3.939,3.939,0,0,1,0,2,9.745,9.745,0,0,0,0,3c.081.718.372,1.366,0,2-.372.336-.5.062-1,0A2.747,2.747,0,0,1,823.7,482.531Z" transform="translate(0.406 11.218)" fill="#8c8c8c"/>
      <path id="パス_2818" data-name="パス 2818" d="M824.631,470.646c.28.9,1.115,1.366,2,2,1.023,1.5-.051,2.91-1,4a2.472,2.472,0,0,1-2,0,3.868,3.868,0,0,1,0-3C824.053,472.412,823.564,471.675,824.631,470.646Z" transform="translate(0.476 10.103)" fill="#ddd"/>
      <path id="パス_2819" data-name="パス 2819" d="M823.725,473.037c.08.769-.08,2.232,0,3,.361.463.531.8,0,1-.256.084-.794-.173-1,0A4.528,4.528,0,0,1,823.725,473.037Z" transform="translate(0.381 10.713)" fill="#454545"/>
      <path id="パス_2820" data-name="パス 2820" d="M823.718,481.384c.325.478.675,1.523,1,2,.269.515-.468.732-1,1-.271-.048-.752.118-1,0C822.776,483.594,823.662,482.173,823.718,481.384Z" transform="translate(0.388 12.365)" fill="#454545"/>
      <path id="パス_2821" data-name="パス 2821" d="M823.591,484.151c.121-.394.878-.605,1-1,.281-.013-.28-.014,0,0,1.338.867,2.126,1.353,1,3-.845.525-.677,2.247-1,3C823.337,487.858,823.885,485.726,823.591,484.151Z" transform="translate(0.516 12.598)" fill="#a5a5a5"/>
      <path id="パス_2822" data-name="パス 2822" d="M830.232,499.783c.415.377,1.585.623,2,1C831.817,500.406,830.646,500.159,830.232,499.783Z" transform="translate(1.875 15.966)" fill="#242424"/>
      <path id="パス_2823" data-name="パス 2823" d="M829.414,498.987c.379.422.621.578,1,1C830.035,499.565,829.793,499.409,829.414,498.987Z" transform="translate(1.692 15.762)" fill="#242424"/>
      <path id="パス_2824" data-name="パス 2824" d="M878.976,443.861a12.777,12.777,0,0,1-6,1C874.872,443.053,876.827,444,878.976,443.861Z" transform="translate(10.131 4.888)" fill="#282828"/>
      <path id="パス_2825" data-name="パス 2825" d="M892.277,444.855c-1.824.117-4.357-.005-6-1C888.077,443.884,890.725,443.31,892.277,444.855Z" transform="translate(12.83 4.893)" fill="#282828"/>
      <path id="パス_2826" data-name="パス 2826" d="M871.915,444.66a5.948,5.948,0,0,1-4,1C868.969,444.28,870.5,444.533,871.915,444.66Z" transform="translate(9.192 5.09)" fill="#282828"/>
      <path id="パス_2827" data-name="パス 2827" d="M851.48,449.119c-.39-.127-1.611-.873-2-1,2.346-1.644,5.48-1.094,8-1A28.967,28.967,0,0,1,851.48,449.119Z" transform="translate(5.627 5.63)" fill="#2f2f2f"/>
      <path id="パス_2828" data-name="パス 2828" d="M864.417,446.29a5.017,5.017,0,0,1-4,1C861.442,446.075,863.063,446.1,864.417,446.29Z" transform="translate(7.69 5.459)" fill="#2f2f2f"/>
      <path id="パス_2829" data-name="パス 2829" d="M837.879,468.5c.01-1.687-.078-3.316,0-5,.181-3.906,3.2-6.084,7-7,3.575-.86,6.782-1.126,10,1,.615.405,1.348.65,2,1,3.637,5.667,2.671,11.486,0,17-1.37,2.829-4.206,4.6-7,6-1.149.574-1.9.258-3,0-2.978-.429-5.393-2.552-7-5C838.769,473.97,836.1,471.632,837.879,468.5Z" transform="translate(3.228 7.245)" fill="#141211"/>
      <path id="パス_2830" data-name="パス 2830" d="M825.445,488.931c-.372-1.173-.628-1.827-1-3-.011-.721.011-1.279,0-2a4.142,4.142,0,0,1,0-3c-.013-.753.014-1.247,0-2-.332-.757-.577-1.3,0-2,.355-1.151,1.646-2.85,2-4,1.2-1.163,1.8-1.837,3-3,5.848-2.725,9.208,1.216,13,4,1.644,2.126,4.766,3.461,6,6,.416.373.584.628,1,1,.165,8.33-10.209,14.864-19,12A11.9,11.9,0,0,1,825.445,488.931Z" transform="translate(0.662 9.818)" fill="#151413"/>
      <path id="パス_2831" data-name="パス 2831" d="M852.977,480.259c1.283-1.643,1.7-3.371,3-5s2.654-3.406,4-5a8.917,8.917,0,0,1,9-3c3.693.839,5.854,3.653,7,7a5,5,0,0,1-2,6c-1.731,1.265-4.085,1.2-6,2a22.631,22.631,0,0,1-11,2C854.819,484.064,852.313,483.751,852.977,480.259Z" transform="translate(6.13 9.49)" fill="#181614"/>
      <path id="パス_2832" data-name="パス 2832" d="M875.056,499.524c-.825,1.439-2.174,2.561-3,4-1.08.869-1.919,2.131-3,3-1.123.484-1.713-.132-2-1,.077-2.872,2.985-4.584,4-7,1.3-3.1,1.447-6.224-1-9-2.428-2.752-5.5-3.442-9-3-3.812.483-4.305,2.995-5,6a45.828,45.828,0,0,0-1,5c-.389,1.363.145,3.06-2,3a19.572,19.572,0,0,1,0-12c.789-1.133,0-1.8,0-3,3.132-4.586,5.843-5,12-3,1.832.481,4.168.519,6,1,4.793,1.816,6.507,5.009,5,10C875.6,495.434,875.514,497.614,875.056,499.524Z" transform="translate(6.051 12.225)" fill="#171513"/>
      <path id="パス_2833" data-name="パス 2833" d="M829.422,490.911c2.607-.155,5.474.08,8-1,3.7-1.582,7.347-4.007,9-8,.489-1.181,2.091-1.465,2-3,.649.371,1.351.629,2,1-.175,2.741.694,5.347,1,8-.054.917.055,2.082,0,3-8.233-1.217-12.375,3.923-16,10-1.536-1.637-3.331-3.755-4-6A24.847,24.847,0,0,0,829.422,490.911Z" transform="translate(1.684 11.838)" fill="#e8d9c4"/>
      <path id="パス_2834" data-name="パス 2834" d="M865.22,483.092c-3.043.133-6.066.047-9,1-1.625.528-2.045,1.2-2,3-.169.554-.6.42-1,0-.418-.011-.58.01-1,0a6.8,6.8,0,0,1,0-6c.03-.968.033-2.387,1-3,.22.918-.205,1.925,1,2,2.825.177,6.171-.1,9,0,1.694.06,3.3.021,5,0C867.462,480.8,865.978,482.383,865.22,483.092Z" transform="translate(5.887 11.657)" fill="#daccb7"/>
      <path id="パス_2835" data-name="パス 2835" d="M853.32,480.79c.848,2.19,1.663,3.733,0,6a7.033,7.033,0,0,1-5,1c-.246-.262-.762-.732-1-1-2.74-3.088-2.037-3.264,0-7C849.343,479,851.375,480.294,853.32,480.79Z" transform="translate(4.787 11.959)" fill="#38342f"/>
      <path id="パス_2836" data-name="パス 2836" d="M872.952,493.12c.318-4.392-1.574-7.5-5-10,2.784.16,5.225.544,7,3A15.651,15.651,0,0,1,872.952,493.12Z" transform="translate(9.155 12.629)" fill="#a89a8a"/>
      <path id="パス_2837" data-name="パス 2837" d="M852.534,453c1.96.145,3.268,1.036,5,2-1.409,1.418-3.369.551-5,1-1.274-.375-2.15-1.619-3-3C850.5,452.825,851.648,453.163,852.534,453Z" transform="translate(5.573 6.748)" fill="#ece9e5"/>
      <path id="パス_2838" data-name="パス 2838" d="M845.542,479.074a16.579,16.579,0,0,1-6-5c.137-.74.249-.836,1-1l6,5C846.136,478.473,845.949,478.674,845.542,479.074Z" transform="translate(3.565 10.675)" fill="#c5b8a6"/>
      <path id="パス_2839" data-name="パス 2839" d="M834.506,499.383a7.686,7.686,0,0,1,3-7c2.642-2.155,4.711-3.849,8-5,2.819-.986,2.965-.818,5,2-.011,2.58,1.306,4.365,1,7a23.2,23.2,0,0,1,0,9c-.13.6.129,1.4,0,2a2.477,2.477,0,0,1-1,1,3.488,3.488,0,0,1-3,0c-.471-.218-1.524-.791-2-1-.325.056-.762.227-1,0-.3-.245-.1-.76,0-1s-.1,0,0,0a3.577,3.577,0,0,1,2-1c.415,0,.614-.142,1,0,.555-.185.173,1.58,1,1,.137-.356.863-.65,1-1a11.663,11.663,0,0,0,0-3c-.054-1.124.044-1.881,0-3a7.646,7.646,0,0,0-1-3c-.948-1.5-.4-3.929-3-4-3.137,1.869-7.5,2.77-5,8,.262.362-.219.614,0,1,.316.527.535.578,1,1,.341.22.657.785,1,1,.552.3,1.476.641,2,1,.362.282.9.556,1,1a3.283,3.283,0,0,1-1,1c-.687.2-1.47.57-2,0-.392.008-.608-.008-1,0h0c-.293-.406-.509-.9-1-1C838.133,503.772,835.792,502.009,834.506,499.383Z" transform="translate(2.601 13.366)" fill="#181614"/>
      <path id="パス_2840" data-name="パス 2840" d="M867.905,501.96c.418.42.583,1.582,1,2-1.089,1.843-3.606,1.6-5,3-7.252.255-9.371-1.56-11-9,1.333-.956.737-2.69,1-4,2.8.779,2.032,4.208,3,6,1.243,3.494,3.6,4.15,7,3,.46-.2,1.526-.835,2-1,.243-.072-.244.067,0,0C866.431,501.883,867.506,501.62,867.905,501.96Z" transform="translate(6.202 14.789)" fill="#1b1917"/>
      <path id="パス_2841" data-name="パス 2841" d="M848.643,503.773c-.017-2.962.017-6.036,0-9A10.912,10.912,0,0,1,848.643,503.773Z" transform="translate(5.464 14.976)" fill="#2d2b2a"/>
      <path id="パス_2842" data-name="パス 2842" d="M852.9,485.614c.307.037.742.17,1,0,.147.989-.138,1.4-1,2C852.929,486.87,852.864,486.356,852.9,485.614Z" transform="translate(6.21 13.135)" fill="#38342f"/>
      <path id="パス_2843" data-name="パス 2843" d="M847.858,505.026c.325-.348.675-.652,1-1a1.668,1.668,0,0,1,0,1h-1Z" transform="translate(5.249 16.723)" fill="#2d2b2a"/>
      <path id="パス_2844" data-name="パス 2844" d="M839.553,502.338c.607-.077.781.479,1,1C839.938,503.429,839.706,502.962,839.553,502.338Z" transform="translate(3.554 16.411)" fill="#c9c9c9"/>
      <path id="パス_2845" data-name="パス 2845" d="M841.167,503.215c.762,0,1.238,0,2,0h0a6.653,6.653,0,0,0,0,1A2.08,2.08,0,0,1,841.167,503.215Z" transform="translate(3.94 16.534)" fill="#2d2b2a"/>
      <path id="パス_2846" data-name="パス 2846" d="M843.654,504.006a2.608,2.608,0,0,1,2,1A2.521,2.521,0,0,1,843.654,504.006Z" transform="translate(4.453 16.743)" fill="#2d2b2a"/>
      <path id="パス_2847" data-name="パス 2847" d="M904.784,441.7a2.574,2.574,0,0,1,2-1c1.629-.2,2-1.557,2-3,0-1.294.012-2.708,0-4,2.763,2.944,6.092,5.288,8,9-.377.444-.561.361-1,0a13.244,13.244,0,0,0-10-1C905.287,441.976,905.075,442.206,904.784,441.7Z" transform="translate(16.323 3.048)" fill="#c9ac85"/>
      <path id="パス_2848" data-name="パス 2848" d="M905.208,440.439c.4.105.6-.105,1,0,1.009,1.212,2.687.968,4,1,1.154.027,2.216-.078,3,1-1.546.039-3.454.962-5,1-1.129-.038-1.873-.961-3-1-.6-.973-2.011-.89-3-1C903.071,441.044,904.344,440.835,905.208,440.439Z" transform="translate(15.899 4.31)" fill="#151412"/>
      <path id="パス_2849" data-name="パス 2849" d="M913.918,441.228c.409-.031.591.031,1,0,.487.047,1.142.545,1,1-.037.117.17,0,0,0A2.621,2.621,0,0,1,913.918,441.228Z" transform="translate(18.189 4.521)" fill="#705f49"/>
      <path id="パス_2850" data-name="パス 2850" d="M863.254,453.965a1.8,1.8,0,0,1-2-1C862.267,452.766,862.671,453.057,863.254,453.965Z" transform="translate(7.853 6.784)" fill="#f7e7d0"/>
      <path id="パス_2851" data-name="パス 2851" d="M842.613,475.689c-.434.461-.566.539-1,1-1.549-1.1-3.441-1.918-5-3a12.2,12.2,0,0,0-8-2c.011-1.142.06-2.863,0-4a3.657,3.657,0,0,1,3-4,27.5,27.5,0,0,0,4-1c1.352-.515,2.772-1.559,3-3,1.155,1.408-.124,3.4,0,5,.1,1.255-.063,2.021,1,3C839.985,470.451,841.51,473.183,842.613,475.689Z" transform="translate(1.494 8.06)" fill="#f1e2cc"/>
      <path id="パス_2852" data-name="パス 2852" d="M824.5,478.932c-.01.875.011,2.124,0,3A2.123,2.123,0,0,1,824.5,478.932Z" transform="translate(0.609 11.817)" fill="#454545"/>
      <path id="パス_2853" data-name="パス 2853" d="M824.588,475.661c-.047.733.047,1.267,0,2-.383-.4-.617-.6-1-1-.007-.359-.2-.7,0-1A4.582,4.582,0,0,0,824.588,475.661Z" transform="translate(0.519 11.088)" fill="#bebebe"/>
      <path id="パス_2854" data-name="パス 2854" d="M841.4,472.075c-1.861-3.141-1.574-6.661-1-10a4.259,4.259,0,0,1,1-2c2.31-2.575,5.96-2.445,9-2,2.678.392,4.2,2.456,5,5a11.811,11.811,0,0,1-1,10C850.074,473.938,845.584,472.856,841.4,472.075Z" transform="translate(3.709 7.674)" fill="#aa9a8b"/>
      <path id="パス_2855" data-name="パス 2855" d="M841.178,470.061c.228-.668.47-2.31,1-2,3.416,2,7.36,1.461,11,2,.3.044.731.753,1,1-4.34,8.373-9.3,6.169-13,0C840.994,470.752,841.279,470.419,841.178,470.061Z" transform="translate(3.929 9.688)" fill="#eadac5"/>
      <path id="パス_2856" data-name="パス 2856" d="M842.884,485.4c-.429,1.135-.851,1.753-2,2-4.37.384-9.162.567-12-4a5.166,5.166,0,0,1-1-2c-.09-1.013.4-2.024,0-3a4.418,4.418,0,0,1,0-2,7.054,7.054,0,0,0,1-4c.551-.976,1.057-1.307,2-1,1.064.345,2.045,1.423,3,2,3.52,2.127,7.173,4,10,7-.568.8.319,2.164,0,3,.066.622-1.222.3-1,1C842.912,484.6,842.86,485.2,842.884,485.4Z" transform="translate(1.223 10.348)" fill="#ac9c8d"/>
      <path id="パス_2857" data-name="パス 2857" d="M828.772,480.59a10.744,10.744,0,0,0,10,4,2.184,2.184,0,0,1,2,1c-.22.218-.692-.031-1,0a7.572,7.572,0,0,0-2,1c-3.02,1.317-5.922,2.191-9,0C828.509,484.545,826.33,482.544,828.772,480.59Z" transform="translate(1.335 12.159)" fill="#e8d9c5"/>
      <path id="パス_2858" data-name="パス 2858" d="M829.089,481.713a7.185,7.185,0,0,0,1,4c.467.936-.14,1.366-1,2-3.1-1.5-2.884-4.351-3-7-.079-1.794.688-3.189,1-5,.269-.485.7-.494,1,0v2c.428.76.35,1.322,1,2Z" transform="translate(1.018 11.035)" fill="#dedddb"/>
      <path id="パス_2859" data-name="パス 2859" d="M827.947,476.236h-1a5.19,5.19,0,0,1,2-4C829.783,473.854,829.795,474.454,827.947,476.236Z" transform="translate(1.16 10.513)" fill="#c6beb4"/>
      <path id="パス_2860" data-name="パス 2860" d="M840.369,482.9c-.068-1.279-.463-3.218,1-4a3.731,3.731,0,0,1-1,5,1.264,1.264,0,0,0,0-1Z" transform="translate(3.738 11.846)" fill="#d9cab6"/>
      <path id="パス_2861" data-name="パス 2861" d="M836.117,485.753a2.334,2.334,0,0,1,2-1A2.158,2.158,0,0,1,836.117,485.753Z" transform="translate(2.99 12.996)" fill="#ac9c8d"/>
      <path id="パス_2862" data-name="パス 2862" d="M871.21,472.232c1.412,3.1,1.465,5.027-1,6a18.162,18.162,0,0,1-5,1,33.411,33.411,0,0,1-9,0c-.509-1.586.356-2.156,1-3,.679-.888,2.241-2.173,3-3C864.055,472.714,867.285,471.831,871.21,472.232Z" transform="translate(6.897 10.517)" fill="#eedec8"/>
      <path id="パス_2863" data-name="パス 2863" d="M870.629,472.828c-.342.131-.674.839-1,1-3.438,1.7-6.381,1.558-10,0a17.85,17.85,0,0,1,2-2C865.628,468.42,867.116,468.279,870.629,472.828Z" transform="translate(7.478 9.921)" fill="#ac9d8d"/>
      <path id="パス_2864" data-name="パス 2864" d="M867.7,503.915l-1,1h0a17.179,17.179,0,0,1-11-3,2.67,2.67,0,0,1-1-2c-.251-1.262-.687-2.75-1-4a26.364,26.364,0,0,1,2-9c.554-1.317,1.553-1.592,3-2,3.68-1.039,6.563-.26,10,1,2.533.93,3.748,2.258,4,5a13.5,13.5,0,0,1-2,9C869.789,501.353,868.739,502.556,867.7,503.915Z" transform="translate(6.405 12.835)" fill="#aa9a8b"/>
      <path id="パス_2865" data-name="パス 2865" d="M850.848,483.331a.96.96,0,0,1-1,1c-1.083.1-1.829.013-2-1-.122-.726.429-.97,1-1C849.893,482.276,850.8,482.493,850.848,483.331Z" transform="translate(5.259 12.419)" fill="#cdbfac"/>
      <path id="パス_2866" data-name="パス 2866" d="M847.62,505.845h-1c-.721-.594-2.315-.319-3-1-.193-.251.308-.074,0,0a5.361,5.361,0,0,1-2-1c-.167-.268-.689-1.054-1-1-.711-.049-.585-.509-1-1-.183-.335-.854-.647-1-1,5.232-2.1,4.492-7.171,6-11,2.664-.583,2.375-.8,3,1,.485,1.389.559,3.6,1,5,.573,1.219.431,1.779,1,3-.007,1.243.007,2.757,0,4-.3.919-.183,2.284-1,3h0C848.32,506.268,848.047,506.115,847.62,505.845Z" transform="translate(3.487 13.904)" fill="#eadbc5"/>
      <path id="パス_2867" data-name="パス 2867" d="M845.044,489.788a11.613,11.613,0,0,0,0,4c1.109,4.646.086,6.122-5,7-.185.032-.809,0-1,0a3.6,3.6,0,0,1-1-1c-1.627-2.331-1.5-3.061,0-5A17.478,17.478,0,0,1,845.044,489.788Z" transform="translate(3.063 13.962)" fill="#a79889"/>
      <path id="パス_2868" data-name="パス 2868" d="M848.019,497.9c-.669-1.2-1.176-1.634-1-3A2.488,2.488,0,0,1,848.019,497.9Z" transform="translate(5.088 14.847)" fill="#2d2b2a"/>
      <path id="パス_2869" data-name="パス 2869" d="M842.8,502.391a4.08,4.08,0,0,1,3,1c-.824.026-2.176-.026-3,0h0C842.8,503.032,842.812,502.749,842.8,502.391Z" transform="translate(4.31 16.358)" fill="#2d2b2a"/>
      <path id="パス_2870" data-name="パス 2870" d="M847.062,503.663c.35-.9.651-2.1,1-3C848.308,501.792,848.293,503.108,847.062,503.663Z" transform="translate(5.045 16.086)" fill="#2d2b2a"/>
      <path id="パス_2871" data-name="パス 2871" d="M846.232,503.229c.353-.131.623,0,1,0C847.008,504.059,846.744,503.961,846.232,503.229Z" transform="translate(4.875 16.519)" fill="#2d2b2a"/>
      <path id="パス_2872" data-name="パス 2872" d="M841.17,501.57a2.478,2.478,0,0,1,2,1A2.478,2.478,0,0,1,841.17,501.57Z" transform="translate(3.937 16.179)" fill="#2d2b2a"/>
      <path id="パス_2873" data-name="パス 2873" d="M839.54,499.792c.7.066.69.352,1,1C839.8,500.786,839.842,500.451,839.54,499.792Z" transform="translate(3.567 15.957)" fill="#2d2b2a"/>
      <path id="パス_2874" data-name="パス 2874" d="M855.374,499.037a1.224,1.224,0,0,1,1,0c2.776,1.277,6.052,1.5,9,2,.314.054.717.755,1,1h0c-.384.353-1.582.689-2,1-1.8,1.138-2.948.88-5,0C857.607,502.279,855.826,500.994,855.374,499.037Z" transform="translate(6.733 15.712)" fill="#d8c9b5"/>
      <path id="パス_2875" data-name="パス 2875" d="M862.86,502.586c.222-.549,1.344-.977,2-1C864.752,502.274,863.528,502.579,862.86,502.586Z" transform="translate(8.247 16.162)" fill="#aa9a8b"/>
      <path id="パス_2876" data-name="パス 2876" d="M828.773,479.3c-.862-.6-1.152-1.026-1-2A2.131,2.131,0,0,1,828.773,479.3Z" transform="translate(1.334 11.451)" fill="#c6beb4"/>
      <path id="パス_2877" data-name="パス 2877" d="M840.45,482.345h0c-.476.216-1.2.423-1,0C839.51,482.221,840.284,482.419,840.45,482.345Z" transform="translate(3.657 12.404)" fill="#e4d4bf"/>
    </g>
    <g id="グループ_57" data-name="グループ 57" transform="translate(234.931 5422.5) rotate(-49)" opacity="0.1">
      <path id="パス_3018" data-name="パス 3018" d="M714.951,668.456a73.412,73.412,0,0,1-11.232,5.142,17.5,17.5,0,0,1-12.637.179c-1.5-.529-3.006-1.075-4.446-1.747a141.252,141.252,0,0,1-35.9-23.434,72.673,72.673,0,0,1-11.006-12.57,4.654,4.654,0,0,1-1.22-2.541c6.975,2.24,14.046,4.571,19.4,9.725,5.83,5.612,12.783,8.962,20.145,11.671,6.157,2.265,12.337,4.379,17.943,7.913,4.441,2.8,9.622,3.288,14.657,4.144C712.176,667.2,713.929,666.783,714.951,668.456Z" fill="#e5354a"/>
      <path id="パス_3019" data-name="パス 3019" d="M641.122,615.388c1.589-.375,2.837.517,3.959,1.329a3.806,3.806,0,0,0,4.009.528,55.642,55.642,0,0,1,12.49-3.206A100.486,100.486,0,0,1,672,612.667c5.307-.239,10.426-1.452,15.573-2.5a66.837,66.837,0,0,1,17.6-1.5c1.258.078,2.588-.083,3.623.908-5.061,2.409-11.037,2.788-15.319,6.918a9.5,9.5,0,0,1-1.16.682,14.015,14.015,0,0,1-1.826.794,9.14,9.14,0,0,1-1.907.407,15.89,15.89,0,0,0-3.124.675,14.565,14.565,0,0,1-2.625.415,16.064,16.064,0,0,0-3.4.685,17.316,17.316,0,0,1-3.735.383c-2.36.014-4.719.012-7.076.027-1.815-.01-3.63-.022-5.443-.02a15.418,15.418,0,0,0-5.145.476,18.328,18.328,0,0,1-3.63.423,13.242,13.242,0,0,0-3.579.584C645.543,622.167,643.123,620.509,641.122,615.388Z" fill="#f1a18b"/>
      <path id="パス_3020" data-name="パス 3020" d="M714.951,668.456a59.494,59.494,0,0,1-13.233-1.943,23.832,23.832,0,0,1-7.012-3.019,54.72,54.72,0,0,0-13.49-6.1,82.3,82.3,0,0,1-12.81-5.325c-4.412-2.343-8.58-4.894-12.027-8.581a20.41,20.41,0,0,0-8.156-4.9,39.1,39.1,0,0,1-9.713-5.1c-1.991-2.813-3.6-5.878-5.869-8.506a8.308,8.308,0,0,1-1.841-4.753c-.209-2.179-.547-4.347-.83-6.519-.533-1.026.1-1.314.932-1.47a3,3,0,0,1,1.745,1.341c1.753,4.54,2.179,9.469,5.541,13.564,2.839,3.459,5.771,6.336,9.96,7.836a40.142,40.142,0,0,1,13.214,8.418c6.415,5.749,14.417,8.708,22.426,11.459a62.008,62.008,0,0,1,12.613,5.7c5.019,3.1,10.768,3.733,16.478,4.547,2.864.408,4.6-1.987,7.125-2.2,3.048.909,2.623,2.18.377,3.638C718.967,668.3,716.9,668.2,714.951,668.456Z" fill="#150608"/>
      <path id="パス_3021" data-name="パス 3021" d="M630.962,612.524l-.992,1.186c-1.241-1.64-1.154-3.573-1.161-5.469a1.3,1.3,0,0,1,1.969-1.217c1.16.823,2.227,1.783,3.3,2.719,2.273,1.978,4.29,4.275,7.044,5.646,1.458,2.026,3.655,3.255,5.4,4.974,1.322,1.3,2.916.547,4.395.668.976-.55,2.184-.054,3.14-.7l3.539-.27a12.764,12.764,0,0,1,4.721-.255,1.059,1.059,0,0,1,.6,1.278,3.7,3.7,0,0,1-2.7,1.237c-1.615.156-3.279-.059-4.836.6a7.166,7.166,0,0,1-4.475.471c3.409,1.192,5.667,2.687,8.441,2.29,1.631.037,3.286-.119,4.816.642,1.886,2.49-.849,1.66-1.611,2.242-2.305,1.323,1.228.547.479,1.311a25.963,25.963,0,0,0,6.907,3.065,165.3,165.3,0,0,0,16.379,4.683,8.185,8.185,0,0,1,1.7.592,16.682,16.682,0,0,0,2.8,1.059l2.585.262c1.324.728,2.86.077,4.209.648l2.489.277c.171.9-.4,1.308-1.09,1.636a10.451,10.451,0,0,1-3.592.4,12.727,12.727,0,0,1-2.815-.375,12.126,12.126,0,0,0-3.416-.538c-3.134-.041-5.959-1.315-8.882-2.2a35.268,35.268,0,0,0-3.887-1.115c-1.048-.329-2.089-.687-3.141-1.01-.849-.261-1.708-.48-2.579-.664a77.1,77.1,0,0,1-33.489-19.592c-1.366-1.346-2.8-2.6-4.274-3.825C631.93,614.027,632.882,609,630.962,612.524Z" fill="#13090b"/>
      <path id="パス_3022" data-name="パス 3022" d="M738.673,620.447c.345,1.712.762,3.413,1.007,5.139a1.61,1.61,0,0,1-1.569,1.962,23.627,23.627,0,0,1-2.38.175c-8.761.312-17.411,1.726-26.114,2.612-5.222.532-10.457.941-15.692,1.345a25.848,25.848,0,0,1-3.316-.157.77.77,0,0,1,.03-1.079,4.593,4.593,0,0,1,2.324-.713,10.446,10.446,0,0,0,2.286-.527c.372-.15.752-.268,1.136-.381.791-.248,1.566-.539,2.36-.783a10.064,10.064,0,0,1,1.972-.341,18.36,18.36,0,0,0,4.866-.792c6.194-.44,12.351-1.258,18.532-1.749a19.473,19.473,0,0,0,12.418-5.375A1.8,1.8,0,0,1,738.673,620.447Z" fill="#e0394c"/>
      <path id="パス_3023" data-name="パス 3023" d="M738.673,620.447l-1.8-.1a2.03,2.03,0,0,1-2.5-.926c-.019-4.065-1.219-7.285-5.75-8.23a1.051,1.051,0,0,1-.7-1.468c1.418-1,2.915-.472,4.4-.24,1.815-.236,2.945,1.932,4.891,1.394.239-.066.844.486.972.857.446,1.289,1.042,1.7,2.477,1.21,2.4-.827,4.9-1.369,7.345-2.051,2.288-.637,2.838-.359,3.461,1.815.386,1.348-.078,2.168-1.462,2.348a32.864,32.864,0,0,0-6.583,1.058c-1.144.391-2.166.578-1.462,2.158.226.508-.192.9-.632,1.1C740.451,619.765,739.556,620.093,738.673,620.447Z" fill="#0c0a0a"/>
      <path id="パス_3024" data-name="パス 3024" d="M734.712,619.236l2.157,1.109c-1.888,3.572-5.2,4.957-8.891,5.6-2.643.458-5.339.614-8.01.914-2.984.334-5.962.741-8.952,1-1.884.16-3.786.1-5.679.139-1.644.79-3.54-.137-5.169.757L698.55,629c-.736.283-1.6.183-2.24.758a.984.984,0,0,1-.749.156c-.666.365-1.486.264-2.128.7l-2.6.288a10.562,10.562,0,0,1-5.617-.016,1.374,1.374,0,0,1-1.393-.154.965.965,0,0,1,.059-1.246,4.016,4.016,0,0,1,1.236-.609c2.18-.455,4.446.013,6.61-.611.4-.129.82-.23,1.234-.326q1.218-.306,2.41-.712a15.236,15.236,0,0,1,1.85-.46c.853-.192,1.684-.459,2.529-.691a13.6,13.6,0,0,1,2.761-.377c2.173-.068,4.369.119,6.466-.683a53.055,53.055,0,0,1,8.929-1.412C723.732,623.1,729.607,622.595,734.712,619.236Z" fill="#22080c"/>
      <path id="パス_3025" data-name="パス 3025" d="M720.381,666.538a1.34,1.34,0,0,1,.134-.457c1.04-1.334,1.044-1.331-.228-2.251-.005-.217-.009-.435-.015-.652a15.741,15.741,0,0,0,1.029-7.61c.25-.889.461-1.821,1.7-1.72a1.428,1.428,0,0,0,1.594.637,20.29,20.29,0,0,1,2.66-.683c.766-.1,1.127.51.947,1.19-.276,1.044-.737,2.036-1.059,3.069-.417,1.342-.233,1.574,1.774,2.521.357.576.229,1.4.931,1.793a10.291,10.291,0,0,0,2.677.832,23.384,23.384,0,0,1,2.485.52c1.287.46,2.768.478,3.744,1.645a1.143,1.143,0,0,1-.451,1.271,4.78,4.78,0,0,1-2.889-.238,15.333,15.333,0,0,1-7.234-1.581c-1.248-.538-2.359-.877-2.97.847-.25.706-.972.657-1.58.7C722.551,666.434,721.465,666.482,720.381,666.538Z" fill="#0e0d0d"/>
      <path id="パス_3026" data-name="パス 3026" d="M732.309,609.481c-1.419.4-3.086-.3-4.309.97a2.465,2.465,0,0,1-1.179.98c-2.478.777-5.155.08-7.612,1.038a18.231,18.231,0,0,1-3.89.4c-2.565.085-5.13.022-7.692.019-1.622.019-3.278-.307-4.833.45-3.2,1.087-5.527,4.075-9.152,4.258a2.114,2.114,0,0,1-1.458-1.369c1.115-.857,2.237-1.7,3.341-2.571a17.663,17.663,0,0,1,9.537-3.667c1.245-.116,2.487-.274,3.731-.413a35.194,35.194,0,0,0,9.943-.438,54.78,54.78,0,0,1,10.912-.453A3.694,3.694,0,0,1,732.309,609.481Z" fill="#1c1514"/>
      <path id="パス_3027" data-name="パス 3027" d="M723.006,653.848c-.7.5-.733,1.279-.86,2.021a1.538,1.538,0,0,1-1.6-.678,11.417,11.417,0,0,1-1.336-2.761,12.764,12.764,0,0,0-.93-1.61c-1.864-3.112-4.408-5.265-8.1-5.814-.793-.234-1.58-.5-2.392-.665a13.875,13.875,0,0,1-1.767-.431,15.319,15.319,0,0,0-1.756-.435c-.629-.05-1.255-.073-1.887-.092a5.338,5.338,0,0,1-3.211-.831.948.948,0,0,1,.01-1.228l.936-.86.995.032c1.055.59,2.282.29,3.381.656l2.361.269c.935.709,2.157.171,3.129.72,5.2-.14,8.755,2.364,10.967,6.933C721.7,650.632,722.324,652.255,723.006,653.848Z" fill="#212121"/>
      <path id="パス_3028" data-name="パス 3028" d="M738.535,666.278c0-.3,0-.6-.007-.893-.117-.761-1.55-.75-1.087-1.854.7-.8,1.5-.566,2.3-.223a.543.543,0,0,1,.719.18c.59.537,1.455.37,2.082.812,1.808.746,2.156,1.236,1.739,2.451-.5,1.464-1.414,2.006-2.747,1.548-1.014-.349-1.994-.793-2.989-1.2-.345-.178-.461-.359-.351-.545S738.421,666.278,738.535,666.278Z" fill="#171717"/>
      <path id="パス_3029" data-name="パス 3029" d="M661.727,628.62c.693-1.012,2.243-.469,2.879-1.587a1.788,1.788,0,0,1,1.046-.69,4.6,4.6,0,0,1,1.284.06,13.572,13.572,0,0,0,3.814.324,12.442,12.442,0,0,1,4.678.505,2.439,2.439,0,0,1,.942.992c-.005.233-.011.466-.016.7a5.751,5.751,0,0,1-1.155.782l-1-.045c-1.694-.768-3.6.008-5.295-.712l-5.966.057Q662.088,629.588,661.727,628.62Z" fill="#201e1e"/>
      <path id="パス_3030" data-name="パス 3030" d="M739.745,663.308c-.793.143-1.651.143-2.145.959-.845.656-1.617.023-2.417-.136-1.025-.45-2.142-.117-3.19-.371a1.12,1.12,0,0,1-.491-1.1c.428-.994,1.592-.5,2.217-1.093A12.72,12.72,0,0,1,739.745,663.308Z" fill="#212121"/>
      <path id="パス_3031" data-name="パス 3031" d="M684.818,629.775l-1.011.039a7.64,7.64,0,0,1-5.222.1,3.626,3.626,0,0,1-2.427-.166q-.335-.289-.225-.582c.073-.2.146-.293.22-.293v-.028c1.254-1.291,2.892-1.218,4.495-1.277a7.282,7.282,0,0,1,3.866.822A1.015,1.015,0,0,1,684.818,629.775Z" fill="#23090c"/>
      <path id="パス_3032" data-name="パス 3032" d="M729.021,663.368c-1.778-1.011-1.778-1.011-.1-2.786a5.4,5.4,0,0,1,3.976.85c-.663.705-1.675.682-2.439,1.176A3.664,3.664,0,0,0,729.021,663.368Z" fill="#212121"/>
      <path id="パス_3033" data-name="パス 3033" d="M685.216,630.884l5.616.015a.753.753,0,0,0-.225.624C688.78,631.576,686.925,631.843,685.216,630.884Z" fill="#321115"/>
      <path id="パス_3034" data-name="パス 3034" d="M678.585,629.913l5.222-.1q.011.457.016.916A10.731,10.731,0,0,1,678.585,629.913Z" fill="#251517"/>
      <path id="パス_3035" data-name="パス 3035" d="M668.908,628.949c1.792.031,3.686-.686,5.295.712A10.272,10.272,0,0,1,668.908,628.949Z" fill="#2b2827"/>
      <path id="パス_3036" data-name="パス 3036" d="M729.921,662.3c.776-1.033,1.98-.595,2.977-.868a.686.686,0,0,1,.821.138c-.448.759-1.219.824-1.975.918A1.136,1.136,0,0,1,729.921,662.3Z" fill="#0e0d0d"/>
      <path id="パス_3037" data-name="パス 3037" d="M697.627,640.187c-1.48.281-2.966.61-4.209-.648A6.034,6.034,0,0,1,697.627,640.187Z" fill="#2d2d2d"/>
      <path id="パス_3038" data-name="パス 3038" d="M738.535,666.278c.012.275.017.551.014.826a4.258,4.258,0,0,1-3.13-.7Z" fill="#282828"/>
      <path id="パス_3039" data-name="パス 3039" d="M687.658,638.522l-1.329-.9c1.187-.159,2.388-.377,3.253.79A1.387,1.387,0,0,1,687.658,638.522Z" fill="#f7f4f4"/>
      <path id="パス_3040" data-name="パス 3040" d="M687.658,638.522l1.924-.106,1.251.861C689.663,639.495,688.512,639.634,687.658,638.522Z" fill="#202020"/>
      <path id="パス_3041" data-name="パス 3041" d="M704.492,641.152c-1.2.176-2.419.415-3.381-.656A4.457,4.457,0,0,1,704.492,641.152Z" fill="#313131"/>
      <path id="パス_3042" data-name="パス 3042" d="M709.982,642.141a2.922,2.922,0,0,1-3.129-.72A4.122,4.122,0,0,1,709.982,642.141Z" fill="#484848"/>
      <path id="パス_3043" data-name="パス 3043" d="M661.727,628.62l1.214.386a2.125,2.125,0,0,1,.1.871C661.31,629.921,661.2,629.816,661.727,628.62Z" fill="#bc3a4a"/>
      <path id="パス_3044" data-name="パス 3044" d="M742.546,664.3a1.96,1.96,0,0,1-2.082-.812A2.251,2.251,0,0,1,742.546,664.3Z" fill="#212121"/>
      <path id="パス_3045" data-name="パス 3045" d="M676.153,628.872q-.009.438.005.875l-.959-.041Z" fill="#251517"/>
      <path id="パス_3046" data-name="パス 3046" d="M692.184,616.223q.636.571,1.271,1.144c-.059.188-.117.376-.173.566a3.042,3.042,0,0,1-.833.833,6.584,6.584,0,0,1-1.094.466c-.758.254-1.507.537-2.275.771a13.051,13.051,0,0,1-2.464.367,14.571,14.571,0,0,0-3.182.656,15.832,15.832,0,0,1-2.815.425,18.589,18.589,0,0,0-4.55.812c-4.479-.205-9.137,1.555-13.375-1.226,0-.283.007-.567.007-.85-.337-.193-.446-.382-.331-.569s.228-.276.344-.276a16.981,16.981,0,0,1,5.773,0,16.024,16.024,0,0,0,7.631.022,6.983,6.983,0,0,1,3.347-.239c1.079-.454,2.327-.114,3.373-.721a3.789,3.789,0,0,1,2.407-.241c1.07-.449,2.3-.137,3.345-.687l1.529-.281a2.5,2.5,0,0,0,1.356-.685A.652.652,0,0,1,692.184,616.223Z" fill="#1b1210"/>
      <path id="パス_3047" data-name="パス 3047" d="M676.118,619.367a8.713,8.713,0,0,1-7.631-.022Z" fill="#1f1412"/>
      <path id="パス_3048" data-name="パス 3048" d="M662.714,619.342c-.008.282-.012.563-.013.845l-5.1-.124A9.3,9.3,0,0,1,662.714,619.342Z" fill="#2c1d1a"/>
      <path id="パス_3049" data-name="パス 3049" d="M682.838,618.407c-.936,1.118-2.188.754-3.372.72A4.487,4.487,0,0,1,682.838,618.407Z" fill="#1f1412"/>
      <path id="パス_3050" data-name="パス 3050" d="M688.59,617.479c-.939,1.08-2.172.725-3.343.687A4.433,4.433,0,0,1,688.59,617.479Z" fill="#1c1514"/>
      <path id="パス_3051" data-name="パス 3051" d="M654.06,620.332c-.866,1.045-2,.866-3.14.7A3.556,3.556,0,0,1,654.06,620.332Z" fill="#2c1d1a"/>
      <path id="パス_3052" data-name="パス 3052" d="M691.475,616.513a1.568,1.568,0,0,1-1.355.685A1.588,1.588,0,0,1,691.475,616.513Z" fill="#1c1514"/>
      <path id="パス_3053" data-name="パス 3053" d="M632.991,611.848c3.614,3.117,7.188,6.282,10.854,9.336,3.046,2.538,6.134,5.037,9.344,7.359,1.1.8,2.689.879,3.947,1.5a125.939,125.939,0,0,0,14.17,5.65c.69.383,1.425.734,1.258,1.737-.784,1.039-1.983.885-3.06,1.063a3.524,3.524,0,0,0-.893.389c.447.581.422-.416.753-.216a4.694,4.694,0,0,1,2.252.147,20.269,20.269,0,0,0,3.054.545,17.841,17.841,0,0,1,4.512,1.4c2.428,2.642,7.04,3.044,7.707,7.5-4.478,3.991-8.131-.323-11.354-.721,4.419,3.138,10.128,2.511,15.889,1.527A47.059,47.059,0,0,0,711,650.65c2.541-.358,5.357-.621,7.869.737,1.433,1,.85,2.88,1.795,4.092.785,2.619,1.368,5.236-.2,7.8a.678.678,0,0,1-.177.553c-.633-.1-1.361-.253-1.643.5a2.752,2.752,0,0,1-2.917,1.937c-7.1-.051-14.03-.959-20.188-4.776a52.652,52.652,0,0,0-12.119-5.569,87.467,87.467,0,0,1-17.068-7.369,27.309,27.309,0,0,1-6.888-5.084,26.777,26.777,0,0,0-10.713-6.975c-1.2-.437-2.347-.989-3.529-1.465-2.9-1.169-4.868-3.31-6.864-5.7-3.815-4.558-6.148-9.545-6.388-15.49A2.373,2.373,0,0,1,632.991,611.848Z" fill="#e5354a"/>
      <path id="パス_3054" data-name="パス 3054" d="M632.991,611.848q-.51.994-1.021,1.993-.5-.657-1.008-1.317c-.016-.459-.061-.919-.036-1.376.016-.295.041-.727.226-.849.449-.3.845.036,1.121.388A11.6,11.6,0,0,1,632.991,611.848Z" fill="#b4b3b4"/>
      <path id="パス_3055" data-name="パス 3055" d="M709.756,644.013a6.41,6.41,0,0,0,.914.206,8.995,8.995,0,0,1,8.562,6.766c-2.506.673-5.19,1.009-7.443-.208-7.471-4.036-15.774-4.865-23.837-6.65a25.548,25.548,0,0,1-7.634-2.681c-.435-.231-.868-.469-1.3-.709a2.547,2.547,0,0,1-1.071-.97c-.053-.236-.1-.475-.157-.712.475-1.213,1.307-1.236,2.309-.687,3.146.326,5.94,2.146,9.16,2.162,1.015.485,2.205.113,3.209.654l2.656.251c1.264.77,2.783.019,4.065.682l3.322.351a11.008,11.008,0,0,0,2.292.321,1.974,1.974,0,0,1,1.09.362l1.61.294A19.363,19.363,0,0,1,709.756,644.013Z" fill="#f7f4f4"/>
      <path id="パス_3056" data-name="パス 3056" d="M662.694,621.037c4.814.069,9.629.632,14.44-.038a.719.719,0,0,1,1.12.56c-2.709,3.392-6.644,1.029-9.837,2.1a5.415,5.415,0,0,1-1.39.148c.04.579.579.447.9.591.992.451,2.113.679,2.734,1.726a1.231,1.231,0,0,1-.539,1.17,8.39,8.39,0,0,1-3.537-.17l-1.014-.4c-2.014-.493-4.1-.576-6.115-.982-1.332-.268-.413.663-.669.933-3.111.569-5.395-1.048-7.727-2.91,1.052-1.331,2.6-1.4,3.976-1.8,1.638-.719,3.473.088,5.108-.659Z" fill="#e0887d"/>
      <path id="パス_3057" data-name="パス 3057" d="M658.782,626.684a9.047,9.047,0,0,0-.575-.7c-.333-.336-.577-.907-.045-.978a11.4,11.4,0,0,1,7.4,1.727l-.959.3Z" fill="#f7cec2"/>
      <path id="パス_3058" data-name="パス 3058" d="M680.1,638.368c-.7.265-1.585.159-2.017.98a1.41,1.41,0,0,1-1.11.4,4.556,4.556,0,0,1-1.656-.84,1.329,1.329,0,0,1-.347-1.133c.389-.651.985-.633,1.616-.5C677.84,637.375,679.117,637.4,680.1,638.368Z" fill="#cec7c4"/>
      <path id="パス_3059" data-name="パス 3059" d="M660.139,621.31a9.046,9.046,0,0,1-5.108.659C656.588,620.624,658.4,621.234,660.139,621.31Z" fill="#2c1d1a"/>
      <path id="パス_3060" data-name="パス 3060" d="M699.191,642.117a6.43,6.43,0,0,1-4.065-.682l4.054-.111C699.187,641.588,699.191,641.853,699.191,642.117Z" fill="#2d2d2d"/>
      <path id="パス_3061" data-name="パス 3061" d="M676.587,637.272l-1.355,1.03a1.149,1.149,0,0,1-1.1.412,2.211,2.211,0,0,1-1.235-1.357,1.16,1.16,0,0,1,.381-1.115C674.433,636.423,675.644,636.418,676.587,637.272Z" fill="#c8b7b3"/>
      <path id="パス_3062" data-name="パス 3062" d="M673.28,636.242q.01.7.02,1.393l-.459.132-.418-.229q-.558-.921-1.117-1.842A1.825,1.825,0,0,1,673.28,636.242Z" fill="#ba858a"/>
      <path id="パス_3063" data-name="パス 3063" d="M692.47,641.184a3.652,3.652,0,0,1-3.209-.654C690.431,640.255,691.567,640.146,692.47,641.184Z" fill="#2d2d2d"/>
      <path id="パス_3064" data-name="パス 3064" d="M700.168,628.746c1.541-1.484,3.419-.663,5.166-.757C703.706,628.867,701.933,628.778,700.168,628.746Z" fill="#23090c"/>
      <path id="パス_3065" data-name="パス 3065" d="M693.433,630.612a2.076,2.076,0,0,1,2.128-.7A2.556,2.556,0,0,1,693.433,630.612Z" fill="#321115"/>
      <path id="パス_3066" data-name="パス 3066" d="M696.31,629.755a1.98,1.98,0,0,1,2.239-.758A2.784,2.784,0,0,1,696.31,629.755Z" fill="#321115"/>
      <path id="パス_3067" data-name="パス 3067" d="M684.769,628.968l-3.565-.314c-1.033-.437-2.174-.178-3.228-.5a2.117,2.117,0,0,1-1.245-1.54,2,2,0,0,1,.549-1.263c1.947-1.471,4.046-2.463,6.576-2.086,1.808.467,3.6,1.094,5.517.674a2.788,2.788,0,0,1-2.867-.969c1.035-2.954,3.961-2.038,6.01-2.855,1.9-.754,3.979-1.019,5.949-1.612a18.379,18.379,0,0,1,3.493-.883c5.709-.665,11.156-2.484,16.705-3.837,1.642-.527,3.155-1.364,4.742-2.023,1.2-.365,2.443-.544,3.622-.977l.973-.334c1.091.2,2.18.408,3.274.587,2.637.431,3.374,2.614,4.241,4.64.571,1.335-1.337,2.185-.8,3.558-1.429,3.413-4.565,4.108-7.682,4.659a64.733,64.733,0,0,1-7.51.824,92.506,92.506,0,0,0-10.771,1.343c-2.268.94-4.762-.214-7.026.76l-2.56.2a9.865,9.865,0,0,1-2.251.7l-1.6.333c-.636.358-1.429.274-2.033.721l-.43-.005-.4.143A16.853,16.853,0,0,1,684.769,628.968Z" fill="#e4354a"/>
      <path id="パス_3068" data-name="パス 3068" d="M749.351,613.108c-.115.043-.244.145-.341.12-.375-.093-.415-.29-.1-.477a.436.436,0,0,1,.363.065C749.336,612.858,749.327,613.007,749.351,613.108Z" fill="#2c2c2c"/>
      <path id="パス_3069" data-name="パス 3069" d="M738.169,617.973c.042.111.142.237.118.331-.094.357-.29.395-.476.093a.414.414,0,0,1,.068-.352C737.921,617.984,738.068,617.994,738.169,617.973Z" fill="#272021"/>
      <path id="パス_3070" data-name="パス 3070" d="M684.769,628.968l7.676-.055a2.914,2.914,0,0,1-2.52.887l-5.108-.025C684.794,629.506,684.778,629.238,684.769,628.968Z" fill="#321115"/>
      <path id="パス_3071" data-name="パス 3071" d="M701.723,626.822c2.256-1.051,4.651-.81,7.026-.76a2.516,2.516,0,0,1-2.021.847C705.06,626.888,703.391,626.852,701.723,626.822Z" fill="#23090c"/>
      <path id="パス_3072" data-name="パス 3072" d="M693.28,628.775a2.532,2.532,0,0,1,2.033-.721A2.008,2.008,0,0,1,693.28,628.775Z" fill="#321115"/>
      <path id="パス_3073" data-name="パス 3073" d="M696.912,627.721a2.527,2.527,0,0,1,2.251-.7A2.039,2.039,0,0,1,696.912,627.721Z" fill="#321115"/>
      <path id="パス_3074" data-name="パス 3074" d="M720.465,663.277c.727-2.441-.525-4.781-.371-7.192-.376-1.058.1-1.4,1.1-1.3q.478.544.956,1.088a17.481,17.481,0,0,1,.5,3.2C722.608,660.772,722.438,662.527,720.465,663.277Z" fill="#ecd0d3"/>
      <path id="パス_3075" data-name="パス 3075" d="M735.38,663.664l2.22.6c.333.353,1.788-.226.928,1.118-1.329-.174-2.8.292-3.912-.862A1.269,1.269,0,0,1,735.38,663.664Z" fill="#505050"/>
      <path id="パス_3076" data-name="パス 3076" d="M735.38,663.664l-.764.859-2.749-.351q-.411-.352-.268-.7c.1-.228.19-.342.284-.342Z" fill="#a5a5a5"/>
      <path id="パス_3077" data-name="パス 3077" d="M731.883,663.134l-.016,1.038-2.846-.8c-.043-.645.45-.839.9-1.068l1.823.188A.954.954,0,0,1,731.883,663.134Z" fill="#888"/>
      <path id="パス_3078" data-name="パス 3078" d="M725.406,657.168a3.1,3.1,0,0,1-.422.809c-.312.318-.628.2-.654-.254a2.664,2.664,0,0,1,.245-.849C724.852,656.972,725.129,657.069,725.406,657.168Z" fill="#6b6b6b"/>
      <path id="パス_3079" data-name="パス 3079" d="M683.715,623.984c-2.41-.05-4.273,1.595-6.5,2.1-3.626.171-7.134-.024-9.7-3.135a3.165,3.165,0,0,1,2.64-.823c1.756,0,3.513,0,5.269,0a3.274,3.274,0,0,0,2.646-.83c.869-1.063,2.272-.342,3.267-.98l2.519-.286c1.037-.479,2.234-.181,3.268-.671a4.057,4.057,0,0,0,2.487-.281c.621-.377,1.426-.264,2-.757l.894-.336a2.815,2.815,0,0,0,.974-.636l-.025.017c3.063-1.3,5.4-3.873,8.613-4.9,1.782-.133,1.1,1.058.858,1.788-.673,1.983-2.225,3.381-3.529,4.938-3.208,1.82-6.875,2.025-10.346,2.913a4.3,4.3,0,0,0-2.18.76C686.162,624.209,684.888,623.953,683.715,623.984Z" fill="#ea9b86"/>
      <path id="パス_3080" data-name="パス 3080" d="M719.4,614.575a105.84,105.84,0,0,1-16.778,4.307c-.235.044-.537-.277-.808-.427.152-3.659,1.486-6.352,5.56-6.8,2.664.6,5.347-.051,8.018.119C716.6,612.88,718.489,613.026,719.4,614.575Z" fill="#ea9b86"/>
      <path id="パス_3081" data-name="パス 3081" d="M707.37,611.652c-.135.075-.264.2-.4.219-1.678.177-2.3,1.028-2.647,2.762-.279,1.375-1.974,2.312-2.506,3.819-.733.491-1.435,1.073-2.415.741.021-2.275,1.684-3.66,2.885-5.292.429-.582.625-1.069-.214-1.433C703.637,610.9,705.579,611.771,707.37,611.652Z" fill="#241815"/>
      <path id="パス_3082" data-name="パス 3082" d="M719.4,614.575c-1.966-.033-3.543-.622-4.007-2.8l3.689-.4c1.73.117,3.85-1.622,5.045,1.056Z" fill="#f2eae9"/>
      <path id="パス_3083" data-name="パス 3083" d="M724.123,612.423a2.3,2.3,0,0,0-1.943-.869c-1.035-.041-2.069-.123-3.1-.187,2.584-1.09,5.27-.779,7.949-.582A5.723,5.723,0,0,1,724.123,612.423Z" fill="#d5b9bd"/>
      <path id="パス_3084" data-name="パス 3084" d="M679.119,640.269a2.939,2.939,0,0,1,.947.069c6.359,2.744,13.2,3.5,19.9,4.822,3.945.776,7.814,1.824,11.125,4.123a8.212,8.212,0,0,0,6.23,1.709,12.43,12.43,0,0,1,1.911-.007.752.752,0,0,1,.637.792c-.119.544-.329.61-.645.123-5.1.155-10.2-.2-15.3.722-2.995.544-5.99-.627-8.931-1.328-1.547-.369-3.047-.937-4.568-1.415-1.259-.446-2.677-.58-3.542-1.8-.865-1.663-2.675-2.166-4.028-3.222s-2.949-1.86-3.94-3.363A.778.778,0,0,1,679.119,640.269Z" fill="#f2a18b"/>
      <path id="パス_3085" data-name="パス 3085" d="M719.224,651.9a.808.808,0,0,0,.646-.121q.66,1.5,1.32,3l-1.1,1.3C719.193,654.817,719.289,653.342,719.224,651.9Z" fill="#e2c8cb"/>
      <path id="パス_3086" data-name="パス 3086" d="M709.756,644.013a2.36,2.36,0,0,1-2.251-.568A1.952,1.952,0,0,1,709.756,644.013Z" fill="#484848"/>
      <path id="パス_3087" data-name="パス 3087" d="M704.943,643.05a3.048,3.048,0,0,1-2.429-.582l2.413-.142.312.355Z" fill="#313131"/>
      <path id="パス_3088" data-name="パス 3088" d="M704.943,643.05q0-.363-.016-.724l.968.825Z" fill="#2d2d2d"/>
      <path id="パス_3089" data-name="パス 3089" d="M670.394,626.832a.89.89,0,0,1-.019-.521c1.8-1.206,3.594-.116,5.392.024a1.5,1.5,0,0,1,.766,1.151q-.176.316-.352.633l-5.459-.388Q669.57,627.644,670.394,626.832Z" fill="#99918f"/>
      <path id="パス_3090" data-name="パス 3090" d="M678.022,627.815c1.072.234,2.239.112,3.182.839l-5.05.19q0-.363.027-.725l-.052-.4A1.561,1.561,0,0,1,678.022,627.815Z" fill="#2b2827"/>
      <path id="パス_3091" data-name="パス 3091" d="M670.394,626.832q.162.45.327.9c-1.419.072-2.9.554-4.141-.6Z" fill="#2b2827"/>
      <path id="パス_3092" data-name="パス 3092" d="M681.334,620.317l-3.267.98-.933-.3C678.369,619.753,679.9,620.314,681.334,620.317Z" fill="#1f1412"/>
      <path id="パス_3093" data-name="パス 3093" d="M687.121,619.36a4.647,4.647,0,0,1-3.268.671C684.772,618.979,685.972,619.294,687.121,619.36Z" fill="#1f1412"/>
      <path id="パス_3094" data-name="パス 3094" d="M691.612,618.322a2.2,2.2,0,0,1-2,.757A2.082,2.082,0,0,1,691.612,618.322Z" fill="#1c1514"/>
      <path id="パス_3095" data-name="パス 3095" d="M693.48,617.35a.974.974,0,0,1-.974.636Z" fill="#1c1514"/>
      <path id="パス_3096" data-name="パス 3096" d="M686.885,648.076c1.32.328,2.914.119,3.542,1.8a17.8,17.8,0,0,1-12.477-.046,68.955,68.955,0,0,1-6.921-3.041c-.208-.1-.343-.5-.385-.782-.092-.626.423-.784.868-.852,1.861-.283,3.366.709,4.887,1.509a15.982,15.982,0,0,0,8.672,1.9A9.242,9.242,0,0,0,686.885,648.076Z" fill="#2d0c10"/>
      <path id="パス_3097" data-name="パス 3097" d="M647.844,628.788c.313.034.708-.042.925.12,2.791,2.091,5.576,4.172,8.951,5.288a.864.864,0,0,1,.369,1.224c-.134.236-.505.527-.726.495a14.6,14.6,0,0,1-9.962-5.934c-.128-.171.023-.583.1-.864C647.544,628.985,647.727,628.9,647.844,628.788Z" fill="#280a0e"/>
      <path id="パス_3098" data-name="パス 3098" d="M679.119,640.269q-.1.609-.2,1.22c-1.78.385-3.147-.815-4.717-1.232-.975-.671-2.2-.211-3.213-.71a3.888,3.888,0,0,1-2.513-.24.872.872,0,0,1-.239-.64c.015-.235.046-.352.092-.352l.016.012a10.033,10.033,0,0,1,5.978.083c.3-.024.608-.06.911-.108l-.079.287c.578.438,1.424.235,1.945.811l.986-.052.135.114a2.166,2.166,0,0,0,.9.806Z" fill="#241111"/>
      <path id="パス_3099" data-name="パス 3099" d="M674.321,638.41l-5.977-.082c1.115-1.522,2.712-.556,4.077-.79a1.271,1.271,0,0,0,.878.1Z" fill="#341215"/>
      <path id="パス_3100" data-name="パス 3100" d="M670.987,639.547c1.149-.116,2.332-.389,3.213.71A4.8,4.8,0,0,1,670.987,639.547Z" fill="#341215"/>
      <path id="パス_3101" data-name="パス 3101" d="M668.327,638.315l.147.992C667.694,639.084,667.676,638.749,668.327,638.315Z" fill="#341215"/>
      <path id="パス_3102" data-name="パス 3102" d="M679.115,640.268a1.045,1.045,0,0,1-.9-.807C678.8,639.419,679.116,639.667,679.115,640.268Z" fill="#f2a18b"/>
      <path id="パス_3103" data-name="パス 3103" d="M676.2,627.073a23.582,23.582,0,0,1-5.828-.762c-1.6-.547-3.22-1.044-4.8-1.656-1.278-.5-1.846-1.333-1.441-1.887.633-.867,1.329-.343,2.035-.092a9.407,9.407,0,0,0,1.339.276,19.677,19.677,0,0,0,7.249,2.009c.944.117,1.908.146,2.45,1.124a.827.827,0,0,0-.113.611C676.974,627.236,676.666,627.342,676.2,627.073Z" fill="#261a18"/>
      <path id="パス_3104" data-name="パス 3104" d="M677.1,639.4a2.14,2.14,0,0,1-1.945-.811A2.21,2.21,0,0,1,677.1,639.4Z" fill="#341215"/>
      <path id="パス_3105" data-name="パス 3105" d="M714.858,621.249c-1.889,0-3.78.037-5.667-.031-.367-.014-.957-.285-.7-.931a2.585,2.585,0,0,1,.515-.733.66.66,0,0,1,.416-.185c4.238-.268,8.477-.547,12.719-.745.3-.014.759.526.9.9.176.477-.221.882-.681,1.008a10.265,10.265,0,0,1-2.3.446c-1.731.065-3.467.02-5.2.02Z" fill="#29090e"/>
      <path id="パス_3106" data-name="パス 3106" d="M683.715,623.984c.735-1.263,2.058-.866,3.154-1.116,2.215.066,4.428.118,6.638.228.2.009.5.388.526.618a.992.992,0,0,1-.354.789,2.6,2.6,0,0,1-1.291.51c-2.378.031-4.758.009-7.137-.043A1.932,1.932,0,0,1,683.715,623.984Z" fill="#20090c"/>
      <path id="パス_3107" data-name="パス 3107" d="M676.2,627.073q.445-.186.894-.376a1.341,1.341,0,0,1,.926,1.118l-1.893-.092A5.248,5.248,0,0,1,676.2,627.073Z" fill="#d4b0af"/>
    </g>
    <g id="グループ_58" data-name="グループ 58" transform="matrix(0.996, 0.087, -0.087, 0.996, 738.51, 5080.038)" opacity="0.1">
      <path id="パス_3108" data-name="パス 3108" d="M490,273.539c1.46-6.21,3.536-12.232,5.524-18.284a2.576,2.576,0,0,1,2.715-2.108,21.373,21.373,0,0,1,9.3,1.809c2.314,1.065,4.586,2.222,6.878,3.337,1,.487,2,.982,3.014,1.454,4.717,2.2,9.425,2.635,14.215.127a44.428,44.428,0,0,1,5.293-2.194c1.893-.7,2.445-.449,3.255,1.537.781,1.915,1.413,3.89,2.124,5.834.437,1.2.9,2.38,1.349,3.57a3.346,3.346,0,0,1-2.094,1.8c-2.7.683-4.4-.309-4.762-3.1-.329-2.579-1.784-2.679-3.706-1.9-2.218.894-4.322,2.038-6.463,3.1-2.309,1.145-4.57,2.418-7.115.478a2.206,2.206,0,0,0-3.03.391c-1.779,1.63-3.616,2.412-6.056,1.219-1.843-.9-2.562.6-3.024,2.033-.752,2.334-2.344,2.832-4.5,2.179a6.061,6.061,0,0,0-4.611.268C495.227,276.545,492.461,275.726,490,273.539Z" fill="#5bd036"/>
      <path id="パス_3109" data-name="パス 3109" d="M564.808,325.178a10.619,10.619,0,0,1-1.4.2c-1.247.018-2.621-.349-3.712.058-1.374.514-.541,2.281-1.138,3.351-.376.672-.694,1.839-1.172,1.912-2.061.317-1.914,2.325-2.933,3.395-2.043,1.4-3.621.037-5-1.094a8.086,8.086,0,0,0-7.27-2.01l-1.1.357c-.793.484-1.137-.028-1.436-.638-.21-.657.6-2.213-1.229-1.47-1.314.536-2.5,1.363-3.873,1.789-3.033,1-8.106-1.253-7.88,5.335,1.975-.6,3.473-2.545,5.669-1.9.676.341,1.183.768.832,1.631l-11.539,8.563c-.186-.053-.372-.107-.56-.158a2.3,2.3,0,0,1-.723-.885c-.007-.189-.012-.382-.021-.574.234-.989,1.039-1.593,1.59-2.373a3.141,3.141,0,0,0,.128-2.366,5.85,5.85,0,0,1-.18-1.263,14.94,14.94,0,0,1,.959-4.26c-.159-.933-.547-.079-.706-.015-.591.235.2-.163-.393.117-3.823-.91-5.048.694-4.7,4.414a31.521,31.521,0,0,1-.143,7.619,2.727,2.727,0,0,1-1.261,1.833c-1.908-.707-1.137-2.1-.865-3.362q-.089-3.548-.178-7.094c-1.9-3.329-2.337-6.974-2.325-10.718a2.05,2.05,0,0,1,1.389-1.508c5.449,4.1,12.006,1.357,17.927,2.81,2.379.584,4.538-.971,5.4-3.708.707-2.254,2.239-2.655,3.962-1.046,1.04.971,1.593,1.4,3.052.36,1.621-1.158,2.9.443,3.966,1.631,1.477,1.648,2.237,3.886,4.2,5.111,1.336.053,1.82-1.258,2.792-1.762a2.059,2.059,0,0,0,.666-2.444c-.385-5.1-.192-5.448,4.492-4.262,1.9.482,2.495-.8,3.643-1.392,1.8-.449,3.257.84,5.358,1.011.3-2.265-1.049-4.472-.47-6.7.314-.906.558-1.893,1.871-1.685,1.7,3.282,1.82,6.888,2.163,10.45.656,2.995-1.375,2.978-3.318,2.845C567.832,325.178,566.347,324.324,564.808,325.178Z" fill="#060a06"/>
      <path id="パス_3110" data-name="パス 3110" d="M490,273.539c1.084.241,2.194.4,3.245.743,1.694.552,3.122.882,4.747-.576,1.578-1.417,3.619-.625,5.452.02,2.115.743,2.089.71,2.869-1.477,1.456-4.079,1.5-4.115,5.614-2.278a2.223,2.223,0,0,0,2.569-.436c1.223-.922,1.728-2.918,3.651-2.753,1.7.146,2.445,1.965,4.059,2.665a67.577,67.577,0,0,1,11.5-5.483c3.291-1.165,3.54-1.021,3.987,2.227.021.157.017.318.038.476.414,3.061.414,3.061,3.874,3,1.134-.437,2.271-.906,3.15.445-4.121,4.429-7.173,4.4-9.815-.319-.914-1.635-1.835-1.949-3.433-1.4a24.945,24.945,0,0,0-5.975,2.968c-1.784,1.218-3.548,2.032-5.707.607-2.775-1.831-4.51,2.08-7.067,1.484-3.7-.861-3.571,1.787-4.2,4.128-.964,3.6-2.791,3.892-5.448,1-.8-.868-1.854-2.108-2.664-1.012-2.418,3.268-4.7,1.358-7.1.266a5.644,5.644,0,0,0-3.7-.554c-1.661.516-1.389,2.2-2.014,3.344-.381.539-.8.982-1.541.624-2.153-3.872-1.758-5.006,2.507-7.2a1.663,1.663,0,0,0,1.165-.383Z" fill="#091207"/>
      <path id="パス_3111" data-name="パス 3111" d="M544.627,270.461c-.837-.919-1.978-.678-3.027-.793l2.071-1.047c3.155-.457,6.3-.981,9.47-1.346,2.056-.237,3.026.754,2.843,2.782-.128,1.422-.441,2.828-.672,4.24,2.487,2.856,6.916,2.747,9.144,6,1.277.917,2.583,1.8,3.824,2.762,1,.777,2.148,1.59.844,3.047-.405.453-.117.852.155,1.225q1.536,2.1,3.087,4.2a30.15,30.15,0,0,1,1.3,11.856c.013.464.009.929.042,1.392.21,2.9.215,2.956-2.848,3.073-1.189.046-1.23.632-.967,1.462a5.287,5.287,0,0,1,.606,2.678,2.394,2.394,0,0,0-.974,2.047c-3.18-1.218-2.307-4.539-3.524-6.777-.213-2.2.212-3.83,2.985-3.3.562.112,1.318.572,1.168-.667a22.434,22.434,0,0,0-1.388-3.855c-.589-1.313-1.231-2.691-.7-4.109.975-2.619-.1-4.6-1.7-6.491-.428-.468-.849-.942-1.275-1.411-1.433-1.271-1.908-3.285-3.485-4.444-2.269-1.418-4.8-2.345-7.051-3.772-1.636-1.036-3-2.295-3.036-4.448.477-4.03.477-4.03-5.87-3.508A1.56,1.56,0,0,1,544.627,270.461Z" fill="#0e130d"/>
      <path id="パス_3112" data-name="パス 3112" d="M513.946,324.444l-1.124,1.231c-2.243-1.361-3.975,1.772-6.184.7a26.292,26.292,0,0,0-12.288-9.345,32.083,32.083,0,0,1-8.743-4.707c-1.238-1-1.271-1.15.043-2.688.393-.461.421-.81.121-1.188-.942-1.184-2.92-1.917-2.43-3.733.4-1.494,2.56-.755,3.526-1.777-.07-1.436-1.607-1.976-1.829-3.265-.407-.914.149-1.283.878-1.557a2.727,2.727,0,0,1,1.957.746,41.8,41.8,0,0,1,3.406,3.09c1.223,1.489,1.767,2.978-.5,4.072-.532.171-1.1.24-1.627.356a.521.521,0,0,0-.177.824c.389.442.789.828,1.177,1.227.416.4.81.812,1.2,1.224a14.3,14.3,0,0,1,1.461,1.659,2.341,2.341,0,0,1,.346.985,1.291,1.291,0,0,0,.551,1.257c.839.4,1.756.549,2.6.921a38.668,38.668,0,0,1,8.245,4.781c1.618,3.1,3.767,1.648,5.861.679C512.9,320.424,514.207,321.82,513.946,324.444Z" fill="#111410"/>
      <path id="パス_3113" data-name="パス 3113" d="M506.638,326.378a3.586,3.586,0,0,0,2.73-1.376c1.179-1.258,1.249-1.188,2.737.117.227.2.478.371.718.555,1.338,3.42,1.182,7.088,1.76,10.623a3.648,3.648,0,0,0-2.652-1.58,12.414,12.414,0,0,1-6.987-3.6,1.27,1.27,0,0,1-.069-2.031A5.342,5.342,0,0,0,506.638,326.378Z" fill="#5ccc38"/>
      <path id="パス_3114" data-name="パス 3114" d="M514.76,343.381c.339,1.032-.077,2.267.849,3.141a.889.889,0,0,1,.6.8,4.466,4.466,0,0,1-.467,1.552,9.1,9.1,0,0,1-.5.935q-.366.693-.721,1.395a5.784,5.784,0,0,1-.559.887,18.783,18.783,0,0,0-1.2,1.719c-.362.616-.767,1.2-1.18,1.785-.516.745-.98,1.525-1.493,2.273-.2.315-.417.615-.632.92-.187.338-.384.663-.571,1-.165.373-.352.725-.543,1.083a41.252,41.252,0,0,1-2.857,4.163c-.107.176-.227.345-.335.52s-.238.333-.351.5a9.415,9.415,0,0,1-.775.929c-.26.3-.545.579-.831.855-.136.142-.283.275-.42.418-.265.292-.549.566-.831.843-.134.145-.278.28-.413.425-.266.3-.551.573-.838.849a17.894,17.894,0,0,0-3.131,3.636c-.12.174-.247.339-.369.513-.143.159-.292.309-.438.466a2.731,2.731,0,0,1-1.779.689,1.718,1.718,0,0,1-1.3-1.324c1.723-2.074,3.383-4.2,5.182-6.211a132.49,132.49,0,0,0,12.927-17.772A38.72,38.72,0,0,0,514.76,343.381Z" fill="#1a1a1a"/>
      <path id="パス_3115" data-name="パス 3115" d="M486.128,298.521l-1.09,1.154c-1.767-1.418-2.706-3.432-3.808-5.326-.158-.27-.4-.619-.341-.867.668-2.762-.855-5.1-1.414-7.614a1.118,1.118,0,0,1,1.026-1.339c1.564-.141,3.145-.1,4.719-.12,2.3-.03,2.381-.183,1.186-2.295a5.781,5.781,0,0,1-.324-.863l1.052-1.159a1.67,1.67,0,0,1,1.4.051c1.754,1.219,3.222,2.854,2.672,5.016-.654,2.574-3.217,1.849-5.114,2.145a2.59,2.59,0,0,0-1.675.626C484.3,291.584,487.084,294.756,486.128,298.521Z" fill="#1a1c1a"/>
      <path id="パス_3116" data-name="パス 3116" d="M564.456,280.294a48.551,48.551,0,0,1-8.7-4.16c-.627-.369-1.261-.993-.44-1.835,4.028-.348,8.031-1.145,12.315-.805C567.251,276.208,565.086,277.91,564.456,280.294Z" fill="#5ece3a"/>
      <path id="パス_3117" data-name="パス 3117" d="M493.676,374.36l1.04.965c1.371,1.137,1.331-.592,1.959-.965l-.051.058c.411-.454.617-1.05,1.043-1.5,1.051-1.106,2.2-2.108,3.2-3.248a3.81,3.81,0,0,1,.6-1.077l-.065.073q.537-.5,1.039-1.04l-.09.08c.451-.376,1.073-.5,1.436-1a3.766,3.766,0,0,1,.582-1.005l-.1.1q.447-.438.863-.909c.657-.857,1.261-1.808,2.6-1.411.585.384,1.044.812.547,1.571-1.012,2.078-2.871,3.389-4.5,4.882-2.851,2.606-5.544,5.283-6.841,9.07a1.534,1.534,0,0,1-2.287.962,18.233,18.233,0,0,1-2.176-.992c-1.516-.82-1.664-1.583-.518-3.005A15.917,15.917,0,0,1,493.676,374.36Z" fill="#191919"/>
      <path id="パス_3118" data-name="パス 3118" d="M508.28,365.048l-1.019-1.2c-.914-1.425.91-1.962.99-3.065.162-.359.333-.714.506-1.068A3.475,3.475,0,0,0,509.09,358l1.638-2.779s.388-.258.383-.259c.537.767.586-.166.885-.27a7.678,7.678,0,0,0,.743-1.56c.455-.567.762-1.237,1.2-1.821l-.038.051c.6-.511.441-1.4.97-1.95l-.029.052a10.23,10.23,0,0,0,1.5-2.288,3.383,3.383,0,0,1,3.259-2.865,1.758,1.758,0,0,1,1.133,1.325,70.229,70.229,0,0,0-7.947,12.834C511.61,360.838,510.426,363.3,508.28,365.048Z" fill="#252525"/>
      <path id="パス_3119" data-name="パス 3119" d="M542.188,330.99c.412-.85,1.336-.719,2.012-1.064a3.085,3.085,0,0,1,4.205.766c1.6,1.778,3.484,3.249,6.051,3.4a11.422,11.422,0,0,1-.705,1.682,1.743,1.743,0,0,1-2.4.717,26.306,26.306,0,0,1-5.262-3.014C544.834,332.581,543.778,331.362,542.188,330.99Z" fill="#52b23d"/>
      <path id="パス_3120" data-name="パス 3120" d="M573.67,303.381c-.422-1.2-.779-2.431-1.283-3.6-.646-1.493-1.033-2.822-.205-4.5.508-1.031.153-2.488.185-3.756,3.5,2.18,4.631,5.4,4.165,9.363A2.535,2.535,0,0,1,573.67,303.381Z" fill="#5dcc3a"/>
      <path id="パス_3121" data-name="パス 3121" d="M564.808,325.178a1.821,1.821,0,0,1,2.074-1.469,21.679,21.679,0,0,1,3.187.644c1.626.375,2.261-.561,2.6-1.917,1.208,1.247.851,2.87,1.368,4.444C570.447,327.895,567.69,326.192,564.808,325.178Z" fill="#64c647"/>
      <path id="パス_3122" data-name="パス 3122" d="M533.171,336.091l-1.108-1.239c-.139-1.248.886-1.612,1.643-2.185.325-.214.665-.4,1.007-.59,1.034-.565,1.946-1.336,3.029-1.824a3.15,3.15,0,0,1,1.792-.266c.134.155.268.312.4.469l1.152.891A30.439,30.439,0,0,1,533.171,336.091Z" fill="#242624"/>
      <path id="パス_3123" data-name="パス 3123" d="M520.735,345.633q-.555-.559-1.109-1.121c-.088-.752.209-1.082.979-.888l.248.3a4.638,4.638,0,0,1,.475.476l.3.256A1.065,1.065,0,0,1,520.735,345.633Z" fill="#010101"/>
      <path id="パス_3124" data-name="パス 3124" d="M489.754,273.667c-.285.462-.6.822-1.173.386C488.8,273.373,489.3,273.591,489.754,273.667Z" fill="#5bd036"/>
      <path id="パス_3125" data-name="パス 3125" d="M513.946,324.444c-1.091-1.572-1.731-3.6-4-3.979-.9-1.175-.121-2.5-.337-3.736a4.563,4.563,0,0,1,.252-3.224c1.863-2.031,3.885-1.7,6.032-.472,5.595,3.2,9.141,2.838,13.842-1.312,2.061-1.818,1.609-3.9.713-6.061a29.866,29.866,0,0,1,.145-12.3c1.179-3.035,4.045-3.119,6.6-3.759.862.14,1.294.817,1.84,1.4,4.451,4.72,6.052,4.61,9.685-.606a6.724,6.724,0,0,1,2.6-2.719c2.965.561,5.341,2.067,4.646,5.345-1.058,4.988-5.077,7.676-9.582,7.06,2.825,1.44,6,.3,8.185-3.252,1.262-2.056,2.249-4.245,4.628-5.28,3.854,2.191,5.951,6.714,10.53,7.947,1.12,1.066,1.076,2.618,1.633,3.919a3.193,3.193,0,0,1-1.8,1.758c-.143-.033-.289-.058-.428-.1-2.222-.711-2.327-.644-2.3,1.915-.891,2.609-3.46,3.064-5.491,4.068-2.859,1.413-3.809,2.708-.658,4.852,1.405.957,2.927,1.925,3.224,3.857a5.855,5.855,0,0,0-1.192,2.943c-2.019.371-2.995-1.15-4.346-1.8-1.219-.59-2.252.053-2.126,1.437.1,1.094.371,2.172.566,3.257a2.577,2.577,0,0,1-1.018,1.536c-2.294.364-2.236,2.768-3.493,4.032a8.465,8.465,0,0,1-2.96-3.058c-.9-1.317-1.777-2.656-2.7-3.961-.449-.634-.888-1.433-1.809-1.342-1.106.109-.855,1.138-1.079,1.852-.326,1.039-.953,1.225-1.592.473-.619-.728-1.165-1.519-1.747-2.279-.392-.511-.847-1.061-1.529-.967-1.1.152-.971,1.121-.948,1.868.064,2.1-.972,3.157-2.926,3.775a14.639,14.639,0,0,1-7.1.4,39.084,39.084,0,0,1-4.69-.925c-1.488-.455-2.433-.418-2.8,1.367-.147.719-.869.778-1.549.516C516.656,328.033,515.484,326.037,513.946,324.444Z" fill="#298135"/>
      <path id="パス_3126" data-name="パス 3126" d="M563.9,319.761c-2.224-1.773-4.5-3.488-6.653-5.341-1.175-1.011-1.029-1.85.32-2.576,3.069-1.652,6.17-3.243,9.259-4.859,1.149,1.245,1.17,2.927,1.667,4.419.3.9.31,1.9,1.037,2.629.227,1.378.475,2.754.675,4.136.174,1.207.584,2.435-.157,3.63C567.733,321.9,565.971,320.356,563.9,319.761Z" fill="#5acd36"/>
      <path id="パス_3127" data-name="パス 3127" d="M534.018,333.288l-1.955,1.565c-2.446.7-4.092,2.833-6.475,3.742-.362-3.074-.275-4.806.321-6.384a2.686,2.686,0,0,1,2.785-2.056c2.045.055,4.093-.024,6.14-.045a1.383,1.383,0,0,1,1.187-.119c.622.934-.038,1.53-.568,2.16A15.362,15.362,0,0,0,534.018,333.288Z" fill="#297f35"/>
      <path id="パス_3128" data-name="パス 3128" d="M516.078,344.593c-.047-4.091-.135-8.183-.121-12.274.006-1.78.427-2.043,1.964-1.431,1.457.579,2.831,1.426,4.5,1.152a.733.733,0,0,1,1.1.1,15.359,15.359,0,0,1-1.125,5.906c-2.114,1.048-3.118-.934-4.524-1.681.034,2.673.571,5.373-.6,7.96A.9.9,0,0,1,516.078,344.593Z" fill="#297933"/>
      <path id="パス_3129" data-name="パス 3129" d="M516.69,344.415V334.6c2.564.5,3.287,3.432,5.705,3.451l-.027-.063c1.113,1.108.748,2.314.232,3.529-.756.616-1.652,1.1-1.995,2.109a1.083,1.083,0,0,0-.979.888l-2.756,2.324A1.963,1.963,0,0,1,516.69,344.415Z" fill="#f4f6f4"/>
      <path id="パス_3130" data-name="パス 3130" d="M536.151,330.287l-1.316-.176c1.54-.99,3.095-1.958,4.616-2.977a1.153,1.153,0,0,1,1.626.021,1.327,1.327,0,0,1,.169,2.014,14.475,14.475,0,0,1-1.31,1.287l-.112-.369c-.856-.512-1.4.236-2.068.51A1.477,1.477,0,0,1,536.151,330.287Z" fill="#277132"/>
      <path id="パス_3131" data-name="パス 3131" d="M552.29,331.162c-.164-2.722,1.126-4.326,3.764-4.892a1.133,1.133,0,0,1,.046,1.853,2.246,2.246,0,0,0-1.911,1.637C553.937,330.661,553.45,331.412,552.29,331.162Z" fill="#4eb232"/>
      <path id="パス_3132" data-name="パス 3132" d="M523.521,332.143l-1.1-.1a21.6,21.6,0,0,1,.544-2.149c.061-.173.521-.34.743-.286a.983.983,0,0,1,.561.6A1.679,1.679,0,0,1,523.521,332.143Z" fill="#1b5824"/>
      <path id="パス_3133" data-name="パス 3133" d="M522.6,341.515l-.231-3.529C523.829,339.514,523.846,339.769,522.6,341.515Z" fill="#297933"/>
      <path id="パス_3134" data-name="パス 3134" d="M556.1,328.123q-.022-.925-.046-1.852l.747-.677C557.024,326.563,557.79,327.684,556.1,328.123Z" fill="#6f8d6a"/>
      <path id="パス_3135" data-name="パス 3135" d="M516.69,344.415l.18,2.421a.49.49,0,0,1-.117.635.618.618,0,0,1-1.059.032q-.042-.49-.086-.981c.156-.642.312-1.283.469-1.927A1.388,1.388,0,0,0,516.69,344.415Z" fill="#c3c3c3"/>
      <path id="パス_3136" data-name="パス 3136" d="M521.328,344.4a.456.456,0,0,1-.476-.478A.413.413,0,0,1,521.328,344.4Z" fill="#010101"/>
      <path id="パス_3137" data-name="パス 3137" d="M551.367,287.995c-1.421,2.441-2.828,4.892-4.271,7.32a1.675,1.675,0,0,1-2.381.8,52.725,52.725,0,0,0-5.08-2.485c-1.774-.646-1.284-2.849-2.8-3.562-3.2-.364-6.657.834-9.505-1.6-4.188,2.786-9.309-3.142-13.421,1.5-1.052,1.187-2.828.307-3.983-.477-3-2.04-5.638-1.556-8.154,1.052,2.975-3.086,6.055-2.435,9.057-.4,1.709,1.158,3.112,1.572,4.237-.636a2.184,2.184,0,0,1,.668-.672c.8-.617,2.147-1.157,2.63-.608,3.583,4.07,9.68-2.484,12.776,3.122a1.728,1.728,0,0,1,.156,1.367c.122.449.416.931.339,1.342-.75,4-.307,8.039-.516,12.054-.173.175-.346.349-.517.526-4.334.808-8.389-1.111-12.662-1.293-6.91-.3-6.9-.6-8.056,5.876-1.48,2.013-2.484.65-3.192-.622-.785-1.411-1.34-2.922-3.157-3.362,3.24,1.284,2.89,5.876,6.456,6.86l.783,2.781c-1.875,1.693-3.517,3.883-6.562,3.087l-8.618-4.894c-.412-.782-1.314-.963-1.9-1.537-.431-.451-.552-1.1-.984-1.551l.067.08c-.8-2.281-3.706-3.7-2.749-6.7,1.843-1.182,1.887-1.381.674-2.517-1.107-1.037-2.553-1.707-3.335-3.093.227-1.435-.863-2.694-.634-4.09a8.209,8.209,0,0,0-4.232-9.125c2.328-.757,4.727.1,7.073-.312.818-.142,1.45-1.063,1.054-1.728-.806-1.351-1.708-2.644-2.57-3.961-.009-1.5-.3-3.058.986-4.255,2.168-1.132,3.955.2,5.831.917,1.16.441,1.9,1.768,3.341,1.629a3.068,3.068,0,0,0,.438-.8c.192-1-.434-2.41,1.258-2.636a4.039,4.039,0,0,1,4.187,1.689,2.892,2.892,0,0,1,.317.894c.219.834-.281,2.144,1.107,2.233.917.058,2.312-1.638,2.1-2.736-.356-1.876.492-3.434.911-5.1a1.16,1.16,0,0,1,1.831-.8,7.03,7.03,0,0,1,.845.45c1.816,1.3,3.257.656,4.6-.815.636-.7,1.378-1.3,2-1.878,1.924.318,2.327,2.316,3.934,2.924,1.2.144,1.837-.961,2.7-1.561a40.593,40.593,0,0,1,9.487-4.483,1.093,1.093,0,0,1,1.469.823c.393,1.372.6,2.8,1.043,4.154a1.728,1.728,0,0,0,2.27,1.211c1.98-.6,3.932-1.282,5.9-1.931a.384.384,0,0,1,.171.476c2.435,1.279,5.279,1.706,7.435,3.569a2.894,2.894,0,0,0,1.434,2.744q2.37,1.464,4.81,2.815c1.49.822,3.023,1.568,4.536,2.347.679,1.24-.649,3.054,1.14,3.97a11.223,11.223,0,0,0,2.548,1.581c1.507.989,2.233,2.556,3.018,4.08.56,1.087.689,2.006-.614,2.747-.8.455-.658,1.324-.381,2.09.317.877.663,1.743,1,2.615-3.239.259-5.755-.754-7.469-3.731a27.625,27.625,0,0,0-3.289-3.9c-3.268-1.622-6.467-3.443-7.38-7.3-.882-3.726-4.3-1.73-5.43-2.807C549.241,281.953,552.536,282.924,551.367,287.995Z" fill="#5bd036"/>
      <path id="パス_3138" data-name="パス 3138" d="M489.052,276.277c.017,1.5.2,3.035-.987,4.254l-.931-.439C486.657,277.136,486.684,277.082,489.052,276.277Z" fill="#e0e4de"/>
      <path id="パス_3139" data-name="パス 3139" d="M552.233,274.506c-2.936-.236-5.793-.636-7.436-3.569,2.34-1.167,4.889-1.315,7.423-1.49,1.473-.1,1.9.553,1.455,2.11A5.638,5.638,0,0,1,552.233,274.506Z" fill="#e9ede7"/>
      <path id="パス_3140" data-name="パス 3140" d="M563.769,287.2c-2.029-.632-2.253-.882-1.8-2.26.286-.862.69-1.684,1.041-2.525.27.137.754.243.777.413.223,1.638,1.344,2.807,2.085,4.17A1.84,1.84,0,0,1,563.769,287.2Z" fill="#e6efe3"/>
      <path id="パス_3141" data-name="パス 3141" d="M569.552,305.172a2.441,2.441,0,0,1,1.8-1.757,2.55,2.55,0,0,1,.13.438C571.7,305.8,571.6,305.863,569.552,305.172Z" fill="#d3ded4"/>
      <path id="パス_3142" data-name="パス 3142" d="M563.769,287.2l2.107-.2a.864.864,0,0,1,.825.968C565.651,287.984,564.589,288.056,563.769,287.2Z" fill="#a1d092"/>
      <path id="パス_3143" data-name="パス 3143" d="M482.509,286.533c1.586.655,3.749-.622,4.889,1.081.9,1.339.171,3.116.31,4.693.154,1.748.223,3.5.333,5.255a2.464,2.464,0,0,1-.668,2.184l-1.245-1.225c-.388-.689-.787-1.372-1.162-2.067-.285-.528-.865-1.037-.35-1.7.727-.931.427-1.7-.14-2.59a42.025,42.025,0,0,1-2.029-3.794A2.047,2.047,0,0,1,482.509,286.533Z" fill="#e3ebe1"/>
      <path id="パス_3144" data-name="パス 3144" d="M504.216,319.962c1.336-.75,2.685-1.479,4-2.259a3.881,3.881,0,0,1,2.559-.827c.345,1.342-.608,2.381-.838,3.589-2.6,3.877-2.605,3.878-5.552-.062A1.785,1.785,0,0,1,504.216,319.962Z" fill="#dde8da"/>
      <path id="パス_3145" data-name="パス 3145" d="M490.036,305.358c.814,2.276,2.463,4.209,2.749,6.7l-2.3-2.442-.083-.076-2.458-2.233a1.328,1.328,0,0,1,.079-1.9Z" fill="#dae2d7"/>
      <path id="パス_3146" data-name="パス 3146" d="M493.981,312.852a3.357,3.357,0,0,1,1.618,2.216c-1.061-.049-2.134-.067-2.785-1.126A1.335,1.335,0,0,1,493.981,312.852Z" fill="#a3c498"/>
      <path id="パス_3147" data-name="パス 3147" d="M493.981,312.852l-1.168,1.089c-1.223-.6-.463-1.288-.1-1.961C493.389,311.908,493.684,312.382,493.981,312.852Z" fill="#e9f7e5"/>
      <path id="パス_3148" data-name="パス 3148" d="M488.023,305.408q-.039.951-.079,1.9a2.377,2.377,0,0,1-.784-.381c-.291-.323-.76-.867-.658-1.09C486.769,305.253,487.427,305.266,488.023,305.408Z" fill="#c9cac8"/>
      <path id="パス_3149" data-name="パス 3149" d="M490.4,309.542l.085.078Z" fill="#5bd036"/>
      <path id="パス_3150" data-name="パス 3150" d="M508.887,360.855l-1.626,2.993-2.059,1.719a1.821,1.821,0,0,1-.728-.715,17.835,17.835,0,0,1,3.677-4.865l.409.1C508.657,360.345,508.765,360.6,508.887,360.855Z" fill="#b3b3b3"/>
      <path id="パス_3151" data-name="パス 3151" d="M501.4,369.539a11.4,11.4,0,0,1-3.867,3.892.476.476,0,0,1-.814.056,9.758,9.758,0,0,1,3.711-3.894A.632.632,0,0,1,501.4,369.539Z" fill="#454545"/>
      <path id="パス_3152" data-name="パス 3152" d="M496.675,374.36c-.359.974-.686,1.961-1.088,2.916-.218.518-.72.473-1.135.278-.434-.2-.687-.553-.4-1.065q.33-.582.662-1.164Z" fill="#929292"/>
      <path id="パス_3153" data-name="パス 3153" d="M515.694,347.5l1.059-.032a2.747,2.747,0,0,1-1.914,1.99C514.9,348.71,514.861,347.916,515.694,347.5Z" fill="#858585"/>
      <path id="パス_3154" data-name="パス 3154" d="M513.936,351.308c-.044.786-.121,1.557-.953,1.96-.249.458-.53.5-.848.064A2.9,2.9,0,0,1,513.936,351.308Z" fill="#626262"/>
      <path id="パス_3155" data-name="パス 3155" d="M512.135,353.332q.423-.047.848-.064a2.021,2.021,0,0,1-1.018,1.916.452.452,0,0,1-.791-.012l-.213.121-.233-.075Z" fill="#8a8a8a"/>
      <path id="パス_3156" data-name="パス 3156" d="M509.09,358c.64-.193,1.086-.091.986.712a1.525,1.525,0,0,1-.952,1.28l-.505.011-.232-.1-.236.089a3.964,3.964,0,0,0,.085-.775c.209-.437.584-.756.829-1.167Z" fill="#dedede"/>
      <path id="パス_3157" data-name="パス 3157" d="M504.049,366.671c-.37.668-.762,1.3-1.7,1.035.038-.6.281-1.015.962-1.008l.358-.318Z" fill="#bfbfbf"/>
      <path id="パス_3158" data-name="パス 3158" d="M514.868,349.409a1.743,1.743,0,0,1-.97,1.95C513.885,350.542,513.989,349.783,514.868,349.409Z" fill="#545454"/>
      <path id="パス_3159" data-name="パス 3159" d="M509.065,358.045a1.278,1.278,0,0,1-.829,1.167Z" fill="#252525"/>
      <path id="パス_3160" data-name="パス 3160" d="M504.474,364.852l.728.715a.676.676,0,0,1-.93.23Q504.372,365.324,504.474,364.852Z" fill="#e3e3e3"/>
      <path id="パス_3161" data-name="パス 3161" d="M504.049,366.671l-.37-.023-.368.05c.038-.665.263-1.133,1.056-1A.739.739,0,0,1,504.049,366.671Z" fill="#d5d5d5"/>
      <path id="パス_3162" data-name="パス 3162" d="M502.439,367.626c.082.775-.33,1.055-1.039,1.04A1.047,1.047,0,0,1,502.439,367.626Z" fill="#a3a3a3"/>
      <path id="パス_3163" data-name="パス 3163" d="M501.4,369.539l-.97.054a1.219,1.219,0,0,1,1.04-1C501.442,368.908,501.419,369.224,501.4,369.539Z" fill="#848484"/>
      <path id="パス_3164" data-name="パス 3164" d="M496.715,373.487c.271-.031.543-.049.815-.056a1.065,1.065,0,0,1-.906.987A1.178,1.178,0,0,1,496.715,373.487Z" fill="#6c6c6c"/>
      <path id="パス_3165" data-name="パス 3165" d="M511.174,355.172q.395.023.792.012c-.092.385-.06.914-.677.773C511.2,355.935,511.209,355.445,511.174,355.172Z" fill="#bebebe"/>
      <path id="パス_3166" data-name="パス 3166" d="M508.619,360a3.408,3.408,0,0,0,.505-.011.806.806,0,0,1-.237.866,3.765,3.765,0,0,1-.374-.539C508.478,360.245,508.579,360.107,508.619,360Z" fill="#e2e2e2"/>
      <path id="パス_3167" data-name="パス 3167" d="M536.151,330.287,537.9,330a.683.683,0,0,1,.281.742q-.126.379-.258.379l-2.907,1.627a.758.758,0,0,1-.207-.629c.036-.222.08-.333.131-.333Z" fill="#acbcae"/>
      <path id="パス_3168" data-name="パス 3168" d="M537.924,331.125c-.008-.373-.015-.747-.023-1.12.673-.705,1.329-1.029,1.923.082Z" fill="#87a78c"/>
      <path id="パス_3169" data-name="パス 3169" d="M534.941,331.79c.025.321.05.641.076.962l-1,.535A1.7,1.7,0,0,1,534.941,331.79Z" fill="#b5c4b8"/>
      <path id="パス_3170" data-name="パス 3170" d="M531.3,292.713a27.631,27.631,0,0,0-2.142-1.887c-2.872-2.067-2.905-2.046-5.073.928-.822,1.128-1.441,1.207-2.277.258a24.94,24.94,0,0,0-2.172-2.506c-1.185-1.027-2.733-.6-3.763.54-.926,1.022-.359,3.346-2.261,3.209-1.083-.078-2.072-1.353-3.121-2.063-.658-.445-1.354-.835-2.024-1.262a3.611,3.611,0,0,0-4.432.234c-1.4,1.045-2.735,2.174-4.137,3.213-.15.111-.636-.05-.83-.231s-.4-.673-.3-.815a12.751,12.751,0,0,1,6.647-5.145,4.207,4.207,0,0,1,3.234.459c.984.519,1.968,1.044,2.909,1.635s1.743.7,2.419-.358a5.967,5.967,0,0,1,.592-.748,3.9,3.9,0,0,1,4.779-1.127c2.216,1.16,4.059,1.882,6.371.214.88-.636,2.117.3,3.113.789,1.325.647,2.316,1.9,4.2.527,1.028-.751,2.58.767,3.8,1.488-.015.612-.125,1.707-.615,1.508-1.711-.7-2.842-.007-4.005,1.046C532.034,292.785,531.612,292.688,531.3,292.713Z" fill="#0a1607"/>
      <path id="パス_3171" data-name="パス 3171" d="M551.367,287.995a4.135,4.135,0,0,0-.339-.887c-.716-1.065-.024-2.744-1.265-3.461a7.6,7.6,0,0,0-4.593-.843,16.434,16.434,0,0,1-2.345.1c-.189-.009-.471-.419-.505-.672a.931.931,0,0,1,.313-.787,6.645,6.645,0,0,1,2.185-.847,12.878,12.878,0,0,1,6.878,1.458,1.69,1.69,0,0,1,1.07,1.922,2.877,2.877,0,0,0,1.534,3.192,16.375,16.375,0,0,1,4.663,4.689,2.331,2.331,0,0,1-1.043,2.02c-.838.479-1.741,1.046-1.671,2.145.113,1.753-.976,2.505-2.263,3.267a24,24,0,0,0-3.081,2.235c-1.944,1.62-2.051,1.711-3.911.509a47.582,47.582,0,0,1-3.813-2.849.966.966,0,0,1-.172-.877.85.85,0,0,1,1.16-.48c1.283.633,2.514,1.37,3.761,2.064,2.708-1.027,4.938-2.546,5.709-5.544.224-.871.9-1.245,1.564-1.681a.722.722,0,0,0,.091-1.192C554.016,290.285,552.681,289.151,551.367,287.995Z" fill="#071207"/>
      <path id="パス_3172" data-name="パス 3172" d="M509.995,314.094c-1.607.277-3.2.536-3.769-1.624-.12-.454-.4-.862-.549-1.311-.8-2.452-2.35-3.666-5.017-3.068a.6.6,0,0,1-.45-.072c-.217-.171-.5-.378-.546-.612a.961.961,0,0,1,.235-.825c2.4-1.395,4.816-1.012,6.285,1.078a26.8,26.8,0,0,1,1.508,2.944,1.913,1.913,0,0,0,1.344,1.208,4.76,4.76,0,0,1,6.431-1.436c6.9,4.172,11.285.294,15.636-4.245l.02-.021c.771.14,1.69.206,1.636,1.273-.048.932-.475,1.856-.457,2.778.038,1.943-.756,2.894-2.732,2.969-1.53.058-2.008,1.257-2.434,2.509a1.662,1.662,0,0,1-2.274,1.093c-1.659-.558-3.242-1.2-4.989-.21a1.827,1.827,0,0,1-2.165-.452,11.068,11.068,0,0,1-1.016-.992C514.742,312.8,512.521,312.424,509.995,314.094Z" fill="#071107"/>
      <path id="パス_3173" data-name="パス 3173" d="M531.1,306.131a14.564,14.564,0,0,0-.794,2.729,2.133,2.133,0,0,1-2.491,2.2,2.2,2.2,0,0,0-2.1.858c-.476.782-.579,1.995-1.806,1.9-1.856-.15-3.937.73-5.532-.677-2.874-2.538-6-2.543-9.345-1.325.06-2.21.094-4.42.19-6.628a1.731,1.731,0,0,1,1.84-1.75,8.692,8.692,0,0,1,2.362-.005c5.216,1.161,10.711.581,15.8,2.554A6.589,6.589,0,0,0,531.1,306.131Z" fill="#298235"/>
    </g>
  </g>
</svg>
