<svg xmlns="http://www.w3.org/2000/svg" width="91.047" height="73.24" viewBox="0 0 91.047 73.24">
  <g id="じゃがいも" transform="translate(-455.967 -422.434)">
    <path id="パス_2706" data-name="パス 2706" d="M524.771,492.174c-1.132,4.1-3.983,6.8-7.385,9.02a37.494,37.494,0,0,1-12.877,5.079,41.136,41.136,0,0,1-24.2-2.06,36.174,36.174,0,0,1-7.327-3.966,2.86,2.86,0,0,1-1.279-1.46,24.275,24.275,0,0,1,13.107,1.918c8.393,4.159,15.891,1.5,23.579-1.4a15.45,15.45,0,0,0,6.379-5.22C518.128,489.9,519.432,489.613,524.771,492.174Z" transform="translate(-2.667 -11.545)" fill="#f6b42a"/>
    <path id="パス_2707" data-name="パス 2707" d="M522.11,485.757c-1.053-.043-2.107-.075-3.159-.135-1.3-.073-2.653-1.308-3.769-.521-.988.7-1.436,2.142-2.176,3.219a16.4,16.4,0,0,1-5.886,5.194,25,25,0,0,1-6.655,2.5c-3.1.647-6.233,1.109-9.365,1.565a10.6,10.6,0,0,1-7.589-1.574,10.685,10.685,0,0,0-5.969-1.817c-2.951-.013-5.7-1.02-8.493-1.813-8.069-5.051-11.85-12.614-12.756-21.826a30.958,30.958,0,0,1,.044-8.725c.495-.745.985-1.509,1.945-.522.986,2.011.552,4.173.636,6.277a30.374,30.374,0,0,0,5.266,16.472,15.332,15.332,0,0,0,11.952,6.995c2.138.146,4.4.233,6.184,1.343,6.846,4.251,13.618,2.069,20.331-.071,6.692-2.134,10.092-7.119,10.637-13.962A37.553,37.553,0,0,0,513,467.639c-.6-4.871-3.417-9-4.567-13.694a1.481,1.481,0,0,1,1.218-1.264c1.79.134,2.426,1.562,3.2,2.84,2.937,5.949,4.088,12.368,4.934,18.864a9.822,9.822,0,0,1-.079,2.372c-.761,5.725-.761,5.725,4.82,6.527.781.3,1.684.486,1.495,1.654Z" transform="translate(-0.006 -5.128)" fill="#140f07"/>
    <path id="パス_2708" data-name="パス 2708" d="M537.529,480.4c-.424-.716-1.163-.8-1.876-.929a1.136,1.136,0,0,1,.464-1.044,4.8,4.8,0,0,1,1.678-.605c4.4-.931,8.756-2,12.674-4.356,5.939-3.565,7.518-9.166,7.262-15.606-.439-11.067-6.359-19.321-13.8-26.781-.944-.918-1.869-1.855-2.722-2.862a2.932,2.932,0,0,1-.661-1.538c.186-.646.552-.936,1.224-.613a.441.441,0,0,1,.547.286,6.017,6.017,0,0,1,.829.61l-.021-.013a1.856,1.856,0,0,0,.984.743,13.651,13.651,0,0,1,3.917,3.3,50.465,50.465,0,0,1,9.559,13.574,36.133,36.133,0,0,1,2.84,17.467,23.189,23.189,0,0,1-3.083,9.355c-3.942,6.606-10.2,8.753-17.418,9.043Z" transform="translate(-13.509 -0.594)" fill="#151310"/>
    <path id="パス_2709" data-name="パス 2709" d="M540.8,489.713a7.986,7.986,0,0,1,1.445-.576,28.613,28.613,0,0,0,15.972-8.467,18.468,18.468,0,0,1-5.83,10.49,7.057,7.057,0,0,1-8.127,1.066C542.956,491.637,541.561,491.092,540.8,489.713Z" transform="translate(-14.383 -9.874)" fill="#debe92"/>
    <path id="パス_2710" data-name="パス 2710" d="M514.995,451.221l-.934.955c-2.08.194-3.5-1.622-5.474-1.774-6.256-1.075-12.16-3.407-18.243-5.087-1.369-.378-2.837-.754-3.519-2.27.629-1.472,1.72-.944,2.76-.639,2.647.162,5.028,1.315,7.526,2.032,2.884.827,5.763,1.677,8.643,2.515a2.145,2.145,0,0,0,1.877-.189c-.266-.956-.6-1.918.215-2.79.981-.247,1.337.52,1.806,1.1.216.294.414.6.612.91C511.394,448.133,515.037,448.017,514.995,451.221Z" transform="translate(-5.231 -3.327)" fill="#191818"/>
    <path id="パス_2711" data-name="パス 2711" d="M485.484,442.175c-.891.179-1.939-.127-2.575.835a2.459,2.459,0,0,1-2.471.864c-5.259-1.054-10.072.458-14.821,2.432a3.522,3.522,0,0,1-1.543.2,2.011,2.011,0,0,1-1.432-1.212c3.731-3.393,8.344-4.337,13.146-4.565A23.589,23.589,0,0,1,485.484,442.175Z" transform="translate(-1.131 -3.096)" fill="#222"/>
    <path id="パス_2712" data-name="パス 2712" d="M539.225,425.476l-.9.771c-.146.15-.293.3-.438.453a2.57,2.57,0,0,1-1.23.168c-4.7-1.954-9.593-1.533-14.485-1.209-.8-.281-1.727-.451-1.537-1.652C526.712,421.461,534.093,422.044,539.225,425.476Z" transform="translate(-10.96)" fill="#232323"/>
    <path id="パス_2713" data-name="パス 2713" d="M519.336,424.328a1.986,1.986,0,0,0,1.769.869c-2.3,2.679-4.957,5.093-6.164,8.559a1.239,1.239,0,0,1-.987.37c-.85-.327-.41-1.362-1-1.83a12.894,12.894,0,0,1,2.883-5.566A5.478,5.478,0,0,1,519.336,424.328Z" transform="translate(-9.661 -0.321)" fill="#252525"/>
    <path id="パス_2714" data-name="パス 2714" d="M512.6,433.921c.687.355.771,1.014.847,1.678q.144.194.292.388c0,.161-.006.323,0,.485a13.687,13.687,0,0,0-.244,1.923c-.017.846.017,1.692-.051,2.539a4.1,4.1,0,0,1-.243,1.036,1.549,1.549,0,0,1-.748.729c-.821.737-.576,1.767-.739,2.686-1.158-1.868-.886-3.88-.592-5.894.533-.816.159-1.833.589-2.672l.274-1.319c.21-.368.533-.688.489-1.163l-.055-.245Z" transform="translate(-9.306 -1.948)" fill="#1d1d1d"/>
    <path id="パス_2715" data-name="パス 2715" d="M461.736,446.23l1.134.943c-.032.179-.066.359-.095.539a4.159,4.159,0,0,1-.571.927c-1.365,1.108-2.014,3.028-3.94,3.508-.826-.321-.4-1.318-.96-1.785a5.2,5.2,0,0,1,3.106-3.212q.409-.335.847-.63A.358.358,0,0,1,461.736,446.23Z" transform="translate(-0.227 -4.032)" fill="#212121"/>
    <path id="パス_2716" data-name="パス 2716" d="M457.078,451.209a1.825,1.825,0,0,1,.81,1.663,1.328,1.328,0,0,1,.321.954,11.76,11.76,0,0,0,.113,5.078,3.405,3.405,0,0,1,.037,1.059,1.5,1.5,0,0,1-.595.85l-1.434.762c-.069-2.931-.823-5.867.071-8.79.252-.371.584-.708.517-1.216l-.037-.232Z" transform="translate(0 -4.879)" fill="#1d1c1b"/>
    <path id="パス_2717" data-name="パス 2717" d="M511.741,437.409c.1.956.3,1.934-.589,2.672A3.254,3.254,0,0,1,511.741,437.409Z" transform="translate(-9.345 -2.539)" fill="#252525"/>
    <path id="パス_2718" data-name="パス 2718" d="M544.513,427.051a.836.836,0,0,1-.829-.61A.75.75,0,0,1,544.513,427.051Z" transform="translate(-14.872 -0.679)" fill="#232323"/>
    <path id="パス_2719" data-name="パス 2719" d="M545.641,427.9a1.1,1.1,0,0,1-.984-.743A1.011,1.011,0,0,1,545.641,427.9Z" transform="translate(-15.037 -0.801)" fill="#232323"/>
    <path id="パス_2720" data-name="パス 2720" d="M512.689,434.421a1.238,1.238,0,0,1-.489,1.163A1.114,1.114,0,0,1,512.689,434.421Z" transform="translate(-9.53 -2.032)" fill="#252525"/>
    <path id="パス_2721" data-name="パス 2721" d="M461.892,446.582l-.847.63A.9.9,0,0,1,461.892,446.582Z" transform="translate(-0.861 -4.094)" fill="#222"/>
    <path id="パス_2722" data-name="パス 2722" d="M457,451.643a1.336,1.336,0,0,1-.517,1.216A1.144,1.144,0,0,1,457,451.643Z" transform="translate(-0.084 -4.952)" fill="#212121"/>
    <path id="パス_2723" data-name="パス 2723" d="M458.131,462.072c.1-.205.2-.407.317-.6,1.161-2.142,3.342-2.295,5.365-2.763,2.525-.21,4.964-.027,7.066,1.614a30.677,30.677,0,0,1,3.93,4.126c.483.557,1.026,1.064,1.49,1.641,1.366,2.241,2.771,4.457,4.268,6.615a18.6,18.6,0,0,0,12.7,7.854,4.434,4.434,0,0,1,3.5,3.29c.487,1.9,1.367,1.78,2.739.588,3.109-2.7,4.19-6.537,5.926-10.015,2.01-3.361,4.8-5.5,8.859-5.63a33.436,33.436,0,0,1,.586,11.4,3.209,3.209,0,0,1-.816,2.166,1.324,1.324,0,0,0-.473,1.021c.015,4.754-3.233,7.3-6.759,9.452-3.31,2.019-7.107,2.815-10.909,3.433-.913.148-1.857.14-2.756.341a11.545,11.545,0,0,1-9.466-1.682,10.991,10.991,0,0,0-6.068-1.571c-6.365-.18-11.019-3.324-14.466-8.441a30.127,30.127,0,0,1-4.9-14.911C458.072,467.369,458.167,464.716,458.131,462.072Z" transform="translate(-0.367 -6.138)" fill="#f7b429"/>
    <path id="パス_2724" data-name="パス 2724" d="M494.437,480.031a15.956,15.956,0,0,1-12.176-6.379,41.3,41.3,0,0,1-5.53-8.594c-.2-2.359.565-5.459-3.641-4.727a1.306,1.306,0,0,1-1.007-.272,11.5,11.5,0,0,0-7.129-1.795c1.865-5.568,7.727-7.83,13.105-4.934,3.77,2.03,6.778,5.117,9.828,8.017s6.753,4.093,10.5,5.349a4.588,4.588,0,0,0,4.53-.8,5.851,5.851,0,0,1,5.729-1.484c-2.131-4.449-2.594-8.761-3-13.086,1.958.047,3.185,1.519,4.705,2.418a38.669,38.669,0,0,1,5.093,13.8c-.227.316-.432.882-.684.9-3.48.3-5.613,2.557-7.563,5.1-4.458-1.148-7.323.648-9.008,4.782C497.51,480,496.313,480.849,494.437,480.031Z" transform="translate(-1.523 -4.899)" fill="#f7e7d0"/>
    <path id="パス_2725" data-name="パス 2725" d="M535.49,480.744l-1.55.156c-1.557-3.19-4.6-5.427-5.707-8.9-.386-2.466-.762-4.934-1.159-7.4-.655-4.053-2.394-7.764-3.68-11.617,1.379-4.191,2.373-8.594,6.262-11.406,3.423,2.434.63-1.995,2.006-1.829,1.961-.491,3.432-3,5.893-1.433.143,5.9.625,11.762,1.315,17.619.535,4.534-.591,8.87-2.091,13.109-.494,1.36-2.022,2.149-2.08,3.755C535.022,475.441,537.665,477.858,535.49,480.744Z" transform="translate(-11.432 -2.606)" fill="#f7dcbe"/>
    <path id="パス_2726" data-name="パス 2726" d="M528.227,440.085a23.37,23.37,0,0,0-4.742,9.009,2.773,2.773,0,0,1-1.7,2.033c-.959-.626-1.064-2.011-2.2-2.48-.727-1.475-2.138-2.076-3.5-2.731-.925-.444-1.835-.884-2.012-2.053.029-2.577-.433-5.156.037-7.729,3.444-7.662,12.791-11.108,22.426-8.271a4.026,4.026,0,0,0,1.208-.211c.87.932,2.132,1.45,2.773,2.623-1.841,1.755-3.349,3.813-5.129,5.625a6.975,6.975,0,0,1-5.581,2.437C529.053,438.714,528.8,439.549,528.227,440.085Z" transform="translate(-9.821 -0.753)" fill="#f7e7d0"/>
    <path id="パス_2727" data-name="パス 2727" d="M529.048,478.977a54.31,54.31,0,0,0,3.88,4.395,5.288,5.288,0,0,1,1.827,4.509,2.279,2.279,0,0,1-.364.586,13.324,13.324,0,0,1-5.027-.67,1.587,1.587,0,0,1-1.148-1.8C528.488,483.657,528.77,481.317,529.048,478.977Z" transform="translate(-12.247 -9.586)" fill="#efb02c"/>
    <path id="パス_2728" data-name="パス 2728" d="M539.009,436.594c.718-2.78,1.93-5.108,5.129-5.625.125.042.285.047.371.13a49.279,49.279,0,0,1,11.583,15.907,31.272,31.272,0,0,1,2.216,17.466,14.571,14.571,0,0,1-5.747,9.607,20.874,20.874,0,0,1-5.14,2.95,37.565,37.565,0,0,1-9.922,2.556c.1-.493.427-1.072.273-1.464a15.385,15.385,0,0,1-1.221-4.4c-.066-.776-.842-1.492-1.3-2.236.462-1.188,3.791-.02,2.3-2.808.7-2.653,1.555-5.278,2.063-7.969a18.585,18.585,0,0,0-.1-7.812,20.4,20.4,0,0,1-.468-4.279,17.5,17.5,0,0,0-.561-5.449,5.831,5.831,0,0,1,.085-3.876A6.388,6.388,0,0,0,539.009,436.594Z" transform="translate(-13.443 -1.447)" fill="#e0bf92"/>
    <path id="パス_2729" data-name="パス 2729" d="M541.857,427.026l.556.651a.8.8,0,0,0,.111.493,1.117,1.117,0,0,1-.975-.081.689.689,0,0,1,.135-.9Z" transform="translate(-14.492 -0.779)" fill="#232323"/>
    <path id="パス_2730" data-name="パス 2730" d="M504.421,449.9a6.61,6.61,0,0,1,1.608,4.347,16.305,16.305,0,0,0,1.8,7.256c.4.829.806,1.657,1.155,2.374a.816.816,0,0,1-1.094.438,16.146,16.146,0,0,0-3.059-.8c-1.25-.088-1.457,1.4-2.357,1.946a7.357,7.357,0,0,1-6.84.566c-.482-.19-.864-.777-1.335-.835-3.964-.485-6.581-3.054-9.367-5.573-1.757-1.589-3.655-3.047-5.356-4.72a2.9,2.9,0,0,0-.293-.27c-5.175-3.827-8.749-4.862-14.277.705-.464.467-.858,1-1.284,1.508q-2.675.98-5.349,1.962l-.308-1.036a11.788,11.788,0,0,1-.03-5.561.7.7,0,0,0,.145-.74,14.733,14.733,0,0,1,3.983-4.264,2.144,2.144,0,0,0,.775-.59l0,0c2.815-1.468,5.591-2.967,8.84-3.386a24.969,24.969,0,0,1,7.131-.1c1.041.164,2.107.176,3.162.257,7.007,1.814,13.722,4.649,20.878,5.944A8.1,8.1,0,0,1,504.421,449.9Z" transform="translate(-0.298 -3.472)" fill="#fff"/>
    <path id="パス_2731" data-name="パス 2731" d="M514.556,437.72q.006,2.9.014,5.8a2.68,2.68,0,0,1-.648,2.143.523.523,0,0,1-.281-.566c-.434-.817-.04-1.81-.551-2.61a1.008,1.008,0,0,1,0-.772c.542-.977.189-2.04.3-3.06a2.149,2.149,0,0,1,.247-1.012A.69.69,0,0,1,514.556,437.72Z" transform="translate(-9.671 -2.555)" fill="#fdfcfa"/>
    <path id="パス_2732" data-name="パス 2732" d="M513.049,443.506a2.573,2.573,0,0,1,.551,2.61c-.688-.407-.571-1.188-.832-1.793Q512.909,443.915,513.049,443.506Z" transform="translate(-9.63 -3.573)" fill="#d0d0d0"/>
    <path id="パス_2733" data-name="パス 2733" d="M514.658,435.547h-.71c-.253-.138-.363-.306-.329-.5s.089-.319.158-.319l.273.043a6.916,6.916,0,0,0,.453-1.1c.991-3.8,2.917-6.853,6.714-8.413,3.543-.409,7.07-.976,10.649-.162a10.973,10.973,0,0,1,4.359,1.734,2.461,2.461,0,0,0,.994.611.582.582,0,0,1,.587.333,1.564,1.564,0,0,1-1.436.472c-4.318-1.486-8.549-.428-12.755.494a18.076,18.076,0,0,0-4.852,1.525c-1.819.982-3.382,2.019-3.434,4.367C515.324,434.94,514.893,435.241,514.658,435.547Z" transform="translate(-9.773 -0.381)" fill="#f9f9f8"/>
    <path id="パス_2734" data-name="パス 2734" d="M541.836,427.87a1.017,1.017,0,0,1-.995-.611,3.086,3.086,0,0,1,.742-.032A1.469,1.469,0,0,1,541.836,427.87Z" transform="translate(-14.39 -0.811)" fill="#f7e7d0"/>
    <path id="パス_2735" data-name="パス 2735" d="M514.564,435.5a1.046,1.046,0,0,1-.453,1.1,3.305,3.305,0,0,1-.14-.735A1.476,1.476,0,0,1,514.564,435.5Z" transform="translate(-9.834 -2.216)" fill="#f7e7d0"/>
    <path id="パス_2736" data-name="パス 2736" d="M513.647,438.494c.211,1.193.354,2.376-.551,3.388q-.015-1.492-.03-2.984A.467.467,0,0,1,513.647,438.494Z" transform="translate(-9.681 -2.722)" fill="#d0d0d0"/>
    <path id="パス_2737" data-name="パス 2737" d="M513.64,438.2a1.594,1.594,0,0,0-.581.4,1.74,1.74,0,0,1,.618-1.834c.057.274.114.549.171.823A.547.547,0,0,0,513.64,438.2Z" transform="translate(-9.673 -2.431)" fill="#252525"/>
    <path id="パス_2738" data-name="パス 2738" d="M463.851,447.367a.817.817,0,0,1-.775.59Z" transform="translate(-1.205 -4.227)" fill="#222"/>
    <path id="パス_2739" data-name="パス 2739" d="M457.946,454.1q.015,2.78.03,5.561A5.268,5.268,0,0,1,457.946,454.1Z" transform="translate(-0.203 -5.369)" fill="#212121"/>
    <path id="パス_2740" data-name="パス 2740" d="M500.456,484.24a2.848,2.848,0,0,0,3.093-2.39,7.607,7.607,0,0,1,4.83-5.272c1.952-.8,3.545-.523,4.839,1.182-.345.989-.7,1.975-1.031,2.969a17.537,17.537,0,0,1-4.1,6.638c-3.58,3.75-3.668,3.761-5.228-1.349C502.452,484.691,501.055,485.088,500.456,484.24Z" transform="translate(-7.543 -9.107)" fill="#e0bf91"/>
    <path id="パス_2741" data-name="パス 2741" d="M474.584,461.486a1.26,1.26,0,0,1,1.541-1.305,4.318,4.318,0,0,1,2.9,6c-.1.188-.432.255-.658.379a1.882,1.882,0,0,1-1.174-1.075C477.488,463.387,475.171,463,474.584,461.486Z" transform="translate(-3.156 -6.396)" fill="#292623"/>
    <path id="パス_2742" data-name="パス 2742" d="M518.553,485.242c-.2.289-.323.663-.488.681-2.02.226-3.133,1.641-4.241,3.1a.705.705,0,0,1-.673.11c-.243-.253-.578-.673-.511-.931a4.584,4.584,0,0,1,5.172-3.711C518.1,484.533,518.317,484.991,518.553,485.242Z" transform="translate(-9.607 -10.512)" fill="#2e2109"/>
    <path id="パス_2743" data-name="パス 2743" d="M484.368,485.8c1.623-.15,2.7.95,3.661,2.24a.947.947,0,0,1-.017,1.085c-.259.492-.7.338-.992.144a10.409,10.409,0,0,0-3.343-1.977c-.131-.03-.235-.432-.248-.667C483.4,486.136,483.813,486.013,484.368,485.8Z" transform="translate(-4.656 -10.742)" fill="#302309"/>
    <path id="パス_2744" data-name="パス 2744" d="M474.407,461.757a11.442,11.442,0,0,1,1.443.549c1.472.79,1.659,1.389,1.163,3.447q-1.736-1.964-3.475-3.925Z" transform="translate(-2.979 -6.667)" fill="#decaa8"/>
    <path id="パス_2745" data-name="パス 2745" d="M499.828,471.919a7.26,7.26,0,0,1,.387-1.177c.07-.145.429-.175.663-.209.1-.014.294.082.308.156.292,1.478.582,2.957.816,4.445.026.162-.267.5-.453.536a1.023,1.023,0,0,1-.693-.287C499.841,474.549,499.793,473.385,499.828,471.919Z" transform="translate(-7.435 -8.155)" fill="#050505"/>
    <path id="パス_2746" data-name="パス 2746" d="M531,442.352a6.9,6.9,0,0,0-.406-.621c-.34-.419-.549-.89-.071-1.281a1.508,1.508,0,0,1,1-.192,4.73,4.73,0,0,1,1.052.345c.477,1.045,1,2.07,1.409,3.141a1.833,1.833,0,0,1-.247,1.831,1.093,1.093,0,0,1-.6.428.728.728,0,0,1-.625-.282,16.037,16.037,0,0,1-.574-1.82C531.773,443.3,531.719,442.622,531,442.352Z" transform="translate(-12.593 -3.02)" fill="#3e3831"/>
    <path id="パス_2747" data-name="パス 2747" d="M537.56,476.359a4.315,4.315,0,0,1,2.317.2c.468.262.943.556.922,1.141a.809.809,0,0,1-1.051.819,3.356,3.356,0,0,0-2.605.612,2.033,2.033,0,0,1-1.887.041C535.4,477.721,536.619,477.153,537.56,476.359Z" transform="translate(-13.443 -9.132)" fill="#3c3429"/>
    <path id="パス_2748" data-name="パス 2748" d="M547.269,442.067c.071-.194.189-.555.34-.9a.369.369,0,0,1,.268-.2c.239.022.566.025.689.174a1.913,1.913,0,0,1,.478.993,3.941,3.941,0,0,0,1.2,2.761c.36.345.583.891-.035,1.281a1.219,1.219,0,0,1-1.433-.13C547.485,445.1,547.246,443.722,547.269,442.067Z" transform="translate(-15.479 -3.141)" fill="#2e281f"/>
    <path id="パス_2749" data-name="パス 2749" d="M556.238,461.707c-.464,1.328-1.913,2.15-1.907,3.75,0,.2-.614.586-.881.539a1.427,1.427,0,0,1-.8-.779,2.69,2.69,0,0,1,.315-2.282,2.309,2.309,0,0,1,1.35-1.369C554.971,461.448,555.635,461.155,556.238,461.707Z" transform="translate(-16.366 -6.603)" fill="#362e24"/>
    <path id="パス_2750" data-name="パス 2750" d="M556.61,461.615l-1.918-.141C555.829,460.606,555.973,460.617,556.61,461.615Z" transform="translate(-16.738 -6.512)" fill="#3b3227"/>
    <path id="パス_2751" data-name="パス 2751" d="M498.4,458.675c.905.058,1.815.091,2.714.2.141.017.335.383.334.585s-.178.587-.331.616a6.153,6.153,0,0,1-4.535-.4C496.548,458.173,497.447,458.371,498.4,458.675Z" transform="translate(-6.886 -6.108)" fill="#060606"/>
    <path id="パス_2752" data-name="パス 2752" d="M498.141,458.23c-.593.357-1.56.037-1.819,1-1.457-.48-1.47-1.547-1.036-2.718a1.172,1.172,0,0,1,.792-.672c.3-.024.862.276.9.507A2.791,2.791,0,0,0,498.141,458.23Z" transform="translate(-6.624 -5.664)" fill="#494949"/>
  </g>
</svg>
