<svg xmlns="http://www.w3.org/2000/svg" width="109.304" height="54.579" viewBox="0 0 109.304 54.579">
  <g id="とうもろこし" transform="translate(-68.99 -603.835)">
    <path id="パス_2635" data-name="パス 2635" d="M185.72,624.467c.258,1.04.555,2.073.768,3.122.456,2.249.02,3.365-2.012,4.489-1.884,1.044-3.857,1.936-5.824,2.821a10.178,10.178,0,0,0-2.207,1.173c-.814.638-.333,1.264-.087,1.911-1.913.828-2.627-.416-3.223-1.862.234-2.369,3.056-2.6,3.545-4.394a9.7,9.7,0,0,1-2.691,2.476,4.188,4.188,0,0,1-1.468.452,1.093,1.093,0,0,1-.794-.566c-.445-2.422,1.383-4.536.947-7.162-4.068,1.389-7.509,4.246-11.87,4.674-3.626-.125-6.849-1.726-10.182-2.861a26.832,26.832,0,0,0-6.852-1.6c-3.208-.762-4.706-3.471-6.5-5.8-1.409-1.83-.785-2.931,1.377-3.612,3.741-1.18,7.541-.561,11.317-.645a10.865,10.865,0,0,0,3.785.66,14.656,14.656,0,0,1,2.079.1,10.72,10.72,0,0,0,2.344.62,7.087,7.087,0,0,1,1.385.152,1.944,1.944,0,0,1,.605.2c-.037-.021.13-.182.13-.182a2.443,2.443,0,0,0-.223-.12,11.365,11.365,0,0,0-1.464-.1,5.059,5.059,0,0,1-1.407-.245,6.349,6.349,0,0,0-3.146-.446c-5.072-.674-10.295-1.817-15.162.079-3.77,1.468-7.206-.137-10.776.184-1.208-.111-2.517.006-3.183-1.364,1.915-3.23,5.5-2.346,8.307-3.39a11.466,11.466,0,0,0,2.7-.427,10.918,10.918,0,0,1,2.128-.3,10.486,10.486,0,0,0,3.142-.479,12.446,12.446,0,0,1,2.731-.3,13.169,13.169,0,0,0,4.373-.446c3.322-.471,6.679-.445,10.02-.888,6.424-.851,12.08,1.623,17.138,5.279a10.948,10.948,0,0,1,4.707,9.632C182.013,624.537,183.631,622.886,185.72,624.467Z" transform="translate(-13.842 -1.581)" fill="#cfea81"/>
    <path id="パス_2636" data-name="パス 2636" d="M149.723,620.7l-1.343-.18c-.742-.451-1.639-.132-2.4-.486l-1.935-.224c-1.2-.634-2.587.064-3.792-.529-2.383,0-4.767-.02-7.15,0a17.541,17.541,0,0,0-5.916,1.037,16.767,16.767,0,0,0,6.679,7.567c4.531,1.714,8.895,3.8,13.249,5.91a16.8,16.8,0,0,1,2.118,1.275c3.276,2.315,6.657,3.495,10.485,1.219a3.564,3.564,0,0,1,2.388-.478.981.981,0,0,0,.677-.19,1.484,1.484,0,0,0,.722-.522,11.977,11.977,0,0,0,3.77-4.174c.242-.409.65-.776,1.114-.448a.988.988,0,0,1,.123,1.3,11.466,11.466,0,0,1-2.572,3.369c-.786.71-1.614,1.375-2.423,2.061a2.755,2.755,0,0,1-1.139,1.4,7.221,7.221,0,0,1-.809.474,7.383,7.383,0,0,1-.887.384c-.957.4-2.383.695-.568,1.88,1.251.817,2.566,1.535,3.833,2.327a57.618,57.618,0,0,1,7.532,4.4c.415.281.831.561,1.251.842a3.786,3.786,0,0,1,.794.7,1.172,1.172,0,0,1,.022,1.529c-1.2.926-2.622.737-3.993.818q-5.546.014-11.086.009a17.184,17.184,0,0,1-8.61-2.11c-1.7-.87-3.459-1.649-5.13-2.577-5.17-2.872-10.292-2.551-15.418.073-1.075.294-2.113.709-3.179,1.038-4.324,1.331-8.458,3.406-13.136,3.364-.769-.181-1.483-.433-1.644-1.352a2.5,2.5,0,0,1,2.139-1.661c4.433-.973,8.674-2.589,13-3.893.316-.132.643-.244.966-.353.3-.133.617-.249.927-.368.3-.136.6-.249.907-.357.671-.293,1.348-.6.459-1.393a15,15,0,0,1-2.382-2.474,23.219,23.219,0,0,1-4.513-13.5c-.293-5.347-.982-5.91-6-4.931a95.955,95.955,0,0,0-14.471,4.063,69.742,69.742,0,0,0-13.437,5.217,6.216,6.216,0,0,1-3.39,1.091c-.572-.187-1.023-.456-.773-1.182.326-1.394,1.47-2.138,2.437-3a38.084,38.084,0,0,1,10.335-6.33c1.526-.665,3.04-1.355,4.56-2.034A21.729,21.729,0,0,1,112.2,616.1c.988.123,1.988.232,2.429,1.342-.538,1.286-1.722,1.434-2.888,1.757a130.1,130.1,0,0,0-15.927,5.233,12.3,12.3,0,0,1-1.75.777,2.827,2.827,0,0,0-1.283.642,1.188,1.188,0,0,1-.091.2s.181-.161.2-.179a3.069,3.069,0,0,1,1.053-.576,14.094,14.094,0,0,0,2.255-.967c7.155-2.611,14.221-5.54,21.991-5.8q1.8-.033,3.6-.064c.873-.015,1.659.085,2.064,1.057.24.574.751.479,1.173.186,2.173-1.509,4.686-1.795,7.207-1.915a47.016,47.016,0,0,1,12.543.765c.927.595,2.083-.044,3.01.556l1.315.137c.731.518,1.637.175,2.408.494.393.162.71.362.434.861A2,2,0,0,1,149.723,620.7Z" transform="translate(-3.889 -3.035)" fill="#0b0d07"/>
    <path id="パス_2637" data-name="パス 2637" d="M109.482,661.493c2.76-.172,5.31-1.2,7.923-1.966,1.592-.466,3.167-.99,4.75-1.489,1.179,1.373.122,2.338-.612,3.361-1.982,4.008-5.291,6.418-9.406,7.9a36.918,36.918,0,0,1-7.329,1.8,57.514,57.514,0,0,1-23.564-1.081,33.2,33.2,0,0,1-6.658-2.708,11.133,11.133,0,0,1-5.294-5.2,2.939,2.939,0,0,1,2.194-2.73,3.459,3.459,0,0,1,1.069,0c2.457,1.312,5.137,2.134,7.618,3.4,1.135.74,2.409.435,3.639.479,2.565,0,5.126-.011,7.686-.01,1.726-.039,3.471.2,5.165-.337a12.071,12.071,0,0,1,2.758-.312,9.829,9.829,0,0,0,3.086-.341,9.712,9.712,0,0,1,1.5-.283,18.421,18.421,0,0,0,2.471-.449C107.48,661.4,108.486,661.959,109.482,661.493Z" transform="translate(-0.075 -13.411)" fill="#f6b429"/>
    <path id="パス_2638" data-name="パス 2638" d="M143.2,655.893a48.354,48.354,0,0,1,6.645-2.541,4.4,4.4,0,0,1,2.441,0,30.738,30.738,0,0,1,10.614,4.024c2.786,1.666,5.7,2.967,9.054,2.873,3.968.64,7.963.109,11.941.281a7.776,7.776,0,0,1,1.821.114c.529.926-.049,1.172-.8,1.283-.883.131-1.819-.184-2.66.315a60.764,60.764,0,0,1-22.383,3.082c-4.2-.267-8.406-.5-12.613-.616a2.236,2.236,0,0,1-2.3-1.829c-.37-1.144-.7-2.3-1.043-3.454C143.307,658.319,142,657.359,143.2,655.893Z" transform="translate(-18.24 -12.207)" fill="#a5d764"/>
    <path id="パス_2639" data-name="パス 2639" d="M117.838,613.915c-2.518.166-4.831,1.176-7.244,1.775a8.488,8.488,0,0,1-2.763.587c.175-.306.278-.71.538-.9a39.332,39.332,0,0,1,14.429-7.118c5.012-1.181,10.016-2.431,15.074-3.375a46.721,46.721,0,0,1,12.166-.951c5.6.431,10.869,1.847,15.4,5.345a6.845,6.845,0,0,1,.921,1.069,2.009,2.009,0,0,1-2.355.039c-4.345-1.992-8.807-1.562-13.394-1.014-3.665.439-7.375.683-11.062,1-1.32.048-2.68-.192-3.921.5a7.783,7.783,0,0,1-2.172.217l-1.072.014c-.935-.069-1.706.537-2.6.643C125.737,612.092,121.931,613.791,117.838,613.915Z" transform="translate(-9.61)" fill="#cee981"/>
    <path id="パス_2640" data-name="パス 2640" d="M141.49,611.844l1.835-.175c1.262-.521,2.675.1,3.924-.522,4.739-.487,9.474-1.018,14.219-1.449,4.325-.392,8.581-.186,12.523,1.962a2.012,2.012,0,0,0,.7.093l.053.03c3.454,1.439,7.124,1.072,10.724,1.286A7.289,7.289,0,0,1,189.43,617a23.114,23.114,0,0,1,1.917,5.375c.206.975.023,1.163-1.537,1.926-.582.1-1.159.248-1.744.307-1.708.175-3.286.52-3.956,2.409a.359.359,0,0,1-.607.119,2.433,2.433,0,0,1-.461-.5.523.523,0,0,1-.014-.352c1.107-5.29-1.6-8.844-5.717-11.3-5.118-3.053-10.7-4.707-16.8-3.622a37.439,37.439,0,0,1-7.849.534c-1.514.564-3.168-.135-4.672.522l-2.647.188a7.835,7.835,0,0,1-2.854.244C141.871,612.794,141.344,612.654,141.49,611.844Z" transform="translate(-17.932 -1.411)" fill="#12140d"/>
    <path id="パス_2641" data-name="パス 2641" d="M196.76,658.783l-1.79-.241a.459.459,0,0,1,.439-.5c.835.013,1.67.049,2.5.03a.836.836,0,0,0,.893-.876,9.3,9.3,0,0,0-.737-.671.488.488,0,0,0-.462-.186,1.719,1.719,0,0,1-.981-.544l-7.834-4.592c-1.5-1.59-2.986-3.183-2.392-5.658l.015,0a1.4,1.4,0,0,0,.79-.649,2.458,2.458,0,0,1,1.438-.741,3.524,3.524,0,0,0,2.889,2.223A61.1,61.1,0,0,1,201,653.33a11.594,11.594,0,0,1,2.842,3.162C202.138,659.291,199.661,659.691,196.76,658.783Z" transform="translate(-29.016 -9.976)" fill="#a5d664"/>
    <path id="パス_2642" data-name="パス 2642" d="M198.983,662.839a16.752,16.752,0,0,0,7.081-2.291,14.179,14.179,0,0,1,3.469,5.734c-4.993-.79-9.558-2.076-14.279-2.219a1.813,1.813,0,0,1,1.5-.629A3.166,3.166,0,0,0,198.983,662.839Z" transform="translate(-31.24 -14.032)" fill="#cfea84"/>
    <path id="パス_2643" data-name="パス 2643" d="M196.4,613.326a7.843,7.843,0,0,0-4.416,1.185,1.521,1.521,0,0,1-1.671.085c-1.538-.865-3.091-1.706-4.637-2.556.314-.136.856-.219.9-.419.208-.886.752-1.059,1.553-1.052A13.517,13.517,0,0,1,196.4,613.326Z" transform="translate(-28.871 -1.666)" fill="#cae383"/>
    <path id="パス_2644" data-name="パス 2644" d="M81.966,635.469l.939.882c-1.431,3.751-4.847,6.054-6.84,9.4a2.623,2.623,0,0,1-1.731.885,1.188,1.188,0,0,1-.991-.967C75.833,641.94,78.144,638.065,81.966,635.469Z" transform="translate(-1.077 -7.827)" fill="#222"/>
    <path id="パス_2645" data-name="パス 2645" d="M72.637,649.018l.823.957c.595,1.908-1.249,4.122.741,5.852a1.747,1.747,0,0,1,.12.95c-.319.763-1.075.566-1.658.752a4.85,4.85,0,0,0-.553-.029,2.035,2.035,0,0,1-1.527-2.042A7.474,7.474,0,0,1,72.637,649.018Z" transform="translate(-0.37 -11.179)" fill="#221c11"/>
    <path id="パス_2646" data-name="パス 2646" d="M142.215,656.785q.357,1.764.712,3.528a2.033,2.033,0,0,0-1.964-.07,21.036,21.036,0,0,1-2.243.845q.307-1.681.613-3.362C140.275,657.356,141.124,656.7,142.215,656.785Z" transform="translate(-17.252 -13.099)" fill="#f0e3b5"/>
    <path id="パス_2647" data-name="パス 2647" d="M70.213,657.574l1.528,2.043A6.076,6.076,0,0,0,69.218,662c-.08-.087-.23-.177-.228-.261C69.029,660.245,69.021,658.731,70.213,657.574Z" transform="translate(0 -13.296)" fill="#e8d7a4"/>
    <path id="パス_2648" data-name="パス 2648" d="M182.531,639.3c-1.857,1.6-4.211,2.077-6.446,2.8a2.9,2.9,0,0,1-2.4-.354c-2.149-1.255-4.469-2.222-6.424-3.806.788-2.241,2.968-1.536,4.528-2.142,4.393-1.228,8.244-3.711,12.689-5.61A34.163,34.163,0,0,1,182.531,639.3Z" transform="translate(-24.313 -6.522)" fill="#6f9d30"/>
    <path id="パス_2649" data-name="パス 2649" d="M167.524,636.179,163,638.321c-4.444-1.95-9.046-3.589-12.968-6.572a11.929,11.929,0,0,1,5.9.982c2.839,1.212,5.831,2.076,8.783,3.007A18.234,18.234,0,0,0,167.524,636.179Z" transform="translate(-20.05 -6.895)" fill="#a2d262"/>
    <path id="パス_2650" data-name="パス 2650" d="M98.316,624.779c4.271-2.406,8.944-3.739,13.609-5.087,1.933-.558,3.879-1.073,5.819-1.607a.593.593,0,0,1,.774.184c.817,1.036,2.039.415,3.031.741-1.4.833-3.026.689-4.535,1.049-5.508,1.316-10.8,3.316-16.193,4.984-.571.177-1.155.315-1.733.47C98.308,625.818,98.183,625.434,98.316,624.779Z" transform="translate(-7.244 -3.508)" fill="#b8d173"/>
    <path id="パス_2651" data-name="パス 2651" d="M124.174,616.929l-.774-.184c-.6-.774-1.5-.479-2.271-.661a51.958,51.958,0,0,1,12.084-2.91c.792-.355,1.715-.087,2.491-.522l.755-.05.712.668q.35.2.232.4c-.078.132-.157.2-.236.2l-1.927.193c-.741.414-1.638.094-2.379.507Z" transform="translate(-12.9 -2.169)" fill="#1e2214"/>
    <path id="パス_2652" data-name="パス 2652" d="M150.131,613.132c1.446-1.157,3.094-.513,4.671-.522A9.278,9.278,0,0,1,150.131,613.132Z" transform="translate(-20.076 -2.129)" fill="#212515"/>
    <path id="パス_2653" data-name="パス 2653" d="M158.514,620.273c1.3-.1,2.648-.506,3.792.529A7,7,0,0,1,158.514,620.273Z" transform="translate(-22.15 -4.027)" fill="#272c19"/>
    <path id="パス_2654" data-name="パス 2654" d="M142.438,614.089c0-.2,0-.4,0-.6l3.138.091A5.268,5.268,0,0,1,142.438,614.089Z" transform="translate(-18.172 -2.389)" fill="#212515"/>
    <path id="パス_2655" data-name="パス 2655" d="M167.535,619.909c-1.057.1-2.143.37-3.01-.556A4.243,4.243,0,0,1,167.535,619.909Z" transform="translate(-23.637 -3.823)" fill="#272c19"/>
    <path id="パス_2656" data-name="パス 2656" d="M172.679,620.765a2.161,2.161,0,0,1-2.408-.494A2.724,2.724,0,0,1,172.679,620.765Z" transform="translate(-25.058 -4.048)" fill="#343a21"/>
    <path id="パス_2657" data-name="パス 2657" d="M136.716,615.029c.665-.764,1.539-.556,2.379-.507A3.722,3.722,0,0,1,136.716,615.029Z" transform="translate(-16.756 -2.628)" fill="#212515"/>
    <path id="パス_2658" data-name="パス 2658" d="M166.124,621.282a2.206,2.206,0,0,1,2.4.486A2.93,2.93,0,0,1,166.124,621.282Z" transform="translate(-24.032 -4.283)" fill="#272c19"/>
    <path id="パス_2659" data-name="パス 2659" d="M171.1,622.183l2.22-.087C172.619,623.212,171.853,622.553,171.1,622.183Z" transform="translate(-25.263 -4.518)" fill="#343a21"/>
    <path id="パス_2660" data-name="パス 2660" d="M189.173,641.35a.6.6,0,0,1-.723.522A.6.6,0,0,1,189.173,641.35Z" transform="translate(-29.556 -9.281)" fill="#6f9d30"/>
    <path id="パス_2661" data-name="パス 2661" d="M75.23,653.564a1.773,1.773,0,0,1-.184-.587c1.72-3.16,4.92-3.9,7.971-4.893,2.28.875,2.78,2.526,2.028,4.756,3.1.542,5.726-2.5,8.9-1.173,3.353-1.355,6.5-2.866,10.5-1.977,1.244.276,3.606-1.7,5.662-2.168,1.93-.439,3.817-1.03,5.039-1.3-2.327,1.035-4.766.709-6.5-2.44-1.092-1.982-1-3.427,1.275-4.251a9.1,9.1,0,0,0,3.568-2.3c8.6-3.528,6.6-2.182,9.359,4.2a22.914,22.914,0,0,1,1.849,8.7,84.767,84.767,0,0,1-12.807,4.132c-.915.237-1.819.521-2.728.783a6.862,6.862,0,0,1-4.039,1.4,6.505,6.505,0,0,0-2.61.6,13.961,13.961,0,0,1-2.209.123,10.057,10.057,0,0,0-3.929.668c-6.115.074-12.275.622-18.088-2.056C77.095,655.238,75.725,655.033,75.23,653.564Z" transform="translate(-1.498 -7.791)" fill="#f6b329"/>
    <path id="パス_2662" data-name="パス 2662" d="M76.049,643.116a47.346,47.346,0,0,1,7.524-9.234,50.15,50.15,0,0,1,16.273-6.588c4.226-.723,8.352-2.195,12.74-1.708a9.823,9.823,0,0,1,4.455,1.275c.84,1.886-.756,1.94-1.741,1.985-3.834.176-7.408,1.514-11.1,2.291-2.228,2.332-4.625,4.049-7.976,2.127-.825.054-1.012.86-1.512,1.3a3.125,3.125,0,0,1-.745.5,31.55,31.55,0,0,1-3.84,1.341,4.04,4.04,0,0,1-1.534-.342,1.992,1.992,0,0,1-.308,0s-.266.172-.254.19c-.026.247-.05.477-.059.725a1.822,1.822,0,0,1-.374.737,13.1,13.1,0,0,1-4.5,2.3,4.143,4.143,0,0,0-1.7.387,8.632,8.632,0,0,1-3.979,3.437C76.817,644.045,75.97,644.377,76.049,643.116Z" transform="translate(-1.745 -5.358)" fill="#fbfbf9"/>
    <path id="パス_2663" data-name="パス 2663" d="M111.719,630.71a12.236,12.236,0,0,0,4.142-.832,22.6,22.6,0,0,1,8.318-1.44,2.137,2.137,0,0,0,1.945-.619c1.941-1.117,3.261-.207,4.385,1.343-.092,5.072,1.924,9.44,4.534,13.61.221,1.509,1.711,2.862.558,4.54l.02-.02c-.244.181-.494.355-.75.519l-1.1.339a1.509,1.509,0,0,1-1.073-1.282,44.048,44.048,0,0,0-3.086-11.36,14.7,14.7,0,0,0-.854-1.586l-6.206,2.1c-1.267.966-2.847,1.209-4.257,1.845-1.672.753-2.742.132-3.459-1.422-.817-1.775-.407-3,.917-3.411.163-.039.9-.261.708-.211C114.288,633.378,112.1,634.153,111.719,630.71Z" transform="translate(-10.572 -5.811)" fill="#f4e6b7"/>
    <path id="パス_2664" data-name="パス 2664" d="M157.731,644.037c-1.826.511-3.661.991-5.477,1.538-3.074.928-5.587-.077-7.737-2.236a7.622,7.622,0,0,1-1.9-2.954,10.609,10.609,0,0,0,.251-1.591c.379-2.481-.326-5.237,1.85-7.258,3.74,2.841,8.06,4.622,12.217,6.7.266.195.443.526.826.542l.039.026C156.734,640.536,158.03,642.3,157.731,644.037Z" transform="translate(-18.216 -6.854)" fill="#a4d663"/>
    <path id="パス_2665" data-name="パス 2665" d="M162.049,646.427c-.269-.509-.578-1-.8-1.534-.337-.818-1.544-1.345-1.078-2.378.321-.712,1.519-.522,1.944-1.318,2.282.789,4.256,2.2,6.426,3.189,1.284.585,1.047,2.181,2.147,2.615.971.382,2.134-.126,3.144.511,1.421.9,2.908,1.69,4.354,2.548a37.656,37.656,0,0,1,5.491,3.389c.264,1.516-.966,1.638-1.784,1.5-6.25-1.065-12.415-2.427-17.528-6.551a1.294,1.294,0,0,1-.278-.649C164.072,646.283,162.951,646.525,162.049,646.427Z" transform="translate(-22.534 -9.244)" fill="#6f9c30"/>
    <path id="パス_2666" data-name="パス 2666" d="M163.929,649.9a56.806,56.806,0,0,0,17.054,6.313c.937.208,1.906.479,2.537-.612l3.582,1.572c-.015,1.694-1.325.939-2.1,1.048-1.291.182-2.63-.188-3.908.281h-.275c-1.957-.672-4.046.176-6-.521a24.45,24.45,0,0,1-7.571-3.062,24.1,24.1,0,0,0-6.493-2.9c-.582-.152-1.135-.336-1.336-1.1Z" transform="translate(-22.373 -11.397)" fill="#a1d361"/>
    <path id="パス_2667" data-name="パス 2667" d="M129.507,627.662a13.856,13.856,0,0,0-4.384-1.344c-3.307-.505-6.634-1.188-9.966-.586-2.139.387-4.278.431-6.417.613a6,6,0,0,1-1.066-.1,59.775,59.775,0,0,1,13.966-4.3c1.631-.349,3.314-.452,4.974-.666a1.736,1.736,0,0,1,1.979,1.16A9.066,9.066,0,0,1,129.507,627.662Z" transform="translate(-9.571 -4.311)" fill="#cce680"/>
    <path id="パス_2668" data-name="パス 2668" d="M74.817,659.56a31.753,31.753,0,0,0,15.9,3.547c1.787-.029,3.576,0,5.363,0,1.268-.59,2.724.084,3.979-.591l1.823-.151c.8-.356,1.732-.074,2.506-.541,1.452-.278,2.832-.957,4.365-.786.394.668,1.1.672,1.742.827a4.133,4.133,0,0,1-2.917.676c-.762.4-1.7.041-2.434.559l-1.243.147c-.961.562-2.133-.038-3.088.56a4.526,4.526,0,0,1-2.521.156c-1.757.687-3.676-.145-5.428.579-2.855.416-5.715-.059-8.572.041-1.13-.807-2.6.168-3.719-.716-1.2-.488-2.425-.934-3.6-1.474a9.31,9.31,0,0,1-3.589-2.262A1.62,1.62,0,0,1,74.817,659.56Z" transform="translate(-1.086 -13.787)" fill="#241b07"/>
    <path id="パス_2669" data-name="パス 2669" d="M143.713,629.743c-.344,2.295-1.021,4.543-.865,6.909.026.389-.382.807-.589,1.211-1.263-1.861-1.587-4.074-2.317-6.136-.05-.141.076-.619-.224-.409-.189.132-.21.612-.526.808-.711-2.551-.266-5.165-.639-7.6.452-.319.671-.3.85-.081Q141.559,627.095,143.713,629.743Z" transform="translate(-17.211 -5.06)" fill="#c5df7c"/>
    <path id="パス_2670" data-name="パス 2670" d="M185.172,646.007q1.2,2.829,2.392,5.658c-1.039-.559-2.113-1.062-3.107-1.69-1.139-.721-2.6-1.068-3.159-2.52A7.415,7.415,0,0,1,185.172,646.007Z" transform="translate(-27.787 -10.434)" fill="#6b9630"/>
    <path id="パス_2671" data-name="パス 2671" d="M139.4,634.046l.452-2c1.587,2.566,2.909,4.87,2.614,7.741l-.646.728C140.633,638.5,139.211,636.572,139.4,634.046Z" transform="translate(-17.416 -6.979)" fill="#ece1ae"/>
    <path id="パス_2672" data-name="パス 2672" d="M143.231,652.392a9.607,9.607,0,0,1-.559-4.541c1.23,1.087,2.281,2.386,4.088,2.922C145,652.068,145.006,652.077,143.231,652.392Z" transform="translate(-18.202 -10.89)" fill="#a3c968"/>
    <path id="パス_2673" data-name="パス 2673" d="M194.247,662.553c-.153.159-.3.325-.438.5-2.816.007-5.632.039-8.447.011a7.48,7.48,0,0,1-3.79-.539A122.967,122.967,0,0,1,194.247,662.553Z" transform="translate(-27.855 -14.483)" fill="#232d15"/>
    <path id="パス_2674" data-name="パス 2674" d="M188.219,660.9c1.486-.648,3.077-.288,4.611-.473.6-.072,1.194-.14,1.4-.856a2.287,2.287,0,0,1,.353.047c.346.1.716.254.705.662a.7.7,0,0,1-.669.679A32.792,32.792,0,0,1,188.219,660.9Z" transform="translate(-29.499 -13.789)" fill="#232d15"/>
    <path id="パス_2675" data-name="パス 2675" d="M179.88,660.637a19.193,19.193,0,0,1,6,.521c-1.487.04-2.975.089-4.464.116A1.953,1.953,0,0,1,179.88,660.637Z" transform="translate(-27.436 -14.051)" fill="#232d15"/>
    <path id="パス_2676" data-name="パス 2676" d="M97.771,627l.772.734a3.364,3.364,0,0,1-2.217.862.543.543,0,0,1-.026-.907Z" transform="translate(-6.7 -5.732)" fill="#8b9f57"/>
    <path id="パス_2677" data-name="パス 2677" d="M95.822,627.919l.026.906a1.811,1.811,0,0,1-1.487.6q-.316-.277-.19-.524c.082-.161.161-.241.238-.241Z" transform="translate(-6.221 -5.959)" fill="#78884b"/>
    <path id="パス_2678" data-name="パス 2678" d="M94.156,628.9c-.016.254-.032.51-.048.765-.254.412-.564.729-.988.247-.06-.069.244-.522.445-.736A1.781,1.781,0,0,1,94.156,628.9Z" transform="translate(-5.968 -6.201)" fill="#464e2c"/>
    <path id="パス_2679" data-name="パス 2679" d="M162.468,640.983a.772.772,0,0,1-.826-.542A.708.708,0,0,1,162.468,640.983Z" transform="translate(-22.924 -9.056)" fill="#6f9c30"/>
    <path id="パス_2680" data-name="パス 2680" d="M187.255,645.14a.846.846,0,0,1-.789.649A.735.735,0,0,1,187.255,645.14Z" transform="translate(-29.065 -10.219)" fill="#6b9630"/>
    <path id="パス_2681" data-name="パス 2681" d="M142.482,654.371c.1-.391.323-.6.75-.519C143.177,654.307,142.9,654.442,142.482,654.371Z" transform="translate(-18.183 -12.371)" fill="#a3c968"/>
    <path id="パス_2682" data-name="パス 2682" d="M200.032,659.627a1.018,1.018,0,0,1,.98.544A.984.984,0,0,1,200.032,659.627Z" transform="translate(-32.422 -13.804)" fill="#232d15"/>
    <path id="パス_2683" data-name="パス 2683" d="M201.949,660.6c.445,0,.717.2.737.671Z" transform="translate(-32.896 -14.044)" fill="#232d15"/>
    <path id="パス_2684" data-name="パス 2684" d="M99.268,665.977a1.968,1.968,0,0,1,1.566-.635c1.286.014,2.572.038,3.86.056C102.956,666.245,101.107,666.064,99.268,665.977Z" transform="translate(-7.491 -15.218)" fill="#281d08"/>
    <path id="パス_2685" data-name="パス 2685" d="M82.937,665.289a7.644,7.644,0,0,1,3.719.716C85.4,665.866,83.979,666.553,82.937,665.289Z" transform="translate(-3.451 -15.205)" fill="#f6b329"/>
    <path id="パス_2686" data-name="パス 2686" d="M109.83,665c.887-.967,2.025-.55,3.087-.56A5,5,0,0,1,109.83,665Z" transform="translate(-10.104 -14.974)" fill="#281d08"/>
    <path id="パス_2687" data-name="パス 2687" d="M115.584,664.064c.661-.838,1.567-.611,2.432-.559A3.37,3.37,0,0,1,115.584,664.064Z" transform="translate(-11.528 -14.747)" fill="#281d08"/>
    <path id="パス_2688" data-name="パス 2688" d="M147.86,611.655c-1.188,1.068-2.587.552-3.922.521A6.707,6.707,0,0,1,147.86,611.655Z" transform="translate(-18.543 -1.918)" fill="#212515"/>
    <path id="パス_2689" data-name="パス 2689" d="M139.676,612.654c-.7.811-1.614.561-2.49.522A3.449,3.449,0,0,1,139.676,612.654Z" transform="translate(-16.873 -2.171)" fill="#212515"/>
    <path id="パス_2690" data-name="パス 2690" d="M202.947,623.922a5.474,5.474,0,0,1-2.716.993c-1.694.333-1.793.281-2.4-1.591a16.307,16.307,0,0,0-2.492-4.722c-.562-.755-.357-1.243.523-1.67,2.041-.988,3.311-.7,4.619,1.145A16.889,16.889,0,0,1,202.947,623.922Z" transform="translate(-31.183 -3.102)" fill="#c8e27d"/>
    <path id="パス_2691" data-name="パス 2691" d="M75.194,647.546c.245.286.543.484.907.275,1.763-1.008,3.413-2.127,3.988-4.257.021-.079.2-.115.3-.171,1.327,2.187,3.083,4.235,2.305,7.1a56.041,56.041,0,0,0-8.261,4.475c-2.122-1.9-2.166-2.006-1.39-4.112.284-.769.619-1.519.932-2.278Z" transform="translate(-0.89 -9.788)" fill="#f4e6b7"/>
    <path id="パス_2692" data-name="パス 2692" d="M106.633,631.824c.421.411.871.8,1.258,1.24a1.75,1.75,0,0,0,1.93.515q1.894-.484,3.8-.932a.74.74,0,0,1,.857.442.623.623,0,0,1-.345.865c-.772.3-1.571.526-2.369.744-.679.184-1.428.191-1.942.92a7.689,7.689,0,0,0,1.561,3.089c2.064-.4,3.853-1.889,6.088-1.574.061.622.054,1.2-.7,1.442-1.139.376-2.289.731-3.395,1.188-1.088.449-1.251,1.053-.638,1.935.2.3.437.574.661.857,2.255,2.861,2.256,2.862,5.92,1.927.465-.118.92-.3,1.391-.376.7-.116,1.429-.35,2.058.211.327.292-.62.993-1.761,1.311-3.241.9-6.478,1.818-9.72,2.718-.565.157-1.288.1-1.539.73a4.7,4.7,0,0,0-.048,1.4,2.716,2.716,0,0,1-.141.685c-.035.106-.152.268-.224.264-.223-.012-.541-.019-.644-.159a6.269,6.269,0,0,1-.67-1.237,1.232,1.232,0,0,0-1.436-.8c-1.9.3-3.786.671-5.687.957-1.217.183-1.633.8-1.376,1.99a.6.6,0,0,1-.511.781.785.785,0,0,1-.829-.529,6.493,6.493,0,0,1-.251-1.037c-.7-1.18-2.468.246-3.04-1.247,1.264-2.86-.275-3.983-2.792-4.5.506-2.533.952-5.063-.561-7.445l-.005-.011a.957.957,0,0,1-.357-.915c.236-.514.528-.916,1.181-.577l1.167.9a5.249,5.249,0,0,1,2.189,2.28c.974,1.732,2.4,1.7,3.989,1.1.535-.2,1.272-.218,1.412-.907.168-.828-.445-1.273-1.087-1.634-.853-.479-2.281-.191-2.327-1.739-.006-.222.178-.386.427-.49l-.058.047c1.136-.659.716-2.06,1.4-2.935.407.226.942.357,1.2.7a2.028,2.028,0,0,0,2.532.684c.68-.209,1.419-.217,2.1-.409.563-.158.646-.571.385-1.11C105.212,632.2,105.806,631.919,106.633,631.824Z" transform="translate(-5.486 -6.925)" fill="#100d08"/>
    <path id="パス_2693" data-name="パス 2693" d="M93.04,652.793a1.9,1.9,0,0,0,1.525.6,1.277,1.277,0,0,1,1.318.856c-3.192-.2-4.029,0-5.832,1.595-.291.257-.686.556-.895.379-1.24-1.051-2.529-.22-3.793-.218-.19,0-.416-.213-.562-.383-.336-.391-.03-.693.256-.872.589-.368,1.223-.663,1.849-.994a11.517,11.517,0,0,0-1.66-3.262,19.1,19.1,0,0,0-1.9-4.786,3.621,3.621,0,0,1-.4-2.319c.623-.114,1.039.294,1.5.6,1.83.911,1.93,2.877,2.715,4.427.154.283.292.573.435.861.164.278.309.567.453.854C88.685,652.935,91.472,651.724,93.04,652.793Z" transform="translate(-3.437 -9.781)" fill="#1f180c"/>
    <path id="パス_2694" data-name="パス 2694" d="M107.519,663.485c-1.185,1.139-2.636.491-3.977.59A7.4,7.4,0,0,1,107.519,663.485Z" transform="translate(-8.549 -14.752)" fill="#281d08"/>
    <path id="パス_2695" data-name="パス 2695" d="M113.756,662.564c-.692.836-1.623.573-2.5.54A3.5,3.5,0,0,1,113.756,662.564Z" transform="translate(-10.456 -14.522)" fill="#281d08"/>
    <path id="パス_2696" data-name="パス 2696" d="M87.312,648.677l-2.362-5.453c1.681-.982,3.622-1.513,5.051-2.928,1.365,1.049,1.9,2.646,2.672,4.083.422.788.081,1.364-.715,1.649-.733.261-1.246.656-1.208,1.512-.613,1.313-1.545,1.985-3.046,1.519l.038.028A.54.54,0,0,0,87.312,648.677Z" transform="translate(-3.949 -9.021)" fill="#f2e4b6"/>
    <path id="パス_2697" data-name="パス 2697" d="M98.9,637.617c.044.517-.316,1.558.524,1.324,2.121-.59,3.062.391,3.661,2.158.114.336.214.677.354,1.118-1.662.966-3.576,1.132-5.332,1.745-.773.27-1.323-.065-1.693-.85-.656-1.392-1.407-2.741-2.118-4.108C95.79,638.394,97.1,637.177,98.9,637.617Z" transform="translate(-6.262 -8.335)" fill="#eee1b4"/>
    <path id="パス_2698" data-name="パス 2698" d="M101.738,633.81a4.915,4.915,0,0,0-.058,1.389c.3,1.215-.425,1.439-1.34,1.546.19-.659.4-1.313.561-1.979A1.093,1.093,0,0,1,101.738,633.81Z" transform="translate(-7.756 -7.416)" fill="#eee1b4"/>
    <path id="パス_2699" data-name="パス 2699" d="M92.215,638.075l-.892.863c-.239.217-.437.174-.6-.094-.013-.434-.372-.944.147-1.27C91.486,637.188,91.94,637.442,92.215,638.075Z" transform="translate(-5.344 -8.302)" fill="#3b3b3b"/>
    <path id="パス_2700" data-name="パス 2700" d="M90.767,639.322c.2.026.4.056.6.094a.9.9,0,0,1,.068.628A.766.766,0,0,1,90.767,639.322Z" transform="translate(-5.388 -8.78)" fill="#f2e4b6"/>
    <path id="パス_2701" data-name="パス 2701" d="M108.622,650.87c-2.255.974-4.315.951-6.28,1.38-1.567.342-1.711.207-2.342-1.343-1.247-3.063-1.257-3.107,2.1-4,4.074-1.087,3.183-1.383,5.532,2.243C107.946,649.634,108.211,650.153,108.622,650.87Z" transform="translate(-7.482 -10.476)" fill="#f0af28"/>
    <path id="パス_2702" data-name="パス 2702" d="M110.705,645.126c1.47-.251,2.943-.868,4.257-.625,1.4.26,1.787,2.107,2.831,3.077a5.221,5.221,0,0,1,.728,1.116c-.557.967-1.489.936-2.23,1.119-3.186.786-2.928.585-4.341-1.671A4.889,4.889,0,0,1,110.705,645.126Z" transform="translate(-10.321 -10.048)" fill="#edad27"/>
    <path id="パス_2703" data-name="パス 2703" d="M88.61,651.424l3.046-1.519a3.928,3.928,0,0,0,.692.056c2.74-.255,2.777-.234,3.544,2.291.366,1.2.289,1.319-1.434,2.146-.692.12-1.385.224-2.073.36-2.113.418-2.228.382-3.246-1.671A11,11,0,0,1,88.61,651.424Z" transform="translate(-4.854 -11.386)" fill="#e7a928"/>
    <path id="パス_2704" data-name="パス 2704" d="M113.211,640.9c-.628.184-1.3.432-1.984.573-2.77.564-2.925.477-4.135-2.015-.67-1.379-.458-1.73,1.25-2.074,3.5-.705,3.634-.638,4.915,2.693A2.47,2.47,0,0,1,113.211,640.9Z" transform="translate(-9.34 -8.21)" fill="#ebdeb0"/>
    <path id="パス_2705" data-name="パス 2705" d="M88.088,651.426c.349-.081.433.119.43.409C88.231,651.85,88.052,651.75,88.088,651.426Z" transform="translate(-4.724 -11.77)" fill="#e7a928"/>
  </g>
</svg>
