<svg xmlns="http://www.w3.org/2000/svg" width="242" height="226.919" viewBox="0 0 242 226.919">
  <g id="Whats" transform="translate(837 791.919)">
    <g id="logo" transform="translate(-793.861 -725.992)">
      <g id="レイヤー_1" data-name="レイヤー 1" transform="translate(-0.018 -0.007)">
        <path id="パス_151" data-name="パス 151" d="M146.8,17.615s19.4,4.635,26.236,32.664c5.05,30.047-10.276,39.354-9.474,39.281,0,0-1.771,2.522-3.644,1.5s-.612-3.484-.612-3.484,12.127-11.981,8.017-35.491-22.592-29.231-22.592-29.231h-.182s-6.26,1.6-9.78-.875c-29.217-22.5-1.2-5.561.459-4.781,2.587,1.086,1-1.006,1-1.006-28.772-20.245,2.762-3.345,2.762-3.345,2.186,1.086,1.341-.67,1.341-.67-31.621-22.847,3.469-2.82,3.469-2.82,4.008,2.682,2.988,7.827,2.988,7.827" transform="translate(-32.948 -0.33)" fill="#6ab977"/>
        <path id="パス_152" data-name="パス 152" d="M48.428,18.325s-2.915-2.791,6.559-10.6,18.176-1.8,18.176-1.8v.182c.78,3.491,4.234,9.241-8.5,16.15-10.786,5.874-13.7,1.421-13.7,1.421l-.328.2S32.206,29.607,28.045,53.117,36.061,88.6,36.061,88.6s1.232,2.463-.612,3.484-3.644-1.5-3.644-1.5c.816.08-14.51-9.226-9.474-39.274,6.814-28.029,26.236-32.664,26.236-32.664Z" transform="translate(-5.768 -1.004)" fill="#6ab977"/>
        <path id="パス_153" data-name="パス 153" d="M121.088,89.976c-1.647,2.675-.678,7.244-.678,7.244s24.618-2.514,21.433-18.824c-2.565-13.118-15.261-11.063-20.092-9.758a1.5,1.5,0,0,1-1.888-1.458c-.233-14.007-2.842-15.188-2.842-15.188s-11.741-6.676-30.186-7A62.182,62.182,0,0,0,55.5,52.707a129.616,129.616,0,0,0-3.352,25.325c-.168,12.411,2.186,27.839,17.1,34.041,0,0,1.56,1.807-.78,1.137s-17.061-6.384-21.645-5.947-5.721,2.915-6.413,4.241.262,5.451,4.249,6.668,24.99,6.559,41.4,6.865,39.682-5.991,39.682-5.991,3.957-1.931,3.083-6.173-13.03-2.609-15.632-2.128-12.068,3-12.068,3-4.642,1.581-1.02-1c0,0,18.168-6.486,19.568-34.784a2.136,2.136,0,0,1,1.458-2.128c3.192-.576,10.866-2.594,12.44,3.061C136.065,87.994,122.743,87.265,121.088,89.976ZM111.33,57.429c-4.023,1.567-15.363,5.59-26.068,5.59s-19.779-4.373-22.876-6.056a.641.641,0,0,1,.073-1.159,66.151,66.151,0,0,1,23.372-4.54c10.837,0,21.594,3.535,25.507,4.963a.641.641,0,0,1-.007,1.2Z" transform="translate(-10.892 -12.196)" fill="#6ab977"/>
        <path id="パス_154" data-name="パス 154" d="M208.332,76.635a.35.35,0,0,0-.517-.394c-1.909,1.173-8.228,3.979-11.864,8.578s-4.176,10.2-4.715,12a.35.35,0,0,0,.466.423,27.183,27.183,0,0,0,10.29-7.674C205.548,85.03,207.647,78.872,208.332,76.635Z" transform="translate(-51.851 -20.66)" fill="#6ab977"/>
        <path id="パス_155" data-name="パス 155" d="M204.159,43.018a.343.343,0,0,0-.6-.233c-1.5,1.676-6.741,6.18-8.906,11.66s-1.071,10.983-1.064,12.856a.343.343,0,0,0,.568.262,27.205,27.205,0,0,0,7.608-10.29C203.9,51.858,204.145,45.357,204.159,43.018Z" transform="translate(-52.416 -11.566)" fill="#6ab977"/>
        <path id="パス_156" data-name="パス 156" d="M194.424,17.163a.35.35,0,0,0-.627-.175c-1.326,1.815-6.1,6.814-7.71,12.455s0,11.034.211,12.892a.343.343,0,0,0,.59.211,27.125,27.125,0,0,0,6.559-11C195.043,25.981,194.642,19.488,194.424,17.163Z" transform="translate(-50.267 -4.565)" fill="#6ab977"/>
        <path id="パス_157" data-name="パス 157" d="M57.445,37.308a.35.35,0,0,0-.379-.532c-2.186.583-9.03,1.458-13.847,4.832S36.3,50.193,35.268,51.759a.343.343,0,0,0,.328.532,27.2,27.2,0,0,0,12.032-4.424C52.372,44.552,56.147,39.254,57.445,37.308Z" transform="translate(-9.537 -9.966)" fill="#6ab977"/>
        <path id="パス_158" data-name="パス 158" d="M172.305.182a.35.35,0,0,0-.649.087c-.5,2.186-2.915,8.672-2.143,14.5s4.373,10.115,5.305,11.748a.35.35,0,0,0,.627-.036,27.2,27.2,0,0,0,1.669-12.7C176.386,8.016,173.42,2.23,172.305.182Z" transform="translate(-45.923 0.006)" fill="#6ab977"/>
        <path id="パス_159" data-name="パス 159" d="M0,76.635a.35.35,0,0,1,.517-.394C2.437,77.415,8.74,80.22,12.384,84.8s4.176,10.2,4.708,12a.35.35,0,0,1-.466.423A27.183,27.183,0,0,1,6.387,89.571C2.794,85.03.724,78.872,0,76.635Z" transform="translate(0.018 -20.66)" fill="#6ab977"/>
        <path id="パス_160" data-name="パス 160" d="M6.52,43.019a.35.35,0,0,1,.612-.233c1.494,1.676,6.734,6.18,8.906,11.66S17.073,65.4,17.073,67.273a.343.343,0,0,1-.568.262,27.125,27.125,0,0,1-7.587-10.29C6.782,51.859,6.535,45.358,6.52,43.019Z" transform="translate(-1.756 -11.567)" fill="#6ab977"/>
        <path id="パス_161" data-name="パス 161" d="M16.853,17.15a.35.35,0,0,1,.634-.2c1.319,1.815,6.093,6.814,7.7,12.455s0,11.034-.211,12.892a.343.343,0,0,1-.59.211,27.125,27.125,0,0,1-6.559-11C16.233,25.968,16.641,19.475,16.853,17.15Z" transform="translate(-4.502 -4.551)" fill="#6ab977"/>
        <path id="パス_162" data-name="パス 162" d="M40.2.18a.343.343,0,0,1,.641.087c.5,2.186,2.915,8.672,2.143,14.5s-4.373,10.115-5.3,11.748a.35.35,0,0,1-.627-.036,27.176,27.176,0,0,1-1.669-12.7C36.135,8.014,39.08,2.228,40.2.18Z" transform="translate(-9.544 0.007)" fill="#6ab977"/>
        <path id="パス_163" data-name="パス 163" d="M47.378,76.418a.35.35,0,0,0-.59-.284c-1.64,1.545-7.229,5.59-9.846,10.844s-2,10.851-2.143,12.717a.343.343,0,0,0,.539.313,27.118,27.118,0,0,0,8.454-9.62C46.38,85.207,47.167,78.743,47.378,76.418Z" transform="translate(-9.425 -20.618)" fill="#6ab977"/>
        <path id="パス_164" data-name="パス 164" d="M48.917,56.592a.35.35,0,0,0-.474-.445c-2,.977-8.57,3.141-12.644,7.353s-5.182,9.751-5.888,11.478a.35.35,0,0,0,.423.466,27.205,27.205,0,0,0,10.932-6.617C45.324,64.667,48.028,58.749,48.917,56.592Z" transform="translate(-8.093 -15.214)" fill="#6ab977"/>
        <path id="パス_165" data-name="パス 165" d="M149.578,37.308a.35.35,0,0,1,.379-.532c2.186.583,9.029,1.458,13.847,4.832s6.909,8.585,7.929,10.152a.343.343,0,0,1-.328.532,27.169,27.169,0,0,1-12.01-4.424C154.651,44.552,150.876,39.254,149.578,37.308Z" transform="translate(-40.541 -9.966)" fill="#6ab977"/>
        <path id="パス_166" data-name="パス 166" d="M159.291,56.592a.35.35,0,0,1,.474-.445c2.019.977,8.585,3.141,12.666,7.353s5.174,9.751,5.881,11.478a.35.35,0,0,1-.423.466,27.154,27.154,0,0,1-10.932-6.617C162.9,64.667,160.195,58.749,159.291,56.592Z" transform="translate(-43.185 -15.214)" fill="#6ab977"/>
      </g>
    </g>
    <text id="InnerPeaceCafe" transform="translate(-837 -575)" font-size="36" font-family="HoeflerText-Regular, Hoefler Text"><tspan x="0" y="0">InnerPeaceCafe</tspan></text>
    <g id="Whats-2" data-name="Whats" transform="translate(-990.899 -1004.894)">
      <path id="パス_167" data-name="パス 167" d="M239.656,213.771a.9.9,0,0,1,.177.57.543.543,0,0,1-.194.462,5.49,5.49,0,0,0-1.8,2.881,11.711,11.711,0,0,0,.375,4.764l7.142,32.022q.142.412-.339.771a.821.821,0,0,1-.835.1l-15.273-8.077,2.371,17.625a.819.819,0,0,1-.339.771.74.74,0,0,1-.857.115l-28.349-16.327a10.535,10.535,0,0,0-4.409-1.614,7.05,7.05,0,0,0-3.861,1.144.511.511,0,0,1-.445.058.751.751,0,0,1-.444-.293q-.427-.577-.091-.826,1.405-1.041,3.032-2.049,1.523-.931,2.782-1.863,1.28-.948,2.93-2.364,1.731-1.475,3.137-2.518.336-.247.762.33c.286.385.357.629.218.732a5.124,5.124,0,0,0-1.684,2.354,2.386,2.386,0,0,0,.378,2.2,4.077,4.077,0,0,0,1.273,1.015l23.127,13.319-1.89-13.094-11.724-6.22a15.6,15.6,0,0,0-4.508-1.837,5.061,5.061,0,0,0-3.091.869.465.465,0,0,1-.413.033.786.786,0,0,1-.434-.3c-.284-.386-.33-.65-.133-.8a30.4,30.4,0,0,1,2.674-1.783,27.554,27.554,0,0,0,2.506-1.661q1.257-.929,2.569-2.1,1.356-1.2,2.761-2.238c.223-.165.478-.056.762.328s.357.629.217.732q-2.67,2.273-1.624,3.685a6.457,6.457,0,0,0,2.1,1.481l7.606,3.919-1.154-7.883a5.7,5.7,0,0,0-.87-2.49q-1.436-1.939-4.341.015c-.168.124-.394-.006-.679-.39a.853.853,0,0,1-.163-.485.419.419,0,0,1,.114-.372q1.008-.746,2.569-1.706,1.5-.915,2.4-1.582.649-.48,1.831-1.518,1.486-1.327,2.556-2.118c.168-.124.374-.022.617.308q.488.659.027,1a6.554,6.554,0,0,0-1.963,2.854,14.491,14.491,0,0,0-.005,5.192l1.495,10.437,13.67,7.078-5.8-24.7a6.337,6.337,0,0,0-.985-2.209q-1.531-2.067-4.434-.113c-.169.124-.394-.007-.68-.392s-.3-.669-.048-.856q1.026-.76,2.526-1.676,1.393-.837,2.273-1.488a26.266,26.266,0,0,0,2.047-1.709q1.164-1.057,2.17-1.8Q239.29,213.278,239.656,213.771Z" transform="translate(0 0.169)"/>
      <path id="パス_168" data-name="パス 168" d="M261.838,244.746q.173.711-.234.809-1.014.245-2.548.456-1.663.243-2.886.538-1.273.309-2.891.861-1.467.517-2.486.764c-.272.066-.464-.137-.58-.611-.1-.422-.022-.683.242-.783a3.227,3.227,0,0,0,2.06-1.547,6.7,6.7,0,0,0-.253-3.43l-2.052-8.473q-1.329-5.479-6.312-4.271a7.3,7.3,0,0,0-4.827,3.856l2.766,11.414a5.72,5.72,0,0,0,1.43,3.011,3.758,3.758,0,0,0,2.864.488c.279-.033.47.163.573.585q.171.711-.233.809-1.038.251-2.745.5-1.912.3-3.151.6-1.267.307-2.85.853a24.767,24.767,0,0,1-2.449.754c-.271.066-.463-.139-.578-.611q-.153-.635.24-.784a4.312,4.312,0,0,0,2.522-1.67q.445-.927-.162-3.437l-5.7-23.544a4.985,4.985,0,0,0-1.146-2.566,3.541,3.541,0,0,0-2.5-.28c-.279.03-.467-.152-.562-.548-.11-.448-.029-.706.24-.771a16.654,16.654,0,0,0,5.746-4.239,1.148,1.148,0,0,1,.559-.459q.707-.171.806.235.6,4.259,1.732,8.926l2.084,8.6q2.8-4.331,6.342-5.188a8.127,8.127,0,0,1,6.168.6,7.213,7.213,0,0,1,3.365,4.823l2.349,9.69q.6,2.487,1.435,3.1a4.489,4.489,0,0,0,3.052.348C261.545,244.128,261.736,244.324,261.838,244.746Z" transform="translate(13.078 0)"/>
      <path id="パス_169" data-name="パス 169" d="M268.359,245.7a4.455,4.455,0,0,1-2.431-1,3.568,3.568,0,0,1-1.232-2.1,9.739,9.739,0,0,1-7.589,2.012,5.27,5.27,0,0,1-3.644-1.881,4.833,4.833,0,0,1-1.062-3.761q.614-5.316,13.6-7.15l.624-4.026.014-.129a4.522,4.522,0,0,0-.576-3.076,3.056,3.056,0,0,0-2.323-1.386,4.459,4.459,0,0,0-2.679.44,2.278,2.278,0,0,0-1.3,1.727,3.846,3.846,0,0,1-1.168,2.493,2.892,2.892,0,0,1-2.352.673,1.88,1.88,0,0,1-1.291-.648,1.747,1.747,0,0,1-.364-1.382q.229-2,4.114-3.768a13.3,13.3,0,0,1,6.995-1.409,6.338,6.338,0,0,1,4.345,2.184,5.918,5.918,0,0,1,1.22,4.661l-.036.31-1.746,11.675-.021.18q-.315,2.724,1.448,2.927a3.25,3.25,0,0,0,2.117-.806l.188-.032c.137.016.257.122.356.317a1.033,1.033,0,0,1,.114.6q-.087.754-1.78,1.659A5.891,5.891,0,0,1,268.359,245.7Zm-2.615-12.151q-7.743.841-8.2,4.794-.429,3.692,2.413,4.021a5.865,5.865,0,0,0,2.78-.376,3.782,3.782,0,0,0,1.992-1.5Z" transform="translate(22.426 3.097)"/>
      <path id="パス_170" data-name="パス 170" d="M288.713,232.664q-.552,1.3-1.176,1.032l-7.076-3.236-4.9,11.528q-1.92,4.517,1.3,5.883a7.766,7.766,0,0,0,4.025.606.469.469,0,0,1,.242.4,1.087,1.087,0,0,1-.074.607q-.256.6-2.475.861a8.629,8.629,0,0,1-4.448-.687,6.316,6.316,0,0,1-3.652-3.525,6.559,6.559,0,0,1,.244-5.1l.092-.216,5.06-11.632q.286-.672-.291-.918l-1.826-.776q-.527-.225-.266-.838a.827.827,0,0,1,.731-.525,20.121,20.121,0,0,0,8.164-3.106.851.851,0,0,1,.835-.1c.446.19.615.413.507.669l-2.144,4.506,7.062,3Q289.265,231.367,288.713,232.664Z" transform="translate(29.042 3.692)"/>
      <path id="パス_171" data-name="パス 171" d="M296.591,228.828a10.207,10.207,0,0,1-3.214,3.3,10.893,10.893,0,0,1-4.449,1.527,6.817,6.817,0,0,1-3.012.041.681.681,0,0,1-.3-.6,1.161,1.161,0,0,1,.126-.644l.176-.136q5.083-.056,7.115-3.308c.424-.679.518-1.092.284-1.239l-.308-.1a1.381,1.381,0,0,1-.512-.166,2.658,2.658,0,0,1-1.26-1.849,3.113,3.113,0,0,1,.457-2.283,3.033,3.033,0,0,1,4.174-.963,3.523,3.523,0,0,1,1.681,2.746A5.654,5.654,0,0,1,296.591,228.828Z" transform="translate(34.852 3.349)"/>
      <path id="パス_172" data-name="パス 172" d="M297.7,255.9a6.807,6.807,0,0,1-5.427,2.332,8.925,8.925,0,0,1-5.955-2.4,20.872,20.872,0,0,1-2.515-2.974,16.6,16.6,0,0,0-1.724-2.06q1.059-1.5,2.978-4.793.26-.293.826.212c.312.277.407.549.287.815a6.963,6.963,0,0,0-.466,4.095,5.753,5.753,0,0,0,1.773,3.5,4.142,4.142,0,0,0,2.982,1.224,4.029,4.029,0,0,0,2.8-1.522,3.031,3.031,0,0,0,.769-2.216,14.3,14.3,0,0,0-1.368-4.33q-1.747-3.966-1.632-6a6.06,6.06,0,0,1,6.5-5.625,8.506,8.506,0,0,1,5.5,2.261,21.77,21.77,0,0,1,2.534,2.885,11.952,11.952,0,0,0,1.151,1.375q-1.99,2.353-3.236,4.143c-.173.2-.449.125-.826-.21-.324-.29-.415-.555-.268-.8a5.505,5.505,0,0,0,.988-3.261,3.663,3.663,0,0,0-1.25-2.7q-3.029-2.7-5.39-.048a3.171,3.171,0,0,0-.758,2.3,16.684,16.684,0,0,0,1.37,4.751,17.65,17.65,0,0,1,1.562,5.864A4.735,4.735,0,0,1,297.7,255.9Z" transform="translate(33.532 8.66)"/>
    </g>
  </g>
</svg>
