<svg xmlns="http://www.w3.org/2000/svg" viewBox="0 0 362.14 158.52"><defs><style>.cls-1{fill:#fff;}</style></defs><g id="レイヤー_2" data-name="レイヤー 2"><g id="レイヤー_1-2" data-name="レイヤー 1"><path class="cls-1" d="M156.2,27.42s26.62,6.35,36,44.82c6.93,41.23-14.1,54-13,53.89,0,0-2.43,3.47-5,2.06s-.84-4.78-.84-4.78S190,107,184.34,74.72s-31-40.12-31-40.12l-.25-.05s-8.59,2.2-13.42-1.2c-40.09-30.88-1.65-7.63.63-6.56,3.55,1.49,1.37-1.38,1.37-1.38-39.48-27.77,3.79-4.59,3.79-4.59,3,1.49,1.84-.92,1.84-.92C103.94-11.44,152.09,16,152.09,16c5.5,3.67,4.1,10.74,4.1,10.74"/><path class="cls-1" d="M58.52,27.47s-4-3.84,9-14.55,24.92-2.46,24.92-2.46v.25c1.07,4.8,5.81,12.68-11.66,22.16C66,40.93,62,34.82,62,34.82l-.45.27s-25.29,7.85-31,40.11,11,48.7,11,48.7,1.69,3.37-.84,4.78-5-2.06-5-2.06c1.12.1-19.91-12.66-13-53.89,9.35-38.47,36-44.83,36-44.83Z"/><path class="cls-1" d="M151.19,110.43c-2.26,3.67-.93,9.93-.93,9.93s33.78-3.44,29.41-25.83c-3.52-18-20.94-15.18-27.57-13.39a2.05,2.05,0,0,1-2.59-2c-.32-19.23-3.9-20.84-3.9-20.84s-16.11-9.21-41.42-9.67-43,10.59-43,10.59S56.79,77,56.56,94s3,38.19,23.47,46.71c0,0,2.14,2.47-1.07,1.55s-23.41-8.75-29.7-8.16-7.85,4-8.8,5.82.36,7.49,5.83,9.15,34.29,9,56.81,9.42,54.45-8.21,54.45-8.21,5.43-2.65,4.23-8.48-17.88-3.58-21.45-2.91-16.56,4.1-16.56,4.1-6.37,2.17-1.4-1.36c0,0,24.93-8.91,26.85-47.74.06-1.27.74-2.69,2-2.92,4.38-.79,14.91-3.56,17.07,4.2C171.74,107.67,153.46,106.72,151.19,110.43ZM137.8,65.76c-5.52,2.16-21.08,7.68-35.77,7.68s-27.14-6-31.39-8.32a.88.88,0,0,1,.1-1.59,91.06,91.06,0,0,1,32.07-6.22c14.87,0,29.63,4.85,35,6.8A.88.88,0,0,1,137.8,65.76Z"/><path class="cls-1" d="M214.7,80.51A.48.48,0,0,0,214,80c-2.62,1.61-11.29,5.47-16.28,11.78s-5.73,14-6.47,16.47a.48.48,0,0,0,.64.58A37.41,37.41,0,0,0,206,98.26C210.88,92,213.76,83.57,214.7,80.51Z"/><path class="cls-1" d="M208.2,46.86a.47.47,0,0,0-.83-.32c-2.06,2.29-9.25,8.48-12.22,16s-1.47,15.06-1.46,17.63a.48.48,0,0,0,.78.37,37.39,37.39,0,0,0,10.44-14.13C207.85,59,208.18,50.06,208.2,46.86Z"/><path class="cls-1" d="M197.79,21a.48.48,0,0,0-.86-.24c-1.82,2.49-8.37,9.36-10.58,17.1s0,15.13.29,17.69a.48.48,0,0,0,.81.29,37.29,37.29,0,0,0,9-15.09C198.64,33.09,198.09,24.17,197.79,21Z"/><path class="cls-1" d="M65.72,41.21a.48.48,0,0,0-.52-.72c-3,.79-12.39,2-19,6.62S36.72,58.9,35.31,61a.48.48,0,0,0,.45.74,37.32,37.32,0,0,0,16.49-6.06C58.76,51.16,63.94,43.88,65.72,41.21Z"/><path class="cls-1" d="M173.4,4a.48.48,0,0,0-.89.13c-.68,3-4,11.9-2.94,19.88s6,13.89,7.28,16.13a.48.48,0,0,0,.86-.06A37.33,37.33,0,0,0,180,22.61C179,14.73,174.93,6.76,173.4,4Z"/><path class="cls-1" d="M0,80.51A.48.48,0,0,1,.73,80C3.35,81.57,12,85.43,17,91.74s5.73,14,6.46,16.47a.48.48,0,0,1-.64.58A37.41,37.41,0,0,1,8.77,98.26C3.84,92,1,83.57,0,80.51Z"/><path class="cls-1" d="M6.52,46.86a.48.48,0,0,1,.84-.32c2.05,2.29,9.24,8.48,12.22,16S21,77.56,21,80.13a.48.48,0,0,1-.78.37A37.28,37.28,0,0,1,9.81,66.37C6.88,59,6.54,50.06,6.52,46.86Z"/><path class="cls-1" d="M16.93,21a.49.49,0,0,1,.87-.24c1.81,2.49,8.36,9.36,10.57,17.1s0,15.13-.29,17.69a.48.48,0,0,1-.81.29,37.29,37.29,0,0,1-9-15.09C16.08,33.09,16.64,24.17,16.93,21Z"/><path class="cls-1" d="M42.05,4a.48.48,0,0,1,.88.13c.68,3,4,11.9,2.94,19.88s-6,13.89-7.27,16.13a.48.48,0,0,1-.86-.06,37.29,37.29,0,0,1-2.29-17.42C36.47,14.73,40.51,6.76,42.05,4Z"/><path class="cls-1" d="M52.06,80.27a.48.48,0,0,0-.81-.39C49,82,41.33,87.55,37.74,94.75S35,109.64,34.8,112.2a.47.47,0,0,0,.74.43,37.15,37.15,0,0,0,11.6-13.19C50.69,92.33,51.77,83.46,52.06,80.27Z"/><path class="cls-1" d="M56,60.48a.48.48,0,0,0-.65-.62C52.6,61.2,43.59,64.18,38,70s-7.1,13.37-8.07,15.74a.47.47,0,0,0,.58.64,37.39,37.39,0,0,0,15-9.07C51.07,71.56,54.78,63.43,56,60.48Z"/><path class="cls-1" d="M149.6,41.21a.48.48,0,0,1,.52-.72c3,.79,12.39,2,19,6.62S178.6,58.9,180,61a.48.48,0,0,1-.45.74,37.28,37.28,0,0,1-16.49-6.06C156.56,51.16,151.38,43.88,149.6,41.21Z"/><path class="cls-1" d="M159.3,60.48a.48.48,0,0,1,.65-.62c2.77,1.34,11.78,4.32,17.38,10.1s7.1,13.37,8.07,15.74a.48.48,0,0,1-.58.64,37.33,37.33,0,0,1-15-9.07C164.25,71.56,160.54,63.43,159.3,60.48Z"/><rect class="cls-1" x="226.78" width="5.01" height="157.31" rx="2.5"/><path class="cls-1" d="M355.05,89.87a2.43,2.43,0,0,1-2.53,2.85c-2.9,0-2.42-5.86-2.42-5.86l12-.16c0-8.48-1-14.61-9.62-14.61s-9.83,8.44-9.83,12.09-.16,14.07,9.72,14.07S362,89.87,362,89.87Zm-2.53-12.41c2.8,0,2.46,4.64,2.46,4.64l-4.91.1S349.72,77.5,352.52,77.46Z"/><polygon class="cls-1" points="250.28 17.25 242.91 17.25 242.84 49.65 250.28 49.65 250.28 17.25"/><path class="cls-1" d="M269,31.93V49.52h7.34V30.1s-.93-5.93-5.86-6.08c-5.72-.17-5.93,2.55-5.93,2.55l-.14-2.14-7.07.09V49.45h7.21V32.15s.14-2.41,2.26-2.41A2.21,2.21,0,0,1,269,31.93Z"/><path class="cls-1" d="M318.72,50.14c9.89,0,9.56-8.38,9.56-8.38h-6.93a2.42,2.42,0,0,1-2.52,2.85c-2.9,0-2.42-5.86-2.42-5.86l12-.16c0-8.49-1-14.61-9.62-14.61S309,32.41,309,36.06,308.84,50.14,318.72,50.14Zm.15-20.77c2.8-.05,2.46,4.64,2.46,4.64l-4.91.09S316.07,29.41,318.87,29.37Z"/><path class="cls-1" d="M295.3,31.93V49.52h7.34V30.1s-.93-5.93-5.86-6.08c-5.72-.17-5.93,2.55-5.93,2.55l-.14-2.14-7.07.09V49.45h7.21V32.15s.14-2.41,2.26-2.41A2.21,2.21,0,0,1,295.3,31.93Z"/><path class="cls-1" d="M277.44,98.08c9.71,0,9.78-8.23,9.78-8.23h-6.86s-.13,2.79-2.53,2.79-2.52-5.83-2.52-5.83h12s1.94-15-9.19-15-10.23,14.76-10.23,14.76S267.73,98.08,277.44,98.08ZM278,77.49c2.85,0,2.27,4.53,2.27,4.53h-4.79S275.11,77.49,278,77.49Z"/><path class="cls-1" d="M343.92,32.73c1.5-1.12,4.41-.84,4.41-.84V24a10.21,10.21,0,0,0-3.91,1c-1.5.88-2.53,3.37-2.53,3.37V24.46l-7.11-.11V49.6h7.31V36.28A6,6,0,0,1,343.92,32.73Z"/><path class="cls-1" d="M250.19,65.26l-7.31-.07v32.3h7.31V84.93s13,1.36,13-9.83S250.19,65.26,250.19,65.26Zm.13,14V70.89s5.31-1.3,5.44,4.21S250.32,79.24,250.32,79.24Z"/><path class="cls-1" d="M293.76,79.82l6.79.07s-.13-2.79,2.14-2.79,1.94,2.66,1.94,2.66v2.39S294.27,81,292.79,89.6a9.25,9.25,0,0,0,1.74,6.34c2.2,2.72,5.83,2.07,5.83,2.07s3.56-.45,4.66-2.39l.32,2,6.67-.06-.19-18.13s.13-3.1-1.36-4.66S307.22,72,303,72,293.76,73.48,293.76,79.82Zm10.87,10.23c0,2.45-4.72,3.9-4.59-.26s4.66-3.11,4.66-3.11Z"/><path class="cls-1" d="M320,120c-11.88,0-10.12,14.69-10.12,14.69s0,11.52,9.85,11.52,9.5-8.35,9.5-8.35h-6.95s.18,2.72-2.37,2.72-2.55-5.8-2.55-5.8h12S331.82,120,320,120Zm2.2,10.12-4.84.08s-.44-4.75,2.55-4.75S322.15,130.09,322.15,130.09Z"/><path class="cls-1" d="M337.12,81.06c0-3.21-1-9.11-9.43-9.11s-9.27,9-9.27,9v8s.16,9.12,9.69,9.12,9-9.38,9-9.38h-6.89s.36,3.88-2.07,3.88-2.44-3.83-2.44-3.83l.05-7.56s-.2-3.78,2.28-3.78,2,3.67,2,3.67Z"/><path class="cls-1" d="M252.74,112.67s-10.82-1.23-10.82,16.36,10.56,17.15,10.56,17.15S263,146.8,263,135.63l-7.3-.09s.18,5-2.9,5-3-5-3-5L250,123.4s.09-4.84,2.91-4.84,2.81,4.49,2.81,4.49H263S264.18,112.67,252.74,112.67Z"/><path class="cls-1" d="M278.69,120.06c-9.76,0-9.32,7.74-9.32,7.74h6.77a2,2,0,0,1,2.11-2.73c3.08,0,1.85,4.93,1.85,4.93a14.66,14.66,0,0,0-9.15,2c-4.75,4.4-1.14,11.52-1.14,11.52a6.47,6.47,0,0,0,5.54,2.56c4,0,5.28-2.56,5.28-2.56l.44,2.12,6.51-.09L287.4,128S288.45,120.06,278.69,120.06Zm-1,20.32s-1.93.17-2.2-2.82,4.67-2.81,4.67-2.81S281.24,140.64,277.72,140.38Z"/><path class="cls-1" d="M305.61,117.07V111.7c-4.75-.88-6.16-.53-8.53,1.41s-1.85,7.39-1.85,7.39h-2.55v5.8h2.72v19.27h7.22V126.21h3.08v-5.8h-3C302.18,115.75,305.61,117.07,305.61,117.07Z"/></g></g></svg>