<svg xmlns="http://www.w3.org/2000/svg" width="200.964" height="436.043" viewBox="0 0 200.964 436.043">
  <g id="access_left" transform="translate(-41.82 -5199.048)">
    <g id="グループ_55" data-name="グループ 55" transform="matrix(1, -0.017, 0.017, 1, -512.643, 5303.876)" opacity="0.1">
      <path id="パス_2878" data-name="パス 2878" d="M725.177-63.628c.231.4.646.795.666,1.207.4,8.285.492,16.539-1.557,24.687-2.574,10.233-8.434,17.688-18.121,22.016a123.823,123.823,0,0,0-14.293,7.674Q680.689-1.171,669.547,5.767c-7.028,3.693-13.979,7.832-22.385,6.692-5.155-.7-9.741-3.211-14.413-5.359,3.541-3.084,8.148-2.1,12.2-2.726,2.8-.43,5.772-.419,8.162-1.826,5.654-3.327,12.187-4.381,17.781-8.4,4.374-3.144,9.424-4.548,10.77-10.76.444-2.047,3.359-2.824,5.409-3.676a17.754,17.754,0,0,0,9.3-8.58c1.568-3.049,4.491-4.839,6.786-7.194a114.708,114.708,0,0,0,13.513-15.97C719.331-56.005,721.692-60.245,725.177-63.628Z" fill="#449d2f"/>
      <path id="パス_2879" data-name="パス 2879" d="M625.119,3.883c-5.884-7.953-7.117-21.524.788-31.25a50.2,50.2,0,0,1,8.7-8.2c5.9-4.5,10.837-9.918,15.672-15.475,2.392-2.749,4.474-5.83,7.715-7.741.3,3.824-1.71,6.812-3.819,9.622A12.461,12.461,0,0,1,651.8-46.3c-6.585,4.491-8.291,12.529-13.363,18.061-4.362,4.759-5.127,10.778-6.341,16.672a15.412,15.412,0,0,1-.8,1.777c-.165.372-.361.735-.562,1.09-.277.527-.58,1.044-.9,1.548a3.858,3.858,0,0,1-.791.862,10.426,10.426,0,0,0-1.812,1.43,3.218,3.218,0,0,0-.561,1.07C626.013-1.256,627.449,1.7,625.119,3.883Z" fill="#8edb76"/>
      <path id="パス_2880" data-name="パス 2880" d="M725.177-63.628c-1.427,1.4-.9,3.665-2.331,5.13a46.366,46.366,0,0,0-3.614,4.441,20.333,20.333,0,0,0-1.5,2.437,32.242,32.242,0,0,1-6.782,8.587,12.446,12.446,0,0,0-3.691,4.918,5.229,5.229,0,0,1-3.7,3.417c-2.466.686-3.967,2.553-5.275,4.6a12.445,12.445,0,0,0-.892,1.691,15.879,15.879,0,0,1-9.4,8.981c-.894.325-1.727.817-2.588,1.231-2.821,1.356-4.557,3.4-4.4,6.726a3.8,3.8,0,0,1-3.678,4.249c-3.879.2-6.489,2.025-8.826,4.874a6.362,6.362,0,0,1-5.611,2.135c-1.855-.146-3.419.087-4.486,1.931-.667,1.152-2.066,1.442-3.295,1.77a10.779,10.779,0,0,1-2.366.305c-1.628.06-2.251,1.767-3.586,2.171-1.451.439-2.654-1.1-4.091-.885-1.222.185-2.2,1.078-3.59,1.105-2.836.055-5.665.435-8.5.681a1.676,1.676,0,0,1-2.1-.283c.292-2.107,2.068-1.845,3.467-2.185,4.829-.935,9.474-2.583,14.495-2.9,3.208-.2,6.635-1.16,9.027-3.909.407-.467-.169-.258.37-.251,6.532.091,10.329-5.89,16.183-7.221,1.932-.439,3.189-1.364,3.46-3.4.571-4.29,3.312-6.8,7.061-8.344,4.78-1.969,8.465-4.99,10.521-9.871a8.668,8.668,0,0,1,2.9-3.766C707.344-41.512,712.8-50.8,719.2-59.279c2.077-2.755,2.375-6.24,3.665-9.324.645-1.666,1.451-3.183,3.382-3.656.885.149,1.352.554.919,1.507.028,1.347-.8,2.379-1.384,3.466A6.29,6.29,0,0,0,725.177-63.628Z" fill="#070e06"/>
      <path id="パス_2881" data-name="パス 2881" d="M630.828-11.034a22.843,22.843,0,0,0,1.292-6.523,13.637,13.637,0,0,1,2.66-7.573,28.419,28.419,0,0,1,2.579-3.444c2.5-2.741,4.717-5.553,5.271-9.434.308-2.153,1.907-3.666,3.743-4.751,2.225-1.315,4.4-2.547,4.943-5.443.364-1.947,3.427-1.332,3.656-3.38.178-1.6.088-3.126,1.511-4.308a3.911,3.911,0,0,0,1.51-2.889l2.751-2.792c9.306-2.2,16.581-8.421,24.9-12.578a24.736,24.736,0,0,1,10.491-5.372,28.628,28.628,0,0,0,7.848-3.251,9.035,9.035,0,0,1,3.849-1.73c.711.427,1.882.08,2.138,1.273-.234,1.011-1.04,1.466-1.849,1.921A35.061,35.061,0,0,1,694.748-75.2a8.172,8.172,0,0,0-4.321,1.943c-6.277,6.347-14.445,10.047-22.046,14.022-5.314,2.779-9.812,4.78-11.614,10.817-.408,1.367-2.039,2.5-3.246,3.4-7.366,5.529-9.538,14.814-15.622,21.259-2.017,2.136-2.553,5.079-2.806,7.99-.211,2.417-.577,4.78-2.834,6.285a1.6,1.6,0,0,1-1.4-.123A1.769,1.769,0,0,1,630.828-11.034Z" fill="#0d130c"/>
      <path id="パス_2882" data-name="パス 2882" d="M709.793-83.6a2.146,2.146,0,0,1-1.962-.9c2.586-1.411,5.2-2.274,8.062-.683a4.085,4.085,0,0,0,4.08-.247,3.038,3.038,0,0,1,2.744-.1c.81.354,1.292,1.64,2.356,1.113.654-.323,1.088-1.105,1.6-1.7a19.159,19.159,0,0,1,5.083-4.235c2.427-1.352,4.915-2.153,7.675-.88a5.523,5.523,0,0,0,2.272.5c.844,0,1.72-.058,1.7.973-.008.459-.791.9-1.223,1.355-.432,3.9-.028,7.937-1.793,11.636-1.053,2.331-.057,5.068-1.442,7.333a.944.944,0,0,1-1.34.215.61.61,0,0,1-.139-.768c-.595-1.2-.274-2.493-.359-3.742a22.6,22.6,0,0,0-.316-4.407c.063-.938.368-1.835.495-2.762-.176-2.068,2.374-4.826-.2-6.008-2.182-1-3.616,1.983-5.126,3.5-1.11,1.119-1.827,2.6-3.036,3.663-.833.925-.588,1.946-.342,3.016a6.922,6.922,0,0,1-1.419,5.971l-.9-1.342c-.177-.14-.355-.28-.534-.418-.56-1.205-.111-2.55-.5-3.77-1.047-3.265-2.59-5.659-6.717-5.46A14.6,14.6,0,0,1,709.793-83.6Z" fill="#0e0f0d"/>
      <path id="パス_2883" data-name="パス 2883" d="M737.609-69.22c.31,0,.619,0,.929,0a.918.918,0,0,1,1.177-.123,4.238,4.238,0,0,1,.742,1.09c.749,1.368.756,3.1,2.045,4.161a6.784,6.784,0,0,1,2.589-2.3,20.086,20.086,0,0,1,2.185-1.831c2.564-1.608,4.718-1.278,6.8.957a9.25,9.25,0,0,1,.874,1.125c2.781,4.107,1.647,7.583-2.99,9.437a9.693,9.693,0,0,1-8.757-.456c-1.292,1.573.172,2.776.234,4.064.279,1.047-.14,1.422-1.166,1.212-1.33-.95-1.439-2.509-1.931-3.876a2.892,2.892,0,0,1-.613-2.387c.209-1.921-1.618-3.386-1.214-5.351C738.609-65.471,737.152-67.195,737.609-69.22Z" fill="#161716"/>
      <path id="パス_2884" data-name="パス 2884" d="M631.067,6.539l1.907.325c.265.168.533.488.794.481,3.6-.089,6.609,1.365,9.71,3.065,4.244,2.327,8.885,1.579,13.387.489,2.947-.714,5.58-2.226,8.308-3.493,1.411-.655,2.653-1.8,4.374-1.639-.483,1.127-1.565,1.532-2.517,2.1a42.826,42.826,0,0,1-21.457,6.065c-6.415.116-12.81-.939-17.647-5.987a8.656,8.656,0,0,1-.806-1.167,2.113,2.113,0,0,1,1.158-.9A2.8,2.8,0,0,1,631.067,6.539Z" fill="#8cd875"/>
      <path id="パス_2885" data-name="パス 2885" d="M728.925-79.739c.354-3.729,2.812-5.961,5.7-7.806,1.136-.726,2.284-2.358,3.735-1.453,1.771,1.106,1.236,3.091.844,4.82-.245,1.087-.562,2.157-.847,3.234a13.721,13.721,0,0,1-.657,2.117l-.291,4.521q-.128.946-.586.109c-.154-1.9-.922-3.335-2.89-3.925C732.253-78.626,730.593-79.2,728.925-79.739Z" fill="#8cd874"/>
      <path id="パス_2886" data-name="パス 2886" d="M685.642-74.149c-1,2.2-3.076,2.986-5.031,4.036a79.206,79.206,0,0,0-13.578,8.572c-.658.549-1.315.936-2.117.5-1.336-.733-2.758-.545-4.172-.526a26.767,26.767,0,0,1,9.8-6.624C675.49-70.374,680.6-72.182,685.642-74.149Z" fill="#8dd677"/>
      <path id="パス_2887" data-name="パス 2887" d="M742.323-62.447l-.343.315a15.406,15.406,0,0,1-2.3-5.88c3.255-2.42-.109-4.219-.591-6.29a5.044,5.044,0,0,1,.224-2.586c.4-1.508.715-3.043,1.213-4.518a13.607,13.607,0,0,0,.963-5.95,1.012,1.012,0,0,1,.7-1.049c.187,3.845,1.389,7.5,2.2,11.217a18.046,18.046,0,0,1-.23,9.867A23.82,23.82,0,0,1,742.323-62.447Z" fill="#91da7a"/>
      <path id="パス_2888" data-name="パス 2888" d="M742.267-51.887l1.166-1.212c3.767,2.593,3.471,6.546,1.105,10.02a16.2,16.2,0,0,1-5.521,5.127,3.013,3.013,0,0,1-2.248.517c-.287-.072-.67-.235-.767-.46a.92.92,0,0,1,.2-.854,19.585,19.585,0,0,1,1.975-1.243,13.819,13.819,0,0,0,4.975-5c1.124-1.918,1.509-3.835-.2-5.688A6.166,6.166,0,0,1,742.267-51.887Z" fill="#202020"/>
      <path id="パス_2889" data-name="パス 2889" d="M738.509-63.5l2.472,4.02a.543.543,0,0,1-.2.81c-1.348.592-.4,2.134-1.219,2.947q-.172,1.381-.344,2.771c-2.839-.717-3.9-2.1-3.536-4.766A10.228,10.228,0,0,1,738.509-63.5Z" fill="#92d97c"/>
      <path id="パス_2890" data-name="パス 2890" d="M625.119,3.883a34.537,34.537,0,0,0,.182-7.8c-.029-.783.034-1.537.931-1.865,2.084,3.56,1.565,7.248.54,10.962-.212.2-.427.4-.642.6C625.221,5.451,625.333,4.58,625.119,3.883Z" fill="#1b2917"/>
      <path id="パス_2891" data-name="パス 2891" d="M742.323-62.447a6.381,6.381,0,0,1,1.828-4.874l.94.926C744.341-64.958,743.785-63.385,742.323-62.447Z" fill="#c1d8ba"/>
      <path id="パス_2892" data-name="パス 2892" d="M736.823-74.2a.664.664,0,0,0,.586-.108,9.635,9.635,0,0,1,.061,4.317C736.67-71.3,736.856-72.766,736.823-74.2Z" fill="#323730"/>
      <path id="パス_2893" data-name="パス 2893" d="M739.561-55.724c-.141-1.209-.162-2.367,1.219-2.947l-.444,2.908C740.078-55.746,739.819-55.733,739.561-55.724Z" fill="#cfe7c8"/>
      <path id="パス_2894" data-name="パス 2894" d="M628.132,6.521l-1.012.259-.99-1,.264-.257C627.39,5.131,628.152,5.146,628.132,6.521Z" fill="#1b2917"/>
      <path id="パス_2895" data-name="パス 2895" d="M628.132,6.521a2.47,2.47,0,0,0-1.739-1q-.079-5.655-.161-11.308a.525.525,0,0,1,.631-.184c.729-.329,1.64-.194,2.231-.875l-.032.027c.684-.563.522-1.478.9-2.167a.634.634,0,0,1,.157-.7.509.509,0,0,1,.88-.006l1.007.005a1.467,1.467,0,0,1,.352,1.01,15.7,15.7,0,0,1-.551,2.132,4.437,4.437,0,0,1-.463.983A4.1,4.1,0,0,1,630.2-4.495c-.424.228-.883.385-1.311.588a1.593,1.593,0,0,0-.66,1.126c0,.365-.009.712-.007,1.074.028,1.006.049,2,.048,2.975a4.953,4.953,0,0,0,.243,1.535,1.955,1.955,0,0,0,1.294.719c1.658.177,3.386-.146,4.909.792a1.308,1.308,0,0,1,.412,1.195c-1.342.386-2.955-.295-4.059,1.03A5.63,5.63,0,0,1,628.132,6.521Z" fill="#151f13"/>
      <path id="パス_2896" data-name="パス 2896" d="M629.094-6.846a1.922,1.922,0,0,1-2.23.875Z" fill="#1b2917"/>
      <path id="パス_2897" data-name="パス 2897" d="M629.964-8.986c.1.888.032,1.708-.9,2.167Q629.513-7.9,629.964-8.986Z" fill="#1b2917"/>
      <path id="パス_2898" data-name="パス 2898" d="M631-9.689q-.439,0-.881.006a1.433,1.433,0,0,1,.708-1.35Q630.914-10.363,631-9.689Z" fill="#1b2917"/>
      <path id="パス_2899" data-name="パス 2899" d="M635.126,5.509a2.733,2.733,0,0,1-.277-.654c-4.154-9.33-3.758-12.4,2.4-18.6,2.348,1.833,3.9.558,5.271-1.381,1.657-1.886,4.034-2.453,6.229-3.231,6.141-2.175,11.564-5.677,17.114-8.951,2.724-.431,3.529-2.812,4.778-4.734a19.743,19.743,0,0,1,2.169-3.944,7.191,7.191,0,0,1,4.076-2.8c1.445-.323-.292-.931-.164-1.469-.724-2.147.633-3.766,1.374-5.544a9.292,9.292,0,0,1,.672-1.118c1.833-1.526,1.567-5.223,5.119-4.98,1.622.769,2.98,2.547,5.955.924a5.955,5.955,0,0,1-6.212-1.226,2.884,2.884,0,0,1,.4-2.3c4.523-5.932,8.644-12.272,14.73-16.771,9.279-6.86,17.1-5.847,25.112,2.937a25.226,25.226,0,0,0-1.228,4.111,13.028,13.028,0,0,1-3.6,7.137,4.14,4.14,0,0,0-.318.359c-3.659,5.213-6.948,10.716-11.862,14.94a4.417,4.417,0,0,0-.982,1.63,5.855,5.855,0,0,1-3.931,3.8,9.086,9.086,0,0,0-4.963,4.319,27.62,27.62,0,0,0-1.826,3.363,12.37,12.37,0,0,1-7.047,6.792c-1.477.595-2.877,1.386-4.291,2.127a8.244,8.244,0,0,0-4.872,7.137c-.183,2.7-.746,3.416-3.409,3.659A9.937,9.937,0,0,0,668.2-5.046c-1.577,2-3.5,3.129-6.256,2.443a3.748,3.748,0,0,0-4.159,1.737,5.729,5.729,0,0,1-4.4,2.522c-1.106.149-2.293.086-3.2.822a4.03,4.03,0,0,1-4,.572c-2.428-.654-4.549,1.1-6.921,1.326A23.835,23.835,0,0,0,635.126,5.509Z" fill="#449d2f"/>
      <path id="パス_2900" data-name="パス 2900" d="M683.882-51.894c-1.459.5-1.878,1.9-2.585,3.04-.633,1.019-1.023,2.233-2.295,2.706-.439-.513-1.078-.5-1.661-.626a5.855,5.855,0,0,0-2.324-.355c-.638.04-.914.463-.37.127s.108.66.267.04,1.074.242.492.021c.718.1,1.4.275,2.1.389.18.006.361.017.542.025a1.593,1.593,0,0,1,1,.322c-.046,2.105-1.775,3.584-2.076,5.594-.8,2.007-3.473,2.643-3.711,5.063.039,1.609-1.362,2.492-1.916,3.8-2.433.766-3.3,3.169-4.966,4.743-4.275,3.926-9.359,6.479-14.662,8.67-3.074,1.27-6.128,2.587-9.191,3.883-1.481,1.288-3.293.736-4.976.9-1.076,1.171-1.213,2.817-2.317,4.069a7.864,7.864,0,0,0-1.374,8.839c.568,1.3,1.158,2.6,1.683,3.919.281.706-.177,1.179-.7,1.579L628.3,4.672a1.842,1.842,0,0,1-1.016-1.393,4.218,4.218,0,0,0,.2-.671c.013-.093-.116-.206-.18-.31a9.981,9.981,0,0,0,0-5.682l0-.05a1.4,1.4,0,0,1,1.35-1.333l1.427-.289a4.035,4.035,0,0,0,.942-.791h0c.859-.785.235-1.961.748-2.837l.234-1a9.974,9.974,0,0,0,2.085-6.252A15.465,15.465,0,0,1,638.007-26c.812-.989,1.573-2.029,2.468-2.938A12.922,12.922,0,0,0,644.28-36a7.221,7.221,0,0,1,4.135-5.512c2.188-1.145,4-2.672,4.692-5.172.311-1.123,1.318-1.269,2.147-1.7a3.38,3.38,0,0,0,1.955-3.059c.131-3.3,2.647-5.265,4.392-7.648a1.571,1.571,0,0,1,1.311-.33,19.913,19.913,0,0,1,2.254.76,2.438,2.438,0,0,0,2.969-.891,14.107,14.107,0,0,1,4.943-3.7c3.634-2,6.922-4.583,10.814-6.163a8,8,0,0,0,2.892-2.463,13.2,13.2,0,0,1,8.126-4.738,23.138,23.138,0,0,0,11.2-4.961A7.591,7.591,0,0,1,707.8-82.4c7.156,1.433,12.832,5.426,17.948,10.387l.227-.264.3.183q-1.2,1.879-2.393,3.761c-1.914-.086-3.064-1.6-4.52-2.5a45.025,45.025,0,0,0-6.368-3.236,9.743,9.743,0,0,0-9.148.8,35.293,35.293,0,0,0-10.5,8.9c-2.212,2.911-4.623,5.672-6.975,8.475a11.556,11.556,0,0,0-2.5,4.012Z" fill="#8edc76"/>
      <path id="パス_2901" data-name="パス 2901" d="M725.745-72.013a5.709,5.709,0,0,1-3.371-1.588,49.312,49.312,0,0,0-12.993-7.782A10.174,10.174,0,0,1,707.8-82.4l2-1.2a13.556,13.556,0,0,1,5.147.391,6.964,6.964,0,0,0,5.512-.145,1.9,1.9,0,0,1,2.476.76,29.544,29.544,0,0,1,2.744,3.824A6.54,6.54,0,0,1,725.745-72.013Z" fill="#fbfcfa"/>
      <path id="パス_2902" data-name="パス 2902" d="M739.314-76.888q.069,1.4.138,2.8c.972,1.658,1.614,3.308-.127,4.895q-.395,0-.787-.025c-.026-1.7-.074-3.4-.068-5.1A3.254,3.254,0,0,1,739.314-76.888Z" fill="#323730"/>
      <path id="パス_2903" data-name="パス 2903" d="M726.313-81.76a4.344,4.344,0,0,1,1.772-3.055.4.4,0,0,1,.357.08c.1.089.21.275.178.375a5.387,5.387,0,0,1-1.524,2.813.6.6,0,0,1-.432.145C726.538-81.433,726.449-81.613,726.313-81.76Z" fill="#2e4727"/>
      <path id="パス_2904" data-name="パス 2904" d="M737.7-78.827a2.138,2.138,0,0,1,.657-2.117A1.874,1.874,0,0,1,737.7-78.827Z" fill="#323730"/>
      <path id="パス_2905" data-name="パス 2905" d="M748.1-57.833c-.7-.154-1.315-.261-1.916-.428-2.095-.582-2.51-1.52-1.474-3.443a12.5,12.5,0,0,1,3.756-4.78,2.5,2.5,0,0,1,3.437.12,8.551,8.551,0,0,1,1.538,1.77c1.565,2.525.953,4.552-1.772,5.7A31.886,31.886,0,0,1,748.1-57.833Z" fill="#f4f4f4"/>
      <path id="パス_2906" data-name="パス 2906" d="M739.325-69.195c.295-1.625-.49-3.278.127-4.895a7.439,7.439,0,0,1,3.142,3.28,1.739,1.739,0,0,1-.223,2.111c-.725.994-1.534,1.478-2.691.683C739.562-68.407,739.444-68.8,739.325-69.195Z" fill="#edf6eb"/>
      <path id="パス_2907" data-name="パス 2907" d="M627.311-3.384a6.989,6.989,0,0,1,0,5.68Q627.31-.542,627.311-3.384Z" fill="#1b2917"/>
      <path id="パス_2908" data-name="パス 2908" d="M631.774-8.685c.046,1.023.122,2.055-.748,2.837C631.04-6.856,630.833-7.922,631.774-8.685Z" fill="#1b2917"/>
      <path id="パス_2909" data-name="パス 2909" d="M631.026-5.847a.8.8,0,0,1-.942.791Z" fill="#1b2917"/>
      <path id="パス_2910" data-name="パス 2910" d="M628.657-4.767q-.675.665-1.349,1.331A1.471,1.471,0,0,1,628.657-4.767Z" fill="#1b2917"/>
      <path id="パス_2911" data-name="パス 2911" d="M627.287,3.279,628.3,4.672A1.461,1.461,0,0,1,627.287,3.279Z" fill="#1b2917"/>
      <path id="パス_2912" data-name="パス 2912" d="M679.559-24.08a20.484,20.484,0,0,1-2.114-.471.979.979,0,0,1-.484-.729.852.852,0,0,1,.4-.7,3.634,3.634,0,0,1,1.388-.222c1.851.07,3.059-.577,3.205-2.61.012-.16.474-.421.7-.4a1.081,1.081,0,0,1,.739.508c1.049,2.148.315,3.961-1.774,4.4C681-24.172,680.363-24.162,679.559-24.08Z" fill="#0b1808"/>
      <path id="パス_2913" data-name="パス 2913" d="M694.444-41.092c-.025,3.23-1.009,4.221-4.057,4.577a1.056,1.056,0,0,1-.822-.321.762.762,0,0,1,.2-1.177A3.894,3.894,0,0,0,692.4-42.44a1.359,1.359,0,0,1,.254-.881,1.038,1.038,0,0,1,.733-.407c.246.006.653.238.7.437C694.285-42.387,694.388-41.46,694.444-41.092Z" fill="#0c1a09"/>
      <path id="パス_2914" data-name="パス 2914" d="M715.54-62.288c-.015,2.269-1.126,3.708-3.235,4.015a1.749,1.749,0,0,1-1.218-.566.8.8,0,0,1,.165-1.234c1.915-.923,2.532-2.236,1.58-4.218-.073-.153.189-.6.405-.732a1.006,1.006,0,0,1,1.272.179A3.148,3.148,0,0,1,715.54-62.288Z" fill="#0c1909"/>
      <path id="パス_2915" data-name="パス 2915" d="M673.264-35.548a1.387,1.387,0,0,1-.485-1.672,5.278,5.278,0,0,1,4.2-3.391c.788.488,1.606.936,2.357,1.477a1.306,1.306,0,0,1,.5,1.631.968.968,0,0,1-1.546.365c-1.434-1.112-2.517-.781-3.491.6a2.477,2.477,0,0,1-.7.6A7.065,7.065,0,0,1,673.264-35.548Z" fill="#142610"/>
      <path id="パス_2916" data-name="パス 2916" d="M666.382-27c.138-.61.245-1.228.419-1.827.987-3.394.829-3.381,4.547-2.916.26.675,1.211,1.785.279,1.988-2.081.451-2.739,1.787-3.228,3.508a.9.9,0,0,1-1.068.74C666.608-25.694,666.545-26.4,666.382-27Z" fill="#162b11"/>
      <path id="パス_2917" data-name="パス 2917" d="M683.87-51.88c.473-.053,1.042-.3,1.4-.127,1.862.907,3.3.679,4.4-1.2a.817.817,0,0,1,1.242-.048,1.526,1.526,0,0,1,.341,1.266c-1.207,3.113-3.929,3.837-6.373,1.7a6.6,6.6,0,0,1-1-1.6Z" fill="#0e1e0a"/>
      <path id="パス_2918" data-name="パス 2918" d="M646.24-8.122c1.464-.06,2.613,1.135,3.862.269.54-.375,1.066-.873,1.63-.332a2.2,2.2,0,0,1,.316,2.221,1.313,1.313,0,0,1-1.381,1.069A13.855,13.855,0,0,1,645.3-6.58a.918.918,0,0,1-.285-.8,1.1,1.1,0,0,1,.555-.663A1.513,1.513,0,0,1,646.24-8.122Z" fill="#0b1708"/>
      <path id="パス_2919" data-name="パス 2919" d="M637.553-13.551c.426-1.086,1.07-1.7,2.366-1.338a23.072,23.072,0,0,0,2.61.44c.35.823,1.035,1.746-.543,2.04-.858.16-1.917-.154-2.294,1.047-.237.756-.59,1.649-1.5,1.265-.747-.314-.591-1.307-.577-2.073C637.62-12.63,637.574-13.091,637.553-13.551Z" fill="#13240f"/>
      <path id="パス_2920" data-name="パス 2920" d="M699.076-46.22a4.463,4.463,0,0,1-2.747-.558c-.385-.267-.8-.551-.7-1.12a1.078,1.078,0,0,1,.895-.941c.879-.193,1.869.5,2.674-.409.594-.673,1.393-.975,1.813.1a1.966,1.966,0,0,1-1,2.772C699.706-46.3,699.388-46.271,699.076-46.22Z" fill="#10250c"/>
      <path id="パス_2921" data-name="パス 2921" d="M662.394-14.561l.93-.2c.711-.153,1.248.005,1.358.822.148,1.1-.5,2.208-1.309,2.2A4.592,4.592,0,0,1,662-11.957c-1.868-.605-3.189-1.622-2.768-2.077C660.144-15.016,661.335-14.415,662.394-14.561Z" fill="#0c1909"/>
      <path id="パス_2922" data-name="パス 2922" d="M666.139-18.446a1.177,1.177,0,0,1-1.14-.631.834.834,0,0,1,.469-1.16,5.83,5.83,0,0,0,2.115-1.847.777.777,0,0,1,1.209-.107,1.993,1.993,0,0,1,.558,1.23C669.381-19.2,668.425-18.482,666.139-18.446Z" fill="#0c1b09"/>
      <path id="パス_2923" data-name="パス 2923" d="M709.578-49.706a1.959,1.959,0,0,1-2.782,1.552.989.989,0,0,1-.547-.65,3.142,3.142,0,0,1,.279-1.345c.36-.788-.1-1.982,1.111-2.348C708.475-52.749,709.534-51.212,709.578-49.706Z" fill="#11260d"/>
      <path id="パス_2924" data-name="パス 2924" d="M701.472-58.424a2.181,2.181,0,0,1-1.108,2.324,2.043,2.043,0,0,1-2.511-.544,1.082,1.082,0,0,1-.293-.809c.138-.854,2.426-2,3.39-1.69C701.175-59.07,701.3-58.678,701.472-58.424Z" fill="#10250c"/>
      <path id="パス_2925" data-name="パス 2925" d="M654.694-16.164a2.345,2.345,0,0,1-3.784,1.152c-.353-.242-.588-.912,0-1.171a14.765,14.765,0,0,1,3.1-1A.73.73,0,0,1,654.694-16.164Z" fill="#0d1d0a"/>
      <path id="パス_2926" data-name="パス 2926" d="M652.22-28.856a7.589,7.589,0,0,1-.006-1.886c.43-1.717,1.3-2.164,2.734-1.469,1,.485,1.978,1.033,2.939,1.6.538.316,1.155.7.921,1.461-.345,1.116-1.192.781-1.943.526s-1.467-.557-2.169-.828c-1.082,1.362.042,3.365-1.6,4.378C651.987-26.147,653.219-27.759,652.22-28.856Z" fill="#1c2b18"/>
      <path id="パス_2927" data-name="パス 2927" d="M661.576-36.625c.047-.536.059-1.166.166-1.779.258-1.489,1.2-1.976,2.731-1.4a12.956,12.956,0,0,1,2.1,1c.364.219.871.591.505,1.116-.235.338-.8.81-1.035.725-1.625-.587-2.3.1-2.565,1.62-.09.518-.578.649-1.071.664-.649.019-.714-.5-.819-.926A4.728,4.728,0,0,1,661.576-36.625Z" fill="#1d2d19"/>
      <path id="パス_2928" data-name="パス 2928" d="M667.16-53.038c-.145.239-.319.718-.446.706a3.507,3.507,0,0,0-3.723,2.054c-.08.148-.61.178-.857.079a1,1,0,0,1-.539-.663,3.452,3.452,0,0,1,1.8-3.594,2.574,2.574,0,0,1,3.1.252C666.852-53.913,667.251-53.617,667.16-53.038Z" fill="#1e2e19"/>
      <path id="パス_2929" data-name="パス 2929" d="M642.909-20.616c-1.226-.647-1.059-1.856-1.179-2.944-.09-.806-.146-1.707.643-2.147.969-.54,1.874.034,2.64.61.531.4.9,1.193.241,1.6C644.1-22.782,644.321-21.041,642.909-20.616Z" fill="#0f170d"/>
      <path id="パス_2930" data-name="パス 2930" d="M655.269-38.634c-.264-.114-.683-.158-.779-.357a3.39,3.39,0,0,1,.556-3.909,2.091,2.091,0,0,1,2.546-.588c.605.24,1.1.534,1.12,1.3.014.69-.526.758-.943.775a1.624,1.624,0,0,0-1.735,1.765A1.056,1.056,0,0,1,655.269-38.634Z" fill="#060906"/>
      <path id="パス_2931" data-name="パス 2931" d="M676.155-45.993a3.339,3.339,0,0,0-2.691.4c-.685.506-1.552.763-1.913-.2-.294-.783.382-1.563,1.064-1.9a4.913,4.913,0,0,1,5.672.526.95.95,0,0,1-.13,1l-.1.086A1.764,1.764,0,0,1,676.155-45.993Z" fill="#141e11"/>
      <path id="パス_2932" data-name="パス 2932" d="M652.22-28.856c1.365,1.012.682,2.5.874,3.78-1.017,1.038-1.354.046-1.358-.62A18.693,18.693,0,0,1,652.22-28.856Z" fill="#060906"/>
      <path id="パス_2933" data-name="パス 2933" d="M676.155-45.993l1.9-.082C677.463-45.084,676.82-45.286,676.155-45.993Z" fill="#449d2f"/>
      <path id="パス_2934" data-name="パス 2934" d="M678.157-46.161l.129-1A1.09,1.09,0,0,1,679-46.148l.049-.057-.445.052Z" fill="#449d2f"/>
    </g>
    <g id="グループ_56" data-name="グループ 56" transform="matrix(0.921, -0.391, 0.391, 0.921, -263.697, 5391.22)" opacity="0.1">
      <path id="パス_2935" data-name="パス 2935" d="M327.7,372.481a13.675,13.675,0,0,1,.9,2.7,7.377,7.377,0,0,1-5.028,7.742,21.981,21.981,0,0,1-9.445.988,83.405,83.405,0,0,1-19.809-5.172c-6.336-2.567-11.1-6.771-13.067-13.648-1.062-3.716-.852-6.947,2.74-9.205a4.019,4.019,0,0,0,1.641-2.8c2.221.51,4.031,1.9,6.073,2.808,2.138,1.925,1.378,4.781,2.293,7.1a15.981,15.981,0,0,0,3.359,6.785,11.724,11.724,0,0,0,2.691,2.454c.361.186.711.388,1.068.577a13.281,13.281,0,0,0,1.761.6c.653.133,1.3.28,1.937.467,3.59.264,7.173.569,10.707-.442C319.618,373.591,323.467,370.566,327.7,372.481Z" fill="#fbebca"/>
      <path id="パス_2936" data-name="パス 2936" d="M293.221,317.843c-.344-7.1,1.9-13.518,5.494-19.455a156.2,156.2,0,0,1,9.594-13.68,51.852,51.852,0,0,0,8.857-16.3c1.342-4.415,3.1-8.7,4.63-13.061a6.36,6.36,0,0,1,1.248-2.544,2.9,2.9,0,0,1,2.983-1.074c2.6.73,5.291,1.2,7.582,2.771-.474,2.341-2.669,1.769-4.131,2.417-2.449,1.085-3.971,2.382-2.464,5.414,1.84,3.7.311,7.386-.575,11.037a4.125,4.125,0,0,1-2.1,1.9c-5.415,1.294-8.278,5.507-11.083,9.761-3.055,4.631-5.381,9.664-7.923,14.577a28.053,28.053,0,0,0-5.783,8.9C297.229,311.473,297.38,316.124,293.221,317.843Z" fill="#faeac9"/>
      <path id="パス_2937" data-name="パス 2937" d="M365.072,339.657c-2.15,2.752-5.323,3.97-8.354,5.234a40.961,40.961,0,0,1-17.082,3.6c-.318-.009-.637-.013-.955.005a47.282,47.282,0,0,1-16.914-1.98c-6.8-2.122-13.769-3.792-20.1-7.236-1.109-.6-2.371-1.028-2.67-2.494,2.065-1.435,4.052-.059,6.074.158a29.054,29.054,0,0,0,16.534,3.524c3.455-.353,6.426,1.654,9.7,2.2,3.762,1.156,7.6.649,11.413.5a8.622,8.622,0,0,1,1.258-.311,24.835,24.835,0,0,0,2.928-.486c.334-.133.678-.25,1.014-.376.473-.212.953-.415,1.426-.631.3-.154.607-.287.914-.42a9.753,9.753,0,0,0,1.282-.785,11.667,11.667,0,0,1,1.756-1.138,5.755,5.755,0,0,1,1.556-.623,4.585,4.585,0,0,1,1.176.043c.61.083,1.217.159,1.834.2,1.777.075,3.555-.109,5.327.119A3.966,3.966,0,0,1,365.072,339.657Z" fill="#f8e8c7"/>
      <path id="パス_2938" data-name="パス 2938" d="M325.6,273.63c.274-2.179.62-4.353.8-6.54.154-1.86.395-3.758-1.318-5.238-.813-.7-.488-1.784-.131-2.652a6.548,6.548,0,0,1,4.559-3.765c1.343-.391,2.73-.627,4.1-.933,2.209-.031,4.42-.126,6.628-.078a4.659,4.659,0,0,1,4.846,3.721,14.94,14.94,0,0,1,.6,2.291c.588,6.217,3.019,11.88,5.223,17.613.394.939-.147,1.364-.913,1.663-4.169-1.511-4.117-5.643-5.176-8.885-1.038-3.175-2.5-5-6-4.586-2.2,0-4.4-.082-6.6.087-2.191.442-2.1,2.294-2.555,3.919-.693,2.454-.019,5.345-2.256,7.322-1.689-.035-1.62-1.459-2-2.527A2.765,2.765,0,0,1,325.6,273.63Z" fill="#161514"/>
      <path id="パス_2939" data-name="パス 2939" d="M327.7,372.481c-2.124.482-4.252.946-6.37,1.449a15.383,15.383,0,0,1-5.55.576,48.4,48.4,0,0,1-12.537.021l-1.472-.3a2.435,2.435,0,0,0-1.337-.638l-.331.011-.213-.253c-.206-1.327.76-1.459,1.673-1.652a6.217,6.217,0,0,1,1.375.114,12.164,12.164,0,0,0,2.708.346c2.522.118,5.055-.19,7.523.2.162-.109.462.327.563-.12a93.935,93.935,0,0,1-10.82-3.431c-1.893-.679-3.97-1.319-4.294-3.837a2.252,2.252,0,0,1,1.486-1.5c4.5.525,8.517,2.651,12.807,3.879,4.317,1.234,8.6,2.607,13.167,1.567a22.111,22.111,0,0,0,11.878-7.214,7.991,7.991,0,0,0,1.4-1.974,3.1,3.1,0,0,1,.794-.937c.2-.037.41-.071.616-.106a1.04,1.04,0,0,1,.8.826,6.841,6.841,0,0,1-.269,1.854c-.965,3.486-3.578,5.591-6.442,7.362C332.57,370.134,330.091,371.239,327.7,372.481Z" fill="#171615"/>
      <path id="パス_2940" data-name="パス 2940" d="M299.926,363.657q-.555.579-1.109,1.157c-2.381-.2-2.914-2.143-3.641-3.835-.335.468-.028.982-.2,1.425-.32.839-.592,1.737-1.81,1.421a9.169,9.169,0,0,1-1.152-3.943c-.193-1.206-.5-2.394-.758-3.59a5.24,5.24,0,0,1-.249-6.549c1.84-.977,3.676-.433,5.429.17,3.1,1.064,6.136,2.286,9.2,3.442,1.042.67,2.3.31,3.4.729a26.165,26.165,0,0,1,6.652.041,197.568,197.568,0,0,1,25.98-.034c1.427,1.539.817,3.244.4,4.933q-.46.657-.924,0l0,0c-1.006-1.026-1.635-2.582-3.471-2.443-3.142-.123-6.272.088-9.4-.017-6.587-.106-13.171,0-19.75-.046a18.743,18.743,0,0,1-7.015-1.236c-.9-.323-1.762-.762-2.631-1.166-.716-.3-1.4-.669-2.591-1.217.835,2.183,1.9,3.878,2.531,5.734C299.182,360.309,300.446,361.787,299.926,363.657Z" fill="#191610"/>
      <path id="パス_2941" data-name="パス 2941" d="M350.775,341.5a.715.715,0,0,1-.821.312,2.735,2.735,0,0,1-1.487.377,1.173,1.173,0,0,1-.87-.455,1.5,1.5,0,0,1,.01-.984,2.619,2.619,0,0,1,.747-.627c.408-.233.83-.448,1.243-.675a6.667,6.667,0,0,1,.809-.4c.251-.144.5-.29.739-.453-.012-.008.316-.281.3-.288a3.518,3.518,0,0,1,.122-.385s-.365.169-.386.167a3.015,3.015,0,0,1-.977-.116c-1.049-.3-2.288-.294-2.588-1.709a1.534,1.534,0,0,1,.744-.878,4.757,4.757,0,0,1,1.148-.314,7.087,7.087,0,0,1,1.156-.045,7.8,7.8,0,0,1,1.6.247,5.545,5.545,0,0,0,1.393.236,2.688,2.688,0,0,0,.813-.285,4.525,4.525,0,0,0,.643-.587c-.008-.011.266-.354.257-.366.14-.279.285-.548.418-.831.117-.31.248-.606.373-.909.165-.5.3-1.006.418-1.52.107-.572.236-1.135.377-1.7a11.6,11.6,0,0,0-.462-6.811c-1.451-3.454-2.321-7.113-3.847-10.537-2.145-5.152-3.438-10.612-5.763-15.7-.677-1.483-1.194-3.315.634-4.229,2.106-1.052,2.7,1.084,3.378,2.351,2.951,5.505,4.107,11.716,6.69,17.374,1.221,4.09,3.209,7.993,3.061,12.418q-.015,1.8-.063,3.607a12.964,12.964,0,0,1-.347,2.7c-.214.82-.524,1.612-.788,2.416a9.234,9.234,0,0,1-.418,1.127c-.224.516-.485,1.02-.7,1.535a1.538,1.538,0,0,0,.423,1.835,4.621,4.621,0,0,0,2.929-.018c.561-.169,1.135-.3,1.7-.436.535-.161,1.071-.327,1.6-.523a9.1,9.1,0,0,1,1.068-.346c.734-.2,1.451-.457,2.195-.633a2.805,2.805,0,0,1,1.169.111c.526.343.932.732.537,1.422l-.018-.018a1.9,1.9,0,0,1-.9.541l-1.006.418c-.524.565-1.4.341-1.942.873l-.266.248-.356-.069c-.675.448-1.566.222-2.228.712a9.329,9.329,0,0,1-6.79-.1c-.437-.21-.8-.581-1.336-.571l-.091-.023a2.7,2.7,0,0,0-1.368.646,2.594,2.594,0,0,1-1.829,1.2Q351.312,341.182,350.775,341.5Z" fill="#1e1d1d"/>
      <path id="パス_2942" data-name="パス 2942" d="M304.752,338.029c-2.064.268-3.74-1.271-5.753-1.239a31.383,31.383,0,0,1-3.533-3.147,14.013,14.013,0,0,1-3.039-11.6c.214-1.409.526-2.8.794-4.2,1.359-1.416,1.726-3.383,2.759-4.98.942-1.457,1.361-3.239,2.746-4.421,1.972,2.51.7,5.33.189,7.731-1.66,7.769-.335,14.475,5.446,20.111A1.626,1.626,0,0,1,304.752,338.029Z" fill="#f3b32e"/>
      <path id="パス_2943" data-name="パス 2943" d="M382.28,313.889a10.539,10.539,0,0,1,.052,4.821c-.876,1.24,0,2.816-.782,4.074a.537.537,0,0,1-.15.713.888.888,0,0,1-1.152.064,3.477,3.477,0,0,1-.591-1.153,7.884,7.884,0,0,1-.2-1.913,11.094,11.094,0,0,1,.287-2.463,5.176,5.176,0,0,0-.167-2.971c-1.832-7.619-3.768-15.169-11.205-19.571-1.731-1.794-5.244-1.646-5.507-5.038.373-.718.857-1.179,1.727-.75a30.759,30.759,0,0,1,9.283,5.8,23.82,23.82,0,0,1,7.722,14.97C381.991,311.581,381.7,312.822,382.28,313.889Z" fill="#1e1d1b"/>
      <path id="パス_2944" data-name="パス 2944" d="M291,349.743a20.887,20.887,0,0,1,.249,6.548c-2.323-.277-4.488-.833-5.62-3.2a7.855,7.855,0,0,1,.045-.91c.459-2.729.58-2.848,3.073-2.725C289.5,349.489,290.251,349.643,291,349.743Z" fill="#f6b838"/>
      <path id="パス_2945" data-name="パス 2945" d="M369.959,336.974l-1.411-1.222a20.3,20.3,0,0,1,8.726-7.782,1.668,1.668,0,0,1,1.365,1.349A16.525,16.525,0,0,1,369.959,336.974Z" fill="#2d2b29"/>
      <path id="パス_2946" data-name="パス 2946" d="M341.664,354.091l-25.977.033a1.675,1.675,0,0,1,.439-.172,177.618,177.618,0,0,1,24.706-.3C341.115,353.667,341.387,353.939,341.664,354.091Z" fill="#212121"/>
      <path id="パス_2947" data-name="パス 2947" d="M349.734,279.348l1.174-1.3a56.552,56.552,0,0,0,7.568,7.879c.366.923-.2,1.338-.911,1.676C352.854,286.668,350.342,284.019,349.734,279.348Z" fill="#292929"/>
      <path id="パス_2948" data-name="パス 2948" d="M357.163,287.152l1.313-1.224a31,31,0,0,1,6.118,3.774l-1.391,1.191C360.221,291.211,358.051,290.217,357.163,287.152Z" fill="#2c2c2c"/>
      <path id="パス_2949" data-name="パス 2949" d="M378.639,329.319l-1.209-1.391a1.536,1.536,0,0,1-.033-.982,8.446,8.446,0,0,1,.364-.94c.125-.314.272-.617.422-.92.2-.478.366-.966.518-1.463a2.6,2.6,0,0,1,.843-1.37.761.761,0,0,1,.944.286q.006.495.014.99a1.743,1.743,0,0,1,.082,2.124.6.6,0,0,1-.252.751,3.232,3.232,0,0,0-.693,1.21.578.578,0,0,1-.326.716q-.339.512-.693,1.013Z" fill="#272625"/>
      <path id="パス_2950" data-name="パス 2950" d="M381.55,322.784c-.032-1.414-.512-2.914.782-4.074A5.269,5.269,0,0,1,381.55,322.784Z" fill="#272625"/>
      <path id="パス_2951" data-name="パス 2951" d="M382.28,313.889c-1.088-.965-.791-2.206-.681-3.411A4.269,4.269,0,0,1,382.28,313.889Z" fill="#272625"/>
      <path id="パス_2952" data-name="パス 2952" d="M309.032,354.084c-1.218.152-2.464.429-3.4-.729A5.4,5.4,0,0,1,309.032,354.084Z" fill="#212121"/>
      <path id="パス_2953" data-name="パス 2953" d="M341.139,359.025c.308.009.616.008.924,0a2.269,2.269,0,0,1-.764,2.333Q341.219,360.191,341.139,359.025Z" fill="#212121"/>
      <path id="パス_2954" data-name="パス 2954" d="M363.243,339.679a2.2,2.2,0,0,1,2.228-.712,3.705,3.705,0,0,0-.4.69Z" fill="#282012"/>
      <path id="パス_2955" data-name="パス 2955" d="M366.093,338.788a2.048,2.048,0,0,1,1.942-.873A2.254,2.254,0,0,1,366.093,338.788Z" fill="#282012"/>
      <path id="パス_2956" data-name="パス 2956" d="M380.584,325.653q-.041-1.062-.082-2.125c.3-.015.6-.026.9-.031A2.285,2.285,0,0,1,380.584,325.653Z" fill="#2b2926"/>
      <path id="パス_2957" data-name="パス 2957" d="M379.639,327.614l.693-1.21A1.252,1.252,0,0,1,379.639,327.614Z" fill="#2b2926"/>
      <path id="パス_2958" data-name="パス 2958" d="M378.62,329.343l.693-1.013A1.024,1.024,0,0,1,378.62,329.343Z" fill="#2b2926"/>
      <path id="パス_2959" data-name="パス 2959" d="M369.041,337.5l.9-.541Z" fill="#282012"/>
      <path id="パス_2960" data-name="パス 2960" d="M293.161,363.825c.819-.442.893-1.249,1-2.04a1.037,1.037,0,0,1,1.218.16c1.2,2.413,2.793,4.673,2.922,7.507a2.108,2.108,0,0,1-1.433,1.378A12.057,12.057,0,0,1,293.161,363.825Z" fill="#24221e"/>
      <path id="パス_2961" data-name="パス 2961" d="M303.24,374.527l12.535-.021A23.121,23.121,0,0,1,303.24,374.527Z" fill="#23201c"/>
      <path id="パス_2962" data-name="パス 2962" d="M296.868,370.83q.585-.636,1.172-1.27c2.07-.1,3.545.594,3.826,2.877-.762.079-1.529.145-1.979.907A4.855,4.855,0,0,1,296.868,370.83Z" fill="#23201c"/>
      <path id="パス_2963" data-name="パス 2963" d="M300.431,373.586a1.412,1.412,0,0,1,1.337.638A1.243,1.243,0,0,1,300.431,373.586Z" fill="#23201c"/>
      <path id="パス_2964" data-name="パス 2964" d="M304.752,338.029a9.336,9.336,0,0,0-.951-1.04c-6.03-4.9-7.779-11.272-6.543-18.718.543-3.27.983-6.557,1.469-9.833a16.333,16.333,0,0,1,5.874-9.288,17.922,17.922,0,0,1,5.193-4.01c7.1-3.678,11.6-9.544,13.913-17.151a5.105,5.105,0,0,1,2.2-3.435c1.04.8.735,2.014.934,3.073,1.577,2.882-.432,5.185-1.226,7.686a32.772,32.772,0,0,1-15.764,14.846,13.306,13.306,0,0,0-8.029,10.576c-.431,2.524-.717,5.063-1.11,7.589-1.819,11.72,5.16,19.893,17.957,20.071-5.634-8.254-3.848-15.891,1.289-23.228a8.813,8.813,0,0,1,3.006-2.891c1.227-.655,2.638-1.51,3.791-.1,1.027,1.251-.032,2.319-.848,3.256a17.1,17.1,0,0,0-2.153,2.442c-2.637,3.34-4.562,7.087-4.022,11.385.555,4.409,2.217,8.359,7.459,9.236,1.768.3,3.028,1.708,4.634,2.386a8.217,8.217,0,0,0,3.869.592q2.057,0,4.11-.005a12.4,12.4,0,0,0,4.063-.45,6.821,6.821,0,0,1,2.1-.206,3.49,3.49,0,0,1,1.9.906l.017.026q.441.316.311.657t-.272.345l-.079.028c-.809.752-2.109-.019-2.858.921l-.386.242-.442-.113a50.6,50.6,0,0,1-12.684-.041,2.851,2.851,0,0,1-.948.007,34.769,34.769,0,0,0-12.644-1.791C313.121,342.108,308.9,340.1,304.752,338.029Z" fill="#130f07"/>
      <path id="パス_2965" data-name="パス 2965" d="M324.6,278.485a26.94,26.94,0,0,1-13.721,17.328c-2.076,1.143-4.185,2.227-6.278,3.338a88.211,88.211,0,0,1,10.727-19.057,20,20,0,0,1,5.737-4.97,3.9,3.9,0,0,1,2.742-.548C325.252,275.64,323.848,277.281,324.6,278.485Z" fill="#f6b32a"/>
      <path id="パス_2966" data-name="パス 2966" d="M324.6,278.485c-1.022-1.15-.709-2.569-.792-3.909l1.794-.947c.1.309.2.617.305.924Z" fill="#f5d79a"/>
      <path id="パス_2967" data-name="パス 2967" d="M331.472,343.779l12.685.041A19.128,19.128,0,0,1,331.472,343.779Z" fill="#282012"/>
      <path id="パス_2968" data-name="パス 2968" d="M344.984,343.691c.679-1.156,1.764-1.056,2.858-.921A2.509,2.509,0,0,1,344.984,343.691Z" fill="#282012"/>
      <path id="パス_2969" data-name="パス 2969" d="M347.921,342.742c-.013-.334-.027-.668-.04-1l2.073.072A2.245,2.245,0,0,1,347.921,342.742Z" fill="#282012"/>
      <path id="パス_2970" data-name="パス 2970" d="M353.658,339.628l1.367-.646Z" fill="#282012"/>
      <path id="パス_2971" data-name="パス 2971" d="M355.117,339.005l1.336.571A1.389,1.389,0,0,1,355.117,339.005Z" fill="#282012"/>
      <path id="パス_2972" data-name="パス 2972" d="M350.775,341.5q.527-.334,1.054-.668A1.039,1.039,0,0,1,350.775,341.5Z" fill="#282012"/>
      <path id="パス_2973" data-name="パス 2973" d="M322.872,317.367c.454-1.468,1.712-2.237,2.785-3.152.62-.528,1.244-1.03.968-1.933-.191-.627-1.379-.407-2.459.472-.614.5-1.195,1.038-1.778,1.573s-1.149,1.087-1.723,1.632c-3.255-.8-2.76-3.424-2.706-5.745a9.727,9.727,0,0,1,1.61-4.936,34.8,34.8,0,0,0,5.258-20.364c.355-2.516,2.153-4.634,2.014-7.287,1.4-2.931,1.146-6.158,1.642-9.251.172-1.073-.131-2.22.558-3.328h2.292c1.94.863,4.06-.037,6.021.612a3.272,3.272,0,0,1,1.025,2.1c1.58,14.043,6.249,27.311,10.218,40.754.76,2.575,1.465,5.156,5.1,3.437,1.98,3.288,2.651,7.058,3.9,10.616a18.587,18.587,0,0,1,.01,7.629q-.145.717-.29,1.434a2.3,2.3,0,0,1-.7,1.452.476.476,0,0,0-.245.635,2.36,2.36,0,0,1-.832,1.3l0,0a4.675,4.675,0,0,0-.83,1l-.094.088a1.981,1.981,0,0,1-1.915.089l-2.19-.841-.69-.033c-.213-.087-.426-.175-.639-.261-7.786-6.64-15.865-12.826-25.529-16.577A1.338,1.338,0,0,1,322.872,317.367Z" fill="#fbebca"/>
      <path id="パス_2974" data-name="パス 2974" d="M353.692,311.95c-.19,1.134-.5,2.178-1.732,2.641a2.224,2.224,0,0,1-3.1-1.216c-.408-1.034-.763-2.094-1.072-3.163-3-10.367-6.585-20.564-8.807-31.155-.914-4.354-1.872-8.681-1.709-13.166.645-.618,1.537-.507,2.3-.775,4.54-.191,4.525-.186,6,4.325,1.115,3.415,1.817,7.008,4.165,9.907a17.982,17.982,0,0,0,7.429,7.8,15.937,15.937,0,0,0,6.04,3.741l5.762,3.9c.237,1.459-.941,1.858-1.847,2.446-4.653,3.014-4.679,3.021-2.448,8.313.9,2.134,1.946,4.434-.572,5.953-2.278,1.375-4.808,3.744-7.548.545-1.858-3.169-2.677-6.733-3.881-10.152-.944-2.681-1.978-5.332-3.041-7.969a4.624,4.624,0,0,0-1.158-1.47c-.144-.137-.61-.083-.831.048a1,1,0,0,0-.479.717,3.89,3.89,0,0,0,.393,1.32C350.128,300.157,351.709,306.124,353.692,311.95Z" fill="#fff"/>
      <path id="パス_2975" data-name="パス 2975" d="M341.928,257.258c1.569,1.084,1.527,2.831,1.737,4.437.04.3-.415.815-.763.993a8.392,8.392,0,0,1-1.754.486,11.441,11.441,0,0,1-4.628.184,5.578,5.578,0,0,1-2.19-6.23l-.028.031A14.4,14.4,0,0,1,341.928,257.258Z" fill="#f0f0f0"/>
      <path id="パス_2976" data-name="パス 2976" d="M334.33,257.128a21.135,21.135,0,0,1,2.008,5.927,9.077,9.077,0,0,1-5.763.037c-1.551-.657-3.447-1.116-3.01-3.4.354-1.848,2.033-2.164,3.558-2.415A26.09,26.09,0,0,1,334.33,257.128Z" fill="#f6e7c8"/>
      <path id="パス_2977" data-name="パス 2977" d="M330.575,263.092l5.762-.037,4.811.119A13.483,13.483,0,0,1,330.575,263.092Z" fill="#3b3935"/>
      <path id="パス_2978" data-name="パス 2978" d="M341.928,257.258l-7.625-.1C336.856,256.286,339.406,255.682,341.928,257.258Z" fill="#f6e7c8"/>
      <path id="パス_2979" data-name="パス 2979" d="M339.572,265.116l-2.3.775c-1.956-.445-4.073.242-5.938-.843A34.669,34.669,0,0,1,339.572,265.116Z" fill="#3b3935"/>
      <path id="パス_2980" data-name="パス 2980" d="M301.056,354.019c2.044.194,3.82,1.616,5.975,1.3a131.659,131.659,0,0,0,22.138-.036,38.84,38.84,0,0,0,9.479.009c2.271.485,2.251,1.985,1.657,3.74a.751.751,0,0,0-.175.833c-.5.59-.345,1.483-.939,2.03a20.816,20.816,0,0,1-12.142,7.908,2.972,2.972,0,0,1-2.755-.239c-7.4-5.6-16.019-8.97-24.09-13.349a2.953,2.953,0,0,1-.635-1.271C299.74,354.119,300.146,353.664,301.056,354.019Z" fill="#fefefe"/>
      <path id="パス_2981" data-name="パス 2981" d="M299.785,355.247c2.92,1.27,5.868,2.48,8.754,3.823a71.8,71.8,0,0,1,15.924,9.594,10.272,10.272,0,0,0,2.587,1.142c-2.555,1.324-5.3.979-7.894.5-6.1-1.121-11.843-3.5-17.642-5.633a8.549,8.549,0,0,1-1.588-1.019c-.462-1.61-1.92-2.8-1.934-4.6C302.058,359.42,298.611,356.247,299.785,355.247Z" fill="#f9e9c9"/>
      <path id="パス_2982" data-name="パス 2982" d="M301.866,372.437l-3.826-2.877c-1.2-2.383-2.876-4.558-3.184-7.329-.141-.907-.84-2.054.921-2.145,1,1.583,1.387,3.564,3.04,4.728a3.525,3.525,0,0,0,2.416,2.078c4.938,1.521,9.628,3.825,14.774,4.685.353,2.05-1.5,1.164-2.275,1.711h-8.673c-.76-.227-1.553-.335-2.3-.622A.973.973,0,0,0,301.866,372.437Z" fill="#f0e0c1"/>
      <path id="パス_2983" data-name="パス 2983" d="M313.732,373.288c.6-.777,2.185-.251,2.275-1.711.593.048,1.344-.063,1.525.679s-.419,1.015-1.057,1.106a4.992,4.992,0,0,1-.914.052C314.951,373.388,314.342,373.331,313.732,373.288Z" fill="#23201c"/>
      <path id="パス_2984" data-name="パス 2984" d="M340.3,359.036c-.093-1.449.386-3.151-1.655-3.739,1.422-.149,2.41.276,2.468,1.9.021.61.017,1.221.025,1.832l-.419.008Z" fill="#212121"/>
      <path id="パス_2985" data-name="パス 2985" d="M302.762,372.666a3.1,3.1,0,0,1,2.3.622A2.128,2.128,0,0,1,302.762,372.666Z" fill="#23201c"/>
      <path id="パス_2986" data-name="パス 2986" d="M339.191,361.9a2.8,2.8,0,0,1,.939-2.03A1.794,1.794,0,0,1,339.191,361.9Z" fill="#212121"/>
      <path id="パス_2987" data-name="パス 2987" d="M299.785,355.247c-.107,1.326,1.007,2.187,1.415,3.276-1.067.872-2.182.391-3.208.536a47.564,47.564,0,0,1-3.036-6.934,5.453,5.453,0,0,1,3.8.879c.8.522.607,1.482.965,2.2Z" fill="#e7ad35"/>
      <path id="パス_2988" data-name="パス 2988" d="M329.169,355.287a151.621,151.621,0,0,1-20.373.641,6.169,6.169,0,0,1-1.764-.605C314.41,355.1,321.789,354.99,329.169,355.287Z" fill="#212121"/>
      <path id="パス_2989" data-name="パス 2989" d="M295.777,360.086c-.684.553-.669,1.406-.921,2.145a2.227,2.227,0,0,1-.695-.446c.1-1.378-.614-2.763.035-4.179C295.6,357.89,295.557,359.072,295.777,360.086Z" fill="#ccbc9c"/>
      <path id="パス_2990" data-name="パス 2990" d="M299.72,355.2a2.272,2.272,0,0,1-.963-2.2c.836.178,1.747.19,2.3,1.015Z" fill="#e1d6bf"/>
      <path id="パス_2991" data-name="パス 2991" d="M356.55,312.046c.747.2,1.577.718,2.224.545a29.126,29.126,0,0,0,4.849-1.84,1.786,1.786,0,0,0,.952-2.727c-.8-1.722-1.721-3.386-2.511-5.112-1.017-2.221-.854-2.9.869-4.6a5.94,5.94,0,0,1,2.765-1.741,5.782,5.782,0,0,0,3.267-1.785,17.643,17.643,0,0,1,8.165,8.811,40.22,40.22,0,0,1,3.477,12.229,1.616,1.616,0,0,1,0,1.9l-.21,2.652c-.384.671-.309,1.479-.646,2.164q-.178.735-.358,1.468a2.61,2.61,0,0,1-.681,1.39.561.561,0,0,0-.245.68,3.532,3.532,0,0,1-.741,1.244.48.48,0,0,0-.294.6,33.4,33.4,0,0,1-8.882,7.824.4.4,0,0,0-.542.261c-.543.556-1.433.349-1.977.9l-.929.264c-.449.2-.822.574-1.352.585l-1.521.3a7.211,7.211,0,0,1-4.752-.083c-1.493-.961.1-1.894.026-2.842a4.716,4.716,0,0,0,.644-1.033l.317-.89c.492-.578.374-1.387.762-2a2.683,2.683,0,0,0,.221-2.347,7.132,7.132,0,0,0,0-4.938c.435-2.64-.766-4.967-1.443-7.388C357.58,315.022,357.038,313.541,356.55,312.046Z" fill="#fbebca"/>
      <path id="パス_2992" data-name="パス 2992" d="M322.872,317.367a27.707,27.707,0,0,1,8.724,3.569,110.257,110.257,0,0,1,12.587,8.449c2.088,1.658,4.282,3.249,5.565,5.707a1.881,1.881,0,0,1-1.447.816l-.236-.127-.2.18c-.062,3.165,3.09.323,3.8,2.036l-.069-.047c.248.191.333.384.253.579s-.162.294-.244.294l.055-.041a2.1,2.1,0,0,1-1.3.931.49.49,0,0,0-.591.228,3.022,3.022,0,0,1-1.364.724l-.3-.04-.241.187c-.608.613-1.507.423-2.2.8L344,341.89c-1.321.649-2.846.022-4.168.665l-4.067-.01c-1.338-.621-2.876,0-4.2-.676-1.154-.441-2.485-.52-3.184-1.831a1.3,1.3,0,0,0-1.58-.738c-1.826.6-3.028-.537-4.2-1.567a11.813,11.813,0,0,1-4.128-9.723C318.648,324.025,319.7,320.2,322.872,317.367Z" fill="#f7b429"/>
      <path id="パス_2993" data-name="パス 2993" d="M357.6,330.2l-.01-7.629A8.894,8.894,0,0,1,357.6,330.2Z" fill="#282012"/>
      <path id="パス_2994" data-name="パス 2994" d="M351.671,338a22.076,22.076,0,0,1-3.741-.453c-.909-.262-1.14-1.006-.063-1.583a2.159,2.159,0,0,0,1.936.975A1.982,1.982,0,0,1,351.671,338Z" fill="#282012"/>
      <path id="パス_2995" data-name="パス 2995" d="M357.475,337.977l4.753.083A3.505,3.505,0,0,1,357.475,337.977Z" fill="#282012"/>
      <path id="パス_2996" data-name="パス 2996" d="M359.446,323.923a5.089,5.089,0,0,1,0,4.938Q359.445,326.392,359.446,323.923Z" fill="#282012"/>
      <path id="パス_2997" data-name="パス 2997" d="M345.672,341.613a2.55,2.55,0,0,1,2.2-.8c-.007.3-.01.6-.007.9Z" fill="#282012"/>
      <path id="パス_2998" data-name="パス 2998" d="M366.029,336.915a2.713,2.713,0,0,1,1.977-.9A1.983,1.983,0,0,1,366.029,336.915Z" fill="#282012"/>
      <path id="パス_2999" data-name="パス 2999" d="M352.694,336.2l1.915-.089C354.008,336.928,353.372,337.022,352.694,336.2Z" fill="#282012"/>
      <path id="パス_3000" data-name="パス 3000" d="M359.224,331.208a2.26,2.26,0,0,1-.762,2A2.088,2.088,0,0,1,359.224,331.208Z" fill="#282012"/>
      <path id="パス_3001" data-name="パス 3001" d="M356.613,333.081a1.633,1.633,0,0,1,.7-1.451A1.676,1.676,0,0,1,356.613,333.081Z" fill="#282012"/>
      <path id="パス_3002" data-name="パス 3002" d="M355.536,335.018a1.55,1.55,0,0,1,.832-1.3A1.55,1.55,0,0,1,355.536,335.018Z" fill="#282012"/>
      <path id="パス_3003" data-name="パス 3003" d="M358.145,334.1a1,1,0,0,1-.644,1.033Z" fill="#282012"/>
      <path id="パス_3004" data-name="パス 3004" d="M348.3,335.908l1.447-.816-.05-.035a.9.9,0,0,1,.376.726Z" fill="#282012"/>
      <path id="パス_3005" data-name="パス 3005" d="M350.074,335.783a.991.991,0,0,1-.376-.726.559.559,0,0,1,.809.3A.83.83,0,0,1,350.074,335.783Z" fill="#f7b429"/>
      <path id="パス_3006" data-name="パス 3006" d="M354.7,336.02l.83-1Z" fill="#282012"/>
      <path id="パス_3007" data-name="パス 3007" d="M363.748,337.764a1.455,1.455,0,0,1,1.352-.585Z" fill="#282012"/>
      <path id="パス_3008" data-name="パス 3008" d="M351.611,338.823a1.561,1.561,0,0,0-.009-.873Q352.738,338.373,351.611,338.823Z" fill="#282012"/>
      <path id="パス_3009" data-name="パス 3009" d="M350.369,339.713l1.3-.931A1.451,1.451,0,0,1,350.369,339.713Z" fill="#282012"/>
      <path id="パス_3010" data-name="パス 3010" d="M348.414,340.665l1.363-.724A1.561,1.561,0,0,1,348.414,340.665Z" fill="#282012"/>
      <path id="パス_3011" data-name="パス 3011" d="M380.605,317.73l0-1.9Q381.917,316.781,380.605,317.73Z" fill="#272625"/>
      <path id="パス_3012" data-name="パス 3012" d="M379.749,322.546a3.05,3.05,0,0,1,.646-2.164l.093,2.157C380.242,322.544,380,322.547,379.749,322.546Z" fill="#2b2926"/>
      <path id="パス_3013" data-name="パス 3013" d="M378.71,325.4a1.626,1.626,0,0,1,.681-1.389A1.587,1.587,0,0,1,378.71,325.4Z" fill="#2b2926"/>
      <path id="パス_3014" data-name="パス 3014" d="M377.724,327.328l.741-1.244Z" fill="#2b2926"/>
      <path id="パス_3015" data-name="パス 3015" d="M324.827,284.914a18.6,18.6,0,0,1-.5,13.8c-1.319,2.707-2.751,5.36-4.15,8.028a11.19,11.19,0,0,0-1.269,5.5,4.491,4.491,0,0,0,1.762,3.717c-1.485,2.624-3.06,5.159-3.8,8.178a15.519,15.519,0,0,0,2.457,13.177c.438.63.95,1.21,1.374,1.747-.434,1.288-1.359.909-2.042.909a21.694,21.694,0,0,1-11.375-3.177c-6.211-3.749-9.014-9.3-8.184-16.525.418-3.637,1.179-7.233,1.756-10.852a11.874,11.874,0,0,1,6.634-9.353c1-.5,1.948-1.092,2.951-1.579a30.913,30.913,0,0,0,13.472-12.5A7.536,7.536,0,0,1,324.827,284.914Z" fill="#f7b429"/>
      <path id="パス_3016" data-name="パス 3016" d="M339.83,342.555A7.265,7.265,0,0,1,344,341.89C342.774,343.146,341.275,342.684,339.83,342.555Z" fill="#282012"/>
      <path id="パス_3017" data-name="パス 3017" d="M331.558,341.869a7.123,7.123,0,0,1,4.2.676C334.3,342.674,332.79,343.152,331.558,341.869Z" fill="#282012"/>
    </g>
    <g id="グループ_59" data-name="グループ 59" transform="translate(311.357 5154.704) rotate(30)" opacity="0.1">
      <path id="パス_3174" data-name="パス 3174" d="M23.449,336.57a8.445,8.445,0,0,0-1.3,1.332c-1.809,2.906-4.556,4.508-7.623,5.756A42.553,42.553,0,0,1-2.936,347.21c-1.62-.049-3.243,0-4.865-.006a57.34,57.34,0,0,0-8.587.4,51.822,51.822,0,0,1-5.6.335,16.828,16.828,0,0,1-8.045-1.314,6.679,6.679,0,0,0-1.451-.329c-1.891-.878-4.565-.986-4.108-4.179,10.846,1.145,20.794-2.964,31.117-5.058,6.211-1.26,12.247-3.236,18.532-4.165a14.661,14.661,0,0,0,8.392-3.815,2.321,2.321,0,0,1,2.676-.824C26.6,331.438,25.171,334.034,23.449,336.57Z" transform="translate(-20.895 -11.084)" fill="#de5c28"/>
      <path id="パス_3175" data-name="パス 3175" d="M-125.349,310.8a3.433,3.433,0,0,1-.737.027c-1.927-.339-2-.48-1.223-2.372a5.9,5.9,0,0,1,3.378-3.786c2.924-1.476,3.5-3.631,2.295-6.493a4.5,4.5,0,0,1-.207-.717c-1.081-4.634-.017-5.772,4.535-4.5,2.48.69,3.681.447,2.824-2.452-.068-4.208,1.5-7.87,3.753-11.308a1.488,1.488,0,0,1,2.173-.629,6.635,6.635,0,0,1,3.313,2.3c1.978,2.577,3.985,2.135,6.4.533,1.92-1.276,3.541-3.848,6.516-2.3.844.536,1.9,1.071,2.121,2.007,1.034,4.4,4.273,4.8,7.911,4.585a2.841,2.841,0,0,1,1.637.951c2.4,2.443,1.46,5.267,1,8.084-.233,1.436-1.7,3.384.52,4.224a4.134,4.134,0,0,0,5.4-2.014c1.3-2.189,2.335-4.723,5.043-5.712l3.815-1.771c2.839-2.1,6.11-1.684,9.326-1.6,4.153,1.282,8.474.265,12.672.914l2.733.216c.12.813-.447,1.1-1.042,1.364a14.222,14.222,0,0,1-3.777.338q-3.476,0-6.95.013c-2.2.066-4.423-.26-6.6.316a40.094,40.094,0,0,0-7.015,1.6c-.3.165-.61.324-.906.5-.134.108-.277.2-.411.31-1.865,2.462-4.545,4.375-4.171,8.155.141,1.427-1.748,1.785-3.129,1.94-1.06-.218-2.011-.875-3.155-.766-5.515-.2-5.811-.393-6.675-4.3-.026-1.848.587-3.61.785-5.435.428-3.949.064-4.392-3.94-4.63-2.89.466-4.834-.288-5.333-3.585-.3-1.977-1.679-2.31-3.361-1.27-.853.527-1.673,1.1-2.548,1.6-3.9,2.186-5.365,1.972-8.627-1.085-.807-.755-1.416-2.346-3.008-1.14a14.6,14.6,0,0,0-1.819,5.949c-.19,1.516-.1,3.13,2.233,2.73,4.1-2.958,4.094-2.947,8.3.111,2.613,1.9,5.046,3.8,8.813,2.929,2.541-.59,2.659,1.969,2.9,3.831.059.326.109.657.172.983.1.31.168.628.235.946a26.112,26.112,0,0,0,.58,2.811,2.553,2.553,0,0,1-.034.978,1.532,1.532,0,0,1-.658.719l-.5.026a2.191,2.191,0,0,1-1.123-.973,6,6,0,0,1-.453-1.428,8.473,8.473,0,0,0-.667-1.855c-.683-1.947-2.009-1.925-3.6-1.223-2.493,1.1-4.29.6-5.356-2.132a8.212,8.212,0,0,0-3.217-3.577,2.457,2.457,0,0,0-2.929-.015,7.869,7.869,0,0,0-1.336,1.112c-.181.23-.365.456-.534.694-.218.4-.411.82-.628,1.227a2,2,0,0,1-2.157.907c-1.971-.25-3.923-.625-5.851-.938-.861.875-.19,1.708-.037,2.484.65,3.288-.1,6.058-3.2,7.64-1.909.974-1.928,2.165-1.162,3.783C-123.111,311.405-124.229,311.118-125.349,310.8Z" transform="translate(-0.965 -0.318)" fill="#0b0d09"/>
      <path id="パス_3176" data-name="パス 3176" d="M20.5,326.177c-3.191,3.766-7.537,5.181-12.181,5.991-1.6.28-3.2.581-4.8.875a4.327,4.327,0,0,1-.733.156c-1.858,0-2.889,2.087-5.106,1.69-1.748-.313-3.684.452-5.54.714a39.476,39.476,0,0,0-8.676,2.352,53.9,53.9,0,0,1-16.916,3.109,60.264,60.264,0,0,1-6.725-.391c-4.095.828-7.311-.694-9.961-3.729-1.812-1.726-4.145-2.932-5.308-5.309-.393-.66.035-.962.535-1.234,1.5-.157,2.024,1.2,2.963,1.915a26.934,26.934,0,0,0,7.1,4.52,15.092,15.092,0,0,0,1.435.511c.516.12,1.027.243,1.545.353,3.6.2,7.1,1.016,10.817.572,3.357-.4,3.614-1.759,2.748-4.413a20.245,20.245,0,0,1-.935-7.791c.107-1.486.038-3.542,1.912-3.552,1.762-.009,1.458,2.053,1.479,3.319a35.887,35.887,0,0,0,1.291,8.14c.556,2.218,1.639,3.239,4.045,2.472,2.331-.743,4.367-1.514,3.315-4.644a28.992,28.992,0,0,1-1-3.229c-.211-.995-.383-2.126.839-2.561s1.782.616,2.324,1.439A11.989,11.989,0,0,1-13.56,331.3c.44,1.815,1.531,2.456,3.331,2.065a22.981,22.981,0,0,1,3.7-.654c2.94-.149,4.663-1.53,4.9-4.565.038-.494-.07.114.07-.368.571-1.969.5-5.435,2.746-5.082,2.784.436.693,3.51.809,5.419.068,1.13-.317,2.52,1.541,2.172,5.606-1.052,11.642-1.174,15.314-6.678,1.442-1.512,1.564-3.909,3.436-5.132,1.269.281,1.329,1.32,1.465,2.318C23.585,323.139,22.89,325.169,20.5,326.177Z" transform="translate(-16.578 -9.005)" fill="#120805"/>
      <path id="パス_3177" data-name="パス 3177" d="M-115.449,293.863c.867,1.25.847,2.75,1.348,4.052a2.539,2.539,0,0,1-2.636-.095c-1.379-.562-2.743-1.17-4.144-1.67-.958-.342-1.652.285-1.643,1.357a11.438,11.438,0,0,0,.766,3.626c1.769,5.142,1.353,5.406-2.719,7.74a33.2,33.2,0,0,0-3.8,2.943,13.332,13.332,0,0,1-3.948-9,6.5,6.5,0,0,1,3.957-6.588,13.931,13.931,0,0,1,7.609-1.3c1.112.108,2.218.3,3.322.474C-115.807,295.646-115.809,295.655-115.449,293.863Z" transform="translate(0 -3.681)" fill="#86a959"/>
      <path id="パス_3178" data-name="パス 3178" d="M-83.495,332.2c3.182,7.39.087,11.164-6.194,13.9a6.377,6.377,0,0,1-5.791-.233c-1.982-1.066-4.081-1.911-5.443-3.863-.264-.379-.8-.565-1.218-.841.416-2.524,2.508-3.843,4.2-5.265,1.462-1.23,2.871.253,3.811,1.359,1.783,2.1,3.1,1.589,4.887-.111C-87.422,335.415-86.29,332.807-83.495,332.2Z" transform="translate(-6.51 -11.974)" fill="#86a959"/>
      <path id="パス_3179" data-name="パス 3179" d="M-55.9,293.49c-1.739,2.841-4.173,5.215-5.552,8.3a1.493,1.493,0,0,1-1.511.867c-1.485-.038-2.972-.079-4.454-.182a1.168,1.168,0,0,1-1.2-1.494,18.725,18.725,0,0,1,.553-2.91,16.807,16.807,0,0,0,.2-9.162c.982-.024,1.963-.061,2.945-.069A9.92,9.92,0,0,1-55.9,293.49Z" transform="translate(-13.758 -2.594)" fill="#b4ca9b"/>
      <path id="パス_3180" data-name="パス 3180" d="M41.118,325.584c.749-1.7,2.371-2.961,2.488-4.977.937-1.521-.918-3.461.73-4.875a9.89,9.89,0,0,1,4.479,8.5,8.191,8.191,0,0,1-3.437,7.076c-1.666,1.24-3.336,2.643-5.63,2.588-.24-1.3.409-2.429.812-3.577A9.951,9.951,0,0,0,41.118,325.584Z" transform="translate(-37.193 -8.412)" fill="#ee9b6a"/>
      <path id="パス_3181" data-name="パス 3181" d="M-85.657,330.778c-2.117,2.972-5.179,5.023-7.563,7.738a1.032,1.032,0,0,1-1.632-.049c-1.15-1.14-2.278-2.3-3.459-3.408a1.068,1.068,0,0,0-1.641.1q-2.179,2.29-4.352,4.584c-.76.644-1.5,1.317-2.291,1.928-.746.579-1.322.435-1.773-.466a33.986,33.986,0,0,1-2.928-7.266c-.284-.583-1.131-.937-.737-1.8,2.515-.893,2.63,1.339,3.546,2.639.776,1.1.395,3.566,2.962,2.733,1.341-.994,2.126-2.463,3.183-3.692,1.818-2.112,3.868-2.506,5.752-.406,1.866,2.08,3.241,1.411,5.012-.03,1.983-1.613,3.219-3.825,4.968-5.615,1.317-1.335,2.715-2.476,4.786-2.043,2.719.405,5.467-.018,8.173.281,1.2.132,3.279-.51,2.9,2.046-2.7-.2-5.407-.487-8.115-.578C-81.659,327.384-84.34,327.73-85.657,330.778Z" transform="translate(-4.348 -10.555)" fill="#10120e"/>
      <path id="パス_3182" data-name="パス 3182" d="M35.6,311.277c-.233,1.626.415,3.385-.73,4.875-.191-.871.071-1.882-.788-2.545-1.341-.983-1.307-2.655-2-3.963-.155-.294-.3-.592-.465-.879a4.658,4.658,0,0,0-1.081-1.1c-8.218-5.055-17.319-7.624-26.63-9.645-1.692-.368-3.878.068-4.6-2.307,1.118-1,2.355-.418,3.559-.273a24.093,24.093,0,0,1,3.319.295,98.725,98.725,0,0,1,21.492,7.21c.781.379,1.552.781,2.314,1.2A11.679,11.679,0,0,1,35.6,311.277Z" transform="translate(-28.455 -3.958)" fill="#191817"/>
      <path id="パス_3183" data-name="パス 3183" d="M-87.475,278.748a2.8,2.8,0,0,0-2.4.71,57.865,57.865,0,0,1-4.89,3.393c-2.673,1.58-3.047,1.459-5.042-.773-1.147-1.282-2.3-2.557-3.453-3.834.726-.172,1.456-.324,2.174-.519a23.292,23.292,0,0,1,13.6.278q.309.243.212.493T-87.475,278.748Z" transform="translate(-6.269)" fill="#85a759"/>
      <path id="パス_3184" data-name="パス 3184" d="M-48.629,342.042a31.8,31.8,0,0,0,9.96,3.729c1.309,1.368,3.367,1.807,4.374,3.545a13.281,13.281,0,0,1-9.734-.106,5.493,5.493,0,0,1-2.789-2.379C-47.734,345.367-48.668,343.88-48.629,342.042Z" transform="translate(-18.086 -14.104)" fill="#ed9b6b"/>
      <path id="パス_3185" data-name="パス 3185" d="M-38.738,290.585a40.916,40.916,0,0,0-8.785.69c.718-.842,1.422-1.694,2.154-2.522a6.011,6.011,0,0,1,8.661-.234,13.022,13.022,0,0,1,1.136,1.454C-36.521,290.729-37.75,290.033-38.738,290.585Z" transform="translate(-18.325 -2.151)" fill="#e8996a"/>
      <path id="パス_3186" data-name="パス 3186" d="M-124.681,319.092c1.063-.294,2.337.284,3.216-.775,4.826-2.288,6.519-2.229,8.692.3.613,1.764,1.44,3.477,1.412,5.412a1.806,1.806,0,0,1-1.011,1.186c-2.222-.028-2.166-3.958-5.012-2.936a.9.9,0,0,1-.427-1.287,1.489,1.489,0,0,0-1.395-1.009C-121.037,319.732-122.969,320.074-124.681,319.092Z" transform="translate(-1.634 -8.612)" fill="#161813"/>
      <path id="パス_3187" data-name="パス 3187" d="M-62.6,327.542c-.245-.875-.926-1.065-1.708-1.068q-3.879-.018-7.758-.022a3.037,3.037,0,0,1-2.422-.615c1.543-1.933,3.69-1.829,5.817-1.664,1.481.115,2.94.66,4.433.139.654-.261,1.182-.743,1.808-1.052,3.063.518,2.711,3.038,3.039,5.166.27,1.094,1.371,2.029.653,3.316l-.79.929A11.854,11.854,0,0,1-62.6,327.542Z" transform="translate(-12.491 -10.04)" fill="#0e100d"/>
      <path id="パス_3188" data-name="パス 3188" d="M-116.979,322.188l.861,1.027c.731,1.567-.159,2.905-.69,4.244-.744,1.872-1.088,3.363,1.736,3.337a1.54,1.54,0,0,1,1.219.759l.675,1.64c-2.11-.018-4.221-.007-6.33-.067-1.056-.03-1.5-.494-1.269-1.353C-119.863,328.443-119.134,325.03-116.979,322.188Z" transform="translate(-2.465 -9.809)" fill="#1b1b1b"/>
      <path id="パス_3189" data-name="パス 3189" d="M-.683,294.716c-1.151.272-2.483-.277-3.465.765-1.662,1.609-3.485.614-5.188.2-2.483-.6-5.127-.639-7.408-2a.814.814,0,0,1-.205-1.114l.743-.687c1.642-.328,3.175.288,4.726.611a92.346,92.346,0,0,0,9.439,1.712A5.67,5.67,0,0,1-.683,294.716Z" transform="translate(-24.91 -3.233)" fill="#212121"/>
      <path id="パス_3190" data-name="パス 3190" d="M-83.122,279.068c-.005-.248-.009-.5-.012-.745,3.121.4,4.745,2.194,5.153,5.291.206,1.571.324,1.531,1.833,1.563,1.186.025,2.458-.475,3.507.506-1.242.063-2.483.165-3.724.179a9.258,9.258,0,0,1-2.95-.177c-1.124-.371-.615-1.769-1.147-2.578Q-81.791,281.087-83.122,279.068Z" transform="translate(-10.622 -0.319)" fill="#86a65d"/>
      <path id="パス_3191" data-name="パス 3191" d="M-36.313,291.464c.971-.641,2.139-.264,3.166-.612,2,.037,4,.042,6,.122,1.36.054,2.762-.154,4.053.492A88.44,88.44,0,0,1-36.313,291.464Z" transform="translate(-20.75 -3.03)" fill="#35302d"/>
      <path id="パス_3192" data-name="パス 3192" d="M21.274,308.651c1.262,1.262,1.132,2.986,1.509,4.543-.476,1.918-.976,3.827-2.46,5.276-.247.059-.563.165-.723.036-5.8-4.635-12.775-4.99-19.721-5.439-1.456-1.127-2.88-.762-4.3.116a128.25,128.25,0,0,1-23.117,1.827c-2.25-.013-4.5-.084-6.748.041-8.059.449-11.585,5.977-8.634,13.465.538,1.364,1.532,2.638.961,4.257l-1.682-.371a.559.559,0,0,1-.5-.273,18.9,18.9,0,0,1-7.412-4.48c-.4-2.233-1.666-4.3-1.295-6.686,4.773-4.145,4.383-9.067,2.186-14.289-1.5-3.556-2.085-7.167-.383-10.847l-.035.048q.373-.287.724-.6c2.34-1.458,5.024-1.432,7.624-1.768,2-.517,4.04-.127,6.057-.233a2.278,2.278,0,0,1,1.131.355c2.331,7,8.2,8.181,14.441,8.91a48.375,48.375,0,0,0,8.557.584c.632-.031,1.257.032,1.887.057,8.012,1.114,16.14.93,24.138,2.2A14.575,14.575,0,0,1,21.274,308.651Z" transform="translate(-17.158 -3.544)" fill="#ef9b69"/>
      <path id="パス_3193" data-name="パス 3193" d="M-86.6,306.53l.226,1.464a3.028,3.028,0,0,0,.566.719l-.009,0a1.765,1.765,0,0,1,.281,1.045,12.93,12.93,0,0,1-6.817,8.865,7.68,7.68,0,0,1-4.3.653c-2.083-.3-3.667-2.047-5.866-2.042a14.961,14.961,0,0,1-3.025-2.477,11.748,11.748,0,0,1-3.739-10.08c.154-1.372.36-2.73,1.756-3.479.954-.044,1.32-.645,1.418-1.5a10,10,0,0,0,.751-.817l-.045.029c.539-.353,1.107-.663,1.625-1.05a9.48,9.48,0,0,1,3.709-1.042,9.576,9.576,0,0,1,4.523,5.74,1.063,1.063,0,0,0,1.483.74c1.763-.606,3.5-1.3,5.447-2.044a14.094,14.094,0,0,1,1.389,3.715C-86.863,305.426-86.974,306.075-86.6,306.53Z" transform="translate(-4.947 -4.32)" fill="#0d7a29"/>
      <path id="パス_3194" data-name="パス 3194" d="M-85.82,299.661c-.08-.866-.1-1.743-.255-2.6-.23-1.277-.968-1.787-2.109-1.137-1.915,1.091-3.521.552-5.262-.339a25.263,25.263,0,0,1-6.24-4.664c-.882-.872-1.35-.887-2.245-.187-.971.761-1.911,1.562-2.864,2.346-2.54-3.19-1.415-6.83-1.269-10.349a2.239,2.239,0,0,1,.2-.7c.806-1.137,1.281-1.263,2-.47.915,1.01,1.736,2.106,2.652,3.116,1.86,2.051,3.076,2.341,5.57,1.039a48.166,48.166,0,0,0,5.021-3.174c1.2-.831,1.838-1.123,2.979.668a6.987,6.987,0,0,1,1.013,3.143c.212,2.067.281,2.056,2.586,1.744.362-.049.734-.034,1.1-.049,1.132,3.233-.27,6.167-1.078,9.172a5.608,5.608,0,0,1-.99,2.827Q-85.7,300.456-85.82,299.661Z" transform="translate(-5.58 -0.912)" fill="#85a859"/>
      <path id="パス_3195" data-name="パス 3195" d="M-52.7,296.54c0,.75.039,1.5,0,2.25a17.638,17.638,0,0,0,1.48,8.743,16.552,16.552,0,0,1,1.609,6.873,7.347,7.347,0,0,1-3.6,6.925c-.316.2-.61.429-.913.645-.73,1.278-1.925,1.045-3.079.947-.085-.085-.165-.176-.255-.256-1.121-1,1.193-2.32.016-2.832-1.3-.566-1.07-1.83-1.864-2.5a.4.4,0,0,1-.207-.628,1.284,1.284,0,0,0-.141-1.063,3.764,3.764,0,0,1-.36-.744c-.205-.713-.341-1.436-.5-2.156a2.729,2.729,0,0,1-.013-.917,2.157,2.157,0,0,1,.794-1.083,1.366,1.366,0,0,1,.846-.154,2.138,2.138,0,0,0,.583.271q.316.093-.151-.18a6.337,6.337,0,0,1-1.047-.879,1.975,1.975,0,0,1,.027-2.672c.489-.909,1.509-.738,2.25-1.129.461-.243.722-.748.128-1.132-.756-.487-1.023-1.042-.534-1.847A29.655,29.655,0,0,1-52.7,296.54Z" transform="translate(-15.503 -4.26)" fill="#b5ca9b"/>
      <path id="パス_3196" data-name="パス 3196" d="M-110.7,301.8a18.7,18.7,0,0,0-.716,2.46,11.115,11.115,0,0,0,2.516,9.6c.406.455.789.929,1.183,1.393a3.357,3.357,0,0,1-2.9,1.013,3.341,3.341,0,0,1-2.308-.93c-.429-.418-.866-.829-1.286-1.257-.347-.354-.784-.8-1.2-.333-1.07,1.2-2.414.9-3.731.872-.728-.015-1.456.01-2.184.017-.73-.157-1.469-.279-2.185-.482a.644.644,0,0,1-.313-1.131,17.95,17.95,0,0,1,1.758-1.382c.828-.553,1.7-1.047,2.558-1.552a4.074,4.074,0,0,0,2.021-4.791c-.353-1.575-.894-3.108-1.335-4.665-.161-.569.283-1.169.716-.958C-115.764,300.82-113.143,300.99-110.7,301.8Z" transform="translate(-1.767 -4.929)" fill="#84a758"/>
      <path id="パス_3197" data-name="パス 3197" d="M-79.24,298.807c1.321-2.827,1.405-5.957,2.183-8.916,1.343-.122,2.685-.306,4.03-.345a1.312,1.312,0,0,1,1.471,1.306,13.9,13.9,0,0,1-.032,4.044c-.386,1.8-.69,3.628-1.028,5.443-.552,1.219-.2,2.44-.042,3.673a1.994,1.994,0,0,1-1.378,2.369c-1.05.328-1.566-.576-2.094-1.23A19.544,19.544,0,0,1-79.24,298.807Z" transform="translate(-11.464 -2.747)" fill="#fcfcfb"/>
      <path id="パス_3198" data-name="パス 3198" d="M-79.313,301.364c1.432,2.15,2.853,4.308,4.312,6.439.174.255.6.559.826.5a1.146,1.146,0,0,0,.67-.774,21.567,21.567,0,0,0,.22-2.568,2.729,2.729,0,0,1,.6-2.064c.051.476.09.954.156,1.429.262,1.888.639,2.328,2.441,2.451,1.314.089,2.642,0,3.963-.013,1.275.265,1.529,1.269,1.694,2.339a2.01,2.01,0,0,1-.717,1.677c-2.507,1.307-5.334.165-7.9,1.037a6.013,6.013,0,0,1-3.037-.016,3.209,3.209,0,0,1-2.414-3.093.451.451,0,0,0-.155-.541c-.7-.888.114-2.119-.677-2.987l-.019-.038c-.194-.163-.261-.329-.2-.5s.121-.256.184-.256Q-79.342,302.876-79.313,301.364Z" transform="translate(-11.391 -5.304)" fill="#b0c598"/>
      <path id="パス_3199" data-name="パス 3199" d="M-106.594,283.2c.144.192.419.387.414.574-.107,3.295.629,6.512.855,9.775a6.774,6.774,0,0,1-.857.7,1.076,1.076,0,0,1-1.592-.281,5.56,5.56,0,0,1-.992-4.533A22.351,22.351,0,0,1-106.594,283.2Z" transform="translate(-5.05 -1.374)" fill="#e9ece7"/>
      <path id="パス_3200" data-name="パス 3200" d="M-98.616,296.563a5.574,5.574,0,0,1-3.8,1.418q-.337-.276-.213-.538t.239-.257a7.752,7.752,0,0,1,.744-.767C-100.313,295.37-100.307,295.377-98.616,296.563Z" transform="translate(-6.397 -4.068)" fill="#74984f"/>
      <path id="パス_3201" data-name="パス 3201" d="M-31.087,292.934l7.022-.013q.625.54-.048,1.02a8.142,8.142,0,0,1-6.975-.186q-.17-.142-.331-.295C-31.544,293.136-31.446,292.952-31.087,292.934Z" transform="translate(-21.798 -3.477)" fill="#ef9b69"/>
      <path id="パス_3202" data-name="パス 3202" d="M-61.309,310.407c.005-.915-.115-1.765-1.1-2.175,1.334-.42,1.718.877,2.529,1.4.066,1.084-.312,2.337,1.1,2.909C-61.484,314.032-60.589,311.262-61.309,310.407Z" transform="translate(-15.104 -6.772)" fill="#0e100d"/>
      <path id="パス_3203" data-name="パス 3203" d="M-32.916,292.906c-.1.179-.215.355-.331.526l-6.677-.022a2.874,2.874,0,0,1,2.349-.615C-36.021,292.815-34.469,292.867-32.916,292.906Z" transform="translate(-19.969 -3.449)" fill="#35302d"/>
      <path id="パス_3204" data-name="パス 3204" d="M-78.455,310.734a7.614,7.614,0,0,0,2.4,2.356,2.055,2.055,0,0,1-1.473,1.11,1.449,1.449,0,0,1-1.306-.389,2.449,2.449,0,0,1-.451-.817q-.04-.23-.078-.463c.013-.27.025-.54.037-.81Z" transform="translate(-11.438 -7.331)" fill="#0e100d"/>
      <path id="パス_3205" data-name="パス 3205" d="M-22.04,293.329a.618.618,0,0,0,.017-.437l4-.1c.009.212.014.424.016.636C-19.379,294.65-20.727,294.7-22.04,293.329Z" transform="translate(-23.838 -3.449)" fill="#35302d"/>
      <path id="パス_3206" data-name="パス 3206" d="M-79.276,306.233c1.015.817.7,1.936.677,2.987C-79.631,308.407-79.214,307.266-79.276,306.233Z" transform="translate(-11.449 -6.357)" fill="#0e100d"/>
      <path id="パス_3207" data-name="パス 3207" d="M-102.746,297.609l-.026.794a1.508,1.508,0,0,1-1.533.676A2.62,2.62,0,0,1-102.746,297.609Z" transform="translate(-6.042 -4.492)" fill="#4a7238"/>
      <path id="パス_3208" data-name="パス 3208" d="M-80.488,308.78a1.679,1.679,0,0,1-.627-1.566A1.544,1.544,0,0,1-80.488,308.78Z" transform="translate(-11.056 -6.569)" fill="#0e100d"/>
      <path id="パス_3209" data-name="パス 3209" d="M-79.457,311.8l-.567-.719Q-79.74,311.439-79.457,311.8Z" transform="translate(-11.294 -7.405)" fill="#0e100d"/>
      <path id="パス_3210" data-name="パス 3210" d="M-79.49,305.13q.008.377.018.755a1.179,1.179,0,0,1-.656-1.088Q-79.816,304.976-79.49,305.13Z" transform="translate(-11.272 -6.047)" fill="#0e100d"/>
      <path id="パス_3211" data-name="パス 3211" d="M-104.455,299.447l-.751.817A.957.957,0,0,1-104.455,299.447Z" transform="translate(-5.847 -4.889)" fill="#467538"/>
      <path id="パス_3212" data-name="パス 3212" d="M-49.852,295.835l-.724.6C-50.5,296.034-50.3,295.788-49.852,295.835Z" transform="translate(-17.665 -4.107)" fill="#b5ca9b"/>
      <path id="パス_3213" data-name="パス 3213" d="M1.708,317.681c1.743.022,3.485.069,5.228.06a33.855,33.855,0,0,1,7.686,1.234c3.158.719,5.569,2.646,7.858,4.783-1.7,3.232-4.579,4.907-7.961,5.741-3.4.838-6.847,1.465-10.278,2.166-.668.136-1.081-.38-.931-1.2.359-1.969.775-3.926,1.124-5.9a6.162,6.162,0,0,0-.024-1.46c-.006-.1-.145-.284-.219-.282-.232.005-.574,0-.672.146a3.825,3.825,0,0,0-.636,1.3c-.468,2.2-.947,4.4-1.282,6.627-.174,1.155-.59,1.8-1.8,1.993-2.346.366-4.676.839-7.015,1.255-1.2.213-2.406.4-3.673.611-.519-1.934-.952-3.747-1.505-5.522a10.705,10.705,0,0,0-1.155-2.347,1.083,1.083,0,0,0-.9-.457.794.794,0,0,0-.4,1.208,22.716,22.716,0,0,1,1.857,5.7c.374,1.763.094,2.346-1.488,2.9-1.767.623-3.572,1.156-5.387,1.625-1.323.342-1.828.042-2.23-1.292-1.12-3.719-2.222-7.448-1.9-11.413a10.865,10.865,0,0,0-.013-1.869.669.669,0,0,0-.491-.416.907.907,0,0,0-.632.288,2.618,2.618,0,0,0-.45,1.768,26.841,26.841,0,0,0,1.069,9.281c.357,1.311.679,2.632,1.071,4.16-3.373.6-6.569,1.183-9.779.811-2.2-.254-4.532.069-6.576-1.132-.515-1-.985-2.02-1.554-2.985a12.742,12.742,0,0,1-1.592-6.808c.028-3.889,2.1-6.281,5.337-7.851a11.957,11.957,0,0,1,5.426-1.19c4.116.054,8.233.017,12.35-.013a15.47,15.47,0,0,0,5.55-.561,1.824,1.824,0,0,1,.739-.1c4,.232,7.922-.718,11.9-.865A23.354,23.354,0,0,0,1.708,317.681Z" transform="translate(-19.315 -8.834)" fill="#de5c28"/>
      <path id="パス_3214" data-name="パス 3214" d="M-56.281,329.943c.789-1.089,2.031-.7,3.078-.945.462,1.471.955,2.934,1.37,4.419a1.769,1.769,0,0,1-.451,1.965l-2.519-2.4Z" transform="translate(-16.431 -11.282)" fill="#f2f0ed"/>
      <path id="パス_3215" data-name="パス 3215" d="M-41.721,342.858a.375.375,0,0,1,.507.274l-.329.006Z" transform="translate(-19.58 -14.276)" fill="#de5c28"/>
      <path id="パス_3216" data-name="パス 3216" d="M-85.479,328.322a29.392,29.392,0,0,1-7.552,7.606c-1.053-.014-1.368-.986-2.025-1.487-.691-.528-1.319-1.146-2.04-1.626-1.281-.853-1.83-.764-2.878.377-.674.733-1.281,1.529-1.966,2.249-.765.8-1.586,1.554-2.383,2.328-2.939-2.172-4.237-5-3.494-8.66,1.432-1.927,3.7-2.835,5.431-4.414a3.107,3.107,0,0,1,4.659.389c2.715,3.15,5.169,2.46,7.792.062a1.778,1.778,0,0,1,1.047-.322c1.248.328,1.673,1.614,2.645,2.267a3.531,3.531,0,0,1,.661.743Q-85.53,328.078-85.479,328.322Z" transform="translate(-5.237 -10.16)" fill="#85a859"/>
      <path id="パス_3217" data-name="パス 3217" d="M-109.551,328.441a12.142,12.142,0,0,0,1.809,6.6c.426.737.811,1.5,1.215,2.247a3.737,3.737,0,0,1-1.911,1.465c-1.219-1.427-1.583-3.355-2.361-5.06-.25-.549-.315-1.187-.587-1.722-.409-.8-1.146-.773-1.9-.546-1.591-.358-3.239.31-4.925-.284.358-2.864,1.751-5.383,2.661-8.055.712-.4.865-1.539,2.026-1.476.941,1.458.922,3.472,2.382,4.709A2.433,2.433,0,0,1-109.551,328.441Z" transform="translate(-3.034 -9.684)" fill="#f9f9f8"/>
      <path id="パス_3218" data-name="パス 3218" d="M-80.824,327.07a3.486,3.486,0,0,1-2.285-2.809c.158-3.269,2.524-4.233,5.149-4.768,2.451-.5,4.868.087,7.266.58a9.979,9.979,0,0,1,1.762.342c1.4.576,3.141.487,4.032,2.059a1.5,1.5,0,0,1-.175,1.624c-1.34,1.061-2.853.5-4.28.377a16.512,16.512,0,0,0-7,.506c-1.771-.043-2.545,1.487-3.733,2.366a.762.762,0,0,0-.121-.368A.381.381,0,0,0-80.824,327.07Z" transform="translate(-10.627 -9.184)" fill="#b1c698"/>
      <path id="パス_3219" data-name="パス 3219" d="M-23.974,293.479l4.035.094c3.4.677,6.8,1.371,10.214,2.019.843.16,1.713.173,2.571.254A104.614,104.614,0,0,1,11.6,300.491c3.023,1.113,5.985,2.4,8.942,3.684a12.793,12.793,0,0,1,4.863,3.359l.206.231.405.94c-5.8-2.085-11.8-2.795-17.924-3.193-4.957-.323-9.971-.273-14.871-1.321-.187-.249-.168-.751-.647-.629-.113.028-.133.406-.189.635-6.035.385-11.842-.965-17.62-2.411a6.845,6.845,0,0,1-5.138-5.377c-.212-.842-.408-1.689-.611-2.533Z" transform="translate(-21.904 -3.598)" fill="#fffefe"/>
      <path id="パス_3220" data-name="パス 3220" d="M41.17,311.645l-.243.016.035-.25.235.005Z" transform="translate(-37.46 -7.477)" fill="#ef9b69"/>
      <path id="パス_3221" data-name="パス 3221" d="M-75.962,320.468c-1.4.187-2.678-.432-3.994-.709-3.083-.65-5.627.02-7.6,2.545-.381.487-.793.949-1.191,1.424-1.636,1.1-3.264,2.208-4.91,3.289a1.71,1.71,0,0,1-2.335-.3c-1.16-1.11-2.322-2.223-3.552-3.252-.958-.8-1.315-.78-2.25.059a20.092,20.092,0,0,1-4.427,3.336c-.442.217-.915.369-1.374.551a2.515,2.515,0,0,1-1.59-2.117l.83-.965c.547-.462,1.27-.349,1.877-.589.261-.152.529-.3.786-.461.245-.181.5-.343.763-.5.939-.505,1.655-1.446,2.841-1.471.763-.42,1.464-.922,2.366-.14a23.683,23.683,0,0,0,2.474,1.674c2.665,2.09,4.857.845,6.969-.993,4.752-5.685,11.944-6.628,17.466-2.3C-73.539,320.963-75.058,319.669-75.962,320.468Z" transform="translate(-4.985 -8.651)" fill="#10130d"/>
      <path id="パス_3222" data-name="パス 3222" d="M-106.171,325.057c-1.116,1.023-1.116,1.023-2.345-.119-.461-1.753-1.643-3.322-1.348-5.269l2.113.009c1.672,1.06,3.776,1.9,2.331,4.555l0-.009A1.787,1.787,0,0,0-106.171,325.057Z" transform="translate(-4.829 -9.264)" fill="#ebede9"/>
      <path id="パス_3223" data-name="パス 3223" d="M-69.076,319.211c.9-1.019,2.166-.5,3.241-.781a4.653,4.653,0,0,0,.364-.688,5.463,5.463,0,0,0,.118-.789c-.031-.281-.059-.555-.111-.826a1.422,1.422,0,0,0-1.25-1.038,47.737,47.737,0,0,0-4.863-.028c-1.63-.1-3.284.158-4.878-.379a1.783,1.783,0,0,1-.908-.846,2.668,2.668,0,0,1,1.743-.683l2.477.042c2.088-.588,4.225-.114,6.329-.3.772-.068,1.827.459,2.162-.817a.993.993,0,0,1,.109-1.05,7.011,7.011,0,0,1,.748,1.225c.326.892,1,.982,1.778.912.408.182.684.408.293.861a.987.987,0,0,1-.968.121l.036-.072a1.211,1.211,0,0,0-1.118,1.1l.024.013c.7.98-.426,2.518,1,3.273a.264.264,0,0,1,.416.088c.474.862-.574,1.209-.637,1.89l.02.02c-.128.694-.181,1.425-.885,1.844l-.069-1.3c-.625-2.161-2.693-.874-3.9-1.636Z" transform="translate(-11.87 -7.395)" fill="#0b0d09"/>
      <path id="パス_3224" data-name="パス 3224" d="M13.109,317.276c-1.357,1.46-1.357,1.46-3.353.012a1.6,1.6,0,0,1,1.7-1.476C12.5,315.764,12.939,316.358,13.109,317.276Z" transform="translate(-30.716 -8.429)" fill="#2f1a11"/>
      <path id="パス_3225" data-name="パス 3225" d="M-1.455,306.364c-.29-.4-.615-.781-.862-1.205a1.015,1.015,0,0,1,.409-1.562c.668-.313,1.18.165,1.523.692a1.777,1.777,0,0,1-.234,2.069A.606.606,0,0,0-1.455,306.364Z" transform="translate(-28.061 -5.765)" fill="#474747"/>
      <path id="パス_3226" data-name="パス 3226" d="M-14.834,308.166a1.4,1.4,0,0,1,1.151,1.574c-.11.593-.589.735-1.08.693a1.2,1.2,0,0,1-1.16-1.491A1.066,1.066,0,0,1-14.834,308.166Z" transform="translate(-25.153 -6.775)" fill="#301f16"/>
      <path id="パス_3227" data-name="パス 3227" d="M-44.84,326.172c-.777-.514-1.34-1.135-.577-2.033a.984.984,0,0,1,1.569.027c.808.87.317,1.5-.485,2.03l-.249-.1Z" transform="translate(-18.702 -10.149)" fill="#402a1d"/>
      <path id="パス_3228" data-name="パス 3228" d="M-44.581,326.825a.609.609,0,0,1,.509.024l-.266.2Z" transform="translate(-18.962 -10.802)" fill="#de5c28"/>
      <path id="パス_3229" data-name="パス 3229" d="M-66.915,317.728l.012.174a1.209,1.209,0,0,1-1.048,1.006l-.135-.048c-2.773-.567-5.548-1.118-8.317-1.7A6.9,6.9,0,0,0-82.85,319.1c-.987.926-1.927,1.9-2.889,2.856-.847.379-1.789,1.077-2.026-.6a14.313,14.313,0,0,0,5.352-6.073c.4-.758.474-1.7,1.234-2.261l-.008-.011q.322.259.659.5a1.219,1.219,0,0,0,.913.755.538.538,0,0,0,.632.235,10.324,10.324,0,0,0,5.611.033l5.669-.047C-66.739,315.4-67.577,316.744-66.915,317.728Z" transform="translate(-9.62 -7.824)" fill="#adc395"/>
      <path id="パス_3230" data-name="パス 3230" d="M-104.824,324.211a3.579,3.579,0,0,0-1.25-3.158,10.7,10.7,0,0,1-1.081-1.4l3.092-.091a6.252,6.252,0,0,1,2.408,2.325C-102.7,322.675-103.329,324.035-104.824,324.211Z" transform="translate(-5.425 -9.241)" fill="#a2bb86"/>
      <path id="パス_3231" data-name="パス 3231" d="M-89.1,323.662c.484.846,1.3.567,2.026.6a6.536,6.536,0,0,1-1.071.953c-3.274,1.832-2.811,2.882-5.808-.907A13.128,13.128,0,0,0-89.1,323.662Z" transform="translate(-8.28 -10.128)" fill="#799c53"/>
      <path id="パス_3232" data-name="パス 3232" d="M-59,319.616a1.43,1.43,0,0,1-1.063-1.552c0-.572.038-1.144.06-1.719Q-59.506,317.979-59,319.616Z" transform="translate(-15.612 -8.545)" fill="#0e100d"/>
      <path id="パス_3233" data-name="パス 3233" d="M-58.992,322.521l.637-1.89c.936.605,1.015.907.321,1.429A5.223,5.223,0,0,1-58.992,322.521Z" transform="translate(-15.844 -9.472)" fill="#0e100d"/>
      <path id="パス_3234" data-name="パス 3234" d="M-58.641,314.977l.968-.121C-57.908,315.6-58.273,315.294-58.641,314.977Z" transform="translate(-15.92 -8.223)" fill="#0e100d"/>
      <path id="パス_3235" data-name="パス 3235" d="M-60.021,316.022a1.288,1.288,0,0,1,1.116-1.1Z" transform="translate(-15.622 -8.236)" fill="#0e100d"/>
      <path id="パス_3236" data-name="パス 3236" d="M-63.487,312.37a1.5,1.5,0,0,1-1.6,1.171c-2.295-.005-4.588-.034-6.885-.054,1.4-.722,2.938-.484,4.425-.6C-66.188,312.782-64.779,313.032-63.487,312.37Z" transform="translate(-13.035 -7.685)" fill="#0e100d"/>
      <path id="パス_3237" data-name="パス 3237" d="M-78.71,313.511a.64.64,0,0,1-.659-.5A.6.6,0,0,1-78.71,313.511Z" transform="translate(-11.436 -7.824)" fill="#0d7a29"/>
      <path id="パス_3238" data-name="パス 3238" d="M-80.193,329.1c.154-.364.321-.653.613-.092l-.292.143Z" transform="translate(-11.258 -11.216)" fill="#eef1e8"/>
      <path id="パス_3239" data-name="パス 3239" d="M-65.165,321.658c.834-.016,1.668-.067,2.5-.038,1.052.037,1.417.712,1.4,1.675a2.237,2.237,0,0,0-1.782-1.139A3.5,3.5,0,0,1-65.165,321.658Z" transform="translate(-14.509 -9.684)" fill="#0e100d"/>
      <path id="パス_3240" data-name="パス 3240" d="M-105.139,326.314c0-.5.217-.814.755-.831C-104.344,326.025-104.692,326.216-105.139,326.314Z" transform="translate(-5.861 -10.522)" fill="#a2bb86"/>
      <path id="パス_3241" data-name="パス 3241" d="M-70.946,314.945c-1.875.642-3.746.947-5.611-.033Z" transform="translate(-12.044 -8.235)" fill="#0e100d"/>
      <path id="パス_3242" data-name="パス 3242" d="M-61.377,318.134l-.786-3.24C-60.832,315.715-61.409,317-61.377,318.134Z" transform="translate(-15.158 -8.231)" fill="#0e100d"/>
      <path id="パス_3243" data-name="パス 3243" d="M-62.482,320.258l1.047-1A1.152,1.152,0,0,1-62.482,320.258Z" transform="translate(-15.089 -9.174)" fill="#0e100d"/>
    </g>
  </g>
</svg>
