<svg xmlns="http://www.w3.org/2000/svg" width="91.047" height="78.949" viewBox="0 0 91.047 78.949">
  <g id="とまと" transform="translate(-82.727 79.081)" opacity="0.9">
    <path id="パス_2412" data-name="パス 2412" d="M175.63-52.017c.323,2.69,1.494,5.244,1.283,8.019a29.408,29.408,0,0,1,0,8.727q-.136,1.183-.272,2.364c-.863.126-1.243-.43-1.548-1.1a13.763,13.763,0,0,1-.4-4.1c-.011-.878,0-1.759.011-2.636a10.622,10.622,0,0,0-.453-3.729c-.184-.6-.323-1.212-.452-1.825-.92-3.594-2.128-7.11-3.038-10.7A19.88,19.88,0,0,0,160.49-70.3c-.351-.2-.686-.422-1.021-.644-.514-.307-1.033-.608-1.568-.883A19.571,19.571,0,0,0,153.9-73.4c-3.089-1.725-7.45-.558-9.665-4.255,1.305-1.229,2.769-.568,4.194-.353,3.639.142,6.824,1.743,10.032,3.2,2.278,1.039,4.457,2.294,6.68,3.453a5.513,5.513,0,0,0,.964.538l-.092-.045c6.272,2.767,7.6,8.649,9.07,14.432C175.444-54.987,175.238-53.462,175.63-52.017Z" transform="translate(-3.842 -0.044)" fill="#1c1310"/>
    <path id="パス_2413" data-name="パス 2413" d="M148.309,2.955l-.225.209-.29-.1c-1.254.636-2.754-.084-3.979.722a39.169,39.169,0,0,1-4,.441,141.125,141.125,0,0,1-27.721-2.029A41.172,41.172,0,0,1,97.51-3.389C95.63-4.579,93.659-5.7,92.43-7.676c-.374-.845.133-1.21.8-1.488,3.165.318,5,3.036,7.669,4.274a49.709,49.709,0,0,0,7.1,2.605,33.291,33.291,0,0,0,4.06.9C118.864.135,125.834.223,132.7,1.124a20.858,20.858,0,0,0,10.037.114,10.109,10.109,0,0,1,3.718-.185C147.405,1.364,148.5,1.533,148.309,2.955Z" transform="translate(-0.598 -4.368)" fill="#1b1311"/>
    <path id="パス_2414" data-name="パス 2414" d="M99.189-68.1a39.884,39.884,0,0,1,12.047-7.329,20.015,20.015,0,0,1,8.663-1.583,31.927,31.927,0,0,0,8.837-.654,25.954,25.954,0,0,1,3.524-.326c1.706-.253,3.5-1.192,4.951.613-2.444,3.366-6.477,1.983-9.627,3.237-3.632.645-7.326.166-10.972.578-4.454.747-8.205,3.129-12.082,5.214-1.412.759-2.683,1.853-4.439,1.721C99.4-66.875,98.855-67.217,99.189-68.1Z" transform="translate(-1.022 -0.039)" fill="#1c1716"/>
    <path id="パス_2415" data-name="パス 2415" d="M177.081-51.516c-1.071-1.786-1.311-3.85-1.867-5.8-1.44-5.048-3.7-9.568-7.754-13.045,2.5-.024,4.572,1.209,6.675,2.3a6.319,6.319,0,0,1,3.131,4.18,16.793,16.793,0,0,1,.614,7.517C177.587-54.749,177.345-53.13,177.081-51.516Z" transform="translate(-5.293 -0.545)" fill="#eb6d4a"/>
    <path id="パス_2416" data-name="パス 2416" d="M83.917-26.209c-2.529-11.219-1.141-21.784,5.269-31.508.861-.3,1.221.235,1.511.9a5.128,5.128,0,0,1-.568,3.291,36.019,36.019,0,0,0-3.754,11.113,14.928,14.928,0,0,0-.393,2c-.133,3.343-.026,6.685-.052,10.027a10.262,10.262,0,0,1-.06,1.479C85.576-27.753,85.7-26.29,83.917-26.209Z" transform="translate(0 -1.329)" fill="#1c1c1c"/>
    <path id="パス_2417" data-name="パス 2417" d="M151.9,2.717a2.546,2.546,0,0,0-2.1-1.063c4.2-3.045,9.058-5.125,12.768-8.865.417-.4.853-.778,1.284-1.161.688-.623,1.365-1.258,2-1.943.368-.435.737-.868,1.1-1.311.655-.783,1.312-1.566,2.509-1.294.547.347,1.038.714.537,1.449a49.571,49.571,0,0,1-11.233,11.3A12.348,12.348,0,0,1,151.9,2.717Z" transform="translate(-4.19 -4.13)" fill="#1d1614"/>
    <path id="パス_2418" data-name="パス 2418" d="M171.26-12.6l-.988-1.114a2.687,2.687,0,0,1,.2-2.548c3.42-4.221,3.532-9.754,5.718-14.467a1.066,1.066,0,0,1,1.207-.172l.858.95C177.637-23.472,175.915-17.444,171.26-12.6Z" transform="translate(-5.453 -3.003)" fill="#212121"/>
    <path id="パス_2419" data-name="パス 2419" d="M84-24.3c.986-.738.748-1.877.938-2.875a1.159,1.159,0,0,1,1.15.368c.8,1.323.681,2.911,1.248,4.3a33.434,33.434,0,0,0,3.942,8.258c.813,1.328,2.1,2.5,1.75,4.312L91.911-8.8c-2.636-1.895-3.979-4.736-5.335-7.518A21.737,21.737,0,0,1,84-24.3Z" transform="translate(-0.079 -3.241)" fill="#1f1d1d"/>
    <path id="パス_2420" data-name="パス 2420" d="M90.674-57.156l-1.058-1.161A24.661,24.661,0,0,1,98.6-67.406l1.188,1.117c-.529,3.971-5.034,4.5-6.563,7.608C92.562-57.858,91.9-57.03,90.674-57.156Z" transform="translate(-0.43 -0.729)" fill="#282423"/>
    <path id="パス_2421" data-name="パス 2421" d="M139.239-77.157c-1.4-1.356-3.2-.489-4.768-.871a21.955,21.955,0,0,1,13.343-.026c-1.349.318-2.911-.321-4.06.9A2.927,2.927,0,0,1,139.239-77.157Z" transform="translate(-3.233)" fill="#1d1d1d"/>
    <path id="パス_2422" data-name="パス 2422" d="M179.074-32.98a38.428,38.428,0,0,1,0-8.727A13.886,13.886,0,0,1,179.074-32.98Z" transform="translate(-6.003 -2.335)" fill="#3a3a3a"/>
    <path id="パス_2423" data-name="パス 2423" d="M147.248,4.589c1.138-1.276,2.608-.725,3.979-.722A5.383,5.383,0,0,1,147.248,4.589Z" transform="translate(-4.031 -5.174)" fill="#1d1614"/>
    <path id="パス_2424" data-name="パス 2424" d="M167.493-70.351c-.488.118-.839-.009-.965-.539C167.036-71.042,167.373-70.89,167.493-70.351Z" transform="translate(-5.235 -0.508)" fill="#eb6d4a"/>
    <path id="パス_2425" data-name="パス 2425" d="M159.96-10.7a28.07,28.07,0,0,1-13.74,8.716l-3.352.326a35.267,35.267,0,0,1-9.81-.03q-6.662-.536-13.323-1.071a39.923,39.923,0,0,1-8.307-1.41c-.836-1.291-2.449-.937-3.549-1.674-8.138-2.814-12.727-8.594-14-17.011C93.192-27.4,91.761-31.9,92.771-36.6c.689-3.2.919-6.972,4.7-8.012,3.829-1.053,5.876,2.079,7.964,4.627a15.742,15.742,0,0,1,1.665,2.033,1.75,1.75,0,0,1-.515,1.626c-2.611,2.614-.268,2.215,1.368,2.249a4.351,4.351,0,0,1,1.212.408c6.838,8.343,14.75,8.067,24.064,4.151,6.086-2.559,11.353-5.12,13.765-11.624a4.358,4.358,0,0,1,2.015-2.335c2.774-.273,5,1.264,7.389,2.236.347-.265,1.354,1.559,1.041-.142-.5-2.735-2.505-4.585-4.789-6.136-1.54-1.046-3.521-1.752-3.867-3.995.09-1.727.241-3.451.188-5.185a10.359,10.359,0,0,1,.46-3.3,4.065,4.065,0,0,1,1.158-1.575,4.678,4.678,0,0,1,3.512-1.02c-1.325-.873-2.715-1.14-3.361-2.364.327-3.556,2.316-5.58,5.769-6.25a17.656,17.656,0,0,1,11.214,11.92c1.347,4.411,2.964,8.751,3.743,13.323-1.08,6.478-1.917,13-3.581,19.375A46.039,46.039,0,0,1,163.956-16.1c-.189.371-.378.751-.555,1.13a6.74,6.74,0,0,1-1.127,1.357c-.547.717-1.381,1.18-1.821,2A2.638,2.638,0,0,1,159.96-10.7Z" transform="translate(-0.606 -0.492)" fill="#f16943"/>
    <path id="パス_2426" data-name="パス 2426" d="M158.052-71.433c-2.238,1.686-4.361,3.474-5.5,6.144-1.9,2.125-4.246.205-6.376.7-4.533,1.055-9.082,2.006-13.155,4.363-2.748,1.591-4.466,1.155-5.24-2.1a17.561,17.561,0,0,0-4.1-7.456c.248,2.185.406,4.265.785,6.326.86,4.682.053,5.326-5.059,4.148a1.675,1.675,0,0,1-.479-1.175c1.043-4.77-.038-9.275-1.717-13.706.534-.184,1.1-.582,1.6-.517,3.169.419,6.3-.3,9.457-.2,8.4.859,16.883-.117,25.272,1.065a12.3,12.3,0,0,1,3.816,1.823,1.453,1.453,0,0,0,.679.56Z" transform="translate(-2.154 -0.26)" fill="#f2aa97"/>
    <path id="パス_2427" data-name="パス 2427" d="M154.273-73.973a3.219,3.219,0,0,1-2.479.733c-5.341-.04-10.682-.053-16.023-.126A13.7,13.7,0,0,1,129-75.038l9.9-1.991,4.514,0A45.142,45.142,0,0,1,154.273-73.973Z" transform="translate(-2.891 -0.128)" fill="#f7f4f3"/>
    <path id="パス_2428" data-name="パス 2428" d="M167.451-13.654a85.464,85.464,0,0,0,6.407-23.6,40.365,40.365,0,0,1,1.026-5.246c.175-.657.829-1.186,1.264-1.776l.433,1.849a4.705,4.705,0,0,1,.109,2.746,69.958,69.958,0,0,1-5.766,23.328l-.812,1.813-1.975,1.757-.3-.23C167.718-13.232,167.59-13.446,167.451-13.654Z" transform="translate(-5.293 -2.174)" fill="#d9beb6"/>
    <path id="パス_2429" data-name="パス 2429" d="M177.782-31.208c-.235.039-.471.07-.708.093-1.556-1.211-.5-2.741-.5-4.142a1.03,1.03,0,0,1,1.137-.714Q177.744-33.589,177.782-31.208Z" transform="translate(-5.841 -2.693)" fill="#3a3a3a"/>
    <path id="パス_2430" data-name="パス 2430" d="M177.043-39.648q.058-1.328.115-2.655c1.118,1.167.8,2.545.579,3.91a1.066,1.066,0,0,1-.983-.31A.807.807,0,0,1,177.043-39.648Z" transform="translate(-5.871 -2.298)" fill="#3a3a3a"/>
    <path id="パス_2431" data-name="パス 2431" d="M177.383-38.158l.339.023q0,1.017,0,2.029l-.342.019C176.159-36.78,176.142-37.47,177.383-38.158Z" transform="translate(-5.856 -2.557)" fill="#f16943"/>
    <path id="パス_2432" data-name="パス 2432" d="M160.706-71.266a.587.587,0,0,1-.683-.562C160.449-71.876,160.652-71.662,160.706-71.266Z" transform="translate(-4.829 -0.453)" fill="#f16943"/>
    <path id="パス_2433" data-name="パス 2433" d="M115.2-74.145c.728.145,1.56.289,1.811,1.049a17.737,17.737,0,0,1,1.053,4.25,29.83,29.83,0,0,0,.869,6.062c.385,1.387-.481,2.193-1.89,2.361-2.093,1.712-4.628.71-6.924,1.145-4.686.888-9.943.223-13.331,4.719,2.643,1.435,5.123-.14,7.611-.482a27.306,27.306,0,0,1,13.763,1.691A96.127,96.127,0,0,1,104.418-38.78c-1.315-2-2.666-3.954-4.972-4.981a2.862,2.862,0,0,0-3.942.9,4.555,4.555,0,0,0-.906,1.53c-.819,3.162-1.942,6.3-1.42,9.647.5,3.237,1.022,6.473,1.623,9.692.974,5.214,3.356,9.542,8,12.415,1.768,1.094,3.324,2.544,5.371,3.163.158.848-.01,1.343-1.013.941-5.442-1.033-9.906-3.931-14.069-7.4-2.354-3.176-4.664-6.382-5.988-10.162a18.547,18.547,0,0,1-.482-2.118c-1.058-1.418.505-3.476-1.159-4.746q-.238-.1-.462-.216.1-.367.219-.729c.248-3.639.012-7.285.129-10.922,1.317-4,2.082-8.2,4.185-11.929.772-2.059,2.483-3.685,2.767-5.975.818-1.643,2.4-2.549,3.649-3.774,1.148-1.128,2.364-2.186,3.55-3.275,2.757-1.654,5.459-3.414,8.291-4.93C110.094-72.876,112.441-74.163,115.2-74.145Z" transform="translate(-0.142 -0.308)" fill="#f3aa97"/>
    <path id="パス_2434" data-name="パス 2434" d="M135.765,2.945l9.81.03c-2.966,1.43-6.055.61-9.1.472C136.23,3.435,136,3.119,135.765,2.945Z" transform="translate(-3.313 -5.124)" fill="#1d1614"/>
    <path id="パス_2435" data-name="パス 2435" d="M108.634-.955l1.013-.942c1.088.471,2.413.621,2.791,2.058C111.148-.134,109.715.058,108.634-.955Z" transform="translate(-1.618 -4.822)" fill="#da8b76"/>
    <path id="パス_2436" data-name="パス 2436" d="M90.37-52.889,85.854-41.3l-.481-.344q.112-.273.227-.547a26.575,26.575,0,0,1,3.851-11.663C90.263-54.014,90.7-53.822,90.37-52.889Z" transform="translate(-0.165 -1.573)" fill="#eaddd9"/>
    <path id="パス_2437" data-name="パス 2437" d="M90.642-53.188q-.46-.482-.919-.966l.957-2.458L92.593-58.7a1.231,1.231,0,0,1,.323,1.516C92.18-55.837,91.792-54.293,90.642-53.188Z" transform="translate(-0.437 -1.273)" fill="#e5d2cc"/>
    <path id="パス_2438" data-name="パス 2438" d="M164.813-8.049c.334-.694.563-1.478,1.458-1.684a.474.474,0,0,1,.811.015A3.36,3.36,0,0,1,165.43-7.9C165.133-7.566,164.922-7.594,164.813-8.049Z" transform="translate(-5.128 -4.318)" fill="#f5c9bb"/>
    <path id="パス_2439" data-name="パス 2439" d="M167.179-9.766l-.4-.018-.406,0a.944.944,0,0,1,.788-.939l.524-.013.388.047Z" transform="translate(-5.225 -4.27)" fill="#f4ded6"/>
    <path id="パス_2440" data-name="パス 2440" d="M164.791-7.922a1.04,1.04,0,0,1,.617.145,1.2,1.2,0,0,1-.947,1.029Q164.626-7.334,164.791-7.922Z" transform="translate(-5.106 -4.445)" fill="#a28b84"/>
    <path id="パス_2441" data-name="パス 2441" d="M177.011-38.24c0,.693,0,1.386,0,2.075q-.145,2.413-.291,4.832c-.388,1.891-.727,3.793-1.177,5.669a22.422,22.422,0,0,1-4.426,9.611,1.1,1.1,0,0,1-.48-1.508c3.324-6.254,4.144-13.141,5.093-20a2.583,2.583,0,0,1,.929-1.914Q176.834-38.856,177.011-38.24Z" transform="translate(-5.483 -2.474)" fill="#eee8e6"/>
    <path id="パス_2442" data-name="パス 2442" d="M150.389-41.84c-1.033,1.976-2.088,3.942-3.093,5.934a13.5,13.5,0,0,1-7.842,6.894c-3.922,1.376-7.856,2.715-11.794,4.047a16.325,16.325,0,0,1-3,.835,10.923,10.923,0,0,1-8.467-1.833,29.965,29.965,0,0,1-6.509-6.026c.636-1.06,1.747-1.342,2.8-1.719,6.6-.029,10.06-3.573,11.031-9.894,1.763-2.725,3.129-5.754,5.847-7.761a3.29,3.29,0,0,1,3.079.471q1.567,1,3.122,2.019c2.531,1.8,5.26,3.288,7.913,4.892,1.194.722,2.384,1.972,4,.794a2.809,2.809,0,0,1,1.2-.244A1.943,1.943,0,0,1,150.389-41.84Z" transform="translate(-1.684 -1.719)" fill="#f3aa97"/>
    <path id="パス_2443" data-name="パス 2443" d="M118.548-52.478c-4.938-1.184-9.861-2.256-14.982-.929a50.8,50.8,0,0,1-6.2.954,1.707,1.707,0,0,1-2.032-1.336c1.287-2.619,3.994-3.009,6.324-3.708a47.828,47.828,0,0,1,16.27-2.009h4.746c-.007-1.95-.848-3.546-1.11-5.232-.274-1.766-.459-3.545-.7-5.317a9.984,9.984,0,0,1-.258-1.748,1.469,1.469,0,0,1,.574-1.066c.627-.353,1.107.023,1.381.638a8.9,8.9,0,0,0,1.1,2.435,13.923,13.923,0,0,1,4,10.411c1.178-.594,1.849-.89,2.477-1.256,6.521-3.8,13.456-5.652,21.034-4.53.681.264,1.366.517,2.04.8.792.329,2.033.485,2,1.434-.042,1.455-1.534.857-2.392,1.171-.407.149-.816.3-1.223.444-4.7,1.907-10.074.9-14.618,3.4-.375.229-.808.411-.944.889a6.763,6.763,0,0,0,.879,1.052,1.269,1.269,0,0,1-.178,1.064,3.788,3.788,0,0,1-2.269.914,8.822,8.822,0,0,1-4.584-.514c-1.072-.873-1-1.787-.095-2.724l.93-.691a5.321,5.321,0,0,0,2.075-1.583,1.143,1.143,0,0,1,1.213-.328c-.01,0-.173-.383-.173-.383s-.3.293-.308.293a1.674,1.674,0,0,0-1.161.728,7.123,7.123,0,0,1-1.245,1.057c-.538.278-1,.668-1.513.978-1.428,1.733-3.288,2.919-5.414,1.927-3.033-1.418-6.061-.829-9.117-.719a7.383,7.383,0,0,1-1.628-.116,6.752,6.752,0,0,0,1.611.139c2.889.6,6.258-1.312,8.68,1.677a2.641,2.641,0,0,1-.535,1.709,6.348,6.348,0,0,1-.8.833,6.07,6.07,0,0,0-1.01,1.364c-.668,1.249-1.323,2.513-2.925,2.775a1.7,1.7,0,0,1-1.223-1.325C116.975-50.359,117.8-51.405,118.548-52.478Z" transform="translate(-0.788 -0.38)" fill="#0e130f"/>
    <path id="パス_2444" data-name="パス 2444" d="M136.7-53.782c.758-.157,1.559-.227,2.025-.984a1.983,1.983,0,0,1,1.134-.748c4.35.652,8.535,1.665,11.491,5.33,1.481.977,2.936,2,4.45,2.92a11.739,11.739,0,0,1,5.417,8.345c.1.552.162,1.255-.635,1.428-.7.15-1.04-.353-1.352-.884-.225-.383-.518-.727-.78-1.088-4.342-3.345-9.593-4.69-14.583-6.608-3.6-1.153-6.887-3.1-10.484-4.265a4.02,4.02,0,0,0-2.754-.732c-1.013.267-1.719,1.315-2.909,1.139a1.679,1.679,0,0,1-1.165-1.468,2.3,2.3,0,0,1,.422-1.285,3.776,3.776,0,0,1,4.434-.918c1.342.073,2.622.57,3.973.578A53.285,53.285,0,0,1,150.5-47.361a9.251,9.251,0,0,1,1.865.94c.159.236.245.356.245.356.244-.4.131-.568-.346-.5a6.3,6.3,0,0,0-1.853-.91,54.843,54.843,0,0,0-13.252-5.246A1,1,0,0,1,136.7-53.782Z" transform="translate(-2.738 -1.472)" fill="#192219"/>
    <path id="パス_2445" data-name="パス 2445" d="M125.559-51.179l1,1.087c.634,1.4-.6,2.061-1.164,2.99a6.3,6.3,0,0,0-.88,1.5,6.437,6.437,0,0,1-.707.972c-2.806,5.564-6.866,9.738-12.921,11.709-.711.407-1.57.26-2.3.614-1.13.353-2.246.759-3.4,1.022a1.254,1.254,0,0,1-1.1-.438,1.356,1.356,0,0,1,.087-1.234c.933-1.144,1.97-2.2,2.968-3.293-.089-.608-.139-1.319.33-1.7,3.793-3.04,6.521-7.263,10.81-9.748l.908,1.178c.659.615.32,1.273.088,1.927-.078.154-.158.308-.235.463s-.166.3-.247.455a9.165,9.165,0,0,1-.592.841c-.113.127-.233.249-.345.378-.228.253-.472.491-.716.728-.116.125-.241.242-.358.367-.23.259-.473.5-.715.751-.121.128-.248.247-.37.374a6.819,6.819,0,0,1-.8.714,13.554,13.554,0,0,0-2.68,1.883,6.039,6.039,0,0,0-.822.845c.426-.393.863-.773,1.3-1.161a17.564,17.564,0,0,0,6.385-5.952c1.584-2.566,2.633-5.518,5.29-7.308A1.431,1.431,0,0,1,125.559-51.179Z" transform="translate(-1.328 -1.734)" fill="#1b241d"/>
    <path id="パス_2446" data-name="パス 2446" d="M152.059-50.507c-3.821-1.886-7.612-3.849-11.8-4.832-.671-.773-2.021-.692-2.364-1.879,1.6-1.516,3.641-1.955,5.7-2.367a35.765,35.765,0,0,1,10.68-.968q-.689.508-1.384,1.015c-2.987,2.46-6.9,2.184-10.348,3a78.646,78.646,0,0,1,10.226.36C152.812-54.254,153.511-52.246,152.059-50.507Z" transform="translate(-3.446 -1.151)" fill="#e7ab98"/>
    <path id="パス_2447" data-name="パス 2447" d="M118.4-47.675c-3.277,4.236-7.342,7.7-11.136,11.442a2.162,2.162,0,0,1-1.548-1.107c.164-1.606,1.273-2.611,2.332-3.641,2.009-1.957,4.063-3.868,6.027-5.869,1-1.015,2.338-1.8,2.393-3.542.023-.728.864-.563,1.426-.592.438-.023.875-.081,1.31-.125.646.443.372.95.113,1.474C118.992-48.989,118.7-48.328,118.4-47.675Z" transform="translate(-1.436 -1.747)" fill="#f3f0ee"/>
    <path id="パス_2448" data-name="パス 2448" d="M153.045-56.107c-2.1,1.655-4.509,1.072-6.827.847a18.572,18.572,0,0,1-3.425-.875.755.755,0,0,1-.44-.574c.026-.241.275-.631.467-.655,3.5-.453,6.788-1.952,10.347-2.1Q153.106-57.785,153.045-56.107Z" transform="translate(-3.725 -1.225)" fill="#faf8f5"/>
    <path id="パス_2449" data-name="パス 2449" d="M145.381-46.276c4.061,1.005,7.79,2.87,11.584,4.552a4.234,4.234,0,0,1,2.638,2.838c-2.489-.465-4.667-1.763-7.008-2.624l-1.895-1.05a1.142,1.142,0,0,0-1.2-.379,1.62,1.62,0,0,1-.847-.233c-.389-.2-.777-.4-1.176-.578a4.412,4.412,0,0,1-.779-.4c-.393-.211-.79-.413-1.174-.645a1.411,1.411,0,0,1-.54-.715A.842.842,0,0,1,145.381-46.276Z" transform="translate(-3.89 -2.049)" fill="#85a775"/>
    <path id="パス_2450" data-name="パス 2450" d="M108.893-31.108c.374-.647,1.051-.771,1.684-.968a2.051,2.051,0,0,1,1.926.245c-.683,1.1-1.825.942-2.871,1.051A3.8,3.8,0,0,0,108.893-31.108Z" transform="translate(-1.635 -2.929)" fill="#e8cdc5"/>
    <path id="パス_2451" data-name="パス 2451" d="M167.733-10.789l-.26.025-.263-.012a1.2,1.2,0,0,1,.225-.838,4.021,4.021,0,0,1,.443.515C167.912-11.047,167.786-10.895,167.733-10.789Z" transform="translate(-5.278 -4.215)" fill="#f1e4df"/>
    <path id="パス_2452" data-name="パス 2452" d="M117.929-58.666c-3.09,1.111-6.359,1.233-9.562,1.717-4.544.685-9.056,1.461-13.032,4a3,3,0,0,1,1.682-2.9,22.65,22.65,0,0,1,7.406-2.885,55.627,55.627,0,0,1,13.263-.777A7.4,7.4,0,0,1,117.929-58.666Z" transform="translate(-0.787 -1.219)" fill="#7ac68e"/>
    <path id="パス_2453" data-name="パス 2453" d="M133.861-36.534c0-.593-.021-1.186,0-1.778.067-1.635.431-1.964,2.193-2.034,3.858-.153,5.631.907,6.993,4.135a1.429,1.429,0,0,1-.548,1.928,13.583,13.583,0,0,1-7.173,1.87,1.37,1.37,0,0,1-1.363-1.458c-.052-.885-.012-1.776-.012-2.664Z" transform="translate(-3.194 -2.419)" fill="#fef9f8"/>
    <path id="パス_2454" data-name="パス 2454" d="M112.615-32.646q-.965-.121-1.928-.245c1.308-.688,2.638-1.332,3.915-2.071a20.9,20.9,0,0,0,7.1-6.671c.81-1.231,1.7-2.407,2.559-3.609.586.529.463,1.192.351,1.853a19.359,19.359,0,0,1-1.643,5.917,7.7,7.7,0,0,1-7.266,4.788C114.672-32.669,113.644-32.658,112.615-32.646Z" transform="translate(-1.747 -2.114)" fill="#7acd92"/>
    <path id="パス_2455" data-name="パス 2455" d="M148.966-42.724c.086.568.172,1.136.266,1.749-2.913-.6-8.069-3.531-12.73-7.194,3.422-1.133,5.593,1.537,8.255,2.717l.06.036c.446.568,1.244.395,1.751.833l.07.032c.41.623,1.263.42,1.732.933l0,0A1.071,1.071,0,0,1,148.966-42.724Z" transform="translate(-3.359 -1.914)" fill="#f3f2ec"/>
    <path id="パス_2456" data-name="パス 2456" d="M144.591-45.548c-1.555.033-2.749-.921-4.071-1.511a9.711,9.711,0,0,0-4.182-1.2,5.775,5.775,0,0,1-2.5-1.727c3.935.166,7.4,1.79,10.845,3.483C144.653-46.187,144.622-45.868,144.591-45.548Z" transform="translate(-3.193 -1.817)" fill="#bad8bb"/>
    <path id="パス_2457" data-name="パス 2457" d="M125.513-43.746q-.176-.925-.351-1.852l-.018.045c.547-.437.39-1.2.789-1.7l1.943-2.813c.817-.5,1.568-1.253,2.665-.714C128.7-48.558,127.6-45.8,125.513-43.746Z" transform="translate(-2.65 -1.756)" fill="#ede5e2"/>
    <path id="パス_2458" data-name="パス 2458" d="M149.757-42.4l-.593-.893a1.841,1.841,0,0,1,1.8.921Z" transform="translate(-4.15 -2.236)" fill="#bad8bb"/>
    <path id="パス_2459" data-name="パス 2459" d="M130.748-53.316c-1.5.107-3.069-.112-4.325,1.016a4.926,4.926,0,0,0-1.489.493,1.326,1.326,0,0,1-.98-.3c.537-.7.634-1.675-.361-1.585a32.384,32.384,0,0,1-7.971-.512.864.864,0,0,1-.016-1.519c1.168-.184,2.35-.3,3.5-.567a6.584,6.584,0,0,1,4.746.494,5.4,5.4,0,0,0,6.193-.451,7.194,7.194,0,0,1,1.615-.644l.213.245c-.23.9-1.305,1.46-1.009,2.563.317.223.4.41.264.563A.524.524,0,0,1,130.748-53.316Z" transform="translate(-2.026 -1.386)" fill="#69ba84"/>
    <path id="パス_2460" data-name="パス 2460" d="M119.488-44.685l.676-1.831L122.2-49.9a1.53,1.53,0,0,1,1.066-1,.666.666,0,0,0,.654-.437,8.12,8.12,0,0,1,1.044-.1.869.869,0,0,1,.833.486c-2.244,2.07-3.232,5.068-5.341,7.237l-.485-.114A4.658,4.658,0,0,0,119.488-44.685Z" transform="translate(-2.297 -1.727)" fill="#adcdb7"/>
    <path id="パス_2461" data-name="パス 2461" d="M149.133-63.009c-2.178.933-3.88,1.836-6.2.945C145.014-62.943,146.706-63.919,149.133-63.009Z" transform="translate(-3.762 -0.981)" fill="#1f3828"/>
    <path id="パス_2462" data-name="パス 2462" d="M131.787-53.129a4.91,4.91,0,0,1,.117-.766l5.125.213a6.137,6.137,0,0,1,.385.591c-.342.838-1.305.375-1.813.863C134.2-51.988,133.073-52.891,131.787-53.129Z" transform="translate(-3.065 -1.573)" fill="#48815b"/>
    <path id="パス_2463" data-name="パス 2463" d="M127.122-63.535a4.142,4.142,0,0,1,.521,4.1c-1.292-.307-1.522-1.213-1.435-2.314C126.793-62.2,126.345-63.182,127.122-63.535Z" transform="translate(-2.715 -0.971)" fill="#717171"/>
    <path id="パス_2464" data-name="パス 2464" d="M137.816-56.988c1.121.207,2.409.205,2.365,1.879a6.266,6.266,0,0,0-.823.25l-.007-.268c-.756-.535-1.753-.036-2.5-.589C136.3-56.8,137.291-56.718,137.816-56.988Z" transform="translate(-3.371 -1.38)" fill="#d6edde"/>
    <path id="パス_2465" data-name="パス 2465" d="M115.495-55.65q.008.761.016,1.519a5.5,5.5,0,0,1-.867.027c-.6-.07-1.257-.262-1.284-.931-.035-.844.768-.616,1.27-.691A3.6,3.6,0,0,1,115.495-55.65Z" transform="translate(-1.914 -1.458)" fill="#457d58"/>
    <path id="パス_2466" data-name="パス 2466" d="M137.45-59.624a1.637,1.637,0,0,1-1.658.9q-.572.681-1.067-.059c.7-.978,1.74-.841,2.741-.824Z" transform="translate(-3.249 -1.215)" fill="#1d3324"/>
    <path id="パス_2467" data-name="パス 2467" d="M127.1-63.585c-.265.616.037,1.522-.914,1.787-.095-.539-.183-1.079-.288-1.616-.083-.421.024-.892.412-.915C126.559-64.344,126.838-63.85,127.1-63.585Z" transform="translate(-2.696 -0.922)" fill="#dadada"/>
    <path id="パス_2468" data-name="パス 2468" d="M134.651-58.728l1.066.059a3.312,3.312,0,0,1-1.965,1.756.572.572,0,0,1-.191-.617c.075-.2.148-.3.218-.3Z" transform="translate(-3.174 -1.271)" fill="#3e704f"/>
    <path id="パス_2469" data-name="パス 2469" d="M136.858-55.639a2.407,2.407,0,0,1,2.505.589C138.459-54.955,137.521-54.713,136.858-55.639Z" transform="translate(-3.382 -1.457)" fill="#e7ab98"/>
    <path id="パス_2470" data-name="パス 2470" d="M137.649-59.631c.065-.127.154-.37.19-.363.3.062.228.2-.207.347Z" transform="translate(-3.43 -1.192)" fill="#1d3324"/>
    <path id="パス_2471" data-name="パス 2471" d="M133.731-57.769q-.013.457-.027.916l-.346.173-.385-.022-.211-.243C132.856-57.49,133.256-57.674,133.731-57.769Z" transform="translate(-3.126 -1.331)" fill="#5da876"/>
    <path id="パス_2472" data-name="パス 2472" d="M124.847-51.18l-.631-.182a.5.5,0,0,1,.307-.438.373.373,0,0,0,.619-.174Q125.819-51.269,124.847-51.18Z" transform="translate(-2.592 -1.693)" fill="#1b241d"/>
    <path id="パス_2473" data-name="パス 2473" d="M123.448-50.855l-1.066,1A1.219,1.219,0,0,1,123.448-50.855Z" transform="translate(-2.477 -1.763)" fill="#1b241d"/>
    <path id="パス_2474" data-name="パス 2474" d="M135.855-52.175c.414-.685,1.171-.654,1.813-.863,5.319.4,9.846,2.814,14.238,5.576a.8.8,0,0,1,.043,1.217c-2.169-.9-4.347-1.785-6.508-2.708A45.415,45.415,0,0,0,135.855-52.175Z" transform="translate(-3.319 -1.627)" fill="#64b47f"/>
    <path id="パス_2475" data-name="パス 2475" d="M154.789-46.135a2.456,2.456,0,0,1,.764.344c.268.262.682.829.616.9-.538.623-.937.136-1.316-.279-.293-.2-.4-.406-.321-.628S154.7-46.135,154.789-46.135Z" transform="translate(-4.484 -2.058)" fill="#71442d"/>
    <path id="パス_2476" data-name="パス 2476" d="M154.694-46.195c.022.323.042.646.064.969a2.269,2.269,0,0,1-1.738-.65q-.021-.606-.043-1.215Z" transform="translate(-4.389 -1.999)" fill="#5a7f5a"/>
    <path id="パス_2477" data-name="パス 2477" d="M124.889-51.221a.99.99,0,0,1,.294-.793c.614-.244,1.221-1.247,1.848-.019a1.954,1.954,0,0,0-.166.773,7.634,7.634,0,0,1-.729.242Z" transform="translate(-2.634 -1.652)" fill="#d1dcd5"/>
    <path id="パス_2478" data-name="パス 2478" d="M112.751-37.881l2.222-1.9a1.451,1.451,0,0,0,1.228-1.067l-.146.172a1.434,1.434,0,0,0,1.043-1.073l-.143.18A1.46,1.46,0,0,0,118-42.658l-.164.173a1.306,1.306,0,0,0,1.045-1.1l-.215.042c.3.032.6.054.9.065a1.764,1.764,0,0,0,.459.26c-1.29,2.952-3.855,4.64-6.345,6.4C112.8-36.67,112.5-37.032,112.751-37.881Z" transform="translate(-1.87 -2.218)" fill="#b8dec4"/>
    <path id="パス_2479" data-name="パス 2479" d="M112.573-37.5l.934,1.067a4.359,4.359,0,0,1-.864.943c-.863.513-1.784.929-2.831,1.461C110.518-36.025,110.493-36.051,112.573-37.5Z" transform="translate(-1.692 -2.598)" fill="#437152"/>
    <path id="パス_2480" data-name="パス 2480" d="M125.933-47.01a1.687,1.687,0,0,1-.789,1.7A1.533,1.533,0,0,1,125.933-47.01Z" transform="translate(-2.648 -2.004)" fill="#7acd92"/>
    <path id="パス_2481" data-name="パス 2481" d="M116.355-40.667a1.524,1.524,0,0,1-1.227,1.066A1.7,1.7,0,0,1,116.355-40.667Z" transform="translate(-2.024 -2.4)" fill="#cbe3d3"/>
    <path id="パス_2482" data-name="パス 2482" d="M119.972-43.517l-.9-.065a.746.746,0,0,1,.393-.654Z" transform="translate(-2.27 -2.177)" fill="#d6edde"/>
    <path id="パス_2483" data-name="パス 2483" d="M117.325-41.629a1.414,1.414,0,0,1-1.043,1.073A1.272,1.272,0,0,1,117.325-41.629Z" transform="translate(-2.096 -2.34)" fill="#d8e5dc"/>
    <path id="パス_2484" data-name="パス 2484" d="M118.287-42.6a1.442,1.442,0,0,1-1.045,1.086A1.247,1.247,0,0,1,118.287-42.6Z" transform="translate(-2.156 -2.279)" fill="#dde8e1"/>
    <path id="パス_2485" data-name="パス 2485" d="M119.227-43.583a1.389,1.389,0,0,1-1.044,1.1A1.222,1.222,0,0,1,119.227-43.583Z" transform="translate(-2.215 -2.218)" fill="#dbeae0"/>
    <path id="パス_2486" data-name="パス 2486" d="M147.122-44.382a1.564,1.564,0,0,1-1.751-.833A1.7,1.7,0,0,1,147.122-44.382Z" transform="translate(-3.914 -2.115)" fill="#bad8bb"/>
    <path id="パス_2487" data-name="パス 2487" d="M149.046-43.36a1.7,1.7,0,0,1-1.732-.933A1.608,1.608,0,0,1,149.046-43.36Z" transform="translate(-4.035 -2.173)" fill="#bad8bb"/>
  </g>
</svg>
