<svg xmlns="http://www.w3.org/2000/svg" width="77.035" height="103.955" viewBox="0 0 77.035 103.955">
  <g id="牛乳" transform="translate(206.532 -273.697)">
    <path id="パス_2488" data-name="パス 2488" d="M-200.318,311.161c-6.955-11.309-1.575-28.445,10.9-34.711,2.848-.174,1.4,1.478,1.133,2.635a12.1,12.1,0,0,1-.921,1.345c-1.448,3-.212,6.33-1.156,9.387-.624,2.128-2.137,4.064-1.384,6.49a4.524,4.524,0,0,1-.276,2.2,21.121,21.121,0,0,0-2.755,5c-.51,1.069-1.045,2.124-1.589,3.176-.7,1.234-1.313,2.518-2.121,3.692A1.687,1.687,0,0,1-200.318,311.161Z" transform="translate(-0.419 -0.366)" fill="#8899f6"/>
    <path id="パス_2489" data-name="パス 2489" d="M-123.627,308.653c1.238.966,1.12,2.339,1.1,3.681-.219,14.161.943,28.242,2.061,42.347.507,6.407-.663,12.943-1.011,19.423-.128,2.388-1.714,2.453-3.538,2.764-4.639.789-8.5-1.977-12.832-2.506a1.5,1.5,0,0,1,.47-1.523,5.559,5.559,0,0,1,4.1-.479c2.384.728,4.612.744,6.353-1.426,1.138-5.721-.228-11.556.877-17.269,1.026-2.927.6-5.96.666-8.96.01-9.7-.036-19.4.022-29.094C-125.345,313.175-125.684,310.6-123.627,308.653Z" transform="translate(-9.155 -4.663)" fill="#f5e6d0"/>
    <path id="パス_2490" data-name="パス 2490" d="M-160.812,384.284c-.083,1.673-1.04,2.283-2.628,2.329-6.582.192-12.778,2.375-19,4.143-6.123,1.741-11.742,2.99-16.257-3a6.265,6.265,0,0,1,1.4-.919c1.886-.54,3.888-.518,5.747-1.2a28.312,28.312,0,0,1,4.334-.612,35.055,35.055,0,0,1,8.186-1.13,49.636,49.636,0,0,1,11.516-1.118C-165.2,382.931-162.734,382.409-160.812,384.284Z" transform="translate(-1.046 -14.543)" fill="#b4caef"/>
    <path id="パス_2491" data-name="パス 2491" d="M-143.006,293.834a6.746,6.746,0,0,1,1.067-.02,38.225,38.225,0,0,0,5.7,4.127,13.508,13.508,0,0,1,3.622,3.972,6.3,6.3,0,0,1,3.484,3.32c3.358,3.248-.218,3.307-1.935,4.23a5.592,5.592,0,0,1-1.64.045c-2.691-.518-5.38-1.618-6.513-4.039-2.25-4.81-4.443-3.12-7.3-.731-1.331,1.115-2.971,3.389-5.171.937a3.851,3.851,0,0,1-.064-2.394c.609-1.486,1.569-2.81,2.037-4.368.935-2.02,1.536-4.247,3.49-5.636A2.856,2.856,0,0,1-143.006,293.834Z" transform="translate(-7.285 -2.576)" fill="#f6f6f5"/>
    <path id="パス_2492" data-name="パス 2492" d="M-186.944,278.346c.374-.822,1.186-1.706-.323-2.261,3.79-3.069,8.318-2.463,12.562-2.037a67.973,67.973,0,0,1,19.213,4.516,5.253,5.253,0,0,1-4.131,1.549c-7.58.159-15.163.14-22.743.012C-184.081,280.1-185.807,279.934-186.944,278.346Z" transform="translate(-2.57 0)" fill="#8a9bf7"/>
    <path id="パス_2493" data-name="パス 2493" d="M-200.233,316.323l.975-1.011c.723-.407,1.264,0,1.81.393a10.469,10.469,0,0,0,2.364,1.381c1.12.526,2.466.734,2.975,2.114a1.787,1.787,0,0,1-.744,1.354c-1.4.822-3.23.845-4.265,2.334-1.2,7.741-.284,15.506-.532,23.243-.127,3.981.014,7.969-.049,11.952-.217,2.238-.018,4.519-.633,6.721a3.316,3.316,0,0,1-1.121,1.523l-.932-.23-.449-4.7c-1.264-14.563-3.578-29.124-.042-43.691Q-200.555,317.011-200.233,316.323Z" transform="translate(-0.504 -5.528)" fill="#1e2227"/>
    <path id="パス_2494" data-name="パス 2494" d="M-201.264,318.094q.021,21.846.042,43.693c-1.593-5.661-.775-11.757-3.137-17.276a57.707,57.707,0,0,0-1.3-17.326C-200.609,325.885-203.285,320.855-201.264,318.094Z" transform="translate(-0.117 -5.922)" fill="#cae0fc"/>
    <path id="パス_2495" data-name="パス 2495" d="M-187.064,279.062l31.449.218,3.562.977c-1.988,2.427-5.134,1.42-7.557,2.57-7.557,1.56-14.985-1.155-22.513-.671-2.147-.581-5.128.7-6.046-2.663Z" transform="translate(-2.449 -0.716)" fill="#0c0e15"/>
    <path id="パス_2496" data-name="パス 2496" d="M-128.1,310.68c.049-1.595,4.264-.7,2.143-3.592,1.6-.6,2.518.639,3.64,1.334q-.165,18.452-.331,36.9c-3.121-.857-2.447-3.536-2.5-5.645-.166-7.082-.079-14.169-.06-21.24-.285-2.278,1.072-5.02-1.84-6.581A3.559,3.559,0,0,1-128.1,310.68Z" transform="translate(-10.461 -4.433)" fill="#1f1f1b"/>
    <path id="パス_2497" data-name="パス 2497" d="M-205.772,328.584c.978.173,2.187.522,2.175,1.538-.063,5.272,1.332,10.639-.88,15.789C-204.834,340.13-207.934,334.553-205.772,328.584Z" transform="translate(0 -7.321)" fill="#bed3f9"/>
    <path id="パス_2498" data-name="パス 2498" d="M-142.763,286.973l-1.148,1.746a3.845,3.845,0,0,1-2.517,1.333,4.566,4.566,0,0,1-3.648-1.119c-1.3-2.732-.515-5.085,1.328-7.242a8.665,8.665,0,0,1,4.752-.112C-142.307,283.084-142.984,285.132-142.763,286.973Z" transform="translate(-7.445 -1.015)" fill="#eaebea"/>
    <path id="パス_2499" data-name="パス 2499" d="M-156.042,383.969l-6.837-.126c-.223-.939.318-1.488,1-1.974a4.964,4.964,0,0,1,3.108-.7,19.747,19.747,0,0,0,8.729-.427,14.887,14.887,0,0,1,5.058-.27,7.448,7.448,0,0,1,1.682.414,4.39,4.39,0,0,1,2.6,2.181q-.243.43-.483.861Z" transform="translate(-5.816 -14.228)" fill="#2d2d2e"/>
    <path id="パス_2500" data-name="パス 2500" d="M-197.8,386.508l-.506.074-.51-.036q-.181-3.1-.363-6.195c-.358-2.162-.846-4.329.2-6.448l-.019.019a1.066,1.066,0,0,1,1.533.056c1.734,3.061.743,6.756,2.293,9.865C-194.777,385.982-196.721,385.818-197.8,386.508Z" transform="translate(-0.923 -13.329)" fill="#262628"/>
    <path id="パス_2501" data-name="パス 2501" d="M-144.656,281.858l-4.455.1c-2.019,1.322-3.969,1.591-5.773-.376,2.212-1.726,4.906-.383,7.271-1.137l4.217.356C-143.183,281.9-143.607,282.252-144.656,281.858Z" transform="translate(-6.889 -0.9)" fill="#040405"/>
    <path id="パス_2502" data-name="パス 2502" d="M-134.807,299.118c-2.327-1.229-4.533-2.589-5.6-5.181,2.832-.111,4.3,1.907,5.868,3.764Q-133.78,298.579-134.807,299.118Z" transform="translate(-8.82 -2.699)" fill="#3d3f3f"/>
    <path id="パス_2503" data-name="パス 2503" d="M-143.082,281.913l1.26-1.061c2.58,1.988,1.1,4.027.078,6.061C-143.938,285.714-142.045,283.422-143.082,281.913Z" transform="translate(-8.463 -0.954)" fill="#202020"/>
    <path id="パス_2504" data-name="パス 2504" d="M-145.73,290.171l2.379-.31c.246,1.217,2.163,1.933,1.065,3.552l-3.424.069a2.087,2.087,0,0,1-.735-1.017,3.556,3.556,0,0,1-.024-1.277A2.23,2.23,0,0,1-145.73,290.171Z" transform="translate(-8.005 -2.156)" fill="#282929"/>
    <path id="パス_2505" data-name="パス 2505" d="M-133.945,299.7l.27-1.418c1.686,1.019,4.369,1.244,3.451,4.335Z" transform="translate(-9.682 -3.279)" fill="#212021"/>
    <path id="パス_2506" data-name="パス 2506" d="M-199.057,373.945q-.1,3.221-.2,6.446a11.6,11.6,0,0,1-.788-6.454C-199.713,373.953-199.385,373.956-199.057,373.945Z" transform="translate(-0.849 -13.371)" fill="#35393e"/>
    <path id="パス_2507" data-name="パス 2507" d="M-152.7,291.495a1.842,1.842,0,0,0-.354.523c-4.388,2.49-6.363,6.832-8.469,11.062-2.47,4.96-5.162,9.741-9.9,12.975a5.943,5.943,0,0,1-2.8.115c-6.944-.969-14.075.485-20.921-1.65-.987-.1-2.167.125-2.341-1.369.533-1.358.577-2.9,1.5-4.112.641-1.083.938-2.324,1.563-3.416.943-1.805,1.156-3.97,2.7-5.475l-.044-1.582a8.684,8.684,0,0,1,1.965-6.137,83.338,83.338,0,0,1,18.709-1.779,21.366,21.366,0,0,0,7.671-.83A16.587,16.587,0,0,1-152.7,291.495Z" transform="translate(-1.206 -2.116)" fill="#879af8"/>
    <path id="パス_2508" data-name="パス 2508" d="M-170.016,290.737l-18.577,1.271c-1.011.155-1.7.023-1.1-1.244.917-3.679-1.84-7.78,1.285-11.205,1.814,1.641,4.142.572,6.155,1.17a2.852,2.852,0,0,1-1.8,2.039c-1.294.655-2.255,1.537-1.738,3.134a3.256,3.256,0,0,0,3.042,2.21c2.845.3,5.7.029,8.561.116C-172.516,288.6-170.334,288.132-170.016,290.737Z" transform="translate(-2.212 -0.782)" fill="#0e101a"/>
    <path id="パス_2509" data-name="パス 2509" d="M-190,292.489l1.1,1.244-2.168,5.222C-193.619,296.319-191.359,294.479-190,292.489Z" transform="translate(-1.908 -2.507)" fill="#1c2332"/>
    <path id="パス_2510" data-name="パス 2510" d="M-191.342,301.777c-.325,2.194-.679,4.377-2.245,6.116-.732-.087-.826-.716-1.049-1.235C-193.475,305.073-194.947,301.712-191.342,301.777Z" transform="translate(-1.587 -3.745)" fill="#1e2236"/>
    <path id="パス_2511" data-name="パス 2511" d="M-195.657,312.357q-1,1.839-2,3.68l-1.066-1.251,2.089-3.594A1.657,1.657,0,0,1-195.657,312.357Z" transform="translate(-1.042 -5.001)" fill="#1e2436"/>
    <path id="パス_2512" data-name="パス 2512" d="M-195.335,311.852l-.974-1.166,1.449-3.278,1.049,1.235Z" transform="translate(-1.364 -4.497)" fill="#010000"/>
    <path id="パス_2513" data-name="パス 2513" d="M-123.651,317.432c.1,7.763.162,15.526.334,23.288.045,2.017-.676,4.2.889,6.007a22.281,22.281,0,0,1-.705,8.6c-2.273-1.741-1.754-4.587-2.731-6.847-.932-8.571-.445-17.166-.352-25.751C-126.195,320.68-126.079,318.431-123.651,317.432Z" transform="translate(-10.685 -5.834)" fill="#2b2a27"/>
    <path id="パス_2514" data-name="パス 2514" d="M-124.446,353.98c1.62,1.842.512,4.2,1.178,6.224q-.022,8.539-.041,17.08c0,.971.016,1.921-1.335,1.956-.513-.458-1-.94-1.475-1.443C-128.608,369.647-127.3,361.758-124.446,353.98Z" transform="translate(-10.55 -10.709)" fill="#211f1d"/>
    <path id="パス_2515" data-name="パス 2515" d="M-137.672,383.024l-2.522-1.122c2.833-2.58,5.856-2.182,8.957-.575.641,2.419-.744,2.119-2.243,1.669Z" transform="translate(-8.848 -14.185)" fill="#030301"/>
    <path id="パス_2516" data-name="パス 2516" d="M-132.446,383.108l2.44-1.149c1.338-1.6,2.887-1.106,4.452-.446l.242,1.316C-127.687,383.026-129.98,385.259-132.446,383.108Z" transform="translate(-9.882 -14.298)" fill="#423e39"/>
    <path id="パス_2517" data-name="パス 2517" d="M-163.83,382.9l-1.2.965-11.666,1.147c-.74-.7-3.007.107-2.134-2.175,3.649-2.339,7.865-1.828,11.871-2.245C-165.558,380.451-163.876,380.8-163.83,382.9Z" transform="translate(-3.669 -14.255)" fill="#23272e"/>
    <path id="パス_2518" data-name="パス 2518" d="M-180.232,384.262l2.461,1.086-8.042,1.108c-.96-.323-1.614-.826-1.156-1.979A4.951,4.951,0,0,1-180.232,384.262Z" transform="translate(-2.59 -14.585)" fill="#040806"/>
    <path id="パス_2519" data-name="パス 2519" d="M-197.521,388.062l2.288-1.738c.363-1.087,1.212-1.127,2.142-.995a2.62,2.62,0,0,1,1.686,1.94C-193.321,388.484-195.41,388.355-197.521,388.062Z" transform="translate(-1.202 -14.883)" fill="#1c1c1f"/>
    <path id="パス_2520" data-name="パス 2520" d="M-190.7,387.214l-1.5-1.172c1.291-1.551,2.73-1.476,4.26-.385l1.446,1.04Z" transform="translate(-1.912 -14.827)" fill="#040406"/>
    <path id="パス_2521" data-name="パス 2521" d="M-144.076,372.288l-5.765.264c-4.444-2.076-2.293-6.706-3.849-9.9-.468-3.121-1.483-6.117-2.128-9.2-.451-6.351.283-12.784-1.342-19.05a37.741,37.741,0,0,0-1.664-7.8c-.422-1.408-.857-2.814-1.171-4.256-.441-3.932,2.282-5.175,5.263-6.2a24.708,24.708,0,0,1,4.219-.761c2.118-.489,4.251-.926,6.326-1.59a43.606,43.606,0,0,0,6.82-2.447c1.3-.227,2.6-1.17,3.929-.092q.537-.008,1.072-.061l1.119.438c1.7.176,2.966.759,2.762,2.823-.172,1.725-1.521,2.127-2.818,2.375-4.51.863-9.139,1.082-13.544,2.513-5.752,1.868-6.074,2.437-4.717,8.187,2.156,9.133,5.247,18.066,6.46,27.4C-142.351,360.7-141.017,366.659-144.076,372.288Z" transform="translate(-6.201 -4.941)" fill="#fdfdfc"/>
    <path id="パス_2522" data-name="パス 2522" d="M-133.034,309.807l-3.141,1.155c-2.758-.208-5.094,1.374-7.7,1.819-2.124.5-4.187,1.244-6.348,1.6-1.694-.084-3.259.7-4.938.731a2.284,2.284,0,0,1-1.868-2.428,10.045,10.045,0,0,1,2.086-4.411c.861-.963,1.456-2.343,3.135-2.068,4.234-.15,6.163-3.83,9.338-6.276C-140.247,304.213-137.879,308.262-133.034,309.807Z" transform="translate(-6.603 -3.499)" fill="#eedfca"/>
    <path id="パス_2523" data-name="パス 2523" d="M-167.131,315.268c5.351-5.572,8.5-12.556,11.975-19.268,1.491-2.884,3.235-3.881,6.155-3.606.179.471.361.946.542,1.421.077,2.375-1.725,3.988-2.453,6.037a15.729,15.729,0,0,0-2.747,3.441c-.463,1.5-1.624,2.581-2.305,3.951a29.423,29.423,0,0,0-2.635,5.125C-160.671,315.619-162.735,318.887-167.131,315.268Z" transform="translate(-5.256 -2.488)" fill="#ebebec"/>
    <path id="パス_2524" data-name="パス 2524" d="M-154.63,308.135c.194-1.51,1.215-2.507,2.186-3.535a1.043,1.043,0,0,1,1.638.211q-.341.988-.683,1.975l-2.316,2.254A1.086,1.086,0,0,1-154.63,308.135Z" transform="translate(-6.923 -4.082)" fill="#393b3d"/>
    <path id="パス_2525" data-name="パス 2525" d="M-150.469,304.357l-1.638-.211c.711-1.411.467-3.791,3.2-3.155Z" transform="translate(-7.259 -3.626)" fill="#393837"/>
    <path id="パス_2526" data-name="パス 2526" d="M-188.844,377.085l-4.26.385-2.327.226c-4.069-2.846-1.2-7.336-2.564-10.824-.767-2.457.128-5.071-.7-7.521-.032-11.133-.114-22.264-.047-33.4.01-1.779-.964-3.818.815-5.368,1.873,4.522,5.332,5.655,10,5.389,5.106-.291,10.213-.261,15.286-1.152,2.337-.411,4.918-1.231,6.927,1.058a4.493,4.493,0,0,1,1.108,2.616c-1.182,10.991,4.846,21.253,3.162,32.316-.632,4.147.861,8.385-.006,12.59-.709,1.093-1.691.957-2.721.6l-2.324.9c-5.25-1.776-10.26.011-15.322,1.027C-184.2,376.094-186.658,375.745-188.844,377.085Z" transform="translate(-1.004 -6.254)" fill="#bad1fa"/>
    <path id="パス_2527" data-name="パス 2527" d="M-166.319,326.2c-8.052-.5-15.932,1.616-24.036,1.343-5.412-.181-8.417-1.1-7.436-7.13l5.966-.151c2.154-1.44,4.6-.785,6.924-.952,2.7,0,5.391-.009,8.087.01,2.788.161,5.549.939,8.353.558,3.057-.416,4.07,1.015,3.789,3.818a3.622,3.622,0,0,1-.054,1.967A1.048,1.048,0,0,1-166.319,326.2Z" transform="translate(-1.141 -6.083)" fill="#f8f9fb"/>
    <path id="パス_2528" data-name="パス 2528" d="M-176.354,320.126l-8.242.042c-2.105-1.232-4.595.239-6.705-.955-1.2-.149-2.523.144-3.488-.914,7.461.107,14.957-1.29,22.375.541C-173.359,320.394-175.225,319.131-176.354,320.126Z" transform="translate(-1.566 -5.895)" fill="#1c1f34"/>
    <path id="パス_2529" data-name="パス 2529" d="M-198.686,365.317a18.84,18.84,0,0,1,.7,7.521c-.309,0-.618-.01-.926-.024Q-198.8,369.065-198.686,365.317Z" transform="translate(-1.017 -12.221)" fill="#35393e"/>
    <path id="パス_2530" data-name="パス 2530" d="M-190.779,319.4c2.239.295,4.692-.915,6.706.955l-6.806-.092A3.764,3.764,0,0,1-190.779,319.4Z" transform="translate(-2.088 -6.08)" fill="#0e1014"/>
    <path id="パス_2531" data-name="パス 2531" d="M-174.769,289.777c-2.068.024-4.14.149-6.2.049-2.843-.138-6.111,1.477-6.775-3.9-.7-5.692,3.268-4.082,5.775-5.017l22.692.732,5.773.376q-.6,3.226-1.2,6.452c-3.505,1.8-7.45.218-11.031,1.43C-168.752,290.176-171.741,288.546-174.769,289.777Z" transform="translate(-2.495 -0.962)" fill="#8496f1"/>
    <path id="パス_2532" data-name="パス 2532" d="M-142.867,372.408c1.591-16-3.664-30.9-7.545-45.993-.986-3.837-1.145-6.01,3.537-7.54a81.633,81.633,0,0,1,16.149-3.244c4.459-.52,2.864-2.162.691-3.884,4.858-.78,2.5,3,3.11,4.913-1.2,10.537-.438,21.115-.66,31.673-.057,7.982-2.186,15.928-.44,23.944l-4.452.446a26.726,26.726,0,0,0-9.154.055Z" transform="translate(-7.411 -5.061)" fill="#f6e6cf"/>
    <path id="パス_2533" data-name="パス 2533" d="M-162.832,290.131l11.459-.5,3.466.509q-.083.684-.169,1.365l-10.852-.217C-160.337,291.27-162.208,292.8-162.832,290.131Z" transform="translate(-5.829 -2.126)" fill="#090a10"/>
    <path id="パス_2534" data-name="パス 2534" d="M-158.81,380.6l2.27-.425c2.927-1.994,1.478-4.981,1.712-7.591.435-1.3.8-2.667,2.615-2.536q1.269,5.2,2.537,10.411A11.1,11.1,0,0,1-158.81,380.6Z" transform="translate(-6.365 -12.851)" fill="#070707"/>
    <path id="パス_2535" data-name="パス 2535" d="M-173.517,319.557c1.028-1.3,2.619-.88,3.94-1.285l1.6-.166c4.144,1.279,6.52-1.033,8.485-4.181a.663.663,0,0,1,1.153.076c-.064.95,0,1.847.988,2.355.384.382,1.121.369,1.207,1.082-2.093,1.461-5.656,1.711-4.69,5.692.654,1.191-.042,1.292-.971,1.2.075-2.946-.263-5.162-4.325-4.436C-168.5,320.319-171.05,319.7-173.517,319.557Z" transform="translate(-4.404 -5.326)" fill="#1f1e21"/>
    <path id="パス_2536" data-name="パス 2536" d="M-164.156,290.2c1.049,1.237,2.6.763,3.9,1.158-2.4,1.082-4.937.931-7.47.792-1.419-1.521-3.367-.707-5.033-1.14C-169.961,289.993-167.055,290.142-164.156,290.2Z" transform="translate(-4.505 -2.196)" fill="#171826"/>
    <path id="パス_2537" data-name="パス 2537" d="M-155.44,336.67c1.283,6.873,1.142,13.824,1.146,20.768a1.949,1.949,0,0,1-1.933.2c-.867-6.352-2.039-12.682-1.4-19.149C-157.212,337.507-156.762,336.56-155.44,336.67Z" transform="translate(-6.499 -8.398)" fill="#313031"/>
    <path id="パス_2538" data-name="パス 2538" d="M-155.088,360.629l.988.005c1.5,2.515,1.76,5.364,2.214,8.162l-1.776,2.284C-156.978,367.984-156.957,364.433-155.088,360.629Z" transform="translate(-6.693 -11.595)" fill="#2d2d2d"/>
    <path id="パス_2539" data-name="パス 2539" d="M-141.645,313.8c2.39-1.039,4.574-3.3,7.484-1.266-2.183,1.739-4.791,2.108-7.45,2.312a.623.623,0,0,1-.283-.689C-141.814,313.919-141.731,313.8-141.645,313.8Z" transform="translate(-8.618 -5.071)" fill="#232122"/>
    <path id="パス_2540" data-name="パス 2540" d="M-142.674,314.122a2.626,2.626,0,0,0,.034,1.046c-1.644,1.564-3.928,1.129-5.836,1.865-.882-.2-1.372-.652-1.073-1.627Z" transform="translate(-7.589 -5.392)" fill="#030303"/>
    <path id="パス_2541" data-name="パス 2541" d="M-155.647,335.569l-1.324,1.652c-2.88-1.159-1.866-3.875-2.392-5.976.279-1.114.478-2.276,1.688-2.836C-156.238,330.58-156.222,333.154-155.647,335.569Z" transform="translate(-6.292 -7.298)" fill="#3c3d3d"/>
    <path id="パス_2542" data-name="パス 2542" d="M-150.246,315.6l1.073,1.627-4.486.471-1.207-1.082Z" transform="translate(-6.891 -5.59)" fill="#070507"/>
    <path id="パス_2543" data-name="パス 2543" d="M-157.787,327.9q-.478,1.217-.958,2.433c-1.523-.688-1.251-2.146-1.458-3.4q.085-.569.17-1.138.485-.6.971-1.2C-157.322,325.189-157.985,326.71-157.787,327.9Z" transform="translate(-6.18 -6.789)" fill="#090908"/>
    <path id="パス_2544" data-name="パス 2544" d="M-156.184,313.347l-1.153-.076a7.486,7.486,0,0,1,2.346-4.545l.825.906Z" transform="translate(-6.562 -4.672)" fill="#191715"/>
    <path id="パス_2545" data-name="パス 2545" d="M-160.368,327.291c1.574.666.848,2.319,1.458,3.4l1.661,6.379c.886,6.34-.993,12.894,1.482,19.111-.16,3.57.7,7,1.426,10.451.109,2.927,5.053,7.426-2.552,7.843-2.136-5.569-.843-11.374-1.155-17.068-.136-2.485.633-5.235-.183-7.427-2.754-7.387-3.249-14.988-3.217-22.712Q-160.907,327.285-160.368,327.291Z" transform="translate(-6.013 -7.145)" fill="#e9eced"/>
  </g>
</svg>
