<svg xmlns="http://www.w3.org/2000/svg" width="235.413" height="489.358" viewBox="0 0 235.413 489.358">
  <g id="contents2" transform="translate(-18.361 -2347.642)">
    <g id="トマト" transform="matrix(-0.996, -0.087, 0.087, -0.996, 156.352, 2637.168)" opacity="0.1">
      <path id="パス_173" data-name="パス 173" d="M112.276,23.367c-2.947-4.739-4.445-10.687-10.624-12.727C98.734,7.482,95.375,5.081,91,4.4c-11.668-5.478-23.865-5-36.141-3.093a52.6,52.6,0,0,1-9.4.828C39.244,2.131,33.349,3.762,27.5,5.628L27.033,5.4c-1.555,3.12-5.03,3.4-7.573,5.081C4.589,19.912-4.095,45.4,1.933,61.813q5.33,14.513,18.651.72a12.732,12.732,0,0,0,2.227-3.727c.529-3.19-1.048-5.282-3.623-6.881,2.637.643,5.256,1.862,8,.385,8.5-8,17.232-14.429,29.973-8.751,10.11,4.5,22.01,5.987,27.043,18.069a9.713,9.713,0,0,0,5.075,5.566,9.5,9.5,0,0,0,5.469.207,17,17,0,0,0,6.827-4.177c-2.524,5.615-6.849,8.644-11.041,11.812a10.619,10.619,0,0,0-2.725,5.007c-.656,4.909-1.1,9.793,1.906,14.2,2.336,1.794,2.825,3.979,1.344,6.585.662,5.082,4.238,7.771,8.263,10.1,2.544.291,4.337-1.154,6.106-2.653l-.181.169c3.43-1.81,7.615-2.522,9.529-6.533,2.133-3.017,3.911-6.2,4.312-9.845.612-1-1.158-.783.083-.526,1.112.23-.294,1.027.093,1.6a7.816,7.816,0,0,0,.542,2.35c1.19,1.711,1.9,4.134,4.817,3.165a.728.728,0,0,0,.2-1.09,28.427,28.427,0,0,0-.03-13.414l-.333-1.972c-2.973-3.688.956-7.681-.486-11.442-1.008-3.592-.708-7.274-.73-10.935,0-2.4.014-4.8-.2-7.188-.378-3.4-1.6-6.588-2.543-9.846-1.489-4.02-2.951-8.048-3.356-12.37A9.394,9.394,0,0,0,112.276,23.367Z" transform="translate(13.051 1.605)" fill="#f06943"/>
      <path id="パス_174" data-name="パス 174" d="M31.546,51.945c-1.439,1.7-2.663,3.656-4.357,5.04-5.066,4.14-8.814,4.144-11.275-3.1C10.15,36.91,18.293,13.255,33.614,3.7c.6-1.583-.379-2.356-1.545-3.039A18.058,18.058,0,0,0,26.982.023L26.454,0A29.551,29.551,0,0,1,14.662,7.8l-2.046,3.252c-1.943,3.4-4.894,6.142-6.426,9.81-1.822,3.327-2.382,7.25-4.825,10.291a1.68,1.68,0,0,0-.1,1.455A111.329,111.329,0,0,0,.074,54.362a6.3,6.3,0,0,0,.8,2.606c2.044,3.491,2.535,7.547,3.991,11.259,1.654,4.619,4.455,8.747,5.76,13.52,1.878,6.558,8.76,9.232,11.642,15.01l-.145-.1c3.951.239,6.491,3.456,9.96,4.719a69.069,69.069,0,0,0,11.487,5.882,8.639,8.639,0,0,0,3.843.821,5.739,5.739,0,0,0,3.675-1.186c-2.152-4.51,1.932-5.766,4.2-7.988,2.614-5.33,3.365-10.689.326-16.124-2.03-1.762-4.531-2.1-7.057-2.33C40.7,78.98,32.712,78.2,23.622,76.081c8.793,1.558,16.343,3.378,23.509-1.08,2.968-2.393,3.584-5.366,1.041-8.168C43.16,61.311,38.9,54.88,31.546,51.945Z" transform="translate(1.499 9.404)" fill="#f1a996"/>
      <path id="パス_175" data-name="パス 175" d="M56.818,19.471,49,9.993C44.419,5.522,38.216,8.548,33.109,6.534a27.188,27.188,0,0,0-2.792-.808A59.671,59.671,0,0,1,16.9.827C12.951-1.148,10.928.551,10.11,4.456c-.431,2.9-1.1,5.695-3.481,7.731C3.7,14.783,1.986,18.232.042,21.537a3.959,3.959,0,0,0,.534,2.627,10.467,10.467,0,0,0,4.935,2.828,23.136,23.136,0,0,0,7.437-.114c11.272-3.442,22.773-3.2,34.325-2.114a13.161,13.161,0,0,0,4.465.524l2.922-2.06C56.027,22.347,57.862,21.736,56.818,19.471Z" transform="translate(55.88 92.23)" fill="#f0a996"/>
      <path id="パス_176" data-name="パス 176" d="M8.308,5.306C23.841,4.634,39.455,1.563,54.78,6.9q.908-.469.614-.954c-.2-.326-.392-.489-.6-.489C36.871-3.961,18.376,1.223,0,3.332,2.27,6.091,5.782,3.628,8.308,5.306Z" transform="translate(50.078 0)" fill="#2d211e"/>
      <path id="パス_177" data-name="パス 177" d="M1.259,23.974c2.308,3.258-5.174,8.155,1.78,10.629Q4.17,26.624,5.3,18.656A18.533,18.533,0,0,0,5.383,8.032Q5.2,4.544,5.017,1.054C2.806-.865,1.488-.023.692,2.445c.96,4.81.384,9.683.534,14.524C1.53,19.3.444,21.641,1.259,23.974Z" transform="translate(134.468 49.184)" fill="#090201"/>
      <path id="パス_178" data-name="パス 178" d="M14.172,3.933,10.025,0C5.936.653,5.847,4.851,3.654,7.183,2.6,9.431-.508,10.557.071,13.7,6.318,12.678,12.541,11.617,14.172,3.933Z" transform="translate(123.5 96.325)" fill="#ed6d4a"/>
      <path id="パス_179" data-name="パス 179" d="M25.058,2.145l-6.584.1c-4.1-1.4-8.446-.423-12.6-1.279l-3.45-.6C.24-.635-.125.545.032,2.352L7.741,4.9c5.815,1.531,11.915-.762,17.688,1.329L29.069,6c1.316-.521,2.561-1.1,2.241-2.89C29.531.828,27.291,1.515,25.058,2.145Z" transform="translate(43.025 115.086)" fill="#2b221e"/>
      <path id="パス_180" data-name="パス 180" d="M2.681,23.117C1.246,15.406,4.664,7.713,2.765,0-1.639,8.809.387,18.037,1,27.174,4.11,26.877,3.7,25.122,2.681,23.117Z" transform="translate(0 42.01)" fill="#050405"/>
      <path id="パス_181" data-name="パス 181" d="M13.437,16.523c1.771-4.279-2.431-5.129-4.257-7.3-2.143-2.546-5.789-4.038-5.538-8.2A2.221,2.221,0,0,0,.8.182L0,.941C1.255,8.915,8.243,11.946,13.437,16.523Z" transform="translate(10.327 89.637)" fill="#191a19"/>
      <path id="パス_182" data-name="パス 182" d="M17.832,1.973C15.487-.475,12.253.821,9.522,0,6.165.851,1.26-2.059,0,3.905Q8.911,2.934,17.832,1.973Z" transform="translate(40.555 3.332)" fill="#2a1d18"/>
      <path id="パス_183" data-name="パス 183" d="M4.781,12.005c.371-2.509,2.2-1.748,3.726-1.658L6.452,8.158C4.733,5.58,6.745,1.014,2.1,0-.382.932-.408,2.6.705,4.616q.934,4.785,1.866,9.57C4.424,14.59,5.408,14.112,4.781,12.005Z" transform="translate(130.978 39.891)" fill="#fafdf6"/>
      <path id="パス_184" data-name="パス 184" d="M0,4.03c5.352,2.307,10.715,2.567,16.094.1C15.2,2.214,13.514,1.3,11.671.578A12.088,12.088,0,0,0,4.471.52,7.247,7.247,0,0,0,0,4.03Z" transform="translate(77.533 117.579)" fill="#282828"/>
      <path id="パス_185" data-name="パス 185" d="M1.681,0,0,4.057c.323,3.726.8,7.406,3.007,10.6a3.671,3.671,0,0,0,2.783-2.4,3.773,3.773,0,0,0-.177-2.483C3.171,7.08,5.88,2.91,2.921.365A6.374,6.374,0,0,1,1.681,0Z" transform="translate(1 65.126)" fill="#343434"/>
      <path id="パス_186" data-name="パス 186" d="M0,10.265C4.607,8.4,6.39,4.619,6.927,0,2.657,2.15-.614,4.955.12,10.385Z" transform="translate(7.188 20.453)" fill="#3d3636"/>
      <path id="パス_187" data-name="パス 187" d="M10.348,7.454l2.388-1.987Q6.694,2.733.653,0A1.368,1.368,0,0,0,.04,1.432c.136.514.288.772.453.772C3.132,5.168,6.644,6.488,10.348,7.454Z" transform="translate(32.709 109.984)" fill="#342221"/>
      <path id="パス_188" data-name="パス 188" d="M0,3.752c.851,2.3,2.847,1.711,4.571,1.81,2.45-1.248,6.9.766,7.014-4.293C6.876-1.858,3.558,1.5,0,3.752Z" transform="translate(28.482 5.675)" fill="#3f2d28"/>
      <path id="パス_189" data-name="パス 189" d="M0,7.8C5.088,6.95,10.757,6.982,11.789,0,7.445,1.969,3.094,3.933,0,7.8Z" transform="translate(16.161 9.403)" fill="#1b130e"/>
      <path id="パス_190" data-name="パス 190" d="M4.326,0l.12.12C.009,2,.019,5.922,0,9.833,5.024,8.132,4.961,4.192,4.326,0Z" transform="translate(2.862 30.717)" fill="#3a3b3b"/>
      <path id="パス_191" data-name="パス 191" d="M.985,5.883c2.34,1.976.977,5.967,4.092,7.522C6.528,8.667,4.939,4.383,3.1.136,1.372-.388.658.683.11,2.024A4.511,4.511,0,0,0,.985,5.883Z" transform="translate(132.353 34.645)" fill="#1b1b1b"/>
      <path id="パス_192" data-name="パス 192" d="M17.688,1.726C11.97-1.089,5.931.383,0,.4,5.715,3.253,11.769,1.585,17.688,1.726Z" transform="translate(50.766 119.591)" fill="#ede7e5"/>
      <path id="パス_193" data-name="パス 193" d="M11.01,2.593,8.35.7C4.846-.914,2.227.4.056,3.206c-.33,1.772.85,2.414,2.2,2.934C5.392,5.505,8.7,5.289,11.01,2.593Z" transform="translate(96.608 114.924)" fill="#3e3f3f"/>
      <path id="パス_194" data-name="パス 194" d="M9.583,7.192q.08-1.1.159-2.2C6.817,2.879,5.088-2.2,0,1.065,2.825,3.684,5.7,6.218,9.583,7.192Z" transform="translate(23.62 104.995)" fill="#3c312f"/>
      <path id="パス_195" data-name="パス 195" d="M0,.719Q1.323,4.032,2.648,7.345A1.885,1.885,0,0,0,4.512,8.9C6.215,7.951,7.495,6.8,6.49,4.6,5.129,1.962,4.277-1.525,0,.719Z" transform="translate(125.327 24.252)" fill="#39383b"/>
      <path id="パス_196" data-name="パス 196" d="M5.275,7.788,9.762,2.005C10.861-.035,9.7-.149,8.129.09L0,7.809Z" transform="translate(118.297 102.24)" fill="#110804"/>
      <path id="パス_197" data-name="パス 197" d="M2.157,1.822Q1.08,3.7,0,5.579c4.022.1,7.673-.332,7.939-5.579Z" transform="translate(110.54 109.88)" fill="#372622"/>
      <path id="パス_198" data-name="パス 198" d="M.019,0A2.617,2.617,0,0,1,0,1.444L9.845,6.787C8.843,1.235,4.822.052.019,0Z" transform="translate(104.858 5.456)" fill="#1c0c0b"/>
      <path id="パス_199" data-name="パス 199" d="M.176,2.436C.928,4.742.958,7.57,4.241,8.045l-.219.08C6.7,4.87,4.8,2.426,2.589.037.835-.121-.493.152.176,2.436Z" transform="translate(6.088 82.532)" fill="#020102"/>
      <path id="パス_200" data-name="パス 200" d="M7.014,0C5.612,2.963,1.929,2.2,0,4.293L2.063,6.164C4.6,4.846,8.656,4.772,7.031.062Z" transform="translate(33.053 6.943)" fill="#ec9982"/>
      <path id="パス_201" data-name="パス 201" d="M0,0Q.015,6.7.03,13.409A13.946,13.946,0,0,0,0,0Z" transform="translate(137.841 85.754)" fill="#ed6d4a"/>
      <path id="パス_202" data-name="パス 202" d="M2.04,0,0,3.217C.2,5.541.542,7.763,3.517,8.078L5.673,5.93C5.117,3.552,4.256,1.361,2.04,0Z" transform="translate(129.776 28.851)" fill="#6a6867"/>
      <path id="パス_203" data-name="パス 203" d="M.67,0A22.809,22.809,0,0,0,.586,10.624,12.479,12.479,0,0,0,.67,0Z" transform="translate(139.181 57.216)" fill="#2a2a29"/>
      <path id="パス_204" data-name="パス 204" d="M9.435,3.152l-2.334-2C4.509-.443,2.092-.579,0,2Q2.1,2.9,4.2,3.793Z" transform="translate(89.425 117.912)" fill="#080808"/>
      <path id="パス_205" data-name="パス 205" d="M5.438,3.69,9.483,1.977C7.337-.567,4.932-.492,2.36,1.272Q1.179,2.221,0,3.171Z" transform="translate(72.094 117.919)" fill="#050505"/>
      <path id="パス_206" data-name="パス 206" d="M2.257,8,3.85,6c1.787-2.751-.416-4.261-1.868-6L0,2.81C.093,4.826.436,6.731,2.257,8Z" transform="translate(4.007 76.972)" fill="#2b2d2d"/>
      <path id="パス_207" data-name="パス 207" d="M64.35,27.088C58.764,13.177,47.513,6.835,33.788,2.7,17.125-2.328,11.416-1.106,0,13.025a4.4,4.4,0,0,0,1.924,1.787c10.393.669,18.318,4.529,20.441,15.867,1.606,3.222,2.676,6.681,4.376,9.865,2.44,3.2,5.7,2.669,9,1.994A10.235,10.235,0,0,0,40.58,40.05C45.432,34.662,52.711,32.6,57.863,27.5c1.281-1.27-.494,2.49,1.549,2.256C61.762,30.16,64.2,30.731,64.35,27.088Z" transform="translate(38.486 40.581)" fill="#f2a996"/>
      <path id="パス_208" data-name="パス 208" d="M26.621,17.512C22.918,12.9,24.494,7.248,23.6,2.083,22.836.195,21.541-.464,19.6.331A20.812,20.812,0,0,1,10.681,4.7C6.837,6.179,2.018,5.913,0,10.659c-.074,5.745,4.69,5.886,8.389,7.283a78.793,78.793,0,0,1,9.221,1.887C20.9,20.191,24.224,20.617,26.621,17.512Z" transform="translate(78.761 78.521)" fill="#d6d7c2"/>
      <path id="パス_209" data-name="パス 209" d="M0,2.329c3.035,5.643,8.476,9.054,12.655,13.635,2.008,2.2,5.234,3.865,3.3,7.739A4.254,4.254,0,0,0,18.36,25.09c7.193-1.306,3.624-6.183,3.33-9.985a10.038,10.038,0,0,0-1.959-3.523c-.847-.985-1.777-1.9-2.715-2.808a13.5,13.5,0,0,0-3.1-2.253C9.477,5.262,7.461-.444,2.074.028Q1.037,1.179,0,2.329Z" transform="translate(33.046 59.02)" fill="#dbdbd8"/>
      <path id="パス_210" data-name="パス 210" d="M4.133,7.208c4.312,1.942,5.685,8.31,11.662,7.744,2.265-2.548.64-5.21.248-7.844-.737-4.316-4.616-3.656-7.432-4.69a2.16,2.16,0,0,1-1.1-.649C5.054,1.536,3.048-1,.144.442-.818,4.009,3.326,4.67,4.133,7.208Z" transform="translate(30.986 51.84)" fill="#1f1916"/>
      <path id="パス_211" data-name="パス 211" d="M18.574.093c-3.39,1.035-7.049-1.281-10.351.833C4.674.326,1.539.659,0,4.582c5.754,3.443,12.025,1.378,18.075,1.7,1.654-1.619,5.475-.851,5.528-3.731C23.66-.418,20.079,1.4,18.574.093Z" transform="translate(86.808 95.94)" fill="#11110d"/>
      <path id="パス_212" data-name="パス 212" d="M1.448,17.575C8.275,14.177,13.3,9.477,13.559,0,10.26,2.553,7.639,4.581,5.02,6.611,4.261,7.731,2.889,8.113,2.014,9.1A9.028,9.028,0,0,0,.033,15.363,3.853,3.853,0,0,0,1.448,17.575Z" transform="translate(103.486 60.609)" fill="#120d0a"/>
      <path id="パス_213" data-name="パス 213" d="M2.21,0,0,2.181q.13,3.8.259,7.6c2.386,1.122-1.128,5.8,3.394,5.636C3.681,10.23,5.79,4.848,2.21,0Z" transform="translate(133.549 51.897)" fill="#e7d8d4"/>
      <path id="パス_214" data-name="パス 214" d="M5.369,5.331Q3.611,2.9,1.851.47A3.6,3.6,0,0,0,.05,0C-.313,4.762,1.335,8.947,3.76,12.91q.825-1.989,1.654-3.98Z" transform="translate(127.925 31.598)" fill="#efe1de"/>
      <path id="パス_215" data-name="パス 215" d="M11.985,2.467c.953-.555,1.978-1.061,1.69-2.467Q10.84.224,8.006.448l-5.467,2.4C.325,3.186-.628,4.25.436,6.485a5.284,5.284,0,0,0,3.854.692A12.847,12.847,0,0,0,11.985,2.467Z" transform="translate(94.831 67.22)" fill="#6cc189"/>
      <path id="パス_216" data-name="パス 216" d="M0,10.37l1.633,1.916Q4.366,8.326,7.1,4.366q-.043-.979-.085-1.959C6.429,1.549,6.315.311,5.058,0Q2.527,5.184,0,10.37Z" transform="translate(126.426 91.96)" fill="#351711"/>
      <path id="パス_217" data-name="パス 217" d="M8.34,4.469,8.179,1.446A4.174,4.174,0,0,0,3.016.486,5.2,5.2,0,0,0,0,3.293c.112,1.6.634,2.7,2.553,2.059q1.609.767,3.213,1.536Q7.049,5.679,8.34,4.469Z" transform="translate(96.593 73.715)" fill="#2c2b22"/>
      <path id="パス_218" data-name="パス 218" d="M3.591,5.635Q1.892,2.819.2,0c.175,3.905-1.321,8.09,1.92,11.482C2.884,9.6,4.4,7.915,3.591,5.635Z" transform="translate(133.612 61.676)" fill="#dea495"/>
      <path id="パス_219" data-name="パス 219" d="M0,4.816q.977,1.2,1.956,2.406c.207-2.444,3.828-5.537.514-7.03C.025-.909.54,3,0,4.816Z" transform="translate(131.483 87.144)" fill="#26120b"/>
      <path id="パス_220" data-name="パス 220" d="M38.542,9.682c-2.208-1.882-7-.643-6.7-5.552A5.257,5.257,0,0,0,29.7,2.314c-3.617-1-7.361-1.39-11.015-2.231A14.061,14.061,0,0,0,15.908.056,15.218,15.218,0,0,0,13.22.612C10.258,1.642,7.3,2.712,4.234,3.452,2.423,4.425-.715,4.141.147,7.685l8.263.759c1.93,2.422,4.025,4.651,6.95,5.909a3.156,3.156,0,0,0,3.607-.863c1.338-1.048-1.749-6.555,3.61-3.563,4.412,2.463,8.64,5.414,13.987,5.508C38.063,13.806,39.962,12.316,38.542,9.682Z" transform="translate(48.929 84.736)" fill="#121f17"/>
      <path id="パス_221" data-name="パス 221" d="M33.355,9.7c1.357-2.495,4.021-1.483,6.023-2.244-.458-2.877-2.493-2.86-4.675-2.518-.214.033-.387.323-.578.492-.127-.82.223-1.141,1.086-.983a3.149,3.149,0,0,0,.857-1.929,2.832,2.832,0,0,0-.99-1.945q-.9-.291-1.8-.572C23.237,4.507,12.839-1.237,0,.375,11.5,9.039,22.983,7.393,33.355,9.7Z" transform="translate(15.721 82.723)" fill="#283c2c"/>
      <path id="パス_222" data-name="パス 222" d="M10.776,5.143C9,2.794,8.081-.707,3.975.125Q2.615,8.481,1.242,16.833c-1.768,1.591-1.3,3.477-.711,5.379a1.638,1.638,0,0,0,2.46.521l.723-2.559c2.9-1.344,2.071-4.438,3.126-6.642.607-2.682.941-5.493,3.4-7.322C10.428,5.859,10.6,5.5,10.776,5.143Z" transform="translate(53.357 93.055)" fill="#76dc9a"/>
      <path id="パス_223" data-name="パス 223" d="M0,0,1.868,6C3.015,8.449,5,10.648,4.121,13.685l3.86.01C7.311,8.628,4.451,4.52,2.078.2L.843.239.361.332Z" transform="translate(5.989 76.972)" fill="#ede0db"/>
      <path id="パス_224" data-name="パス 224" d="M2.912,11.718q.619-.035,1.237-.039C3.161,7.645,3.514,3.138,0,0,.605,4-.055,8.307,2.912,11.718Z" transform="translate(3.92 65.493)" fill="#e7d3cf"/>
      <path id="パス_225" data-name="パス 225" d="M4.417,6.906,4.56.712C3.167.327,1.837-.9.542,1.18c-1.832,2.944,1.516,3.639,2.1,5.5A1.365,1.365,0,0,0,4.417,6.906Z" transform="translate(50.04 109.177)" fill="#f0a996"/>
      <path id="パス_226" data-name="パス 226" d="M5.562.323l-.917.13L3.789.1,0,.292c3.941,2.963,8.374,1.1,12.6,1.279C11.252-.16,9.344-.031,7.456.03Z" transform="translate(48.895 115.759)" fill="#342221"/>
      <path id="パス_227" data-name="パス 227" d="M6.368,5.765l7.122.705,7.848.019q3.551-.424,7.1-.846L36.871,2.2C24.421-.958,12.108-.965,0,3.807Z" transform="translate(68.086 113.425)" fill="#ede7e5"/>
      <path id="パス_228" data-name="パス 228" d="M1.978.117,0,5.869a.955.955,0,0,0,1.315.35L9.539,2.564C7.718-.413,4.822-.069,1.978.117Z" transform="translate(85.493 94.302)" fill="#232c21"/>
      <path id="パス_229" data-name="パス 229" d="M1.756,2.991Q.877,6.562,0,10.131C6.529,11.424,2.438,2.92,7.073,2.466A1.276,1.276,0,0,0,7.5,1.006c-.2-.447-.4-.67-.579-.673C4.245-.628,2.682.563,1.756,2.991Z" transform="translate(57.072 103.098)" fill="#0c0b09"/>
      <path id="パス_230" data-name="パス 230" d="M1.093,6.432a3,3,0,0,0,.048,1.054C4.147,5.938,4.955,3.267,4.892.151L1.129.12,1.052,0A5.36,5.36,0,0,0,1.093,6.432Z" transform="translate(63.004 98.077)" fill="#392b25"/>
      <path id="パス_231" data-name="パス 231" d="M.178,5.3c-.6,5.324.135,8.081,4.813,7.39,4.357-.644,9.238-2.469,9.247-6.84C14.25-.064,7.848.592,3.922.068-1.156-.613.38,4.048.178,5.3Z" transform="translate(74.119 54.298)" fill="#fbf3f0"/>
      <path id="パス_232" data-name="パス 232" d="M0,0C1.452,2.127,5.588,1.493,5.43,5.277,9.884,9.2,15.13,12.351,17.82,18c1.481,1.613,2.463,4.276,5.5,2.677a4.427,4.427,0,0,0-.54-4.067C19.352,1.851,16.777-.027,0,0Z" transform="translate(39.596 54.258)" fill="#74c08b"/>
      <path id="パス_233" data-name="パス 233" d="M23.307,3.968l1.982-1.989q.691-.578.446-1.138T25.257.286L21.112.112C14.379-.762,9.486,3.679,3.885,6.071,3.212,7.8,1.509,7.548.17,8-.4,9.549.539,10.345,1.7,11.036a15.883,15.883,0,0,0,3.691,1.087,8.3,8.3,0,0,0,5.023-.284c2.865-1.894,6.123-2.925,9.287-4.173A6.738,6.738,0,0,0,23.307,3.968Z" transform="translate(73.808 73.146)" fill="#1b3323"/>
      <path id="パス_234" data-name="パス 234" d="M0,13.013a61.255,61.255,0,0,0,17.228-5.96q1.223-1.6,2.448-3.19c-.549-1.215,1.39-5.214-1.441-3.4C12.057,4.433,4.593,6.728,0,13.013Z" transform="translate(77.693 66.204)" fill="#d6edd8"/>
      <path id="パス_235" data-name="パス 235" d="M13.2,2.709Q12.081,1.675,10.959.644C8.5-1.1,5.979,3.417,3.526.577A1.7,1.7,0,0,0,.962.589a4.115,4.115,0,0,0,.123,5.427l2.225.146C6.093,3.541,11.675,8.934,13.2,2.709Z" transform="translate(63.019 80.497)" fill="#27402f"/>
      <path id="パス_236" data-name="パス 236" d="M2.6,10.108l2.3.09A13.538,13.538,0,0,0,.725,0L.449,4.219C-.662,6.31.5,7.888,1.629,9.478,1.949,9.693,2.273,9.9,2.6,10.108Z" transform="translate(61.649 70.876)" fill="#e1d9d4"/>
      <path id="パス_237" data-name="パス 237" d="M7.779,2.421Q5.173,1.8,2.563,1.181C.732,2.488-.98,3.84.661,6.411l3.327.543c2.738-3.3,8.169-.067,10.509-4.332a1.649,1.649,0,0,0-.02-2.2C11.7-.747,9.7.7,7.779,2.421Z" transform="translate(76.779 81.914)" fill="#283d2e"/>
      <path id="パス_238" data-name="パス 238" d="M.7,6.025c-.012.466-.041.931-.084,1.4,3.823-.1,7.807.042,7.87-5.467L6.455,0,1.994,2.2C.922,3.259-1.06,4.011.7,6.025Z" transform="translate(90.659 77.114)" fill="#2a3427"/>
      <path id="パス_239" data-name="パス 239" d="M13.586,11.705C10.906,5.659,7.922-.036,0,0Q.877,3.627,1.756,7.256C3.268,7.6,4.395,8.3,4.338,10.075a2.156,2.156,0,0,0,1.186,1.216l2.66,2.5a2.705,2.705,0,0,0,2.081.857A3.967,3.967,0,0,0,13.586,11.705Z" transform="translate(45.026 59.536)" fill="#203e29"/>
      <path id="パス_240" data-name="パス 240" d="M3.481.333A2.373,2.373,0,0,1,2.449,0c-.337,1.8-.807,3.618.421,5.269,2.906,3.9.209,4.4-2.832,4.7A13.706,13.706,0,0,1,0,11.6c3.607,2.357,7.1,2.819,10.363-.615C12.242,4.746,8.9,1.868,3.481.333Z" transform="translate(50.761 73.328)" fill="#0d1211"/>
      <path id="パス_241" data-name="パス 241" d="M1.37,1.216A2.606,2.606,0,0,0,.186,0C-.291,1.254.165,1.6,1.37,1.216Z" transform="translate(49.18 69.611)" fill="#030101"/>
      <path id="パス_242" data-name="パス 242" d="M0,3.744q-.009.847.032,1.694,2.839.015,5.677.035Q6.729,2.737,7.751,0C5.055,1.014,1.793.857,0,3.744Z" transform="translate(99.063 69.687)" fill="#182c1e"/>
      <path id="パス_243" data-name="パス 243" d="M11.112,5.231q.953-2.615,1.9-5.231Q11.452.054,9.891.112C7.412,3.6,2.42-.1,0,3.566,3.665,4.387,7.163,6.317,11.112,5.231Z" transform="translate(66.328 83.093)" fill="#477f5c"/>
      <path id="パス_244" data-name="パス 244" d="M5.449.839C3.656,1.247,1.864,1.654,0,2.077L9.866,4.54c1.571-2.624,5.693-.058,6.913-3.4C13.046-.577,9.252-.08,5.449.839Z" transform="translate(45.233 85.637)" fill="#7ee29f"/>
      <path id="パス_245" data-name="パス 245" d="M0,5.911l11.33.3q1.047-.132,2.094-.266.069-2.767.142-5.528l-.059,0C11.672-.986,10.8,1.583,9.268,1.445,7.526,6.575,3.073,3.171.08,4.364A6.213,6.213,0,0,1,0,5.911Z" transform="translate(50.682 80.566)" fill="#396247"/>
      <path id="パス_246" data-name="パス 246" d="M5.681,6.432Q5.661,3.217,5.64,0C.784.64-.857,3.378.412,8.012,2.016,6.978,3.573,5.785,5.681,6.432Z" transform="translate(58.416 98.077)" fill="#304035"/>
      <path id="パス_247" data-name="パス 247" d="M5.706,10.77,9.945,9.749Q8.9,6.8,7.855,3.857L4.368,0Q2.186,1.205,0,2.417C1.671,5.36,5.221,7.017,5.706,10.77Z" transform="translate(54.244 71.241)" fill="#213529"/>
      <path id="パス_248" data-name="パス 248" d="M6.8,3.823Q7.451,1.911,8.1,0C5.346,1.59.316-.5,0,5.019Z" transform="translate(84.557 79.316)" fill="#62b480"/>
    </g>
    <g id="ネギ" transform="translate(-458.805 2038.556)" opacity="0.1">
      <path id="パス_444" data-name="パス 444" d="M617.854,651.157c-.681,4.872-4.564,5.952-8.4,7.094-2.437,1.314-4.819,2.818-7.8,2.192-5.882-6.534-5.094-15.27-7.58-22.927-1.128-4.246-.209-8.726-1.488-12.953a30.849,30.849,0,0,0-2.849-8.258c-.043-4.094.862-7.814,4.187-10.575,3.291-1.811,6.9-.888,10.361-1.182,5.489,1.343,7.324,5.969,8.963,10.474a75.95,75.95,0,0,1,4.786,24.134C617.319,643.145,617.673,647.153,617.854,651.157Z" transform="translate(13.086 0.324)" fill="#449c31"/>
      <path id="パス_445" data-name="パス 445" d="M652.893,721.986,654.6,725.4c1,1.651,2.474,3.054,2.7,5.118-1.782,6.177-7.849,3.818-11.708,5.879-2.981-.232-3.829-2.582-4.787-4.823l-7.109-4.607c-3.621-5.909-9.738-9.6-13.605-15.284l-3.235-3.576a10.265,10.265,0,0,1-3.785-7.969l-3.3-5.437c-1.531-2.049-3.147-4.058-3.148-6.811,3.178-5.706,9.755-4.168,14.409-6.75a6.451,6.451,0,0,1,4.372,3.7c.146,2.15-.049,4.435,2.128,5.861,1.336,3,3.9,5.23,5.222,8.245,1.923,2.644,4.706,4.553,6.35,7.435l-.166-.184c1.947,3.271,5.06,5.607,7.077,8.823l-.165-.183A22.44,22.44,0,0,0,652.893,721.986Z" transform="translate(18.085 23.004)" fill="#fafafa"/>
      <path id="パス_446" data-name="パス 446" d="M586.791,654.753l-.288-.363.219-.407a51.4,51.4,0,0,0-14-14.338l-3.239-2.013a17.676,17.676,0,0,0-6.768-5.944,52.823,52.823,0,0,0-4.631-3.293,4.16,4.16,0,0,1-1.926-5.007,3.793,3.793,0,0,1,1.489-1.763,13.946,13.946,0,0,1,11.45.953,12.783,12.783,0,0,1,2,1.334c8,7.625,15.618,15.639,24.266,24.083a40.7,40.7,0,0,0-1.172-5.909,26.807,26.807,0,0,0-1.869-5.2,10.562,10.562,0,0,1-1.436-4.154c.042-2.687-.766-5.222-1.4-7.8-.595-2.92-1.68-5.892.919-8.464,3.344-2.127,7.07-1.694,10.744-1.623,3.409,2.189,1.243,6.075,2.7,8.859.117,4.59-.293,9.244,1.68,13.6.811,8.665,4.74,16.533,6.4,24.99-1.59,3.73-5.339,3.678-8.412,4.832-2.973.419-5.963.876-8.147-1.966l-1.784-2.569A29.319,29.319,0,0,0,586.791,654.753Z" transform="translate(3.082 3.348)" fill="#a1d362"/>
      <path id="パス_447" data-name="パス 447" d="M633.831,720.05l4.9,3.821c2.137.556,3.037,2.282,3.881,4.063.989,2.544,3.056,4.093,5.194,5.579a7.894,7.894,0,0,1,2.489,3.76c.954,3.331,3.783,4.866,6.357,6.634a20.428,20.428,0,0,1,4.675,5.107c1.5,2.631,4.328,4.527,4.443,7.932a2.284,2.284,0,0,1-1.353,1.724c-9.63-3.013-18-8.3-25.55-14.807C628.257,734.71,628.367,734.581,633.831,720.05Z" transform="translate(25.06 34.527)" fill="#f3e4ce"/>
      <path id="パス_448" data-name="パス 448" d="M556.744,626.661c-4.372-2.46-11.625-4.258-11.175-9.092.549-5.892,8-7.227,13.382-9.077,2.638-.906,5.507-2.6,7.5,1.033,5.864,10.671,15.893,18.059,22.273,28.318a1.943,1.943,0,0,1-1.951,1.06c-5.463-3.516-8.876-9.352-14.432-12.764l.187.158c-3.646-3.686-7.775-4.045-12.285-1.781l.144-.122C559.409,625.528,558.8,627.255,556.744,626.661Z" transform="translate(0 1.138)" fill="#a4d665"/>
      <path id="パス_449" data-name="パス 449" d="M626.565,693.092c-1.888-.225-2.812-1.586-3.628-3.078-1.729-2.006-3.967-3.648-4.643-6.42a17.1,17.1,0,0,0-4.367-6.635,28.572,28.572,0,0,1-2.674-3.6c-1.733-2.851-4.341-4.938-6.53-7.4-1.665-2.194-3.245-4.428-3.165-7.37a2.5,2.5,0,0,1,1.4-1.765c2.306-1.365,4.065-2.2,6.7.36,9.269,9,14.185,20.668,20.448,31.539,1.678,2.914-1.789,3.109-1.973,4.914C627.406,694.043,626.873,693.894,626.565,693.092Z" transform="translate(16.585 15.42)" fill="#e0f1de"/>
      <path id="パス_450" data-name="パス 450" d="M651.606,721.9c13.456,2.233,27.2,16.48,28.013,29.028.272,3.453-1.6,2.988-3.738,2.063-1.26-3.5-4.292-4.9-7.416-6.193-4.354-5.1-9.376-9.661-12.721-15.587C654.7,727.96,650.6,726.058,651.606,721.9Z" transform="translate(31.359 35.074)" fill="#f0e2cc"/>
      <path id="パス_451" data-name="パス 451" d="M673.792,745.34c1.515,1.882,2.7,1.2,3.764-.481,2.312,3.522,2.154,6.968-.68,10.051-2.943,3.2-6.573,2.679-10.2,1.356-2.38-.868-4.731-1.813-7.1-2.725a5.848,5.848,0,0,1-.626-6c1.73-2.7,6.8.867,7.424-3.966C669.357,742.054,672.119,741.431,673.792,745.34Z" transform="translate(33.42 41.144)" fill="#f0e3cd"/>
      <path id="パス_452" data-name="パス 452" d="M597.011,606.312c-1.072,3.388-1.3,7.075-3.567,10.041a3.145,3.145,0,0,1-1.935,1.428,9.005,9.005,0,0,1-2.49-.074c-3.143-.836-6.692-.2-9.431-2.546-.993-6.2,1.157-9.661,7.919-9.652a79.852,79.852,0,0,0,9.205-1.01q.8.488.669,1.13C597.286,606.084,597.162,606.312,597.011,606.312Z" transform="translate(10.012 0.31)" fill="#a5d666"/>
      <path id="パス_453" data-name="パス 453" d="M594.2,666.982l.206-.052c-1.458-3.334-4.308-5.7-6.1-8.806.32-5.389,5.091-2.33,7.416-3.913,3.673-.437,7.328-.826,9.092,3.568,2.616,5.8-2.579,9.9-3.3,14.986a2.942,2.942,0,0,1-2.2.52A37.655,37.655,0,0,1,594.2,666.982Z" transform="translate(12.66 14.956)" fill="#f4f6f4"/>
      <path id="パス_454" data-name="パス 454" d="M603.369,660.957c-1.588-4.026-4.789-4.82-8.641-4.315-.746-.513-1.829-.623-2.08-1.732,2.008-2.36,6.054.042,7.654-3.274.471-.931.722-2.078,2.091-2.124,1.065.437,1.886,1.006,1.243,2.349L605.6,658.6q-.021,1.355-.04,2.713A3.2,3.2,0,0,1,603.369,660.957Z" transform="translate(13.947 13.639)" fill="#20231b"/>
      <path id="パス_455" data-name="パス 455" d="M653.918,723.857c1.8,3.074,5.051,5.2,5.877,8.919-7.883-.647-11.083-6.627-14.314-12.571q-.92-2.459-1.838-4.919C648.464,716.468,649.652,722.006,653.918,723.857Z" transform="translate(29.048 33.116)" fill="#181718"/>
      <path id="パス_456" data-name="パス 456" d="M617.014,704.7c5.562,4.18,11.786,7.773,13.605,15.284C625.325,715.569,619.335,711.768,617.014,704.7Z" transform="translate(21.162 29.982)" fill="#1a1a1a"/>
      <path id="パス_457" data-name="パス 457" d="M568.888,633.96c6.764,2.73,11.7,7.241,14,14.336C577.366,644.356,572.421,639.847,568.888,633.96Z" transform="translate(6.911 9.034)" fill="#1d2515"/>
      <path id="パス_458" data-name="パス 458" d="M595.22,653.686l2.08,1.732c-1.993,1.645-6.509-1.552-6.724,3.5a1.251,1.251,0,0,1-.172,2.144c-.141-2.912-11.867-.6-3.344-7.416C589.775,654.931,592.5,653.617,595.22,653.686Z" transform="translate(11.374 14.864)" fill="#0c0b0c"/>
      <path id="パス_459" data-name="パス 459" d="M583.234,616.713q.632,4.429,1.266,8.859a7.094,7.094,0,0,1-1.6,2.307,3.968,3.968,0,0,1-1.865.268A2.333,2.333,0,0,1,579.7,626.9q.01-5.1.019-10.193a2.673,2.673,0,0,1,1.753-.892c.332.075.662.153,1,.229Z" transform="translate(10.112 3.66)" fill="#2d3b1a"/>
      <path id="パス_460" data-name="パス 460" d="M593.046,606.622q-.148-.908-.3-1.813a10.93,10.93,0,0,1,10.648.062C600.386,608.047,596.5,606.05,593.046,606.622Z" transform="translate(13.977 0)" fill="#339722"/>
      <path id="パス_461" data-name="パス 461" d="M601.75,652.921l-1.719-2.241c-1.224-.809-1.252-1.853-.6-3.033,2-2.451,4.762-1.511,7.282-1.653Q604.232,649.459,601.75,652.921Z" transform="translate(15.831 12.578)" fill="#a9d771"/>
      <path id="パス_462" data-name="パス 462" d="M628.369,697.177c-3.795-1.462-4.818-5.2-6.742-8.2a1.516,1.516,0,0,1,2.441-.28c2.745,2.17,4.435,5.113,5.988,8.158C629.642,697.735,629.073,697.8,628.369,697.177Z" transform="translate(22.528 25.096)" fill="#3e3e3e"/>
      <path id="パス_463" data-name="パス 463" d="M603.1,682.775c-2.852-2.218-5.013-4.787-4.435-8.744a3,3,0,0,1,2.3-.595c3.354,2.284,5.247,5.238,4.329,9.473A1.707,1.707,0,0,1,603.1,682.775Z" transform="translate(15.701 20.714)" fill="#000400"/>
      <path id="パス_464" data-name="パス 464" d="M611.832,643.25c-2.259-4.036-2.487-8.041.183-12C613.315,635.27,613.787,639.279,611.832,643.25Z" transform="translate(19.108 8.23)" fill="#369522"/>
      <path id="パス_465" data-name="パス 465" d="M608.207,686.941l2.185,6.834c-4.459-.489-4.216-4.405-5.34-7.326a1.445,1.445,0,0,1-.494-1.4q.181-.731.388-.731C607,683.986,608,684.969,608.207,686.941Z" transform="translate(17.463 23.928)" fill="#010001"/>
      <path id="パス_466" data-name="パス 466" d="M579.746,645.616c5.118.141,6.142,3.823,6.78,7.841C582.9,652.021,581.055,649.052,579.746,645.616Z" transform="translate(10.127 12.485)" fill="#2b2e27"/>
      <path id="パス_467" data-name="パス 467" d="M561.241,626.648c2.4,2.382,7.519,2.268,6.846,7.464a11.743,11.743,0,0,1-6.9-5.429,1.215,1.215,0,0,1-.465-1.37Q560.987,626.648,561.241,626.648Z" transform="translate(4.471 6.868)" fill="#282c25"/>
      <path id="パス_468" data-name="パス 468" d="M638.631,709.3c-4.072-1.566-6.29-4.621-7.077-8.823A10.612,10.612,0,0,1,638.631,709.3Z" transform="translate(25.468 28.73)" fill="#202020"/>
      <path id="パス_469" data-name="パス 469" d="M581.508,617.814l-1.745-.1q-.113-2.45-.227-4.9c3.553.45,7.521-2.023,10.639,1.509C588.029,617.34,583.655,614.807,581.508,617.814Z" transform="translate(10.065 2.648)" fill="#070b02"/>
      <path id="パス_470" data-name="パス 470" d="M643.931,714.287c-5.233.46-5.908-3.571-7.044-7.147C640.545,708.231,642.37,711.129,643.931,714.287Z" transform="translate(27.047 30.704)" fill="#1f1f1f"/>
      <path id="パス_471" data-name="パス 471" d="M626.829,695.2l1.686-.324c2.437,1.922,4.446,4.107,4.6,7.438A9.016,9.016,0,0,1,626.829,695.2Z" transform="translate(24.069 27.072)" fill="#222"/>
      <path id="パス_472" data-name="パス 472" d="M554.2,622.755l3.646-2.267,1.536,5.619q.183,1.532-1.34,1.283C555.475,626.91,553.8,625.693,554.2,622.755Z" transform="translate(2.544 5.044)" fill="#1b2215"/>
      <path id="パス_473" data-name="パス 473" d="M580.124,624.364a3.281,3.281,0,0,1,1.278.579c3.012,3.617,3.288,7.148-.329,10.557-1.714.253-3-.035-2.8-2.214a1.248,1.248,0,0,0,.766-.5C580.917,630.176,579.4,627.126,580.124,624.364Z" transform="translate(9.685 6.192)" fill="#d0e6b1"/>
      <path id="パス_474" data-name="パス 474" d="M600.545,675.731l-.464.244-.332-.406c-3.334-.942-3.34-4.321-4.84-6.608a1.643,1.643,0,0,1,2.556-.258l.563-.263C600.5,670.306,603.785,671.892,600.545,675.731Z" transform="translate(14.617 19.176)" fill="#393939"/>
      <path id="パス_475" data-name="パス 475" d="M588.931,659.86l.172-2.144c3.862,1.336,4.829,4.5,5.114,8.1C592.5,663.792,589.44,662.958,588.931,659.86Z" transform="translate(12.847 16.068)" fill="#3b3b3b"/>
      <path id="パス_476" data-name="パス 476" d="M598.074,669.948l-2.556.258a8.988,8.988,0,0,1-2.667-6.2C595.894,664.843,597.4,667.034,598.074,669.948Z" transform="translate(14.007 17.931)" fill="#3a3a3b"/>
      <path id="パス_477" data-name="パス 477" d="M611.945,695.8c2.465,2.084,4.212,4.509,3.783,7.969l-1.92-.121c-1.313-1.747-2.787-3.4-3.378-5.582Z" transform="translate(19.213 27.345)" fill="#010101"/>
      <path id="パス_478" data-name="パス 478" d="M624.465,689.789l-2.439.28c-2.332-1.493-1.948-3.475-1.006-5.559a1.672,1.672,0,0,0,1.567.541Z" transform="translate(22.131 24.003)" fill="#3a393b"/>
      <path id="パス_479" data-name="パス 479" d="M610.605,697.545a9.34,9.34,0,0,1,3.378,5.582C611.636,702,608.332,701.463,610.605,697.545Z" transform="translate(19.039 27.862)" fill="#fafafa"/>
      <path id="パス_480" data-name="パス 480" d="M606.139,685.033q-.181,1.258-.359,2.513a12.825,12.825,0,0,1-3.715-6.889l1.8-.1C606.184,681.255,607.094,682.67,606.139,685.033Z" transform="translate(16.736 22.831)" fill="#010100"/>
      <path id="パス_481" data-name="パス 481" d="M557.15,626.106l1.34-1.283a4.48,4.48,0,0,1,3.786,2.373c-.019.671-.038,1.349-.057,2.027C559.76,629.434,558.423,627.822,557.15,626.106Z" transform="translate(3.435 6.328)" fill="#30382c"/>
      <path id="パス_482" data-name="パス 482" d="M660.655,746.023q-.268,3.237-.538,6.474c-1.485.24-2.772.01-3.522-1.49l.364-.262.4.2C659.071,749.715,655.893,745.212,660.655,746.023Z" transform="translate(32.884 42.189)" fill="#807b6b"/>
      <path id="パス_483" data-name="パス 483" d="M601.237,652.491l.6,3.033q-.807,1.009-1.615,2.017a95.407,95.407,0,0,1-7.306-24.077c1.41-.914.372-3.094,2.009-3.891Q598.081,641.032,601.237,652.491Z" transform="translate(14.026 7.734)" fill="#101c0c"/>
      <path id="パス_484" data-name="パス 484" d="M595.413,632.719c-.258,1.51-.419,3.071-2.009,3.891-1.506-4.481-2.748-9-1.822-13.8,1.459-.875.561-3.024,2.088-3.862C595.9,623.331,594.963,628.113,595.413,632.719Z" transform="translate(13.537 4.588)" fill="#0a1407"/>
      <path id="パス_485" data-name="パス 485" d="M594.475,620.519c-.3,1.5-.456,3.081-2.087,3.863-1.628-2.535,1.437-6.035-1.7-8.26a1.891,1.891,0,0,1-1.979-.15,1.276,1.276,0,0,1,.49-1.756,4.8,4.8,0,0,0,1.523-.57C595.812,613.843,594.32,617.63,594.475,620.519Z" transform="translate(12.732 3.018)" fill="#020503"/>
      <path id="パス_486" data-name="パス 486" d="M647.512,719.081c5.286,3.6,7.971,10.164,14.312,12.57,3.169,5.6,9.389,8.9,11.485,15.292.783,1.919-.257,3.076-1.7,4.065-4.737.9-9.657,4.273-13.963-.988q-1.693-2.452-3.388-4.9c-2.722-2.236-6.155-3.844-6.9-7.825l-1.767-2.6c-2.435-1.519-4.456-3.593-6.878-5.129q-.966-2.7-1.936-5.409C639.039,719.681,645.474,724.028,647.512,719.081Z" transform="translate(27.016 34.24)" fill="#f1e2cc"/>
      <path id="パス_487" data-name="パス 487" d="M607.545,691.611a6.072,6.072,0,0,0-2.275-4.478c-1.335-3.134-2.242-6.54-5.438-8.481.748-2.977-1.855-4.8-2.517-7.289,1.465-4.373,1.7-9.187,4.671-13.021.728.118,1.457.235,2.188.355q1.569,3.107,3.137,6.207a19.536,19.536,0,0,0,6.784,6.6l1.76,2.584c.332,3.483,3.317,5.2,5.127,7.7q1.608,3.7,3.213,7.394c-3.708,4.139-9.8,2.18-13.854,5.439Q608.943,693.114,607.545,691.611Z" transform="translate(15.329 16.254)" fill="#e2f6df"/>
      <path id="パス_488" data-name="パス 488" d="M581.839,634.036l1.671,1.771c1.452.732,3.063,1.194,4.212,2.424a4.359,4.359,0,0,0,2.229,1.1,19.362,19.362,0,0,1,2.413-.363c2.2,3.5,1.885,7.521,1.61,12.145l-27.753-29.275C573.461,623.3,576.26,630.445,581.839,634.036Z" transform="translate(6.122 5.443)" fill="#10170b"/>
      <path id="パス_489" data-name="パス 489" d="M582.974,638.389l-3.414-3.459c3.794-2.893,1.055-6.729,1.458-10.112l1.813-.022c1.894,1.338,1.857,3.4,2.04,5.389q.863,1.18,1.724,2.36a28.548,28.548,0,0,1-.263,3.581C585.719,637.63,585.192,639.267,582.974,638.389Z" transform="translate(10.071 6.32)" fill="#92bc5c"/>
      <path id="パス_490" data-name="パス 490" d="M556.888,621.327c4.809-4.328,9.077-4.925,12.285,1.781Z" transform="translate(3.358 4.327)" fill="#242f15"/>
      <path id="パス_491" data-name="パス 491" d="M584.124,630.615c-1.927-1.323-1.681-3.472-2.04-5.389l1.71-1.883C583.254,625.8,587.11,628.05,584.124,630.615Z" transform="translate(10.819 5.889)" fill="#040503"/>
      <path id="パス_492" data-name="パス 492" d="M591.089,615.273a3.6,3.6,0,0,1,1.5.63c-3.115,2.415-6.707.906-10.076,1.233l-.4.17C584.151,612.4,587.911,615.121,591.089,615.273Z" transform="translate(10.829 3.237)" fill="#b2e86c"/>
      <path id="パス_493" data-name="パス 493" d="M583.725,632.787l1.637-2.013c1.962,1.4,1.746,3.522,1.82,5.544l-1.427,1.919C583.269,637.094,585.285,634.275,583.725,632.787Z" transform="translate(11.305 8.09)" fill="#040201"/>
      <path id="パス_494" data-name="パス 494" d="M652.881,743.133c4.474,4.875,9-3.339,13.478.052,1.812-.849,2.041.266,2.052,1.654-2.129,4.417-2.129,4.417-6.656,2.247-3.177.249-.727,4.264-3.293,4.923C658.494,747.86,653.135,747.1,652.881,743.133Z" transform="translate(31.783 41.126)" fill="#110e0d"/>
      <path id="パス_495" data-name="パス 495" d="M644.954,733.133a25.1,25.1,0,0,1,6.9,7.825C646.7,740.868,644.575,738.1,644.954,733.133Z" transform="translate(29.423 38.401)" fill="#1f1916"/>
      <path id="パス_496" data-name="パス 496" d="M638.274,727.226c4.54-1.3,4.809,3.121,6.878,5.129C640.319,734.053,640.333,729.249,638.274,727.226Z" transform="translate(27.458 36.582)" fill="#1f1b19"/>
      <path id="パス_497" data-name="パス 497" d="M616.851,678.186c-3.976-1.056-6.715-2.936-5.127-7.7A11.363,11.363,0,0,1,616.851,678.186Z" transform="translate(19.46 19.85)" fill="#2d332d"/>
      <path id="パス_498" data-name="パス 498" d="M611.811,670c-5.1.718-5.966-2.912-6.784-6.6C608.6,664.254,609.9,667.441,611.811,670Z" transform="translate(17.613 17.753)" fill="#1b1f1c"/>
      <path id="パス_499" data-name="パス 499" d="M665.332,745.4l-2.052-1.654,2.181-3.129c4.044-.5,7.365-.065,6.888,5.3C670.161,743.7,667.711,745.01,665.332,745.4Z" transform="translate(34.863 40.569)" fill="#322f2c"/>
      <path id="パス_500" data-name="パス 500" d="M591.4,615.448c-2.872,1.2-6.659-1.638-8.972,2.032a9.558,9.558,0,0,0-1.374-.081c1.012-5.832,5.659-2.621,8.668-3.484l1.693.255A2.625,2.625,0,0,0,591.4,615.448Z" transform="translate(10.515 3.062)" fill="#3f5228"/>
      <path id="パス_501" data-name="パス 501" d="M584.178,632.327l2.03,5.45c-2.6,2.6-2.875-.587-4.014-1.619C583.808,635.374,584.006,633.858,584.178,632.327Z" transform="translate(10.851 8.55)" fill="#8eb455"/>
    </g>
    <g id="さつまいも" transform="translate(54.554 2427.168) rotate(-34)" opacity="0.1">
      <path id="パス_1063" data-name="パス 1063" d="M6.381,50.624,3.849,48.739c-1-1.368-4.119-.089-3.83-3.066,3.96-1.276,4.129-5.046,3.957-7.884-.21-3.45,1.808-2.766,3.537-3.158a8.968,8.968,0,0,1,3.119-1.771c4.68-2.353,7.548-5.895,7.476-11.372a5.691,5.691,0,0,1,1.776-3.171l3.263-4.872a3.191,3.191,0,0,1,1.6-1.24c2.115-.494,3.8-1.847,5.674-2.848,2.451-1.227,5.058-2.035,7.6-3.03a31.358,31.358,0,0,1,9.587-2.114C56.1,3.054,64.475.96,73.122,1.03A30.177,30.177,0,0,0,87.767,1.3c.778-.294,1.572-.528,2.371-.754A8.085,8.085,0,0,1,95.064.29c4.859,2.339,9.781,4.6,13.162,9.1a60.063,60.063,0,0,1,4.264,8.269,35.9,35.9,0,0,1,2.14,16.649c-4.354,14.833-13.6,21.493-28.6,18.055-17.6-4.032-35.4-7.191-52.84-11.853-9.885-2.642-11.772-1.176-10.159,9,.357,2.256,1.741,4.538-.112,6.759C19.64,57.531,17.3,55.191,14.644,54.1,11.982,52.736,9.88,50.021,6.381,50.624Z" transform="translate(17.775 6.991)" fill="#e3a5e4"/>
      <path id="パス_1064" data-name="パス 1064" d="M2,44.967C2.639,40.29-.778,36.224.166,31.4c1.105-5.645,2.928-8.439,9.537-5.875,15.912,6.173,33,7.455,49.564,10.919,3.85.8,6.775,3.505,11.28,3.4,12.761-.29,18.225-3.834,22.512-16.592,1.932-1.63,1.481-4.149,2.285-6.206,1.8-6.4,3.193-13.021,9.334-17.036,4.095-.269,6.731,2.766,9.976,4.421,3.857,2.236,6.257,6.217,10.114,8.456,1.241,2.359,4.526,3.648,3.706,7.085a11.66,11.66,0,0,1,1.676,1.939c2.27,4.188,1.159,8.324-.194,12.457a55.284,55.284,0,0,1-5.059,7.231l-1.887,1.977c-4.091,3.222-7.912,6.778-12.149,9.823-3.171,1.9-6.03,4.554-10.141,4.128l.134.679-.6.361a42.772,42.772,0,0,1-13.191,2.1c-7.242-1.561-14.562-.587-21.845-.666-2.637.417-5.121-.706-7.707-.79-3.3.372-6.106-2.429-9.5-1.514q-.966-.243-1.934-.482c-7.791-2.757-15.874-3.4-24.055-3.349a20.919,20.919,0,0,1-6.664-.917C10.724,51.418,6,50.111,1.918,47.263A1.484,1.484,0,0,1,2,44.967Z" transform="translate(37.376 17.951)" fill="#b8b"/>
      <path id="パス_1065" data-name="パス 1065" d="M71.291,7.663l-3.734,1.67c-4.8-2.158-10.072-.314-14.954-1.751-2.393-.722-4.878-1.152-7.211-2.111-.26-.107-1.183-.788-.986,0,.174.7.778,1.311.454,2.172C37.728,10.7,29.9,9.77,22.562,11.621c-2.861.863-5.722,1.739-8.589,2.584-2.232.952-4.675,1.443-6.642,2.992-2.463.254-3.635,3.227-6.324,3.008-.333.072-.667.147-1,.227C-.217,14.1,3.967,10.517,8.814,8.251c27.468-12.84,54.972-9.146,82.351.536,2.181.772,4.429,1.865,5.106,4.523-2.6,2.2-5.371.913-8.106.44C82.213,12.63,76.726,10.217,71.291,7.663Z" transform="translate(40.915 0)" fill="#dba0dc"/>
      <path id="パス_1066" data-name="パス 1066" d="M18.3,6.737c-4.757,4.788-6.128,11.272-8.614,17.2-3.2-3.282-2.862-7.862-4.315-11.781C3.754,8.785,2.284,5.334,0,2.329.227.077,1.769-.126,3.551.048c3.691,1.1,7.286,2.629,11.239,2.617l1.769.043A6.183,6.183,0,0,1,18.3,6.737Z" transform="translate(124.31 12.25)" fill="#cd95cd"/>
      <path id="パス_1067" data-name="パス 1067" d="M33.658,1.09C38,2.164,42.24-1.348,46.608.8c-.882,4.236-4.378,2.021-6.7,2.709a160.359,160.359,0,0,1-30.03.031L0,2.736C-.059.319,2.207.815,3.428,0l7.459.99A119.6,119.6,0,0,1,33.658,1.09Z" transform="translate(91.019 75.728)" fill="#252126"/>
      <path id="パス_1068" data-name="パス 1068" d="M5.512,0Q15.836.688,26.159,1.382c2.121.147,4.084.537,3.992,3.349C20.113,3.548,9.833,4.7,0,1.577,1.437-.351,3.863,1.188,5.512,0Z" transform="translate(53.299 70.446)" fill="#1c151d"/>
      <path id="パス_1069" data-name="パス 1069" d="M0,12.947C.126,8.632,1.634,4.326.085,0c5.079,2.1,11.863-2.735,15.83,3.889L8.4,7.78C6.5,9.076,4.288,9.965,2.864,11.91,2.11,12.813,1.352,13.7,0,12.947Z" transform="translate(165.981 39.221)" fill="#d1cdd1"/>
      <path id="パス_1070" data-name="パス 1070" d="M16.047,5.18C11.569.632,4.545,6.447.216,1.29A.775.775,0,0,0,0,0C5.892.325,11.855-.454,17.64,1.569c1.556.544,2.884.79,2.137,2.642C19.083,5.928,17.45,5.434,16.047,5.18Z" transform="translate(165.85 37.93)" fill="#222421"/>
      <path id="パス_1071" data-name="パス 1071" d="M0,.031,30.029,0A66.874,66.874,0,0,1,0,.031Z" transform="translate(100.898 79.236)" fill="#3c333d"/>
      <path id="パス_1072" data-name="パス 1072" d="M.013,9.129C3.3,5.087,6.528.962,12.137,0,10.644,5.654,6.033,8.006,1.3,10.23Q-.132,10.6.013,9.129Z" transform="translate(148.248 61.533)" fill="#1e161e"/>
      <path id="パス_1073" data-name="パス 1073" d="M3.3.552q5.984,2.534,11.966,5.07c-.2,1.225-1.367,1.33-2.158,1.871A24.227,24.227,0,0,1,0,.968,2.22,2.22,0,0,1,3.3.552Z" transform="translate(37.046 64.042)" fill="#271926"/>
      <path id="パス_1074" data-name="パス 1074" d="M8.849,0C9.02,6.511,7.509,11.9,0,13.3.007,9.333,3.7,7.751,5.436,4.9q.076-.9.154-1.8A3.624,3.624,0,0,1,8.849,0Z" transform="translate(28.395 28.195)" fill="#f1e6f2"/>
      <path id="パス_1075" data-name="パス 1075" d="M3.853,2.129c1.112,3.348,6.3,1.74,7.168,6.142A12.08,12.08,0,0,1,.326,3.837C-.859,2.437,1.392.3,3.748,0Q5.147,1,3.853,2.129Z" transform="translate(0 45.279)" fill="#303030"/>
      <path id="パス_1076" data-name="パス 1076" d="M10.164,0q.645.551,1.29,1.1C8.379,4.628,5.246,7.977,0,4.824Z" transform="translate(138.097 70.661)" fill="#1d0f1e"/>
      <path id="パス_1077" data-name="パス 1077" d="M2.237,4.03C.505,3.183-.738,2.126.5,0,5.069,1.7,9.741,3.213,13.253,6.876c-.182,1.112-1.179,1.233-1.962,1.613Z" transform="translate(140.371 14.957)" fill="#261f28"/>
      <path id="パス_1078" data-name="パス 1078" d="M8.543,0C8.161,3.727,4.867,5.571,3.107,8.406L0,8.531C1.836,4.675,3.461.607,8.543,0Z" transform="translate(25.288 33.091)" fill="#2d2c2c"/>
      <path id="パス_1079" data-name="パス 1079" d="M0,1.613Q.98.805,1.962,0a21.93,21.93,0,0,1,8.522,9.011C4.855,9.568,3.814,3.625,0,1.613Z" transform="translate(151.662 21.832)" fill="#140d12"/>
      <path id="パス_1080" data-name="パス 1080" d="M9.064,1.853,5.638,4.588,0,1.78C3.055-2.462,6.039,2.264,9.064,1.853Z" transform="translate(85.382 73.876)" fill="#050206"/>
      <path id="パス_1081" data-name="パス 1081" d="M3.755,1.735Q4.763.869,5.77,0A1.2,1.2,0,0,1,7.059,1.39C5.487,4.663,4.438,8.41.045,9.123-.4,5.818,2.526,4.2,3.755,1.735Z" transform="translate(162.226 50.433)" fill="#28252a"/>
      <path id="パス_1082" data-name="パス 1082" d="M11.212,3.17C6.953,6.428,3.712,2.317,0,1.621.291.457,1.364.37,2.232,0L9.3,1.565Q10.254,2.369,11.212,3.17Z" transform="translate(127.887 11.744)" fill="#1f1820"/>
      <path id="パス_1083" data-name="パス 1083" d="M4.785.4c.6,1.865,3.842.434,3.829,3.067a37.262,37.262,0,0,1-5.13-.092C2.013,3.158-.646,3.3.144.949.773-.924,3.185.585,4.785.4Z" transform="translate(13.009 52.262)" fill="#040606"/>
      <path id="パス_1084" data-name="パス 1084" d="M10.088,4.9l-3.3.416C4.443,4.193,1.556,4.042,0,1.516.206.416,1.177.318,1.982,0L9.119,3.227Z" transform="translate(30.262 59.691)" fill="#090607"/>
      <path id="パス_1085" data-name="パス 1085" d="M8.086,3.478,6.1,4.994,0,1.4C3.774-2.106,5.623,1.882,8.086,3.478Z" transform="translate(24.157 56.213)" fill="#322932"/>
      <path id="パス_1086" data-name="パス 1086" d="M1.288,4.854,0,3.464C.637-.455,3.625,0,6.388.032,5.758,2.772,3.262,3.536,1.288,4.854Z" transform="translate(167.996 46.969)" fill="#040006"/>
      <path id="パス_1087" data-name="パス 1087" d="M.106,3.4Q.053,2.332,0,1.268c2.507.007,5.062-3.368,8.463.867Z" transform="translate(3.747 44.011)" fill="#0a0a0a"/>
      <path id="パス_1088" data-name="パス 1088" d="M4.029,2.887.769,5.979C-1.5,1.842,1.706,1.065,4.442,0Z" transform="translate(33.216 25.308)" fill="#010201"/>
      <path id="パス_1089" data-name="パス 1089" d="M0,1.871,2.158,0l6.5.782L3.141,2.359Z" transform="translate(50.157 69.664)" fill="#070606"/>
      <path id="パス_1090" data-name="パス 1090" d="M0,6.038C7.568,2.51,16.139,3.82,23.874,1.092,24.909-.59,26.553.206,27.974.083a2.766,2.766,0,0,1,1.685,1.411,3.893,3.893,0,0,1,.029,2.252l-.7.911L3.917,7.945C2.905,6.7.863,7.583,0,6.038Z" transform="translate(62.155 5.05)" fill="#2c212d"/>
      <path id="パス_1091" data-name="パス 1091" d="M17.914,4.081,15.682,5.7c-1.25.146-2.8-.262-3.084,1.668q.774.722.45,1.359c-.208.412-.407.619-.6.619C9.075,5.2,2.594,5.188,0,0Z" transform="translate(112.205 7.663)" fill="#161016"/>
      <path id="パス_1092" data-name="パス 1092" d="M1.259.616c3.789,3.315,2.895,8.24,4.259,12.389C4.4,14.726,6.95,19.05,1.959,18.03,2.363,12.08.942,6.336,0,.537L.666,0Z" transform="translate(128.477 23.179)" fill="#2d212f"/>
      <path id="パス_1093" data-name="パス 1093" d="M2.168,0,2.89,5.038C4.47,10.951,6.145,16.87,2.229,22.576-1.048,16.587,1.5,10.063.507,3.863.256,2.23-1.143.1,2.168,0Z" transform="translate(84.839 23.918)" fill="#060406"/>
      <path id="パス_1094" data-name="パス 1094" d="M0,2.456A8.99,8.99,0,0,0,.051.9Q.47-.529,1.705.309C6.755,2.4,13.57-3.065,17.461,3.991l-.8-.17-.667.48a2.642,2.642,0,0,1-2.613.174C8.991,3.319,4.088,5.58,0,2.456Z" transform="translate(91.011 5.343)" fill="#0a0509"/>
      <path id="パス_1095" data-name="パス 1095" d="M1.2.39c5.673-1.768,2.88,2.963,2.953,4.5s2.49,6.263-3.072,4.367C-.331,7.386,1.264,4.99,0,3.093.035,2.028-.231.831,1.2.39Z" transform="translate(106.224 39.415)" fill="#f2b1f2"/>
      <path id="パス_1096" data-name="パス 1096" d="M0,17.538.662,0q.754.964,1.51,1.927C3.262,7.292,4.02,12.649,1.73,17.922A4.709,4.709,0,0,1,0,17.538Z" transform="translate(87.067 28.956)" fill="#8b658b"/>
      <path id="パス_1097" data-name="パス 1097" d="M4.813,13.565C3.486,9.825,2.159,6.084,0,0,5.593,4.077,5.444,8.014,6.469,11.37,6.079,12.222,6,13.309,4.813,13.565Z" transform="translate(100.111 23.178)" fill="#1c171b"/>
      <path id="パス_1098" data-name="パス 1098" d="M5.189,8.236q-.832,1.93-1.661,3.863C2.436,8.359,1.346,4.617,0,0,5.027,1.865,4.633,5.3,5.189,8.236Z" transform="translate(81.818 15.682)" fill="#332331"/>
      <path id="パス_1099" data-name="パス 1099" d="M0,15.995Q.22,8,.441,0C3.039,5.407,3.74,10.761,0,15.995Z" transform="translate(88.798 30.883)" fill="#f3b1f5"/>
      <path id="パス_1100" data-name="パス 1100" d="M5.081,8.762,4.465,8.5l-.643.18C1.172,7.232,1.223,4.242,0,1.978Q.074.988.148,0C3.156,2.153,5.053,4.931,5.081,8.762Z" transform="translate(124.655 15.033)" fill="#000504"/>
      <path id="パス_1101" data-name="パス 1101" d="M8.516,0l3.917,1.907L2.086,3.938C.217,4.876-.11,3.879.028,2.3Z" transform="translate(53.639 11.088)" fill="#161014"/>
      <path id="パス_1102" data-name="パス 1102" d="M14.461.759q.832.16,1.648.385a17.646,17.646,0,0,1-15.86.064L0,.788A34.192,34.192,0,0,1,14.461.759Z" transform="translate(90.892 8.5)" fill="#f4b0f4"/>
      <path id="パス_1103" data-name="パス 1103" d="M6.163,0,8.221,1.64A15.165,15.165,0,0,1,.688,4.715q-.894-.628-.627-1.3t.557-.679Z" transform="translate(47.504 13.387)" fill="#251726"/>
      <path id="パス_1104" data-name="パス 1104" d="M1.967.63c3.7,1.642-.231,3.576.2,5.344C-1.741,5.252.927,2.415.444.593.97-.19,1.479-.217,1.967.63Z" transform="translate(105.135 42.693)" fill="#281a28"/>
      <path id="パス_1105" data-name="パス 1105" d="M2.177,8.776,1.417,8.7l-.763.036L0,2.2,1.656,0q.421,2.628.844,5.257Z" transform="translate(104.925 34.548)" fill="#070707"/>
      <path id="パス_1106" data-name="パス 1106" d="M6.2,0q.034.988.069,1.976c-2.289.106-3,4.916-6.269,2.1C1.458,1.8,3.727.743,6.2,0Z" transform="translate(41.923 16.125)" fill="#020004"/>
      <path id="パス_1107" data-name="パス 1107" d="M22.771,1.739,0,1.639A39.237,39.237,0,0,1,22.771,1.739Z" transform="translate(101.906 75.08)" fill="#e8aaeb"/>
      <path id="パス_1108" data-name="パス 1108" d="M8.792,1.588q-.83.291-1.654.595L2.1,2.078A5.214,5.214,0,0,1,.544,1.531C-.268.9-.191.127.911.155,3.6.224,6.517-.784,8.792,1.588Z" transform="translate(83.924 4.064)" fill="#f2b0f3"/>
      <path id="パス_1109" data-name="パス 1109" d="M14.461,1.683,0,1.712A4.254,4.254,0,0,0,.119.221C4.9.751,9.938-1.349,14.461,1.683Z" transform="translate(90.892 7.576)" fill="#5e4860"/>
    </g>
  </g>
</svg>
